<svg xmlns="http://www.w3.org/2000/svg" viewBox="0 0 3550 2000">
  <defs>
    <style>
      .b707da65-9d90-4d17-8468-fd12a151d832 {
        fill: #fff;
      }

      .a075ec67-88e4-4eea-86ff-83490810bb98 {
        fill: #355389;
      }

      .fabc9cf1-8b54-49d3-9ef6-34ba410f1c3d {
        fill: #86b1f2;
      }

      .bb8e8a53-745a-40ad-9ef8-6e2573c55988 {
        fill: #9bc1f9;
      }

      .abca196a-a980-4feb-b4c9-03e4f900a5fc {
        fill: #fae0b2;
      }

      .be3bdcd8-2869-468b-8f49-01ddc8ae693c {
        fill: #50bfa5;
      }

      .f4c5e47b-2cc9-45fc-ab55-4bd460f08b19, .fb62f281-fa55-418e-9490-6e835c701f67 {
        fill: #466eb6;
      }

      .b6bf5a90-6a57-44bf-9417-b905ac4811c0 {
        fill: #f47458;
      }

      .aa6bf786-7060-403c-8025-be5082efc687 {
        fill: #b75742;
      }

      .f4c5e47b-2cc9-45fc-ab55-4bd460f08b19 {
        opacity: 0.55;
      }

      .ac3c5e4a-fdd1-4ce3-a319-b02139effdf4 {
        fill: #96d9c9;
      }

      .f3817aa7-6726-4b4d-b2e2-ae256fc7c4e7 {
        fill: #f7cc7f;
      }

      .af756d9c-e4f2-4e97-91a1-7ab468620d28 {
        fill: #3c8f7c;
      }

      .a9766968-2865-449e-aa88-1b2ed1b859ab {
        fill: #f79c8d;
      }

      .b82991df-77f5-4258-9d46-4a9308d0cb84 {
        fill: #f48c7f;
      }

      .b5ad613d-bde2-427b-922f-007677f20352 {
        fill: #184655;
      }

      .ea1c0cd6-cc15-4ae6-89a1-88667406b3e4 {
        fill: #efefef;
      }

      .bb822a90-752d-4658-aadf-862120f7f957 {
        fill: #f7a491;
      }

      .f67bbad0-5354-4098-9b5e-a341d4c9d707 {
        fill: #13375b;
      }

      .e07127d2-d270-43eb-9944-01dfe2b7627c {
        fill: #f8a492;
      }

      .af5b611b-0049-424f-8219-9e91e513f1ee {
        fill: #fe875e;
      }
    </style>
  </defs>
  <title>1</title>
  <g id="e1f0d179-e8d3-4619-aba8-376085e92062" data-name="Layer 2">
    <g id="bebea6dc-5ec9-4cb1-9a67-be540a8f97c3" data-name="Layer 1">
      <rect class="b707da65-9d90-4d17-8468-fd12a151d832" width="3550" height="2000"/>
      <g>
        <rect class="a075ec67-88e4-4eea-86ff-83490810bb98" x="1193.9" y="1384.7" width="845.6" height="194.52"/>
        <g>
          <rect class="fabc9cf1-8b54-49d3-9ef6-34ba410f1c3d" x="784.9" y="883.9" width="6.3" height="8.92" transform="translate(1036.4 2049.7) rotate(-150.5)"/>
          <path class="bb8e8a53-745a-40ad-9ef8-6e2573c55988" d="M728.4,973.1l17.1,9.7a12.1,12.1,0,0,0,16.3-4.5l34.5-61a21.9,21.9,0,0,0-8.2-29.7h0a22,22,0,0,0-29.8,8.2l-34.5,61A12,12,0,0,0,728.4,973.1Z"/>
          <path class="fabc9cf1-8b54-49d3-9ef6-34ba410f1c3d" d="M757.2,898,795,919.4a3.5,3.5,0,0,0,4.8-1.3v-.2a3.5,3.5,0,0,0-1.3-4.8l-37.8-21.4A3.5,3.5,0,0,0,756,893v.2A3.5,3.5,0,0,0,757.2,898Z"/>
          <path class="abca196a-a980-4feb-b4c9-03e4f900a5fc" d="M788,877.5a3.4,3.4,0,0,0,4.8-1.4,3.5,3.5,0,0,0-1.3-4.8l-1.1-.4.6-1.1a4.1,4.1,0,0,1,5.6-1.6l3.8,2.2A4.1,4.1,0,0,1,802,876l-4.8,8.4a4.1,4.1,0,0,1-5.6,1.6l-3.8-2.2a4.1,4.1,0,0,1-1.6-5.6l.9-1.5A2.4,2.4,0,0,0,788,877.5Z"/>
          <path class="be3bdcd8-2869-468b-8f49-01ddc8ae693c" d="M795.1,919.5l-38-21.5c-4.9,8.8-27.8,49.1-33.1,58.4l38,21.5Z"/>
        </g>
        <path class="fabc9cf1-8b54-49d3-9ef6-34ba410f1c3d" d="M1983.5,1547.3S1830,1069.1,1812.9,960.9s64.5-85.7,64.5-85.7-97.2-249-51.2-305.7,111.1,59,111.1,59,14.9-217.5,85.1-222.2c97.4-6.4,80.2,241.8,80.2,241.8s19-112.1,72.2-89.8c80.4,33.6-20.2,267.4-20.2,267.4s46.6-86.9,84.2-40.4C2306.2,868.7,1983.5,1547.3,1983.5,1547.3Z"/>
        <g>
          <path class="fb62f281-fa55-418e-9490-6e835c701f67" d="M1968.9,1559.7s396-175.1,468.4-274.3-24.1-111.8-24.1-111.8,182-163.3,162.5-238.7-113.6-11.2-113.6-11.2,127.4-252.8,77.2-282.3c-93.6-55-246.5,212.9-246.5,212.9s36.7-118.4-30.1-119.1c-100.7-1.1-113.6,271.7-113.6,271.7s-4.8-105.2-67.4-75.5C1969.4,984.8,1968.9,1559.7,1968.9,1559.7Z"/>
          <path class="a075ec67-88e4-4eea-86ff-83490810bb98" d="M2081.7,931.4c63-28.9,67.4,75.5,67.4,75.5s12.9-272.8,113.6-271.7c66.8.7,30.1,119.1,30.1,119.1s152.9-267.9,246.5-212.9l-569,918.1C1967.6,1486,1976.2,979.8,2081.7,931.4Z"/>
        </g>
        <rect class="b6bf5a90-6a57-44bf-9417-b905ac4811c0" x="1313.3" y="1440.4" width="52.1" height="136.28"/>
        <rect class="b6bf5a90-6a57-44bf-9417-b905ac4811c0" x="1955.1" y="1434.1" width="57.6" height="119.33"/>
        <g>
          <g>
            <path class="a075ec67-88e4-4eea-86ff-83490810bb98" d="M1113.4,969.6a2.4,2.4,0,0,1,4.8-.6h0l11.7,95.7,19.6,6.8h0l9.2,68.8a2,2,0,0,1-1.7,2.2,1.9,1.9,0,0,1-2.1-1.7h0l-9-66.7-17.4-8.3-15.1-96.2Z"/>
            <path class="a075ec67-88e4-4eea-86ff-83490810bb98" d="M1095.2,875.6l-2.1,137.1a29.8,29.8,0,1,0,58.7-7.1l-35.1-132.7C1113.5,860.7,1095.4,862.9,1095.2,875.6Z"/>
            <path class="aa6bf786-7060-403c-8025-be5082efc687" d="M1185.1,1372c-11.7,0-22.4-15.1-23.8-33.8l-16-207.1,23.4-2.9,34.4,204.9a39.3,39.3,0,0,1,.6,4.8C1205.2,1356.7,1196.8,1371.9,1185.1,1372Z"/>
            <path class="f4c5e47b-2cc9-45fc-ab55-4bd460f08b19" d="M1110.4,884.3c-8.6,41-14.1,107.4-2.6,144.6a3.5,3.5,0,0,0,4.5,2.3,3.6,3.6,0,0,0,2.4-4.7C1102,991.5,1103.8,926.2,1110.4,884.3Z"/>
            <rect class="aa6bf786-7060-403c-8025-be5082efc687" x="1143.8" y="1126.1" width="25.4" height="5" transform="translate(2441.2 2108.6) rotate(173)"/>
          </g>
          <g>
            <g>
              <rect class="ac3c5e4a-fdd1-4ce3-a319-b02139effdf4" x="1227.7" y="939.4" width="47.1" height="445.37" transform="translate(7.1 -7.6) rotate(0.3)"/>
              <rect class="fabc9cf1-8b54-49d3-9ef6-34ba410f1c3d" x="1226.2" y="979.4" width="52.2" height="30.69" transform="translate(6.1 -7.6) rotate(0.3)"/>
              <rect class="fabc9cf1-8b54-49d3-9ef6-34ba410f1c3d" x="1226.4" y="944.2" width="52.2" height="30.69" transform="translate(5.8 -7.6) rotate(0.3)"/>
              <rect class="fabc9cf1-8b54-49d3-9ef6-34ba410f1c3d" x="1228.3" y="910.6" width="48.7" height="30.69" transform="translate(5.6 -7.6) rotate(0.3)"/>
              <polygon class="fabc9cf1-8b54-49d3-9ef6-34ba410f1c3d" points="1277.1 911.1 1228.4 910.9 1224.1 822 1282.6 822.3 1277.1 911.1"/>
              <polygon class="f3817aa7-6726-4b4d-b2e2-ae256fc7c4e7" points="1270.8 744 1269.6 778.4 1266.4 778.4 1265.4 743.9 1241.8 743.8 1239.4 795.8 1235 795.7 1232.8 743.7 1224.5 743.7 1224 822 1282.6 822.3 1283.1 744 1270.8 744"/>
              <polygon class="bb8e8a53-745a-40ad-9ef8-6e2573c55988" points="1231.2 829.7 1236.8 912.2 1237.7 933.6 1244.1 933.3 1246.2 908 1253.8 830.2 1231.2 829.7"/>
            </g>
            <g>
              <rect class="a075ec67-88e4-4eea-86ff-83490810bb98" x="1117.4" y="1127.8" width="47.1" height="306.1" transform="matrix(0.98, -0.18, 0.18, 0.98, -212.23, 226.7)"/>
              <rect class="fabc9cf1-8b54-49d3-9ef6-34ba410f1c3d" x="1094.1" y="1157.2" width="52.2" height="21.09" transform="translate(-192.2 221.1) rotate(-10.4)"/>
              <rect class="fabc9cf1-8b54-49d3-9ef6-34ba410f1c3d" x="1089.8" y="1133.4" width="52.2" height="21.09" transform="matrix(0.98, -0.18, 0.18, 0.98, -187.94, 219.91)"/>
              <rect class="fabc9cf1-8b54-49d3-9ef6-34ba410f1c3d" x="1087.4" y="1110.7" width="48.7" height="21.09" transform="translate(-183.9 218.8) rotate(-10.4)"/>
              <path class="fabc9cf1-8b54-49d3-9ef6-34ba410f1c3d" d="M1106.1,1042.5l-7.7,1.5,5.4,29.5a5.8,5.8,0,0,1-.1,11.3,5.8,5.8,0,0,1-6.7-4.6,5.9,5.9,0,0,1,2.9-6.1l-5.4-29.4-8,1.4-10.3,45.1v.2c3.5,1.7,7.5,6.2,10.7,12.1a34.9,34.9,0,0,1,3.9,11.7l.3.4,17.6-3.2,17.6-3.3v-.4a35.1,35.1,0,0,1-.4-12.3c.8-6.7,3.1-12.3,5.7-15.2v-.2Z"/>
            </g>
            <rect class="af756d9c-e4f2-4e97-91a1-7ab468620d28" x="1094.5" y="1334.9" width="200.2" height="249.4"/>
            <rect class="be3bdcd8-2869-468b-8f49-01ddc8ae693c" x="1079.3" y="1300.5" width="229.1" height="34.83"/>
          </g>
        </g>
        <g>
          <path class="a075ec67-88e4-4eea-86ff-83490810bb98" d="M1990.1,1571.5s90.1-168.5,134.8-196.6,46,15.1,46,15.1,76.3-74.2,107.2-62.6-.1,50.8-.1,50.8,111.7-46.5,122-23.1c19.3,43.6-99.8,100.8-99.8,100.8s51.4-11.6,48.9,18c-3.8,44.6-119,39.6-119,39.6s44,6.2,28.9,32.8C2231.9,1593.9,1990.1,1571.5,1990.1,1571.5Z"/>
          <path class="a075ec67-88e4-4eea-86ff-83490810bb98" d="M2259,1546.3c14.8-26.8-28.9-32.8-28.9-32.8s115.2,5,119-39.6c2.5-29.6-48.9-18-48.9-18s119.1-57.2,99.8-100.8l-409.8,215.8c11.5,1.5,48.3,4.9,91.2,6C2153.7,1578.7,2243.5,1574.4,2259,1546.3Z"/>
        </g>
        <path class="a9766968-2865-449e-aa88-1b2ed1b859ab" d="M2301.2,566l6.9-23.9-15.7-19.3a3.4,3.4,0,0,1,2.5-5.6l24.9-.8,13.4-20.9a3.4,3.4,0,0,1,6.1.7l8.5,23.4,24,6.4a3.4,3.4,0,0,1,1.3,6l-19.7,15.2,1.4,24.9a3.4,3.4,0,0,1-5.3,3l-20.6-14-23.2,9A3.4,3.4,0,0,1,2301.2,566Z"/>
        <polygon class="b82991df-77f5-4258-9d46-4a9308d0cb84" points="1116.3 591.2 1100 606.4 1072.7 582.8 1046.1 602.1 1022.7 587.8 1015.5 599.6 1046.7 618.7 1071.9 600.5 1100.4 625 1124.9 602.1 1116.3 591.2"/>
        <g>
          <path class="abca196a-a980-4feb-b4c9-03e4f900a5fc" d="M1544.9,574.3l-97.1,4.2a20.8,20.8,0,0,1-21.7-19.8l-2.3-54.7a20.8,20.8,0,0,1,19.8-21.7l97.1-4.2a20.8,20.8,0,0,1,21.7,19.9l2.3,54.7A20.8,20.8,0,0,1,1544.9,574.3Z"/>
          <polygon class="abca196a-a980-4feb-b4c9-03e4f900a5fc" points="1429.2 530.7 1390 574.9 1440.5 562.8 1429.2 530.7"/>
          <path class="b707da65-9d90-4d17-8468-fd12a151d832" d="M1466.1,522.8l12.5-.8s15-12.5,15.3-16.7-2.7-12.8-.4-14a8.2,8.2,0,0,1,11,3c2.6,3.8,1.4,18.4,2.9,19.3s8.1.3,13.3,0a9.5,9.5,0,0,1,8.5,4.5h0a4.9,4.9,0,0,1-.9,6.1l-2.7,2.5,2.4,2.8a5,5,0,0,1-.6,6.9l-2.1,1.8,1.5,1.6a4.8,4.8,0,0,1-.5,7.3l-1.8,1.5.3.5a4.9,4.9,0,0,1-1.3,6.5l-1.9,1.4-33.1,2.3a23.3,23.3,0,0,1-9.1-1.2l-11.8-1.2a2.6,2.6,0,0,1-2.3-2.4l-1.5-29A2.5,2.5,0,0,1,1466.1,522.8Z"/>
        </g>
        <g>
          <path class="abca196a-a980-4feb-b4c9-03e4f900a5fc" d="M2414.4,445.4l-97.2,4.2a20.8,20.8,0,0,1-21.6-19.9l-2.4-54.6a20.8,20.8,0,0,1,19.9-21.7l97.1-4.2a20.7,20.7,0,0,1,21.6,19.9l2.4,54.7A20.8,20.8,0,0,1,2414.4,445.4Z"/>
          <polygon class="abca196a-a980-4feb-b4c9-03e4f900a5fc" points="2298.6 401.7 2259.5 445.9 2309.9 433.8 2298.6 401.7"/>
        </g>
        <g>
          <path class="f3817aa7-6726-4b4d-b2e2-ae256fc7c4e7" d="M637.1,894A28.1,28.1,0,1,1,609,865.9,28.1,28.1,0,0,1,637.1,894Z"/>
          <path class="f3817aa7-6726-4b4d-b2e2-ae256fc7c4e7" d="M595,811.5c1.1,8.3,1.6,16.9,3.7,25s12.9,5.6,12.7-1.7c-.1-9-2.1-18-3.4-26.8-.5-3.6-5.1-5.6-8.3-4.7s-5.2,4.6-4.7,8.2Z"/>
          <path class="f3817aa7-6726-4b4d-b2e2-ae256fc7c4e7" d="M544.6,843c8.9,6.1,16.5,13.4,24.6,20.5,6.4,5.6,14.4-2.7,9.2-9.1-7.4-9.2-17.2-16.7-26.9-23.3-3-2.1-7.6-.6-9.4,2.4s-.6,7.4,2.5,9.5Z"/>
          <path class="f3817aa7-6726-4b4d-b2e2-ae256fc7c4e7" d="M558.8,894.4a4.9,4.9,0,0,0,1.6-6.5c-2.8-5.9-10.5-6.2-16.3-6.4a62.9,62.9,0,0,0-17.8,2.1c-8.5,2.3-4.9,15.5,3.7,13.3C546.5,892.5,552.2,898.8,558.8,894.4Z"/>
          <path class="f3817aa7-6726-4b4d-b2e2-ae256fc7c4e7" d="M566.2,946.6c9.7-12.3,14.7-15,13.3-21.8a5.5,5.5,0,0,0-5.3-4c-5,.2-7.4,4.1-10.4,7.6s-4.8,5.7-7.1,8.7-2.8,6.7,0,9.5,7.2,2.9,9.5,0Z"/>
          <path class="f3817aa7-6726-4b4d-b2e2-ae256fc7c4e7" d="M598.8,949.6c1,4.2-2.5,11.4,2.8,17.9,2.9,3.5,7.8,1,9.1-2.4s1.3-6.3,1.5-9.5a28.1,28.1,0,0,0-.4-9.6c-2-8.5-15-4.9-13,3.6Z"/>
          <path class="f3817aa7-6726-4b4d-b2e2-ae256fc7c4e7" d="M631.1,938.7c11.3,9.9,13.3,12.5,18,12.3,2.8-.1,6-2.5,5.6-5.6-.7-5.7-3.7-7.5-14.1-16.2-2.8-2.4-6.8-2.7-9.5,0s-2.8,7.1,0,9.5Z"/>
          <path class="f3817aa7-6726-4b4d-b2e2-ae256fc7c4e7" d="M679.6,901.8c7-2.6,5.4-11.6-1.7-12.5-4.1-.5-4.8,0-28.5,2.6-3.7.4-6.9,2.9-6.9,6.9s3.2,7.3,6.9,6.9C674.4,902.9,675.4,903.3,679.6,901.8Z"/>
          <path class="f3817aa7-6726-4b4d-b2e2-ae256fc7c4e7" d="M647.3,860.2c13.3-11.2,15.5-9.3,21-16.4,2.6-3.3-.9-9.2-5-8.7s-7.3,1.8-13.8,6.2a147.1,147.1,0,0,0-12,9.2c-2.8,2.4-2.5,7.3,0,9.7s6.9,2.5,9.8,0Z"/>
        </g>
        <g>
          <g>
            <path class="a075ec67-88e4-4eea-86ff-83490810bb98" d="M846.9,1586s-149.2-33.7-170.8-66.2,23.5-32.3,23.5-32.3-56.3-55-48.3-78,29.3-11.4,29.3-11.4-33.9-54.6-18.4-71.4c23.8-25.9,83.9,64.5,83.9,64.5s-9.5-37.6,12.5-36.3c33.1,2.1,38.2,87.7,38.2,87.7s4.8-29.4,17-22.5C849.1,1440.4,846.9,1586,846.9,1586Z"/>
            <path class="fb62f281-fa55-418e-9490-6e835c701f67" d="M662.2,1326.7c-15.5,16.8,18.4,71.4,18.4,71.4s-21.2-11.5-29.3,11.4,48.3,78,48.3,78-45.2-.2-23.5,32.3S846.9,1586,846.9,1586Z"/>
          </g>
          <path class="a075ec67-88e4-4eea-86ff-83490810bb98" d="M843,1585.9s-99.6,1.8-121.3-1.1-13.7-17.4-13.7-17.4-42.2,3.5-51.1-8.6,9.9-16.5,9.9-16.5-49.5-15.1-48.7-25.5c1.6-19.4,49.4-6.7,49.4-6.7s-14.3-9.2-7.6-18.1c10.1-13.5,44.6,11.9,44.6,11.9s-3.9-9.3,2.2-11.1C726.7,1487,843,1585.9,843,1585.9Z"/>
        </g>
        <g>
          <rect class="b6bf5a90-6a57-44bf-9417-b905ac4811c0" x="1271.2" y="601" width="607" height="853.73" rx="23.8"/>
          <rect class="abca196a-a980-4feb-b4c9-03e4f900a5fc" x="1294.1" y="601" width="621.9" height="853.73" rx="24"/>
          <rect class="b707da65-9d90-4d17-8468-fd12a151d832" x="1357" y="697.7" width="679.8" height="721.3"/>
          <path class="b6bf5a90-6a57-44bf-9417-b905ac4811c0" d="M1290.4,1414h111.6a0,0,0,0,1,0,0v40.6a0,0,0,0,1,0,0H1294.4a4,4,0,0,1-4-4V1414A0,0,0,0,1,1290.4,1414Z"/>
          <path class="b6bf5a90-6a57-44bf-9417-b905ac4811c0" d="M1379.4,1374.9h22.4a0,0,0,0,1,0,0v79.3a0,0,0,0,1,0,0h-40.6a0,0,0,0,1,0,0V1393A18.1,18.1,0,0,1,1379.4,1374.9Z"/>
          <rect class="f3817aa7-6726-4b4d-b2e2-ae256fc7c4e7" x="1391" y="1375" width="682.2" height="79.69"/>
          <path class="b6bf5a90-6a57-44bf-9417-b905ac4811c0" d="M1357,697.7l-.6,287.9s49.5,109.2,76.2,100.9-55.6-172.9-26.8-185.2,185.1,337.4,218.1,298.3-121.4-267.5-98.8-281.9,117.3,166.7,172.8,133.8-162.5-189.3-115.2-209.9,102.9,80.2,137.9,74.1-127.6-107-109.1-142,172.8,113.2,205.7,72-102.8-148.1-102.8-148.1Z"/>
        </g>
        <path class="b5ad613d-bde2-427b-922f-007677f20352" d="M3212.4,1582.8a5.9,5.9,0,0,0-5.7-6.1H665.3c-3.8,0-6.8,2.7-6.8,6.1s3,6.1,6.8,6.1H3206.7a6,6,0,0,0,5.7-6.1Z"/>
        <path class="f3817aa7-6726-4b4d-b2e2-ae256fc7c4e7" d="M686.9,650.5l-8.8-20.9-22.2-4.5a3.1,3.1,0,0,1-1.4-5.4l17.1-14.9-2.5-22.5a3.1,3.1,0,0,1,4.7-3L693.2,591l20.6-9.3a3.1,3.1,0,0,1,4.3,3.5L713,607.3,728.3,624a3.1,3.1,0,0,1-2,5.2l-22.6,1.9-11.2,19.7A3.1,3.1,0,0,1,686.9,650.5Z"/>
        <path class="fb62f281-fa55-418e-9490-6e835c701f67" d="M932.8,781l10.7-18-8.8-18.9a2.9,2.9,0,0,1,3.2-4l20.4,4.5,15.3-14.1a2.8,2.8,0,0,1,4.8,1.8l1.9,20.8,18.2,10.1a2.9,2.9,0,0,1-.2,5.2l-19.2,8.2-4,20.5a2.9,2.9,0,0,1-5,1.3l-13.8-15.6-20.7,2.5A2.9,2.9,0,0,1,932.8,781Z"/>
        <polygon class="b82991df-77f5-4258-9d46-4a9308d0cb84" points="2646.1 523.3 2641.1 498.2 2617.4 501.3 2611.4 476.9 2588.4 477.1 2580.9 459.5 2572 463.3 2582.1 486.8 2603.8 486.6 2610.1 512.1 2633.4 509 2637.9 531.7 2646.1 523.3"/>
        <polygon class="ac3c5e4a-fdd1-4ce3-a319-b02139effdf4" points="1110.9 426.1 1117.4 445.6 1138.4 448 1144.2 470.4 1167.2 466 1174.9 491.1 1196.6 489.7 1207.9 512.6 1199.3 516.9 1190.8 499.8 1167.9 501.3 1160.5 477.1 1137.1 481.6 1130.7 456.8 1110.2 454.5 1104.2 436.4 1090.4 437.7 1089.5 428.1 1110.9 426.1"/>
        <path class="b6bf5a90-6a57-44bf-9417-b905ac4811c0" d="M2128.5,505l10.1,16.7a2.6,2.6,0,0,0,4.6-.3l7.2-18.3,19.1-4.4a2.6,2.6,0,0,0,1-4.5l-15.1-12.4,1.7-19.6a2.6,2.6,0,0,0-4-2.4l-16.5,10.6-18-7.7a2.6,2.6,0,0,0-3.5,3l4.9,19-12.9,14.8a2.6,2.6,0,0,0,1.8,4.3Z"/>
        <g>
          <path class="f3817aa7-6726-4b4d-b2e2-ae256fc7c4e7" d="M2395.9,395.7a27.4,27.4,0,1,1-30.5-24A27.5,27.5,0,0,1,2395.9,395.7Z"/>
          <path class="ea1c0cd6-cc15-4ae6-89a1-88667406b3e4" d="M2354.6,405a14.7,14.7,0,0,0,29.1-3.5Z"/>
        </g>
        <g>
          <path class="af756d9c-e4f2-4e97-91a1-7ab468620d28" d="M2106.1,1066.6l48,34.3s85.8,29,94.4,44.2-7.8,14.4-25.9,12.3-84.1-17.6-84.1-17.6l-44.8-54.4Z"/>
          <path class="af756d9c-e4f2-4e97-91a1-7ab468620d28" d="M2043.6,1066.9a10.4,10.4,0,0,1-14.1,3.9l-82.1-46.5a10.4,10.4,0,0,1-4.9-11.9l61.6-210.9-52.3-29.6-33.1,54.4a10.3,10.3,0,0,1-14.2,3.5,10.4,10.4,0,0,1-3.5-14.2l38.3-63a10.3,10.3,0,0,1,14-3.6l68.1,38.5a10.3,10.3,0,0,1,4.8,11.9l-61.5,210.9,75,42.4A10.4,10.4,0,0,1,2043.6,1066.9Z"/>
          <path class="f3817aa7-6726-4b4d-b2e2-ae256fc7c4e7" d="M1961.7,835.3l-172.3,304.6a23.2,23.2,0,0,1-31.4,8.7l-57.5-32.5a23.1,23.1,0,0,1-8.6-31.4l172.3-304.6a23.2,23.2,0,0,1,31.4-8.7l57.4,32.5A23,23,0,0,1,1961.7,835.3Z"/>
          <path class="b6bf5a90-6a57-44bf-9417-b905ac4811c0" d="M1864.2,780.1l-172.3,304.6a23.1,23.1,0,0,0,8.6,31.4l18.7,10.5c15.8-4.1,31.5-8.1,42.7-27.8,22.1-39.1-17.9-61.8,4.2-100.8s62.2-16.4,84.3-55.5-18-61.8,4.1-100.8c20.7-36.5,56.9-19.2,79.6-48.5l-38.5-21.8A23.2,23.2,0,0,0,1864.2,780.1Z"/>
        </g>
        <g>
          <path class="b5ad613d-bde2-427b-922f-007677f20352" d="M1859.6,441l8-6,10.8-9.3a1.1,1.1,0,0,0,.2-1.4h0a1.2,1.2,0,0,0-1.4-.4l-12.8,6.5-8.8,6.2Z"/>
          <rect class="af756d9c-e4f2-4e97-91a1-7ab468620d28" x="1794.8" y="451.5" width="66.4" height="13.15" transform="translate(59.2 1108.3) rotate(-34.3)"/>
          <rect class="bb8e8a53-745a-40ad-9ef8-6e2573c55988" x="1790.3" y="476.3" width="19.4" height="2.96" transform="translate(2418 2234.6) rotate(-124.2)"/>
          <path class="a9766968-2865-449e-aa88-1b2ed1b859ab" d="M1790.9,475.7h5.1a3.7,3.7,0,0,1,3.7,3.7v8.8a0,0,0,0,1,0,0h-12.5a0,0,0,0,1,0,0v-8.8A3.7,3.7,0,0,1,1790.9,475.7Z" transform="translate(2404.4 2235.7) rotate(-124.3)"/>
          <path class="bb822a90-752d-4658-aadf-862120f7f957" d="M1865,430.1l-13.2,3.9s-.3,6.7,7.4,10.8l8.8-10.2Z"/>
        </g>
        <g>
          <rect class="f3817aa7-6726-4b4d-b2e2-ae256fc7c4e7" x="1214.6" y="1515.3" width="62.4" height="24.34" transform="translate(-318.3 2726.9) rotate(-88.3)"/>
          <path class="fabc9cf1-8b54-49d3-9ef6-34ba410f1c3d" d="M803.6,1436.2l43.2,3.1,45.7,3.3,85.9,6.2,85.9,6.2,145,9.7a26.4,26.4,0,0,1,25.4,27l-2.2,71.2a26.1,26.1,0,0,1-26.9,25.4l-17.8.6-127.5.4-86.1,1.1-86.2,1.1-45.8.6-43.3.5Z"/>
          <path class="bb8e8a53-745a-40ad-9ef8-6e2573c55988" d="M1054.5,1469.5c72,2.2,130.1,13.3,129.7,24.8s-59,19.2-131,17-130.1-13.2-129.7-24.8S982.5,1467.4,1054.5,1469.5Z"/>
          <polygon class="abca196a-a980-4feb-b4c9-03e4f900a5fc" points="1270.4 1467.4 1267.2 1576.7 1266.8 1588.9 1254.4 1588.9 1254.7 1576.7 1257.7 1467 1270.4 1467.4"/>
          <polygon class="bb8e8a53-745a-40ad-9ef8-6e2573c55988" points="803.6 1436.2 846.8 1439.3 842.2 1592.1 798.9 1592.6 803.6 1436.2"/>
          <polygon class="b6bf5a90-6a57-44bf-9417-b905ac4811c0" points="892.5 1442.6 978.4 1448.8 1059.9 1454.9 1060.3 1589.3 974.2 1590.4 888 1591.5 892.5 1442.6"/>
        </g>
        <g>
          <path class="aa6bf786-7060-403c-8025-be5082efc687" d="M874.7,1132.9c-7.3-8.2-31.3-42.4-51.5-27.1s-4.4,38.2-40.5,22.5c-33.4-14.5-50.6,22.2-33.1,41.3a23.6,23.6,0,0,0-6.3,9.1c-4.9,12.4,1.8,26.5,14.9,31.6,2.1.9,3.3,2.6,5.4,2.9,6,10,16.7,17.5,32.2,20.4,42.2,7.8,31.8-35.6,44.5-45.7s14.3,6.1,31.1,2.9,22.7-13,19.3-47.9l-1.4-9.2S882,1141.1,874.7,1132.9Z"/>
          <g>
            <g>
              <path class="bb822a90-752d-4658-aadf-862120f7f957" d="M1061.4,1561.7c7.9,15.2,18.1,33.1,19.9,33.5s4.3-.1,5.2.2c20.9-5.6,31.9-17.1,40.5-31.7-10.5,4.7-26.8,12.1-29.2,11.7s-5.4-9.1-15.1-28.8C1077.5,1549.7,1067.5,1551.8,1061.4,1561.7Z"/>
              <path class="f67bbad0-5354-4098-9b5e-a341d4c9d707" d="M1080.4,1594.5c3.1,6,10.6,15.4,11.9,14.6s53.9-40.8,54.7-51.4c.5-6.5-8-.9-21.1,4.7C1117.3,1577,1084,1597.2,1080.4,1594.5Z"/>
              <path class="a075ec67-88e4-4eea-86ff-83490810bb98" d="M1036.8,1406.5c16.8,4.6,55.2,159.7,55.2,159.7l-25.1,15.9s-51.6-119.5-62.5-122.8S1020.1,1401.8,1036.8,1406.5Z"/>
            </g>
            <path class="bb822a90-752d-4658-aadf-862120f7f957" d="M1002.8,1561.5c3.5,13.4.8,40,.1,42.9-.2.9.9,4.3,1.4,5.1,19.7,9.3,39.3,5,55.2-.5-11.1-3.3-25.8-7.6-28-8.8-5.8-3.2-2.2-21.1-3.8-40.8C1019.9,1567.3,1013.9,1557.9,1002.8,1561.5Z"/>
            <path class="a075ec67-88e4-4eea-86ff-83490810bb98" d="M1003,1604.2c-1.3,6.6-1.6,19.2-.1,19.3s67.7,4.5,75.2-3.1c4.4-4.6-5-7.2-18.6-11.4C1043.6,1614.5,1004,1608.5,1003,1604.2Z"/>
            <path class="fb62f281-fa55-418e-9490-6e835c701f67" d="M926.7,1367.4l3.6,21.1s111.6,4.3,113.6,26.2-13.5,165.8-13.5,165.8H999.8s-5.6-81.5-4.9-104.4,2.7-25.7,2.7-25.7-122-5.6-130.5-9.3-21.9-15.4-13.4-48.1,12.9-41.1,12.9-41.1Z"/>
            <path class="aa6bf786-7060-403c-8025-be5082efc687" d="M882.6,1125.6c-7.4,20.4,5.6,45.8,27.8,48.7,14.3,1.9,30.2-6.5,34.1-21.1,6.4-23.9-2.2-39.7-15.8-47.4-15.9-8.9-35.8.6-44.1,15.5A21.1,21.1,0,0,0,882.6,1125.6Z"/>
            <path class="abca196a-a980-4feb-b4c9-03e4f900a5fc" d="M940.8,1238.1a185.2,185.2,0,0,0-11.2-17.5c-5.7-9.8-20.6-14.8-20.6-14.8l-10.6.4c-.4.9-.7,1.6-1.1,1.8-2.1,1.6-14.4-.4-22.3,4.7-26.6,21.9-13.1,141.5-20,174.6l78,5.7s-4.5-90.4,12-108.9C956.4,1271.3,949,1252.6,940.8,1238.1Z"/>
            <path class="bb822a90-752d-4658-aadf-862120f7f957" d="M904.4,1170.1s-4.5,30.4-7.6,37.8,17.1,23.2,33.9,28-5.1-16.3-4.5-24.2,3.8-45.4,3.8-45.4Z"/>
            <path class="b6bf5a90-6a57-44bf-9417-b905ac4811c0" d="M929.1,1177.1c.5-6.2.9-10.8.9-10.8h0l-25.6,3.8h0l-1.4,8.6C913.4,1184.5,922.7,1182.6,929.1,1177.1Z"/>
            <path class="bb822a90-752d-4658-aadf-862120f7f957" d="M912.4,1114.4a29.1,29.1,0,0,0-16.3,11.4c-6.3,9.1-10.5,35.9,10,48.5s36.5-5.2,36.8-22.5S939.3,1111.4,912.4,1114.4Z"/>
            <path class="bb822a90-752d-4658-aadf-862120f7f957" d="M947.6,1146.4c-1.8,4.1-5.3,6.7-7.8,5.8s-3.2-5.2-1.4-9.4,5.2-6.7,7.8-5.8S949.3,1142.2,947.6,1146.4Z"/>
            <path class="bb822a90-752d-4658-aadf-862120f7f957" d="M895.7,1149.8c1.5,4.5.2,8.9-3,9.9s-6.9-1.9-8.4-6.4-.2-8.9,3-9.9S894.3,1145.3,895.7,1149.8Z"/>
            <path class="bb822a90-752d-4658-aadf-862120f7f957" d="M989.7,1386.1c-.7-2.5-12.4-15.4-16.5-15.9l-29.4-4.4-47.6-39.2c-.2-1.3-.6-56.7.3-72.3-14.2-2-22.3,1.1-36,4.1-2.9,31.1-2.6,78.7,13,88.5s65.6,30.1,65.6,30.1,16.7,6,19.7,6.2,8.8-.4,11.9.1c7.2,1.1,16.3,11.3,16.8,10.1s-.8-6-4.6-9.5-10.3-6.6-9.9-7.1C974.5,1374.7,990.8,1390.6,989.7,1386.1Z"/>
            <path class="f3817aa7-6726-4b4d-b2e2-ae256fc7c4e7" d="M902.6,1235.5c-.7-9.9-1.7-19.8-12-24.3a23.4,23.4,0,0,0-20.3,1.4c-7.1,4.2-10.1,12-11.2,19.6a290.4,290.4,0,0,0-3.2,52.7c13.2-4.8,30.8-1.7,45.1-1.6C904.6,1268.2,903.4,1248.4,902.6,1235.5Z"/>
            <path class="b5ad613d-bde2-427b-922f-007677f20352" d="M1051.2,1406.5l-122.4-13.8c-4.8-.6-9.3-5-10.1-9.2l-1-6.2,137.6,15.9Z"/>
            <path class="b5ad613d-bde2-427b-922f-007677f20352" d="M1051.8,1404.7l-9.8-2.9,38.2-124.8,2.8.9a7.1,7.1,0,0,1,5.1,8.8Z"/>
          </g>
        </g>
        <path class="abca196a-a980-4feb-b4c9-03e4f900a5fc" d="M1402.1,1529.5h632.8a46.4,46.4,0,0,1,46.4,46.4v.8a0,0,0,0,1,0,0H1355.6a0,0,0,0,1,0,0v-.8A46.4,46.4,0,0,1,1402.1,1529.5Z"/>
        <path class="b6bf5a90-6a57-44bf-9417-b905ac4811c0" d="M2549,753.7c-52-78.8-165-201.9-246.4-158.5-22.9,12.1-35.1,36.1-50.2,56.8-41.1,56.5-111.3,81.4-179.2,79.4C1966,728.3,1873,659.1,1790.9,592c-84.1-68.5-169.3-145.8-274.1-174-92.5-24.9-196.1-9.7-263,69.5s-89.8,186-157.9,263c-36.3,41.1-82.6,78.9-134.1,94.2-42.8,12.7-84.3,3.8-121.6-20.7-68-44.8-114.3-120.4-186.4-159-94.2-50.5-198-10.4-239.8,82.5-58.4,129.8,46.8,248.1,150.2,227.1,14-2.8,9-26.1-5.1-23.2-77,15.6-162.7-67.6-133.8-169.9,28.2-99.6,132-144.4,221.2-93.6,68.6,39,114.1,110.9,179.5,155,68.7,46.3,147.6,48.7,247.3-37.4,38.8-33.6,70.7-75.1,95.8-121.1,46.5-85.5,77-186.9,164.1-231.1,41.6-21.1,89-25.8,134.2-20.5,103.2,12,190.1,80.1,270,145.7,82.6,67.8,167.2,141,270.4,167.8,82.5,21.4,179.8,7.8,243.5-57.3,16.8-17.1,27.7-38.8,43.3-56.9,17.2-20.2,40.5-25.2,64.7-18.8,48.9,13,87,54.2,123.1,89.3a625.8,625.8,0,0,1,54.3,60.6c5.5,6.9,17.3-1.8,12.3-9.5Z"/>
        <g>
          <path class="b82991df-77f5-4258-9d46-4a9308d0cb84" d="M1178.1,865.3s-21.4,39.5-25.2,53.5,14.4,47.5,14.4,47.5l43-2.4s17.8-18.5,10.2-37.1S1183.6,900,1178.1,865.3Z"/>
          <polygon class="f3817aa7-6726-4b4d-b2e2-ae256fc7c4e7" points="1231.1 1300.5 1216.8 1044.3 1169.8 1046.9 1183.9 1300.5 1231.1 1300.5"/>
          <polygon class="fabc9cf1-8b54-49d3-9ef6-34ba410f1c3d" points="1167.3 966.3 1210.4 963.9 1219.4 1047.6 1167.6 1050.4 1167.3 966.3"/>
          <polygon class="bb8e8a53-745a-40ad-9ef8-6e2573c55988" points="1193.5 1041.6 1185 985.4 1183.3 970.7 1177.7 971.3 1176.9 988.8 1173.6 1042.5 1193.5 1041.6"/>
        </g>
        <g>
          <path class="a9766968-2865-449e-aa88-1b2ed1b859ab" d="M2310.9,1599.7c-8.2,4.8-22.1,6-22.1,6l52.8,3.8-1-9.3s-.2-14.6-9.1-25.9-56.7-54.6-56.7-54.6l-23.3,10.9s49.4,39.1,62.4,58C2316.9,1593,2312.4,1598.8,2310.9,1599.7Z"/>
          <path class="a9766968-2865-449e-aa88-1b2ed1b859ab" d="M2429.2,1599.7c-8.3,4.8-24.6,8.2-24.6,8.2l53.7.4.6-8.1s-.2-14.6-9.2-25.9-56.6-54.6-56.6-54.6l-23.4,10.9s52.9,40.9,65.9,59.7C2438.6,1594.7,2430.7,1598.8,2429.2,1599.7Z"/>
          <g>
            <path class="f3817aa7-6726-4b4d-b2e2-ae256fc7c4e7" d="M2239.6,1131l-11.2-4-21.8,10.1s-7.8,9.4-13.2,28.3-3.5,129.8,5.6,148S2239.6,1131,2239.6,1131Z"/>
            <path class="aa6bf786-7060-403c-8025-be5082efc687" d="M2281.6,1287.8s26.9,53.5,32.5,67.8l36.6,91.8,108.1,133.7s-21.3,5.1-34.1,3.2c0,0-119-91-128-104.9-13.7-21.1-81.4-142.6-81.4-142.6l7.9-26.6Z"/>
            <path class="b6bf5a90-6a57-44bf-9417-b905ac4811c0" d="M2216.5,1287.2l.4,45.6s-20.9,141.9-17.1,150.7c9.2,21.6,111.7,103,111.7,103l28.2-3.8-81.8-113.3,26.5-70.9c7.7-18.3,20-50.9,19.5-70.8-.3-17-34.1-56.6-34.1-56.6Z"/>
            <path class="be3bdcd8-2869-468b-8f49-01ddc8ae693c" d="M2257.8,1354.6c26.9-6.1,48.6-15.5,50.8-23,1-3.4-14-37.4-25-82.9-3.6-14.8-2.9-28.8-8.7-80.8-1.2-11-5.8-34.1-22.8-40-6-2.1-9.4-1.9-9.4-1.9s-21.7.2-31.6,5.7c-2.4,3.3-11.5,21.4-13.9,70.7-1.1,21.5-5.4,90.7-4.5,101.9.2,1.7.3,3.3.5,4.8C2197.1,1339,2228.5,1361.3,2257.8,1354.6Z"/>
            <path class="bb822a90-752d-4658-aadf-862120f7f957" d="M2210.4,1165.4h.1c10.9-1.2,40-37.8,40-37.8l-18.6-26.4s-23.2,1.6-18.3,9.2,5.8,28.8,5.8,28.8l-.3.8C2217.3,1143.7,2211.7,1154.7,2210.4,1165.4Z"/>
            <path class="b6bf5a90-6a57-44bf-9417-b905ac4811c0" d="M2232.7,1103.2a.8.8,0,0,0,.2-.4l-1-1.6s-23.2,1.6-18.3,9.2a20,20,0,0,1,2.4,5.7A32.3,32.3,0,0,0,2232.7,1103.2Z"/>
            <g>
              <path class="bb822a90-752d-4658-aadf-862120f7f957" d="M2229.3,1054c.7-.4,12.4,34.2,5.2,45.7s-24.5,18.3-32.4,11.8-15.8-45.3-3.5-58.2S2229.3,1054,2229.3,1054Z"/>
              <path class="f3817aa7-6726-4b4d-b2e2-ae256fc7c4e7" d="M2205.6,1034.4c11.4.1,30.1,7.6,39.4,17.8,11.3,12.4,8,29.4-.5,39s-6.6,18.5-6.6,18.5-18.7-5.3-19.7-19.1c-.4-5.7,2.4-9-.6-12.8s-3.1-10.4-4.6-16.5c0,0-10.8-9.2-16.6-4.9C2194.4,1057.9,2190.9,1034.3,2205.6,1034.4Z"/>
              <path class="bb822a90-752d-4658-aadf-862120f7f957" d="M2215.2,1079.7c.8,4.4,3.5,7.5,6,7.1s3.9-4.4,3.2-8.7-3.5-7.5-6-7.1S2214.4,1075.4,2215.2,1079.7Z"/>
            </g>
          </g>
          <path class="b6bf5a90-6a57-44bf-9417-b905ac4811c0" d="M2210.3,1140.9l-17.4,30.7a17.6,17.6,0,0,1-24,6.7l-176.4-99.8a17.7,17.7,0,0,1-6.6-24.1l17.3-30.7a17.7,17.7,0,0,1,24.1-6.7l176.3,99.8A17.7,17.7,0,0,1,2210.3,1140.9Z"/>
          <path class="e07127d2-d270-43eb-9944-01dfe2b7627c" d="M2040.1,1105.4s1.4,9.6,6,14.6,19.5,2.2,21.8,2.9,14.9,13.2,14.9,13.2l11.4-13.5s-14.9-8.2-16.5-13.7-10.8-11-13.8-11,.8,6.4,3.6,8.7-5.5,5.1-9.7,4.8S2040.1,1105.4,2040.1,1105.4Z"/>
          <path class="ac3c5e4a-fdd1-4ce3-a319-b02139effdf4" d="M2079.1,1136.1l15.6-17.8,55.2,39.9,88.7-28.2,8.7-2.4c25.6-3.8,28.4,30.4,24.1,36.8-10.1,14.9-89.6,41.7-120.7,36.7C2125,1196.9,2079.1,1136.1,2079.1,1136.1Z"/>
        </g>
        <g>
          <path class="e07127d2-d270-43eb-9944-01dfe2b7627c" d="M1333.4,1114.6a19.9,19.9,0,0,0,2.1,5.6c6.2,12,20.5,29.1,20.5,29.1l11.1-26.7s-1.8-8.3-4.9-20.3C1351.5,1105.3,1341.3,1107,1333.4,1114.6Z"/>
          <path class="f67bbad0-5354-4098-9b5e-a341d4c9d707" d="M1396.9,1091.5s-61.8,28.4-63.8,27.9-25.4-43.4-25.6-83.8c-.2-18.7,18-41.2,38.3-36.8,10.2,2.3,10.1,5.3,25.2,28.7S1396.9,1091.5,1396.9,1091.5Z"/>
          <path class="bb822a90-752d-4658-aadf-862120f7f957" d="M1449.7,1601.2l-1.4,25.9c-.6,3.3-2.7,11.5-2.7,14.5,0,11.2,50-9.6,38.8-14.6-1-.4-6.3-3.8-6.7-7.7-.5-5.9-1.8-17.8-1.8-17.8Z"/>
          <path class="b5ad613d-bde2-427b-922f-007677f20352" d="M1484.3,1626.9s-11.8,3.5-17.8,4.3-13.9-6.4-18.2-4.4-4.5,21.5-4.5,21.5,63,5.5,80.7-.2C1531.5,1645.9,1508.3,1634.9,1484.3,1626.9Z"/>
          <path class="bb822a90-752d-4658-aadf-862120f7f957" d="M1347.4,1601.2s-1.4,25.9-1.5,25.9c-.5,3.3-2.6,11.5-2.6,14.5,0,11.2,50-9.6,38.8-14.6-1-.4-7.9-6.4-8.3-10.2-.5-5.9-.2-15.3-.2-15.3Z"/>
          <path class="b5ad613d-bde2-427b-922f-007677f20352" d="M1382,1626.9s-11.8,3.5-17.8,4.3-13.9-6.4-18.2-4.4-4.9,21.5-4.9,21.5,63.3,6.4,81.1-.2C1429.1,1645.6,1406,1634.9,1382,1626.9Z"/>
          <g>
            <path class="bb822a90-752d-4658-aadf-862120f7f957" d="M1362.7,1129l44.1-65.9a28.7,28.7,0,0,1,1.2-3.5c2.2-6.6,6.8-20.2,10.8-33.7h.1c1.2-4.8,3.9-13,6.5-21s6.4-19.9,6.6-21.7-.4-.9-.6-1.7c-1.6-4.5-3.8-15.1-4.6-19.8-.5-2.9-1-10.1,2.3-10.1,5.2,0,2.7,7.2,5.1,11.6a121.5,121.5,0,0,0,3.6-14.9l.8-14c.2-1-.9-8.8,2.8-8.8h.1c3.3.3,3.2,8.5,4.6,22.4.4-1.6.8-3.5,1.2-5.3a44.7,44.7,0,0,1,1.1-7.3c-.7-3.9-.3-10,3.6-9.4,1.9.3,1.7,8.8,1.7,8.8s-.1,10.2,0,11.9c.3-3,1.9-15.9,4.9-15.9s2.7,3.5,2.7,6.2-1.6,15.6-1.7,17.3c1.2-2.2,2.6-14.5,3.7-14.5,4.9,0,3.2,17.5,1.4,22.1a16.5,16.5,0,0,0-.6,2.4c-.6,3.1-1.6,8.4-4.2,13.1s-7.3,14.5-7.9,15.9-2,12.8-3.9,25.4c-.7,5.4-1.6,11.3-2.5,17.5h-.1c-.1,1.3-1.1,5.5-4.5,21.3-4.8,21.7-5.3,22.6-5.5,23-2.1,3.9-49.6,72.8-51.6,75.7l-1.2,1.7Z"/>
            <path class="b6bf5a90-6a57-44bf-9417-b905ac4811c0" d="M1444.6,975.4s-3.5-9.8-9.9-9.8a6.8,6.8,0,0,1,6.6,1.2C1444.4,969.4,1444.6,975.4,1444.6,975.4Z"/>
          </g>
          <g>
            <path class="bb822a90-752d-4658-aadf-862120f7f957" d="M1352.1,956.5l-5.7,38.3s21.6,18.5,34.2,14.6c10.6-3.3,3.3-18,3.3-18s-5.6-20.4-3.9-31.1S1352.1,956.5,1352.1,956.5Z"/>
            <path class="af5b611b-0049-424f-8219-9e91e513f1ee" d="M1356.1,968.1c5.5,2.7,16.2,6.5,24.5,7.4-.8-5.4-1.3-11.1-.6-15.2s-5.1-6.2-11.7-6c-8.6.8-16.2,2.2-16.2,2.2l-1.1,7.4A17.8,17.8,0,0,0,1356.1,968.1Z"/>
            <path class="bb822a90-752d-4658-aadf-862120f7f957" d="M1324.8,912.4c-.9,0,8.5,42.7,23.1,50.1s36.4,3.5,40.5-8-12-56.3-32.5-61.9S1324.8,912.4,1324.8,912.4Z"/>
            <path class="f67bbad0-5354-4098-9b5e-a341d4c9d707" d="M1341.7,873.1a47.9,47.9,0,0,0-18.8,22.2c-5.5,2.8-12.1,8.8-15.3,24.9-3.9,19.9,10,35.2,24.7,39.8s17.2,15,17.2,15l1.5-11.2s-3.3-9.8-8.2-14.6,2.3-12,3-17.8-2.6-13.2-2-20.5c0,0,8.2-13.2,16.3-16.5C1373.9,888.8,1356.7,863.9,1341.7,873.1Z"/>
            <path class="bb822a90-752d-4658-aadf-862120f7f957" d="M1347.9,938.8c1.9,5,1.1,9.9-1.7,11s-6.8-2-8.7-7-1.1-9.8,1.7-10.9S1346,933.9,1347.9,938.8Z"/>
          </g>
          <path class="e07127d2-d270-43eb-9944-01dfe2b7627c" d="M1402.3,1130.1l84.9-14.8s-9.6-26-13.1-26-64.2,28.3-64.2,28.3L1405,1128Z"/>
          <path class="af756d9c-e4f2-4e97-91a1-7ab468620d28" d="M1358.7,1192.2s-8.4,43.8-5,76.9,3.8,151,3.8,151l-13.2,188.5,31.2.7s37.1-188.4,36.4-183.6,12.5-132.6,12.5-132.6l-44.2-105Z"/>
          <path class="be3bdcd8-2869-468b-8f49-01ddc8ae693c" d="M1367,1190.2s-5.5,39.3,1.4,56.6,59.3,186.7,60,200.6,18.1,166.5,18.1,166.5l36.3-1.1,7.9-169.8-16.5-213.4-16-54Z"/>
          <path class="bb822a90-752d-4658-aadf-862120f7f957" d="M1346.4,994.8s9,6.3,17.3,5.6,20.2-9,20.2-9l-1.6-5.9s-21.7-3.4-22.2-3S1346.4,994.8,1346.4,994.8Z"/>
          <path class="e07127d2-d270-43eb-9944-01dfe2b7627c" d="M1442,1088s32.1,32.4,46.6,26.9,20.5-24.5-14.9-52.1C1442.1,1038.1,1442,1088,1442,1088Z"/>
          <path class="a075ec67-88e4-4eea-86ff-83490810bb98" d="M1463.8,1128c-4.8-27.7-39.4-114-42.2-129.9-1.3-7.7-20-7.9-37.8-6.9s-37.4,3.6-37.4,3.6-16.6,2.9-23.9,10.2-9.3,27.6,1.2,66c8.3,30.3,18.6,46.9,23.7,69,1,7.4,1.9,14.7,3.1,23.3,1.9,33,0,76.6,0,76.6s90.5,20,124.3-10.4C1474.8,1229.5,1468.6,1156.4,1463.8,1128Z"/>
          <path class="f67bbad0-5354-4098-9b5e-a341d4c9d707" d="M1486.8,1068.4s-35.5,31.3-37.6,31.3-50.6-38.8-62-70.6c-6.3-17.6,6.9-37.3,22-37.2,10.4,0,15.1,2.9,35.8,21.6S1486.8,1068.4,1486.8,1068.4Z"/>
        </g>
        <g>
          <g>
            <path class="e07127d2-d270-43eb-9944-01dfe2b7627c" d="M2691.6,874.1c-3.8,11.3-5.5,10.2-5.9,11.6s5.7,25.1,5.7,25.1,17.9,69,19,72.7l45.3,57.3-21.1,31.1s-47.7-63.6-49.6-67.4-15.7-99.9-17.1-108.3c0,0-5.4-9.4-8.5-15.4s-3.6-13.2-4.3-15A61.4,61.4,0,0,1,2653,851c-.2-7.1,3.2-.4,3.2-.4s2.6,13.1,3.6,12.7-1.1-7.4-1.4-15.2c-.1-2.1-.2-4.1-.2-5.9-.1-4.8,2.7-6.3,3.6-1.3a48.4,48.4,0,0,1,.8,6.9c.1,2.4.9,4.5,1.2,6.5a53.6,53.6,0,0,0,1.2,6.6c.2-.2.8.5.8-1.6s-1.2-8.1-1-11.9c.2-2.2.2-6.7.2-6.7s1.3-6.9,1.8-6.9c2.2-.3,2.6,4.6,2,7.5s.4,6.8.4,6.8,1.7,9.8,3.1,9.5.2-6.2.7-12.2,1.9-11.2,3-11.2,1.9,6.1,1.9,6.1-.1,4.4-.1,5.9.7,6.9.7,6.9,2.3,15.8,3.5,15.5,4.1-2,4.3-3.2-1.9-6.9-1.7-8.1,1.9-1.3,3.3-1.2,4,9.9,4,9.9S2692.7,870.9,2691.6,874.1Z"/>
            <path class="b6bf5a90-6a57-44bf-9417-b905ac4811c0" d="M2681.9,868.6a12,12,0,0,0-6.1,2.8c-3,2.5-3.5,10.3-3.5,10.3s-1.4-6.5-.5-10.1S2678.6,867.1,2681.9,868.6Z"/>
          </g>
          <g>
            <polygon class="a075ec67-88e4-4eea-86ff-83490810bb98" points="2661.3 721.1 2632.2 857.4 2919 937.7 2955.6 766 2661.3 721.1"/>
            <path class="fabc9cf1-8b54-49d3-9ef6-34ba410f1c3d" d="M2603,819.9l29.2,37.5,29.1-136.3-36,13.8a42,42,0,0,0-25.9,30.3l-4.3,20.4A41.5,41.5,0,0,0,2603,819.9Z"/>
            <rect class="fabc9cf1-8b54-49d3-9ef6-34ba410f1c3d" x="2564.7" y="751.4" width="39.3" height="41.76" transform="translate(1290 3138.8) rotate(-78)"/>
            <path class="a075ec67-88e4-4eea-86ff-83490810bb98" d="M2568.1,748.7c4.8,1,6.9,10.4,4.6,21.1s-8,18.4-12.8,17.4-6.9-10.5-4.6-21.1S2563.3,747.6,2568.1,748.7Z"/>
            <path class="fabc9cf1-8b54-49d3-9ef6-34ba410f1c3d" d="M3022.7,779.3l-37.1,173.6a14.9,14.9,0,0,1-17.7,11.5l-37.6-8a14.9,14.9,0,0,1-11.5-17.8l37-173.6a14.9,14.9,0,0,1,17.7-11.5l37.6,8A15,15,0,0,1,3022.7,779.3Z"/>
            <polygon class="b6bf5a90-6a57-44bf-9417-b905ac4811c0" points="2901 932.6 2937.1 763.1 2737.1 732.6 2706 878.1 2901 932.6"/>
          </g>
          <g>
            <g>
              <path class="bb822a90-752d-4658-aadf-862120f7f957" d="M2924.8,845.6s-2.2-10.2-3.1-13-5.6-8.9-6.3-8-.5,3.4.3,4.7,3.2,9,3.2,9l.6,10.6s-1.2-8.3-2.1-10.9-4.6-8.5-4.8-8.7l-4.2-4.1a1.2,1.2,0,0,0-2,.5,2.8,2.8,0,0,0-.1.9c.2,1.8,1.7,3.9,2.7,5.2a34.2,34.2,0,0,1,3.8,7.9c.7,2.3,1.3,9.8.8,9.8s-1.3-6.6-2.1-8.6a29.9,29.9,0,0,0-4.7-6.5c-1.4-1.6-5.4-5-7.1-5s2.7,5.8,3,6.3l3.9,6s1.9,8.2.9,8.2-10.1-16.2-10.6-13.4,5.1,12.3,5.6,14.1,2.3,15.6,3.3,25c.3,3,2.2,5.1,1.9,6.7-1.6,6.5-22.3,93.1-22.3,93.1s-17.3,25.2-22.3,31.7-16.8,24.3-16.8,24.3l29.1,17.4,41.6-68.1s8.8-107.9,9-107.9Z"/>
              <path class="bb822a90-752d-4658-aadf-862120f7f957" d="M2928.9,846.1l-.3.3a6.1,6.1,0,0,0-2.4,4.9,15.6,15.6,0,0,1-2,6.8l-1.1,12,2.9,2.8S2932.2,847.7,2928.9,846.1Z"/>
              <path class="bb822a90-752d-4658-aadf-862120f7f957" d="M2632.6,1428.8c-2.6,16-2.5,31.8-2.6,33.6s.5,7.7.6,8.6c-14.1,7.2-22.7,7.9-37.8,11.3,3.8-6.8,11.2-6.3,12.2-9.2s.5-17-2.3-39.1C2613.1,1436.5,2622.3,1431.5,2632.6,1428.8Z"/>
              <path class="bb822a90-752d-4658-aadf-862120f7f957" d="M2753.4,1475.6a152.1,152.1,0,0,0,12.1,28.6c.4.7,4.2,3.3,4.7,4-9.5,12.5-12.4,32.4-24.3,41.9.3-7.8,4.5-22.6,4.1-25.6s-7.3-15.5-19.8-34.3C2740.7,1488.1,2745.3,1482.4,2753.4,1475.6Z"/>
              <path class="fb62f281-fa55-418e-9490-6e835c701f67" d="M2762.8,1509.8c1.1-3.5,5.6-6.2,9.1-4.4s8.1,3.7,11.6,5.6,4.5,5,4.4,5.7-34.4,55.3-48.1,58.1c-5.6,1.2,3.7-43.8,9.5-48.6S2757.6,1525.7,2762.8,1509.8Z"/>
              <path class="fb62f281-fa55-418e-9490-6e835c701f67" d="M2626.9,1467.3c3.4-1.6,8.5-.4,9.6,3.2s3,8.2,4,12-.6,6.5-1.1,6.9-71.7,10.3-76.5,7.2,34.7-28,42.4-27.2S2611.5,1474.8,2626.9,1467.3Z"/>
              <path class="aa6bf786-7060-403c-8025-be5082efc687" d="M2748.9,1215.2l72.4,22.5-90.7,68.6-88,15.9s-6.8,81.5-7.3,113.9c-9.1,3.8-25.9,8.5-35.3,7.4-6.5-45.1-13.3-138.1-5.2-152.3C2601.7,1278.8,2748.9,1215.2,2748.9,1215.2Z"/>
              <path class="b6bf5a90-6a57-44bf-9417-b905ac4811c0" d="M2767.4,1225.9c3.8-7.1,4.4-21.4,4.4-21.4l46.3,32.1,13.8,8.1s2.8,33.9-14.9,54.2-100.9,75.2-100.9,75.2,29.5,76.2,43.2,104.8c-6.9,7.8-18.8,17.4-28.8,20.9-12.6-20.5-80.8-114.3-77.6-135.2C2655.2,1349.3,2763.7,1233,2767.4,1225.9Z"/>
              <path class="fb62f281-fa55-418e-9490-6e835c701f67" d="M2850.4,1018.6s-26.7,29.7-41.9,36c-3.3,1.3-11.9.8-14.7,1-15.3.8-54.8-36.7-54.8-36.7s-21.4,28.9-21.3,33.1,24.6,28,26.1,37.1c4.8,28.2-3,127.3-3,127.3,21.1,16.4,92.7,30.4,92.7,30.4s15.4-152.8,16.7-153.9c5.3-4.6,30.5-42.4,31.5-46.8C2883.5,1038.2,2850.4,1018.6,2850.4,1018.6Z"/>
            </g>
            <path class="bb822a90-752d-4658-aadf-862120f7f957" d="M2789.3,1042.6l-3.6,14.6s-.8,12.7,5.1,13.8,17.7-9.2,17.7-9.2l6.1-41.2Z"/>
            <path class="bb822a90-752d-4658-aadf-862120f7f957" d="M2789.3,1042.6l-3.6,14.6s-.8,12.7,5.1,13.8,18.1-11.6,18.1-11.6l5.7-38.8Z"/>
            <path class="b6bf5a90-6a57-44bf-9417-b905ac4811c0" d="M2814.5,1020.8l-25.2,21.8-2.7,10.9C2796.3,1051.2,2810,1040.6,2814.5,1020.8Z"/>
            <path class="bb822a90-752d-4658-aadf-862120f7f957" d="M2789.2,983c-6.1,0-11.6,4.2-13.7,10.3a121,121,0,0,0-5.5,21.1c-2.7,15.8,6.3,30.3,14.1,31.4s26.5-4,30.7-26.4c1.7-9.6,4.1-22.2-3.8-28.8C2804.8,985.4,2796.2,983,2789.2,983Z"/>
            <path class="b5ad613d-bde2-427b-922f-007677f20352" d="M2812.2,1036.5s27.6-24.6,28.8-43.9-16.5-29.5-31.7-30a97.4,97.4,0,0,0-18.6.9c-15.2,1.9-25.1,8.7-21.6,21.1,4.7,16.8,36.2,2.7,42.7,7.9s-3.3,14.6,1.9,18.5,2.4,2.4.7,9.5A122.6,122.6,0,0,0,2812.2,1036.5Z"/>
            <path class="bb822a90-752d-4658-aadf-862120f7f957" d="M2822.9,1014.2c-.7,4.6-3.5,8-6.3,7.6s-4.5-4.5-3.8-9.1,3.5-8,6.3-7.6S2823.6,1009.6,2822.9,1014.2Z"/>
          </g>
        </g>
        <path class="fb62f281-fa55-418e-9490-6e835c701f67" d="M2333.8,1587.6c3.5-1.1,8.3,1,8.9,4.9s1.8,8.7,2.2,12.7-1.5,6.5-2,6.9-65.1,4.2-75.3-5.4c-4.2-3.9,37.8-22.5,45.1-20.5S2317.9,1592.7,2333.8,1587.6Z"/>
        <path class="fb62f281-fa55-418e-9490-6e835c701f67" d="M2453,1586.8c3.5-1.1,8.3,1,8.9,4.9s1.8,8.7,2.2,12.7-1.5,6.5-2,6.9-65.1,4.2-75.3-5.4c-4.2-3.9,37.8-22.5,45.1-20.5S2437.1,1591.9,2453,1586.8Z"/>
      </g>
    </g>
  </g>
</svg>
