<?xml version="1.0" encoding="iso-8859-1"?>
<!-- Generator: Adobe Illustrator 19.0.0, SVG Export Plug-In . SVG Version: 6.00 Build 0)  -->
<svg version="1.1" id="Layer_1" xmlns="http://www.w3.org/2000/svg" xmlns:xlink="http://www.w3.org/1999/xlink" x="0px" y="0px"
	 viewBox="0 0 512 512" style="enable-background:new 0 0 512 512;" xml:space="preserve">
	<defs>
        <linearGradient id="linear-gradient" x1="0.5" x2="0.5" y2="1" gradientUnits="objectBoundingBox">
            <stop offset="0" stop-color="rgba(255,255,255,0.05)" />
            <stop offset="1" stop-color="rgba(255,255,255,0.2)" />
        </linearGradient>
    </defs>
<g>
	<g>
		<path fill="url(#linear-gradient)" d="M184.539,342.098l-4.687,14.471c9.508,3.079,19.5,5.566,29.699,7.393l2.681-14.974
			C202.71,347.283,193.393,344.965,184.539,342.098z"/>
	</g>
</g>
<g>
	<g>
		<path fill="url(#linear-gradient)" d="M107.18,292.87l-11.308,10.173c13.137,14.602,36.095,34.921,70.86,48.793l5.638-14.128
			C140.329,324.922,119.235,306.268,107.18,292.87z"/>
	</g>
</g>
<g>
	<g>
		
			<rect fill="url(#linear-gradient)" x="311.315" y="31.905" transform="matrix(0.4445 -0.8958 0.8958 0.4445 115.1682 324.1294)" width="15.211" height="74.607"/>
	</g>
</g>
<g>
	<g>
		
			<rect fill="url(#linear-gradient)" x="367.348" y="84.842" transform="matrix(0.4445 -0.8958 0.8958 0.4445 121.3839 389.7698)" width="15.211" height="24.348"/>
	</g>
</g>
<g>
	<g>
		<path fill="url(#linear-gradient)" d="M256.06,3.325L0,125.808v45.065l53.323,27.543v93.357l0.861,1.652c0.533,1.024,13.43,25.356,44.922,49.692
			c28.795,22.252,79.388,48.777,156.893,48.777c54.039,0,94.98-12.898,124.587-28.248v28.163
			c-13.829,3.406-24.116,15.872-24.116,30.695c0,5.181,1.265,10.071,3.49,14.392v62.164h15.211v-47.732
			c1.729,0.779,3.538,1.411,5.414,1.873v55.475h15.211v-55.475c1.876-0.462,3.685-1.093,5.414-1.873v47.732h15.211v-62.165
			c2.225-4.32,3.489-9.21,3.489-14.391c0-14.822-10.286-27.289-24.115-30.695v-36.826c6.375-3.977,12.075-7.986,17.095-11.867
			c31.492-24.337,44.389-48.668,44.922-49.692l0.861-1.652v-89.809l53.323-26.594v-45.061H512L256.06,3.325z M380.585,346.345
			c-28.11,15.969-68.873,30.34-124.586,30.34c-72.785,0-120.082-24.526-146.942-45.102c-24.809-19.005-37.294-38.256-40.523-43.683
			v-81.627l183.919,95.001l3.48,1.801l0.003-0.001l0.002,0.001l3.445-1.718l121.202-60.36V346.345z M256.062,286.017L53.323,181.145
			v0.152L15.211,161.61v-18.52L255.94,267.456l123.638-61.672l1.009,0.535v17.593L256.062,286.017z M404.701,422.507
			c0,9.048-7.406,16.409-16.509,16.409c-9.103,0-16.51-7.361-16.51-16.409s7.407-16.409,16.51-16.409
			C397.295,406.098,404.701,413.458,404.701,422.507z M379.79,188.681l-94.844-50.286c1.242-2.611,1.923-5.451,1.923-8.435
			c0-13.367-13.559-23.839-30.868-23.839c-17.309,0-30.868,10.471-30.868,23.839c0,13.368,13.559,23.84,30.868,23.84
			c6.618,0,12.684-1.534,17.657-4.173l89.401,47.4L256.06,250.398L24.682,130.863L255.939,20.244l231.38,114.799L379.79,188.681z
			 M271.657,129.959c0.001,4.074-6.695,8.629-15.657,8.629c-8.961,0-15.657-4.555-15.657-8.629c0-4.073,6.696-8.628,15.657-8.628
			S271.657,125.886,271.657,129.959z M443.466,287.9c-3.241,5.448-15.726,24.69-40.523,43.684c-2.234,1.712-4.624,3.452-7.144,5.201
			V233.423l47.667-23.739V287.9z M496.788,165.961l-100.99,50.367v-18.634l100.99-50.375V165.961z"/>
	</g>
</g>
<g>
</g>
<g>
</g>
<g>
</g>
<g>
</g>
<g>
</g>
<g>
</g>
<g>
</g>
<g>
</g>
<g>
</g>
<g>
</g>
<g>
</g>
<g>
</g>
<g>
</g>
<g>
</g>
<g>
</g>
</svg>
