<?xml version="1.0" encoding="utf-8"?>
<!-- Generator: Adobe Illustrator 24.0.0, SVG Export Plug-In . SVG Version: 6.00 Build 0)  -->
<svg version="1.1" id="Layer_1" xmlns="http://www.w3.org/2000/svg" xmlns:xlink="http://www.w3.org/1999/xlink" x="0px" y="0px"
	 viewBox="0 0 5238 1168" style="enable-background:new 0 0 5238 1168;" xml:space="preserve">
<style type="text/css">
	.st0{fill:#E4B62A;}
	.st1{fill:#F2F2F2;}
</style>
<path class="st0" d="M320.6,756.7c1.8,0.5,3.4,1.2,5.2,1.7l224.4,62.4l178.5,49.8c14.3-33.6,11.6-67.1-7.4-99.8
	c-19.3-32-50.3-54.4-91.8-65.9l-258-72c-38.3-11.4-73.1-28-102.8-48.8c-30.9-23-56-50.6-74-80.3c-18.6-31-29.3-62.7-32.8-96.6
	c-3.1-34.8,2.2-68.4,16.3-101.5c14-33.1,35.2-62.2,64-88.2c28.4-25,60.9-44.9,97.9-60.3c37-15.4,77.4-23.8,119.2-26.6
	c41.5-1.9,83.9,2.8,126,14.5l151.2,42l0.1,0l290.7,81.1c14.6-34.4,12-68-7.4-100.2c-17.3-28.9-44.7-49.4-80.7-62l0.7-0.3l-6.2-1.7
	L637.7,21.6C575.2,4.2,511.8-2.1,449,2c-37.2,2.3-72.9,8-107.3,16.4c-24.7,6-48.8,13.3-71.7,22.4c-55.4,22.7-103.6,52.5-147.6,90.7
	c-42.6,37.6-73.8,81.4-95.3,132C5.7,314.2-2.8,364.4,2.3,415.3c5.4,48.1,19.5,92.2,43.3,134.8c2,3.5,3.5,7.1,5.7,10.7
	c26.9,44.5,64.4,84.8,110.8,119.3C208.2,713.8,260.4,739.4,320.6,756.7L320.6,756.7z"/>
<path class="st1" d="M1107.5,752.6c-5.4-48.1-19.5-92.2-43.3-134.8c-2-3.5-3.5-7.1-5.7-10.7c-26.9-44.5-64.4-84.8-110.8-119.3
	c-46.1-33.8-98.2-59.4-158.4-76.7c-1.8-0.5-3.4-1.2-5.2-1.7L559.7,347l-178.5-49.8c-14.3,33.6-11.6,67.1,7.4,99.8
	c19.3,32,50.3,54.4,91.8,65.9l257.9,72c38.3,11.4,73.1,28,102.8,48.8c30.9,23,56,50.6,74,80.3c18.6,31,29.3,62.7,32.8,96.6
	c3.1,34.8-2.2,68.4-16.3,101.5c-14,33.1-35.2,62.2-64,88.2c-28.4,25-60.9,44.9-97.9,60.3c-37,15.4-77.4,23.8-119.2,26.6
	c-41.5,1.8-83.9-2.8-126-14.5l-151.2-42l-0.1,0L82.4,899.8c-14.6,34.4-12,68,7.4,100.2c17.3,28.9,44.7,49.4,80.7,62l-0.7,0.3
	l6.2,1.7l296.1,82.3c62.5,17.4,125.9,23.7,188.6,19.5c37.2-2.3,72.9-8,107.3-16.4c24.7-6,48.8-13.2,71.7-22.4
	c55.3-22.7,103.6-52.6,147.6-90.7c42.6-37.6,73.8-81.4,95.3-132C1104.1,853.5,1112.7,803.4,1107.5,752.6L1107.5,752.6z"/>
<path class="st0" d="M1713.2,946.4h-9.9c-60,0-110.9-17.2-153.3-51c-41.8-33.9-63-75.1-63-123.7V557.6h182.2
	c60,0,111.6-12.3,153.4-36.3c42.5-24,63.8-53.5,63.8-88h-399.3V304.7c0-33.9-15.2-63.4-44.8-87.4c-29.6-24.6-66-36.9-108.6-36.9
	v257.8c-68.3,12.9-115.4,38.1-141.9,75.7c-9.9,13.5-14.4,28.3-14.4,43.7h156.3v222.1c0,97.8,49.3,177.2,148,239.3
	c64.5,40,138.1,59.7,221.7,59.7h182.9c0-12.9-2.3-25.2-6.8-36.9C1847.5,978.4,1792.1,946.4,1713.2,946.4L1713.2,946.4z"/>
<path class="st0" d="M2502.6,494.5l-2.5-1.3c-24.6-13.9-50.8-25.9-79.5-35.9c-13.1-4.6-27-8.6-42.6-12c-12.3-3.3-27-6-45.9-8
	c-14-2-28.6-3.3-42.6-4h-20.5c-109.8,0-204,31.2-281.8,94.3C1909.5,590.7,1871,666.4,1871,756c0,70.3,25.4,133.4,75.4,189.2
	c82.7,89,190.1,133.5,322.8,133.5h233.5c0-19.3-4.9-36.5-13.9-53.1c-33.6-53.8-83.5-80.4-151.5-80.4h-68
	c-64.7,0-119.6-18.6-164.6-55.1c-45.1-37.2-68-81.7-68-134.1s22.9-96.9,68-133.5c45.1-37.2,100-55.7,164.6-55.7
	c64.7,0,119.6,18.6,164.7,55.7c45.9,36.5,68.8,81,68.8,133.5v189.2c0,21.9,5.7,42.5,18,61.1c33.6,48.4,82.7,72.3,146.7,72.3V755.9
	c0-89.6-38.5-165.3-116.4-228.4C2535.4,515.7,2519.8,504.4,2502.6,494.5L2502.6,494.5z M2937,505.7c-8.2-12.6-18-23.3-30.3-33.2
	c-31.9-25.9-71.3-39.2-116.3-39.2v645.3c63.9,0,113-23.9,146.6-72.3c12.3-18.6,18.1-39.2,18.1-61.1V756c0-52.5,22.9-96.9,68.8-133.5
	c45.1-36.5,99.9-55.1,164.6-55.1h38.5c45.9,0,85.2-13.3,117.2-39.2c18-15.3,31.1-32.5,40.1-53.1c5.7-13.3,8.2-27.2,8.2-41.8h-204
	C3092.7,433.3,3009.1,457.2,2937,505.7L2937,505.7z M3925.1,557.6c60,0,111.6-12.3,153.4-36.3c42.5-24,63.8-53.5,63.8-88h-399.3
	V304.7c0-33.9-15.2-63.4-44.8-87.4c-29.6-24.6-66-36.9-108.6-36.9v257.8c-68.3,12.9-115.4,38.1-141.9,75.7
	c-9.9,13.5-14.5,28.3-14.5,43.7h156.4v222.1c0,97.8,49.4,177.2,148,239.3c64.5,40,138.1,59.7,221.7,59.7h182.9
	c0-12.9-2.3-25.2-6.8-36.9c-31.9-63.3-87.3-95.4-166.3-95.4h-9.9c-60,0-110.9-17.2-153.4-51c-41.8-33.9-63-75.1-63-123.7V557.6
	H3925.1z M4463.1,226.2c-51.4,57.3-77.4,122.1-77.4,194.4v10.9c-88.3,11.6-149,40.3-182.6,87.3c-10.1,15-15.1,31.4-15.1,48.4h197.7
	v511.5c46.3,0,86.6-13.6,119.5-40.3c33.7-26.5,50.5-59.3,50.5-96.8V567.2h179.2c66.5,0,123.7-13.6,170.8-40.2
	c47.1-26.6,70.7-59.3,70.7-97.5h-420.7v-8.9c0-53.9,23.6-99.6,69.8-137.1c46.3-38.2,102.7-57.3,169.1-57.3h76.6
	c46.3,0,86.7-13.6,119.5-40.3c33.7-26.6,50.5-59.3,50.5-96.8h-246.4C4658.3,89.2,4548.1,134.9,4463.1,226.2L4463.1,226.2z
	 M5072.3,566.8v511.9c45.9,0,85.2-13.3,117.1-39.2c32-25.9,48.4-57.7,48.4-94.9V433.3c-45.1,0-84.4,13.3-117.1,39.2
	C5088.6,498.4,5072.3,530.3,5072.3,566.8z M5120.6,219.6c-32,25.9-48.4,57.8-48.4,94.3V359c45.9,0,85.2-13.3,117.1-39.2
	c32-25.9,48.4-57.8,48.4-94.3v-45.2C5192.7,180.4,5153.3,193.7,5120.6,219.6z"/>
</svg>
