<?xml version="1.0" encoding="utf-8"?>
<!-- Generator: Adobe Illustrator 24.0.0, SVG Export Plug-In . SVG Version: 6.00 Build 0)  -->
<svg version="1.1" id="Layer_1" xmlns="http://www.w3.org/2000/svg" xmlns:xlink="http://www.w3.org/1999/xlink" x="0px" y="0px"
	 viewBox="0 0 496 182" style="enable-background:new 0 0 496 182;" xml:space="preserve">
<style type="text/css">
	.st0{clip-path:url(#SVGID_2_);}
	.st1{fill:#31C77F;}
	.st2{clip-path:url(#SVGID_4_);}
	.st3{fill:#FFFFFF;}
	.st4{fill:#4CBB7E;filter:url(#Adobe_OpacityMaskFilter);}
	.st5{mask:url(#mask0_1128:10001_1_);}
	.st6{fill-rule:evenodd;clip-rule:evenodd;fill:#231F20;}
	.st7{fill:#231F20;}
	.st8{fill-rule:evenodd;clip-rule:evenodd;fill:#31C77F;}
	.st9{fill:#E7EBEA;}
	.st10{fill:#F0F3F3;}
	.st11{fill:#030404;}
	.st12{fill:#0F1010;}
	.st13{fill:#191717;}
</style>
<g>
	<defs>
		<rect id="SVGID_1_" y="2" width="496" height="180"/>
	</defs>
	<clipPath id="SVGID_2_">
		<use xlink:href="#SVGID_1_"  style="overflow:visible;"/>
	</clipPath>
	<g class="st0">
		<path class="st1" d="M246.3,69.6h-18.6l-3,8.7H212l18-49.3h14.1l18,49.3h-12.9L246.3,69.6z M243.2,60.3L237,42.2l-6.1,18.1H243.2z
			"/>
		<path class="st1" d="M279.8,26.3v52h-12.1v-52H279.8z"/>
		<path class="st1" d="M300.7,44.6c1.2-1.8,2.8-3.3,4.9-4.4c2.1-1.1,4.5-1.7,7.3-1.7c3.3,0,6.2,0.8,8.9,2.5c2.7,1.6,4.7,4,6.2,7
			c1.6,3,2.3,6.6,2.3,10.6s-0.8,7.6-2.3,10.7c-1.5,3-3.6,5.4-6.2,7.1c-2.7,1.6-5.6,2.5-8.9,2.5c-2.7,0-5.2-0.6-7.3-1.7
			c-2.1-1.1-3.7-2.6-4.9-4.4V97h-12.1V39.1h12.1V44.6z M318.1,58.6c0-3-0.9-5.3-2.6-7c-1.7-1.7-3.7-2.6-6.2-2.6
			c-2.4,0-4.5,0.9-6.2,2.6c-1.7,1.7-2.5,4.1-2.5,7.1c0,3,0.8,5.4,2.5,7.1c1.7,1.7,3.8,2.6,6.2,2.6c2.4,0,4.5-0.9,6.2-2.6
			C317.2,64,318.1,61.6,318.1,58.6z"/>
		<path class="st1" d="M334.4,58.6c0-4,0.8-7.6,2.3-10.6c1.6-3,3.7-5.4,6.3-7c2.6-1.6,5.6-2.5,8.9-2.5c2.8,0,5.2,0.6,7.3,1.7
			c2.1,1.1,3.8,2.6,4.9,4.4v-5.6h12.1v39.2H364v-5.6c-1.2,1.8-2.8,3.3-5,4.4c-2.1,1.1-4.5,1.7-7.3,1.7c-3.2,0-6.2-0.8-8.8-2.5
			c-2.7-1.7-4.8-4.1-6.3-7.1C335.1,66.2,334.4,62.7,334.4,58.6z M364,58.7c0-3-0.9-5.4-2.6-7.1c-1.7-1.7-3.7-2.6-6.1-2.6
			c-2.4,0-4.5,0.9-6.2,2.6c-1.7,1.7-2.5,4-2.5,7c0,3,0.8,5.4,2.5,7.2c1.7,1.7,3.8,2.6,6.2,2.6c2.4,0,4.4-0.9,6.1-2.6
			C363.2,64.1,364,61.7,364,58.7z"/>
		<path class="st1" d="M382.5,58.7c0-4.1,0.8-7.6,2.5-10.7c1.7-3,4-5.4,7-7c3-1.6,6.5-2.5,10.4-2.5c5,0,9.1,1.3,12.4,3.9
			c3.4,2.6,5.6,6.2,6.6,10.9h-12.9c-1.1-3-3.2-4.5-6.3-4.5c-2.2,0-4,0.9-5.3,2.6c-1.3,1.7-2,4.1-2,7.3c0,3.2,0.7,5.6,2,7.4
			c1.3,1.7,3.1,2.5,5.3,2.5c3.1,0,5.2-1.5,6.3-4.5h12.9c-1,4.6-3.2,8.2-6.6,10.8c-3.4,2.6-7.5,3.9-12.4,3.9c-3.9,0-7.3-0.8-10.4-2.5
			c-3-1.6-5.3-4-7-7C383.4,66.3,382.5,62.8,382.5,58.7z"/>
		<path class="st1" d="M425.5,58.6c0-4,0.8-7.6,2.3-10.6c1.6-3,3.7-5.4,6.3-7c2.6-1.6,5.6-2.5,8.9-2.5c2.8,0,5.2,0.6,7.3,1.7
			c2.1,1.1,3.8,2.6,4.9,4.4v-5.6h12.1v39.2h-12.1v-5.6c-1.2,1.8-2.8,3.3-5,4.4c-2.1,1.1-4.5,1.7-7.3,1.7c-3.2,0-6.2-0.8-8.8-2.5
			c-2.7-1.7-4.8-4.1-6.3-7.1C426.3,66.2,425.5,62.7,425.5,58.6z M455.2,58.7c0-3-0.9-5.4-2.6-7.1c-1.7-1.7-3.7-2.6-6.1-2.6
			s-4.5,0.9-6.2,2.6c-1.7,1.7-2.5,4-2.5,7c0,3,0.8,5.4,2.5,7.2c1.7,1.7,3.8,2.6,6.2,2.6s4.4-0.9,6.1-2.6
			C454.4,64.1,455.2,61.7,455.2,58.7z"/>
		<path class="st1" d="M244.5,105v9.6h-20.3V125h15.2v9.3h-15.2v20H212V105H244.5z"/>
		<path class="st1" d="M257,111c-2.1,0-3.9-0.6-5.3-1.8c-1.3-1.3-2-2.8-2-4.6c0-1.9,0.7-3.4,2-4.6c1.4-1.3,3.1-1.9,5.3-1.9
			c2.1,0,3.8,0.6,5.1,1.9c1.4,1.2,2.1,2.8,2.1,4.6c0,1.8-0.7,3.4-2.1,4.6C260.8,110.4,259.1,111,257,111z M263,115.1v39.2h-12.1
			v-39.2H263z"/>
		<path class="st1" d="M295.9,114.7c4.6,0,8.3,1.5,11.1,4.5c2.8,3,4.2,7,4.2,12.2v22.9h-12.1V133c0-2.6-0.7-4.7-2.1-6.1
			c-1.4-1.5-3.2-2.2-5.5-2.2s-4.2,0.7-5.5,2.2c-1.4,1.5-2.1,3.5-2.1,6.1v21.3h-12.1v-39.2h12.1v5.2c1.2-1.7,2.9-3.1,5-4.1
			C291,115.2,293.3,114.7,295.9,114.7z"/>
		<path class="st1" d="M317.2,134.6c0-4,0.8-7.6,2.3-10.6c1.6-3,3.7-5.4,6.3-7c2.7-1.6,5.6-2.5,8.9-2.5c2.8,0,5.2,0.6,7.3,1.7
			c2.1,1.1,3.8,2.6,4.9,4.4v-5.6H359v39.2h-12.1v-5.6c-1.2,1.8-2.8,3.3-5,4.4c-2.1,1.1-4.5,1.7-7.3,1.7c-3.2,0-6.2-0.8-8.8-2.5
			c-2.6-1.7-4.8-4.1-6.3-7.1C318,142.2,317.2,138.7,317.2,134.6z M346.9,134.7c0-3-0.9-5.4-2.6-7.1c-1.7-1.7-3.7-2.6-6.1-2.6
			s-4.5,0.9-6.2,2.6c-1.7,1.7-2.5,4-2.5,7s0.8,5.4,2.5,7.2c1.7,1.7,3.8,2.6,6.2,2.6s4.4-0.9,6.1-2.6
			C346.1,140.1,346.9,137.7,346.9,134.7z"/>
		<path class="st1" d="M392,114.7c4.6,0,8.3,1.5,11.1,4.5c2.8,3,4.2,7,4.2,12.2v22.9h-12.1V133c0-2.6-0.7-4.7-2.1-6.1
			c-1.4-1.5-3.2-2.2-5.5-2.2s-4.2,0.7-5.5,2.2c-1.4,1.5-2.1,3.5-2.1,6.1v21.3h-12.1v-39.2H380v5.2c1.2-1.7,2.9-3.1,5-4.1
			C387,115.2,389.4,114.7,392,114.7z"/>
		<path class="st1" d="M413.3,134.7c0-4.1,0.8-7.6,2.5-10.7c1.7-3,4-5.4,7-7c3-1.6,6.5-2.5,10.4-2.5c5,0,9.1,1.3,12.4,3.9
			c3.4,2.6,5.6,6.2,6.6,10.9h-12.9c-1.1-3-3.2-4.5-6.3-4.5c-2.2,0-4,0.9-5.3,2.6c-1.3,1.7-2,4.1-2,7.3c0,3.2,0.7,5.6,2,7.4
			c1.3,1.7,3.1,2.5,5.3,2.5c3.1,0,5.2-1.5,6.3-4.5h12.9c-1,4.6-3.2,8.2-6.6,10.8c-3.4,2.6-7.5,3.9-12.4,3.9c-3.9,0-7.3-0.8-10.4-2.5
			c-3-1.6-5.3-4-7-7C414.1,142.3,413.3,138.8,413.3,134.7z"/>
		<path class="st1" d="M496,134.1c0,1.1-0.1,2.3-0.2,3.5h-27.5c0.2,2.4,1,4.3,2.3,5.6c1.4,1.3,3.1,1.9,5.2,1.9c3,0,5.1-1.3,6.3-3.8
			h12.9c-0.7,2.6-1.9,4.9-3.6,7c-1.7,2.1-3.9,3.7-6.5,4.9c-2.6,1.2-5.5,1.8-8.7,1.8c-3.9,0-7.3-0.8-10.4-2.5c-3-1.6-5.4-4-7.1-7
			c-1.7-3-2.6-6.6-2.6-10.7c0-4.1,0.8-7.6,2.5-10.7c1.7-3,4.1-5.4,7.1-7c3-1.6,6.5-2.5,10.4-2.5c3.8,0,7.2,0.8,10.2,2.4
			c3,1.6,5.3,3.9,7,6.8C495.1,126.7,496,130.1,496,134.1z M483.6,130.9c0-2.1-0.7-3.7-2.1-4.9c-1.4-1.2-3.2-1.8-5.3-1.8
			c-2,0-3.8,0.6-5.2,1.8c-1.4,1.2-2.2,2.8-2.6,5H483.6z"/>
		<g>
			<defs>
				<path id="SVGID_3_" d="M90,2L90,2c49.7,0,90,40.3,90,90l0,0c0,49.7-40.3,90-90,90l0,0c-49.7,0-90-40.3-90-90l0,0
					C0,42.3,40.3,2,90,2z"/>
			</defs>
			<clipPath id="SVGID_4_">
				<use xlink:href="#SVGID_3_"  style="overflow:visible;"/>
			</clipPath>
			<g class="st2">
				<path class="st3" d="M90,2L90,2c49.7,0,90,40.3,90,90l0,0c0,49.7-40.3,90-90,90l0,0c-49.7,0-90-40.3-90-90l0,0
					C0,42.3,40.3,2,90,2z"/>
				<defs>
					<filter id="Adobe_OpacityMaskFilter" filterUnits="userSpaceOnUse" x="0" y="2" width="180" height="183.1">
						<feColorMatrix  type="matrix" values="1 0 0 0 0  0 1 0 0 0  0 0 1 0 0  0 0 0 1 0"/>
					</filter>
				</defs>
				<mask maskUnits="userSpaceOnUse" x="0" y="2" width="180" height="183.1" id="mask0_1128:10001_1_">
					<path class="st4" d="M180,92c0,49.7-40.3,90-90,90c-49.7,0-90-40.3-90-90C0,42.3,40.3,2,90,2C139.7,2,180,42.3,180,92z"/>
				</mask>
				<g class="st5">
					<path class="st1" d="M180,92c0,49.7-40.3,90-90,90c-49.7,0-90-40.3-90-90C0,42.3,40.3,2,90,2C139.7,2,180,42.3,180,92z"/>
					<path class="st3" d="M174.3,92c0,46.5-37.7,84.3-84.3,84.3c-46.5,0-84.3-37.7-84.3-84.3S43.5,7.7,90,7.7
						C136.6,7.7,174.3,45.5,174.3,92z"/>
					<path class="st3" d="M53.9,178c0.6-6.5,8.8-18.5,8.4-25c-0.1-1.1,0-2.2,0.1-3.3c0.7-4.6,0.5-9.1,0.1-13.7
						c-0.1-1.9,0-3.7,0.3-5.6c0.7-4,1.1-8,0.6-12.1c-0.4-3.9,0-7.7,0.8-11.5c0.6-3.2,0.6-6.4,0.1-9.6c-0.1-0.7-0.2-1.4-0.1-2.1
						c0.4-2.4,0.7-4.8,0.7-7.5c2.3,2,4.8,2.1,7.4,1.6c2.2-0.5,3.4-1.9,4.3-3.8c0.3-0.6,0.4-1.4,1.4-1.2c0.5,0.1,1.1,0,1.2-0.7
						c0.1-0.7-0.4-0.8-1-1c-3.3-0.7-6.5-1.5-9.8-2.2c-1.1-0.2-2.1-0.5-3.2-0.6c-1-0.1-1.1-0.5-1-1.4c0.5-4,1.2-7.9,2.8-11.6
						c1.6-3.6,3.6-7,6.4-9.8c0.4-0.4,0.8-0.7,0.6-1.3c-0.2-0.6-0.7-0.8-1.3-0.5c-0.6,0.2-0.8-0.1-1.1-0.5c-0.5-0.9-1.1-1.7-1.6-2.6
						c-1.7-2.8-3.8-5.3-5.8-7.9c-0.4-0.5-1-1-1.5-1.4c-1.7-1.3-3.3-0.6-3.5,1.6c-0.1,1.4-0.1,2.8,0.5,4.2c1.8,4.6,3.2,9.5,5.9,13.8
						c0.7,1.1-0.3,1.6-0.6,2.4c-0.7-0.5-1-1.1-1.3-1.7c-3.6-6.4-6.7-13-8-20.4c-0.3-1.9-0.4-3.8-0.3-5.8c0.1-2.1,1.1-2.7,3.1-2.1
						c1.5,0.4,2.6,1.3,3.7,2.3c3.7,3.4,6.9,7.3,10.2,11c0.9,1,1.8,2,2.7,3.1c0.5,0.6,1,1.2,1.1,2.2c0.1,1,0.8,1.3,1.8,1
						c0.2-0.1,0.5-0.2,0.7-0.3c1.6-1.1,3.5-1.5,5.4-1.8c5.3-1,10.6-0.6,15.9,0.5c0.8,0.2,1.5,0.6,2.3,1.1c1.6,1,2.2,0.7,2.6-1
						c0.1-0.5,0.4-0.9,0.8-1.3c4.3-4.8,8.4-9.9,13.1-14.4c1-1,2.1-1.9,3.5-2.3c2.3-0.7,3.3,0,3.4,2.4c0.3,4.5-0.8,8.8-2.3,13
						c-1.4,4.2-3.4,8.2-5.5,12.1c-0.5,0.8-1,1.6-1.7,2.6c-1.9-2.8-1.9-2.8-0.5-5.5c1.8-3.3,3.6-6.6,4.9-10.2c0.5-1.5,1-3.1,0.9-4.7
						c0-1-0.2-1.9-1.2-2.4c-1-0.5-1.8,0-2.5,0.6c-0.9,0.8-1.8,1.5-2.5,2.4c-2.7,2.9-5.7,5.6-7.4,9.3c-0.3,0.7-1.5,1-1,2.1
						c0.3,0.7,1,1.1,1.5,1.7c2.8,3.4,5,7,6.4,11.1c0.9,2.6,1.5,5.3,1.8,8.1c0.2,1.4,0.2,1.4-1.3,1.8c-3.5,0.9-7.1,1.9-10.6,2.8
						c-0.3,0.1-0.6,0.1-0.9,0.3c-0.7,0.4-0.8,1-0.1,1.5c0.5,0.3,0.7,0.4,0.9,1.1c0.6,2.5,2.2,4.1,4.7,4.5c2.5,0.4,4.9,0,6.4-2.5
						c0.1-0.1,0.1-0.2,0.4-0.1c-0.1,2.9,0.1,5.8,0.7,8.7c0.1,0.6,0.1,1.2-0.1,1.7c-0.8,3.7-0.6,7.3,0.1,10.9c0.8,4,1,8,0.5,12.1
						c-0.3,3-0.1,5.9,0.5,8.8c0.6,3.3,0.8,6.5,0.4,9.8c-0.4,3.3-0.2,6.7,0.1,10c0.2,2.1,9.4,10.9,9.3,13c1.8,3,4,8.9,6.2,11.6
						l-5.6,3.8l-32.8,8.2l-30.7-3.6L53.9,178z"/>
					<path class="st6" d="M166.8,139.1c-4,1.7-7.8,3.7-11.7,5.7c-2.8,1.4-5.5,3-8.2,4.5c-1.2,0.7-2.4,1.3-3.6,2
						c-0.9,0.4-2.1,0.7-3.4,1.1c-2.3,0.7-4.8,1.4-6.6,2.5c-0.3,0.2-0.5,0.4-0.7,0.8c-1.9,3.8-5.1,5.9-8.8,7.7
						c-3.3,1.5-6.7,2.6-10.1,3.7c-0.4,0.1-0.8,0.3-1.3,0.4c-3.8,1.2-7.7,2.1-11.7,2.4c-0.2,0-0.4,0-0.6,0.1
						c-1.6,0.1-3.2,0.3-4.7,1.1c-0.8,0.5-1.8,0.4-2.7,0.4c-0.1,0-0.2,0-0.3,0c-0.4,0-0.8-0.1-1.2-0.1c-0.8-0.1-1.5-0.2-2.4-0.1
						c-2.7,0.4-5.5,0.6-8.2,0.9c-0.6,0.1-1.2,0.1-1.7,0.2c-0.4,0-0.7,0.1-1.1,0.1c-1.4,0.1-2.8,0.3-4.1,0.2c-3.7-0.2-7.4-0.8-11-1.7
						c-0.8-0.2-2.5-0.9-3.6-1.5l-1.9-1.4c-0.7-0.5-1.2-1.2-1.7-1.8c-0.1-0.2-0.2-0.3-0.4-0.5c-2.4-3-2.5-6.2-0.9-9.6
						c0.3-0.7,0.4-1.2,0-1.9c-2.1-4.1-1.2-8.2,2.4-11c0,0,0.1-0.1,0.1-0.1c0.1,0,0.1-0.1,0.2-0.1c0.8-0.7,1.9-1.1,2.6-1.3
						c0.3-0.1,0.6-0.2,0.6-0.3c0.2-0.1,0.3-0.1,0.4-0.1c0,0,0.1,0,0.1,0c0.5,0.1,0.4,0.4,0.2,0.8c-0.1,0.4-0.3,0.8,0.2,0.9
						c0,0,0,0,0,0c0,0,0,0,0,0c0.1,0,0.1,0.1,0.2,0.1c0,0,0.1,0,0.1,0c0.2,0.5,0.6,1,1.1,1.5c4,3.9,8.5,7.1,13,10.3
						c0.3,0.2,0.6,0.4,0.9,0.6c3.6,2.5,7.4,4.6,11.3,6.5c0.8,0.4,1.4,0.5,2.3-0.1c1.5-0.9,3.3-1.4,5-0.5c1,0.5,1.6,0.6,2.3-0.4
						c0.1-0.1,0.2-0.2,0.4-0.3c0.1,0,0.1-0.1,0.2-0.1c6.7-5.1,13.2-10.2,19-16.3c1.2-1.2,1.6-2.4,1.4-4c-0.5-4.6-0.6-9.2-0.6-13.8
						c0.1,0,0.1,0,0.2,0c1,0,1.7-0.7,1.8-1.5c0.5-0.2,0.8-0.6,1-1.1c0,0,0.1,0.1,0.1,0.1c0.2-0.1,0.3-0.3,0.5-0.4
						c0.4-0.3,0.7-0.7,1.1-1c3.4-2.9,7-5.5,10.9-7.6c10.7-5.7,21.6-10.7,33-14.8l0.4-0.2c4.5-1.7,9-3.3,13.5-5
						C179.4,111.1,174.7,126.2,166.8,139.1z"/>
					<path class="st7" d="M127.8,36.4c-0.2-3-2.2-4.5-5.1-4c-1.3,0.3-2.6,0.7-3.7,1.6c-2.8,2-5.1,4.5-7.3,7.1c-2.6,3-5.3,6-7.8,9.1
						c-0.8,0.9-1.5,1-2.4,0.5c-1.5-0.7-3.1-1.3-4.8-1.4c-5.8-0.4-11.7-0.6-17.3,1.6c-1.2,0.5-1.8,0.2-2.6-0.7c-2.5-3-5.1-6-7.7-8.9
						c-2.3-2.6-4.6-5.2-7.5-7.2c-1.4-1-2.9-1.5-4.5-1.5c-2.1-0.1-3.4,0.9-3.9,2.9C53,36.1,53,36.7,53,37.4c0,3.6,0.7,7,1.4,10.5
						c1,5,3.3,9.6,5.3,14.2c0.8,1.8,1.8,3.6,3.2,5c0.5,0.5,0.6,1,0.4,1.7c-0.3,1.1-0.6,2.2-0.9,3.4c-1.1,4.1-1.5,8.3-0.8,12.4
						c0.4,2.2,0.3,4.3,0,6.5c-0.3,2.4-0.4,4.7,0.2,7.1c0.7,2.8,0.5,5.6-0.2,8.4c-0.7,3-1.1,5.9-1,9c0.2,3.2-0.2,6.4-0.3,9.6
						c-0.1,1.9,0,3.7-0.4,5.6c-0.5,2.3-0.5,4.7-0.1,7.1c0.7,4.6,0.2,2.4,0.4,5.2c0.9,0,1.9,2.7,2.8,2.6c0-2.2-0.3-7.4-0.5-9.6
						c-0.1-1.9,0-3.7,0.3-5.6c0.7-4,1.1-8,0.6-12.1c-0.4-3.9,0-7.7,0.8-11.5c0.6-3.2,0.6-6.4,0.1-9.6c-0.1-0.7-0.2-1.4-0.1-2.1
						c0.4-2.4,0.7-4.8,0.7-7.5c2.3,2,4.8,2.1,7.4,1.6c2.2-0.5,3.4-1.9,4.3-3.8c0.3-0.6,0.4-1.4,1.4-1.2c0.5,0.1,1.1,0,1.2-0.7
						c0.1-0.7-0.4-0.8-1-1c-3.3-0.7-6.5-1.5-9.8-2.2c-1.1-0.2-2.1-0.5-3.2-0.6c-1-0.1-1.1-0.5-1-1.4c0.5-4,1.2-7.9,2.8-11.6
						c1.6-3.6,3.6-7,6.4-9.8c0.4-0.4,0.8-0.7,0.6-1.3c-0.2-0.6-0.7-0.8-1.3-0.5c-0.6,0.2-0.8-0.1-1.1-0.5c-0.5-0.9-1.1-1.7-1.6-2.6
						c-1.7-2.8-3.8-5.3-5.8-7.9c-0.4-0.5-1-1-1.5-1.4c-1.7-1.3-3.3-0.6-3.5,1.6c-0.1,1.4-0.1,2.8,0.5,4.2c1.8,4.6,3.2,9.5,5.9,13.8
						c0.7,1.1-0.3,1.6-0.6,2.4c-0.7-0.5-1-1.1-1.3-1.7c-3.6-6.4-6.7-13-8-20.4c-0.3-1.9-0.4-3.8-0.3-5.8c0.1-2.1,1.1-2.7,3.1-2.1
						c1.5,0.4,2.6,1.3,3.7,2.3c3.7,3.4,6.9,7.3,10.2,11c0.9,1,1.8,2,2.7,3.1c0.5,0.6,1,1.2,1.1,2.2c0.1,1,0.8,1.3,1.8,1
						c0.2-0.1,0.5-0.2,0.7-0.3c1.6-1.1,3.5-1.5,5.4-1.9c5.3-1,10.6-0.6,15.9,0.5c0.8,0.2,1.5,0.6,2.3,1.1c1.6,1,2.2,0.7,2.6-1
						c0.1-0.5,0.4-0.9,0.8-1.3c4.3-4.8,8.4-9.9,13.1-14.4c1-1,2.1-1.9,3.5-2.3c2.3-0.7,3.3,0,3.4,2.4c0.3,4.5-0.8,8.8-2.3,13
						c-1.4,4.2-3.4,8.2-5.5,12.1c-0.5,0.8-1,1.6-1.7,2.6c-1.9-2.8-1.9-2.8-0.5-5.5c1.8-3.3,3.6-6.6,4.9-10.2c0.5-1.5,1-3.1,0.9-4.7
						c0-1-0.2-1.9-1.2-2.4c-1-0.5-1.8,0-2.5,0.6c-0.9,0.8-1.8,1.5-2.5,2.4c-2.7,2.9-5.7,5.6-7.4,9.3c-0.3,0.7-1.5,1-1,2.1
						c0.3,0.7,1.1,1.1,1.5,1.7c2.8,3.4,5,7,6.4,11.1c0.9,2.6,1.5,5.3,1.8,8.1c0.2,1.4,0.2,1.4-1.3,1.8c-3.5,0.9-7.1,1.9-10.6,2.8
						c-0.3,0.1-0.6,0.1-0.9,0.3c-0.7,0.4-0.8,1-0.1,1.5c0.5,0.3,0.7,0.4,0.9,1.1c0.6,2.5,2.2,4.1,4.7,4.5c2.5,0.4,4.9,0,6.4-2.5
						c0.1-0.1,0.1-0.2,0.4-0.1c-0.1,2.9,0.1,5.8,0.7,8.7c0.1,0.6,0.1,1.2-0.1,1.7c-0.8,3.7-0.6,7.3,0.1,10.9c0.8,4,1,8,0.5,12.1
						c-0.3,3-0.1,5.9,0.5,8.8c0.6,3.3,0.8,6.5,0.4,9.8c-0.1,1.1-0.2,2.2-0.2,3.3c0.9,0,1.8,0.1,2.7,0.1c0-0.6,0.1-1.1,0.1-1.7
						c0.3-3.1,0.8-6.2,0.2-9.4c-0.9-4.7-0.8-9.5-0.8-14.2c0-3.4-0.1-6.8-1-10.1c-0.7-2.6-0.9-5.2-0.3-7.8c0.7-2.9,0.6-5.7,0.2-8.6
						c-0.2-1.3-0.5-2.7-0.1-4c0.6-2.6,0.6-5.2,0.5-7.9c-0.2-3.1-1-6.1-1.8-9.1c-0.2-0.9-0.2-1.5,0.5-2.2c0.9-0.9,1.6-2,2.2-3.2
						c3.3-6.7,6.2-13.4,7.1-20.9C127.6,40.6,128,38.5,127.8,36.4z"/>
					<path class="st8" d="M169.4,134.4c-1.2,0.4-2.4,0.9-3.6,1.3c-4.1,1.7-8,3.7-12,5.8c-0.1,0.1-0.2,0.1-0.3,0.2
						c-4.5,2.4-9,4.9-13.4,7.6c-1.3,0.8-2.8,1.3-4.3,1.8c-0.4,0.1-0.8,0.3-1.2,0.4c-0.6,0.2-1.1,0.1-1.3-0.6c-0.7-2-2.1-3.3-4-4.2
						c-0.7-0.3-0.8-0.8-0.8-1.5c0.1-1.1,0-2.2-0.3-3.2c-0.5-1.3-1.3-2.2-2.6-2.6c-1.2-0.4-2.5-0.7-3.8-0.6c-0.9,0.1-1.2-0.2-1.2-1
						c0-0.2,0-0.5-0.1-0.7c0-0.4-0.1-0.8-0.1-1.2c0-0.5,0-1.1,0-1.7c0-1.1,0-2.3-0.2-3.4c-0.4-1.9,0.3-3.2,1.7-4.5
						c4.9-4.4,10.4-7.7,16.3-10.6c12.5-6.2,25.5-11.1,38.6-15.9c1-0.4,2-0.7,2.9-1.1C178.8,111.6,175.2,123.6,169.4,134.4z"/>
					<path class="st1" d="M56.4,157.3c0.6,0.3,1,0.4,1.5,0.6c0.7,0.3,1.4,0.3,1.9-0.4c0.5-0.7,0.1-1.3-0.5-1.8
						c-0.6-0.6-1.3-1.1-1.9-1.7c-2.5-2.3-1.4-6.6,0.9-8.1c0.6-0.4,1-0.5,1.5,0.1c0.1,0.2,0.3,0.3,0.4,0.4
						c4.9,5.5,11.1,9.5,17.2,13.5c2.8,1.8,5.7,3.5,8.8,4.7c0.8,0.3,1.1,0.7,1,1.6c-0.1,0.7-0.1,1.4,0.1,2.1c0.3,0.7-0.1,0.9-0.7,1
						c-1,0.1-2,0.3-3.1,0.3c-3.9,0.1-7.8,0.9-11.7,0.5c-4-0.4-7.8-1.3-11.5-3c-1.3-0.6-2.4-1.4-3.3-2.6
						C55.4,162.3,55.4,159.9,56.4,157.3z"/>
					<path class="st1" d="M101.3,167.1c-0.6-0.1-1.4,0.5-1.9,0c-0.4-0.4-0.4-1.2-0.7-1.8c-0.1-0.2-0.2-0.5-0.3-0.7
						c-0.5-0.7-0.2-1,0.4-1.4c3.4-2.1,6.4-4.7,9.6-7.1c3.9-2.9,7.4-6.4,10.7-10c1-1.1,1.8-2.5,1.7-4.1c0-0.7,0.3-1,0.9-0.9
						c0.6,0.1,1.3,0.2,1.9,0.3c2,0.5,2.8,2.1,1.9,3.9c-0.4,0.8-0.8,1.4-1.2,2.2c-0.3,0.5-0.4,1.1,0.2,1.6c0.5,0.4,1.1,0.4,1.6,0.1
						c0.1,0,0.1-0.1,0.2-0.1c0.5-0.2,0.8-1,1.2-0.8c0.7,0.2,1.4,0.7,2,1.2c1.4,1.1,1.9,2.5,1.4,3.9c-0.6,1.6-1.5,3-2.8,4.1
						c-2.4,2.3-5.4,3.8-8.5,4.8c-5.1,1.8-10.3,3.6-15.7,4.4C103,167,102.2,167.1,101.3,167.1z"/>
					<path class="st3" d="M66.9,61.3c-1.9-1.9-3-4.1-3.8-6.3c-1-2.8-2-5.5-2.6-8.4c-0.1-0.6-0.2-1.3-0.2-1.9c0-0.4-0.1-0.9,0.4-1.2
						c0.5-0.2,0.9,0.1,1.2,0.4c1.6,1.5,3,3.1,4.2,5c1.4,2.2,2.7,4.5,4.2,6.7c0.6,0.9,0.6,1.5-0.3,2.1C68.7,58.6,68,60,66.9,61.3z"/>
					<path class="st3" d="M113.3,60.3c-0.9-1.6-2.3-2.7-3.6-3.9c-0.7-0.6-0.6-1.1-0.2-1.8c1.9-3.1,4.2-5.8,6.6-8.5
						c0.7-0.8,1.3-1.7,2.2-2.4c1-0.7,1.5-0.4,1.7,0.8c0,0.3,0,0.7,0,1c-0.6,2.4-1.1,4.9-2.3,7.1c-1.2,2.1-2.3,4.3-3.4,6.4
						C114,59.5,113.9,60,113.3,60.3z"/>
					<path class="st1" d="M92.9,169.1c-0.2,0-0.5,0-0.9-0.1c-1.4-0.2-2.2-0.9-2.4-1.9c-0.2-1.1,0.7-2.4,1.8-2.9c2.1-0.9,4-0.2,5,1.6
						c0.6,1.1,0.4,1.7-0.6,2.5C95.2,168.8,94.1,169.1,92.9,169.1z"/>
					<path class="st9" d="M68.9,84.8c-0.9,0-1.5-0.5-1.5-1.3c0-0.8,0.4-1.4,1.2-1.4c0.9,0,1.5,0.5,1.5,1.3
						C70.1,84.3,69.7,84.8,68.9,84.8z"/>
					<path class="st10" d="M110.2,83.5c-0.2,0.6-0.3,1.3-1.1,1.4c-0.7,0.1-1.4-0.5-1.4-1.2c0-0.8,0.5-1.2,1.2-1.2
						C109.6,82.5,110,82.9,110.2,83.5z"/>
					<path class="st11" d="M91.7,86.3c1-1.2,2.2-1.7,3.7-1.6c2.3,0,4,1.6,4.2,3.9c0.1,1.1,0.2,2.3-0.3,3.4c-0.4,1-0.3,1.5,0.6,2.2
						c1.9,1.5,2.9,3.6,2.7,6.1c-0.1,1-0.3,2-1,2.6c-0.9,0.9-1.4,2-1.9,3.1c-1.1,2.4-3.1,3.4-5.4,3.8c-2.6,0.4-5.1-0.3-7.3-1.7
						c-1.2-0.8-2-1.8-2.4-3.2c-0.2-0.7-0.5-1.1-1.1-1.5c-2.2-1.5-2.8-4-1.5-6.4c0.4-0.8,0.9-1.6,1.6-2.1c1-0.8,1.1-1.6,0.8-2.6
						c-0.5-1.5-0.2-2.9,0.4-4.3c1-2.8,3.3-3.7,6-2.1C91.1,85.9,91.4,86.1,91.7,86.3z"/>
					<path class="st3" d="M97.7,102.9c-1.5-0.1-2.9-1-3.9-2.5c-1.5-2.2-1.5-2.2-2.9,0.1c-1.1,1.7-2.6,2.6-4.7,2.4
						c-2.7-0.2-4-2.8-2.5-5.1c0.6-0.9,1.3-1.5,2.2-2.2c1.3-1,1.4-1.2,0.8-2.8c-0.3-1-0.7-2.1-0.6-3.2c0.2-2.4,2.1-3.5,4.2-2.3
						c0.3,0.2,0.6,0.5,0.9,0.7c0.8,0.5,1.5,0.5,1.9-0.4c0.6-1.1,1.6-1.2,2.7-1.1c1.2,0.1,1.8,0.8,2.2,1.9c0.2,0.6,0.2,1.1,0,1.7
						c-0.3,0.8-0.6,1.5-1,2.3c-0.7,1.6-0.6,2,1,2.6c1.4,0.6,2.4,1.5,3,2.8C102.1,100.3,100.6,102.8,97.7,102.9z"/>
					<path class="st3" d="M86.6,104.6c2.8-0.3,2.9-0.4,5.9-3.2c1.5,2,3.5,3.3,6.2,3.1c-0.8,2.3-2.5,3.5-5.1,3.6
						C90.7,108.1,87.3,107.4,86.6,104.6z"/>
					<path class="st12" d="M89,89.7c0.1,0.1,0.4,0.1,0.6,0.3c0.5,0.7,0.9,1.4,1,2.3c0,0.4-0.2,0.8-0.6,0.9c-0.3,0.1-0.6,0-0.9-0.3
						c-0.6-0.7-1.1-1.4-1-2.4C88.1,90.1,88.4,89.8,89,89.7z"/>
					<path class="st13" d="M93.6,91.4c0.1-0.3,0.3-0.9,0.5-1.4c0.2-0.4,0.6-0.7,1.1-0.5c0.4,0.2,0.6,0.5,0.5,0.9
						c-0.1,0.6-0.3,1.1-0.5,1.6C95,92.6,94.6,93,94,92.8C93.5,92.6,93.5,92.1,93.6,91.4z"/>
					<path class="st7" d="M55.7,165.2l-3.6,9.8l2.4,1.2c0,0,3.3-8.1,3.7-8.9C58.7,166.5,55.7,165.2,55.7,165.2z"/>
					<path class="st7" d="M127.4,158.8l-1.5,1.6c0,0,6.1,14.4,8,14.4c1.8,0,0.7-2.9,0.7-2.9s-5.4-11.3-6.3-13.2
						C127.5,157.1,127.4,158.8,127.4,158.8z"/>
				</g>
			</g>
		</g>
	</g>
</g>
</svg>
