<svg xmlns="http://www.w3.org/2000/svg" xmlns:xlink="http://www.w3.org/1999/xlink" viewBox="0 0 2340 2012.2">
  <defs>
    <style>
      .a6727a39-112b-482a-966b-78b3346e3d79 {
        fill: url(#bc1c97b2-b387-413f-8852-7277b3aa6963);
      }

      .f2720df2-2d28-4318-bf46-9f438da1d85d {
        fill: url(#aff2d741-5894-4a83-bb63-39e08a5eff63);
      }

      .b482f18d-a494-47e2-8c61-97f6c9c860a5 {
        fill: url(#bba6ff65-b5a4-48ec-8720-4996d889506d);
      }

      .bfde3d6d-8c3d-4f2c-bdcf-0fdad28f18be {
        fill: url(#ae831e95-8495-41ee-b6d3-05fc20c18e25);
      }

      .aa530f16-7f0c-4fc0-979e-e27e2ad4f569 {
        fill: url(#baa58f22-f8c0-44fd-a41a-5d739bb0abb8);
      }

      .ba01c675-ab4d-40e7-b308-89034a7002dd {
        fill: url(#a6fec02b-43d6-498c-a5aa-c9601027b713);
      }

      .f88585b7-422b-4555-9cdd-5f2ef6c35fca {
        fill: url(#b08cfccb-ef7b-481c-a4cd-e46d78776fa9);
      }

      .aa1085c8-3d7f-46ae-ae6e-86475c5cbea6 {
        fill: url(#bd818306-aa9c-4a0e-933e-1679a828e424);
      }

      .aaee1970-4e40-465f-b662-bc3c498f606c {
        fill: url(#eefcc628-b7df-4c92-8ccd-74e67b643ba1);
      }

      .ecf8a593-9f36-4334-bc12-dc4e7dd1543c {
        fill: url(#f439d035-4483-4173-a1b4-83190ae74924);
      }

      .ae354329-7c04-4fad-88b6-0c818914cc20 {
        fill: url(#fe45fc06-4fa7-45b0-94e1-1a9bbd2176fc);
      }

      .a8549ee2-0514-47da-abcb-7f2e7d3ed042 {
        fill: url(#b920d732-8702-4bac-b3d3-986760d4ef27);
      }

      .ba4f541d-82ce-458c-9acf-35b07ea4be3a {
        fill: url(#f3b7c348-2fc5-4bd0-b7fc-c6ab33fb34ea);
      }

      .ff9fb1c5-37d2-447d-9919-54b3d8bf1bc9 {
        fill: url(#abe5ec29-b1eb-4d4d-b913-1045ebbc8cfd);
      }

      .ec798e2b-ce59-4ffd-9fed-27b04424f912 {
        fill: url(#f7fb0c83-719b-46dc-96a4-9f5c866feb8d);
      }

      .a7a064f7-f56a-4f4d-b1cb-9afa83fce265 {
        fill: url(#a8280579-4fa1-487e-b41c-f3d368d65fd2);
      }

      .a8dbebc4-1a81-4ab2-81d8-73facf2ef909 {
        fill: url(#a8af02f1-aef0-452e-ab56-f1ad3a63ce23);
      }

      .e4529af4-2aef-4ad8-b104-4ee2e55b5709 {
        fill: url(#f7541f6a-98bc-46ae-834c-4faff29a7377);
      }

      .fafd72b1-0dca-4171-9a32-3dce0435529b {
        fill: url(#fc680666-b712-4f5e-aa6c-33aeffe1f163);
      }

      .af38b271-89ca-41dd-ab8f-3f3e00eaac09 {
        fill: url(#bd194b01-01dc-4cc2-a0b4-e01f15c91bc6);
      }

      .b3752a81-08ca-425f-871e-9c8d00efe01a {
        fill: url(#bb0b2b27-a9c1-439b-942c-cb0632ac9df1);
      }

      .b22f7c22-e830-4b79-ada8-a32c7a2903cc {
        fill: url(#bd402718-d2bb-4a59-a9bc-1332c2ac0cac);
      }

      .b61f8f5b-55dc-4a27-84de-7668981d2c5e {
        fill: url(#a1802e33-1a14-4c82-ae8f-7bd77005d1f7);
      }

      .a18893e8-55f3-421b-802d-9051fed13366 {
        fill: url(#bde3898e-20a2-4396-a53f-1677cd4b9432);
      }

      .b7d15426-78b2-430b-b7fa-298091bfbcb6 {
        fill: url(#f205568f-5e44-4013-882c-ba2da4efa837);
      }

      .a9c13eff-aa7e-4ca0-add1-7f66fe0f0c11 {
        fill: url(#a3605e86-b7a6-47fe-a423-8c2eb2232166);
      }

      .a104dcbb-36c3-4328-a1f6-c0fd74088773 {
        fill: url(#ec993c5b-eb43-46b1-b202-f7273ae6b8cb);
      }

      .a4087861-d384-45ec-8147-7790a598e8ab {
        fill: url(#f0f6eb07-fad1-4a34-896d-8abcc803f7c1);
      }

      .a2d836ea-cec8-4b22-8668-e47f394edba9 {
        fill: url(#a83df4af-e8aa-4a37-ba9d-616bfe4f9f7e);
      }

      .a31791c7-0863-446d-b364-f6b4e1e0e499 {
        fill: url(#e43a32c5-97dd-4bd4-94dc-5fd020818638);
      }

      .b213ede6-4c0d-43e4-b13b-5addc8b1441c {
        fill: url(#e2b8131b-0ca6-46e6-beb3-72e7116a39b5);
      }

      .bf11f1a9-1ae6-452d-9c19-be43296315ec {
        fill: url(#f9d99bf2-943b-4690-8bc9-b557b6c4deb9);
      }

      .f2d20de9-11d9-4481-8825-2767a22c5387 {
        fill: url(#b96d2664-e26d-4130-ab55-c6ce0769f243);
      }

      .e50758ee-463b-485d-b9b6-28248211e71d {
        fill: url(#afda294c-8042-4414-8e1b-9d988516f7cd);
      }

      .e77867ab-d2d6-4221-88d3-015b0ec94af5 {
        fill: url(#af24e106-ccf3-4c9a-8058-a9539df0a6f2);
      }

      .e8c3cc85-9b3e-4bf9-81f5-acff20ed5650 {
        fill: url(#f8d0514d-1aac-4cb8-9c4d-4a951f35b4ef);
      }

      .f72ed39a-c7d1-40c1-8ffd-9dc95198db3d {
        fill: url(#afa8310f-efcb-4109-85aa-e8dcaf1c60de);
      }

      .bce49a9b-81f7-4e29-945b-d5f99fbb3d76 {
        fill: url(#ac5f4f1d-a33d-41a8-89dd-108089e56d9f);
      }

      .b8d53220-611a-4f97-87bf-f1d41ae8117b {
        fill: url(#b2c2814c-39f2-4816-b62c-fedcec264806);
      }

      .bf7fd40d-feb5-44e9-9dcd-6d5b42713dd2 {
        fill: url(#b581a867-7642-41df-9376-2a4ea5e94852);
      }

      .bc4e2d08-7e5f-4faf-a2b3-5a4372748f80 {
        fill: url(#ae4d7f8e-281c-48ec-88db-4787ba0bf74c);
      }

      .b2cb3c93-c685-4f35-a397-35935cbb861d {
        fill: url(#f5088ecd-241d-46af-a2ba-72fbc2115f41);
      }

      .b56c7daf-ae66-4099-96a8-2dbaaf500619 {
        fill: url(#ad89f28b-b6b5-4a6f-bcfb-d266c179b987);
      }

      .a4998a7a-25ab-498c-b8c7-3976e9605624 {
        fill: url(#aab98b21-0f77-4cea-8304-3380a59aa856);
      }

      .bd82c023-87fc-43a3-a85d-b6be53862b5b {
        fill: url(#a9249e40-bb6c-4a19-8d09-4a7fa0bfd03e);
      }

      .a0951c12-4203-436f-aaf0-49bee113e373 {
        fill: url(#f18666c5-2c64-4231-b575-23189bfffbd1);
      }

      .b3a47d87-f55e-463d-a17b-f879d32b1daf {
        fill: url(#f098800f-60fb-442d-b548-54d238387ade);
      }

      .fe5dab3c-2e23-40d7-97da-a91e1b4f4b29 {
        fill: url(#a5f7c973-d432-4888-8afd-2f95d4cfb99e);
      }

      .a0bccd7f-6f0c-4200-bf53-e7286bb159cc {
        fill: url(#acf6312f-759e-4165-a3e0-6b4ec24ef3a1);
      }

      .a1894cae-5192-442e-add3-3653f08fe8ab {
        fill: url(#b0fc382c-12ec-4937-bee1-62051db65e53);
      }

      .a95b6a64-1365-4771-8568-dea0b8ee1eda {
        fill: url(#f8aa2ee5-beb7-4ce3-a29a-f3a0c9d4dd44);
      }

      .b39fc829-9daa-461e-ac00-fca20e215f75 {
        fill: url(#e529d4b8-fa93-46b4-88e3-c3cd4c78c5c8);
      }

      .ea98f50b-9e19-42a1-b8a1-b1f998bae5a4 {
        fill: url(#e9b8ab8e-628c-406e-b558-4ee33fa5331a);
      }

      .b88934c2-b1c7-4394-b5df-a277fc4cedae {
        fill: url(#a1188619-b9cd-4972-884a-87885e4de8da);
      }

      .f27c951d-0019-4ab9-a234-b4b2f790b80c {
        fill: url(#ba387f8d-8c7f-4857-b985-f37673081e0f);
      }

      .f426383a-7efe-4b7e-9854-91a897446d60 {
        fill: url(#f9790a05-148a-4987-abf0-8ffd4663b846);
      }

      .b5f74eb6-f01f-4f10-b301-b6db5c7a0c9d {
        fill: url(#fcc2684e-5d1e-40a5-a0be-a2b06ca00a68);
      }

      .ebb81253-94a8-4f73-b64a-54c09dc0f4ce {
        fill: url(#e56533be-457b-461d-99c3-5d581a675ef2);
      }

      .ab2f6d87-232a-4610-9c46-d1d122ebaeaf {
        fill: url(#bb28267f-ec85-4f66-b042-ac815a1b283c);
      }
    </style>
    <linearGradient id="bc1c97b2-b387-413f-8852-7277b3aa6963" x1="-235.46" y1="-3318.81" x2="1941.91" y2="-2362.47" gradientTransform="matrix(1, 0, 0, -1, -19, -1463.92)" gradientUnits="userSpaceOnUse">
      <stop offset="0" stop-color="#ffe7d2"/>
      <stop offset="0.28" stop-color="#f8ceb6"/>
      <stop offset="0.72" stop-color="#c39473"/>
      <stop offset="1" stop-color="#a26e39"/>
    </linearGradient>
    <linearGradient id="aff2d741-5894-4a83-bb63-39e08a5eff63" x1="-265.61" y1="-3250.17" x2="1911.76" y2="-2293.83" xlink:href="#bc1c97b2-b387-413f-8852-7277b3aa6963"/>
    <linearGradient id="bba6ff65-b5a4-48ec-8720-4996d889506d" x1="-398.36" y1="-2947.91" x2="1779.01" y2="-1991.57" xlink:href="#bc1c97b2-b387-413f-8852-7277b3aa6963"/>
    <linearGradient id="ae831e95-8495-41ee-b6d3-05fc20c18e25" x1="-871.67" y1="-3995.19" x2="2616.28" y2="-2421.36" gradientTransform="matrix(1, 0, 0, -1, -19, -1463.92)" gradientUnits="userSpaceOnUse">
      <stop offset="0" stop-color="#ffe7d2"/>
      <stop offset="0.28" stop-color="#f8ceb6"/>
      <stop offset="0.66" stop-color="#c39473"/>
      <stop offset="1" stop-color="#a26e39"/>
    </linearGradient>
    <linearGradient id="baa58f22-f8c0-44fd-a41a-5d739bb0abb8" x1="-977.94" y1="-3759.67" x2="2510.01" y2="-2185.84" xlink:href="#ae831e95-8495-41ee-b6d3-05fc20c18e25"/>
    <linearGradient id="a6fec02b-43d6-498c-a5aa-c9601027b713" x1="-1094.22" y1="-3501.97" x2="2393.73" y2="-1928.14" xlink:href="#ae831e95-8495-41ee-b6d3-05fc20c18e25"/>
    <linearGradient id="b08cfccb-ef7b-481c-a4cd-e46d78776fa9" x1="-1208.55" y1="-3248.6" x2="2279.4" y2="-1674.78" xlink:href="#ae831e95-8495-41ee-b6d3-05fc20c18e25"/>
    <linearGradient id="bd818306-aa9c-4a0e-933e-1679a828e424" x1="-1313.54" y1="-3015.91" x2="2174.41" y2="-1442.08" xlink:href="#ae831e95-8495-41ee-b6d3-05fc20c18e25"/>
    <linearGradient id="eefcc628-b7df-4c92-8ccd-74e67b643ba1" x1="-1402.71" y1="-2818.29" x2="2085.23" y2="-1244.46" xlink:href="#ae831e95-8495-41ee-b6d3-05fc20c18e25"/>
    <linearGradient id="f439d035-4483-4173-a1b4-83190ae74924" x1="-1468.91" y1="-2671.59" x2="2019.04" y2="-1097.76" xlink:href="#ae831e95-8495-41ee-b6d3-05fc20c18e25"/>
    <linearGradient id="fe45fc06-4fa7-45b0-94e1-1a9bbd2176fc" x1="-1506.46" y1="-2588.36" x2="1981.49" y2="-1014.53" xlink:href="#ae831e95-8495-41ee-b6d3-05fc20c18e25"/>
    <linearGradient id="b920d732-8702-4bac-b3d3-986760d4ef27" x1="-1511.25" y1="-2577.74" x2="1976.7" y2="-1003.91" xlink:href="#ae831e95-8495-41ee-b6d3-05fc20c18e25"/>
    <linearGradient id="f3b7c348-2fc5-4bd0-b7fc-c6ab33fb34ea" x1="-923.19" y1="-3881.01" x2="2564.76" y2="-2307.18" xlink:href="#ae831e95-8495-41ee-b6d3-05fc20c18e25"/>
    <linearGradient id="abe5ec29-b1eb-4d4d-b913-1045ebbc8cfd" x1="-998.72" y1="-3713.62" x2="2489.23" y2="-2139.79" xlink:href="#ae831e95-8495-41ee-b6d3-05fc20c18e25"/>
    <linearGradient id="f7fb0c83-719b-46dc-96a4-9f5c866feb8d" x1="-1085.4" y1="-3521.52" x2="2402.55" y2="-1947.69" xlink:href="#ae831e95-8495-41ee-b6d3-05fc20c18e25"/>
    <linearGradient id="a8280579-4fa1-487e-b41c-f3d368d65fd2" x1="-1176.34" y1="-3319.98" x2="2311.61" y2="-1746.15" xlink:href="#ae831e95-8495-41ee-b6d3-05fc20c18e25"/>
    <linearGradient id="a8af02f1-aef0-452e-ab56-f1ad3a63ce23" x1="-1263.96" y1="-3125.79" x2="2223.99" y2="-1551.96" xlink:href="#ae831e95-8495-41ee-b6d3-05fc20c18e25"/>
    <linearGradient id="f7541f6a-98bc-46ae-834c-4faff29a7377" x1="-1340.79" y1="-2955.54" x2="2147.16" y2="-1381.71" xlink:href="#ae831e95-8495-41ee-b6d3-05fc20c18e25"/>
    <linearGradient id="fc680666-b712-4f5e-aa6c-33aeffe1f163" x1="-1400.19" y1="-2823.89" x2="2087.76" y2="-1250.06" xlink:href="#ae831e95-8495-41ee-b6d3-05fc20c18e25"/>
    <linearGradient id="bd194b01-01dc-4cc2-a0b4-e01f15c91bc6" x1="-1436.82" y1="-2742.7" x2="2051.13" y2="-1168.87" xlink:href="#ae831e95-8495-41ee-b6d3-05fc20c18e25"/>
    <linearGradient id="bb0b2b27-a9c1-439b-942c-cb0632ac9df1" x1="-1447.57" y1="-2718.87" x2="2040.38" y2="-1145.04" xlink:href="#ae831e95-8495-41ee-b6d3-05fc20c18e25"/>
    <linearGradient id="bd402718-d2bb-4a59-a9bc-1332c2ac0cac" x1="-1103.26" y1="-3481.94" x2="2384.69" y2="-1908.11" xlink:href="#ae831e95-8495-41ee-b6d3-05fc20c18e25"/>
    <linearGradient id="a1802e33-1a14-4c82-ae8f-7bd77005d1f7" x1="-925.53" y1="-3875.83" x2="2562.42" y2="-2302" xlink:href="#ae831e95-8495-41ee-b6d3-05fc20c18e25"/>
    <linearGradient id="bde3898e-20a2-4396-a53f-1677cd4b9432" x1="-1046.15" y1="-3608.5" x2="2441.8" y2="-2034.67" xlink:href="#ae831e95-8495-41ee-b6d3-05fc20c18e25"/>
    <linearGradient id="f205568f-5e44-4013-882c-ba2da4efa837" x1="-1177.11" y1="-3318.27" x2="2310.84" y2="-1744.44" xlink:href="#ae831e95-8495-41ee-b6d3-05fc20c18e25"/>
    <linearGradient id="a3605e86-b7a6-47fe-a423-8c2eb2232166" x1="-1386.51" y1="-2854.2" x2="2101.44" y2="-1280.37" xlink:href="#ae831e95-8495-41ee-b6d3-05fc20c18e25"/>
    <linearGradient id="ec993c5b-eb43-46b1-b202-f7273ae6b8cb" x1="-1295.05" y1="-3056.9" x2="2192.9" y2="-1483.07" xlink:href="#ae831e95-8495-41ee-b6d3-05fc20c18e25"/>
    <linearGradient id="f0f6eb07-fad1-4a34-896d-8abcc803f7c1" x1="-1465.31" y1="-2679.56" x2="2022.64" y2="-1105.73" xlink:href="#ae831e95-8495-41ee-b6d3-05fc20c18e25"/>
    <linearGradient id="a83df4af-e8aa-4a37-ba9d-616bfe4f9f7e" x1="-1513.09" y1="-2573.67" x2="1974.86" y2="-999.84" xlink:href="#ae831e95-8495-41ee-b6d3-05fc20c18e25"/>
    <linearGradient id="e43a32c5-97dd-4bd4-94dc-5fd020818638" x1="-1532.62" y1="-2530.38" x2="1955.33" y2="-956.55" xlink:href="#ae831e95-8495-41ee-b6d3-05fc20c18e25"/>
    <linearGradient id="e2b8131b-0ca6-46e6-beb3-72e7116a39b5" x1="-1510.84" y1="-2578.66" x2="1977.11" y2="-1004.83" xlink:href="#ae831e95-8495-41ee-b6d3-05fc20c18e25"/>
    <linearGradient id="f9d99bf2-943b-4690-8bc9-b557b6c4deb9" x1="-670.87" y1="-4440.22" x2="2817.08" y2="-2866.39" xlink:href="#ae831e95-8495-41ee-b6d3-05fc20c18e25"/>
    <linearGradient id="b96d2664-e26d-4130-ab55-c6ce0769f243" x1="-700.18" y1="-4375.26" x2="2787.77" y2="-2801.43" xlink:href="#ae831e95-8495-41ee-b6d3-05fc20c18e25"/>
    <linearGradient id="afda294c-8042-4414-8e1b-9d988516f7cd" x1="-760.34" y1="-4241.93" x2="2727.61" y2="-2668.1" xlink:href="#ae831e95-8495-41ee-b6d3-05fc20c18e25"/>
    <linearGradient id="af24e106-ccf3-4c9a-8058-a9539df0a6f2" x1="-845.94" y1="-4052.22" x2="2642.01" y2="-2478.39" xlink:href="#ae831e95-8495-41ee-b6d3-05fc20c18e25"/>
    <linearGradient id="f8d0514d-1aac-4cb8-9c4d-4a951f35b4ef" x1="-949.66" y1="-3822.37" x2="2538.29" y2="-2248.54" xlink:href="#ae831e95-8495-41ee-b6d3-05fc20c18e25"/>
    <linearGradient id="afa8310f-efcb-4109-85aa-e8dcaf1c60de" x1="-1063.56" y1="-3569.94" x2="2424.39" y2="-1996.11" xlink:href="#ae831e95-8495-41ee-b6d3-05fc20c18e25"/>
    <linearGradient id="ac5f4f1d-a33d-41a8-89dd-108089e56d9f" x1="-1177.21" y1="-3318.06" x2="2310.74" y2="-1744.23" xlink:href="#ae831e95-8495-41ee-b6d3-05fc20c18e25"/>
    <linearGradient id="b2c2814c-39f2-4816-b62c-fedcec264806" x1="-1282.23" y1="-3085.3" x2="2205.72" y2="-1511.47" xlink:href="#ae831e95-8495-41ee-b6d3-05fc20c18e25"/>
    <linearGradient id="b581a867-7642-41df-9376-2a4ea5e94852" x1="-1370.25" y1="-2890.24" x2="2117.7" y2="-1316.41" xlink:href="#ae831e95-8495-41ee-b6d3-05fc20c18e25"/>
    <linearGradient id="ae4d7f8e-281c-48ec-88db-4787ba0bf74c" x1="-769.87" y1="-4220.82" x2="2718.08" y2="-2646.99" xlink:href="#ae831e95-8495-41ee-b6d3-05fc20c18e25"/>
    <linearGradient id="f5088ecd-241d-46af-a2ba-72fbc2115f41" x1="-786.19" y1="-4184.64" x2="2701.76" y2="-2610.81" xlink:href="#ae831e95-8495-41ee-b6d3-05fc20c18e25"/>
    <linearGradient id="ad89f28b-b6b5-4a6f-bcfb-d266c179b987" x1="-827.35" y1="-4093.43" x2="2660.6" y2="-2519.6" xlink:href="#ae831e95-8495-41ee-b6d3-05fc20c18e25"/>
    <linearGradient id="aab98b21-0f77-4cea-8304-3380a59aa856" x1="-889.84" y1="-3954.92" x2="2598.11" y2="-2381.09" xlink:href="#ae831e95-8495-41ee-b6d3-05fc20c18e25"/>
    <linearGradient id="a9249e40-bb6c-4a19-8d09-4a7fa0bfd03e" x1="-968.99" y1="-3779.51" x2="2518.96" y2="-2205.68" xlink:href="#ae831e95-8495-41ee-b6d3-05fc20c18e25"/>
    <linearGradient id="f18666c5-2c64-4231-b575-23189bfffbd1" x1="-1058.3" y1="-3581.59" x2="2429.65" y2="-2007.76" xlink:href="#ae831e95-8495-41ee-b6d3-05fc20c18e25"/>
    <linearGradient id="f098800f-60fb-442d-b548-54d238387ade" x1="-1151.55" y1="-3374.93" x2="2336.4" y2="-1801.1" xlink:href="#ae831e95-8495-41ee-b6d3-05fc20c18e25"/>
    <linearGradient id="a5f7c973-d432-4888-8afd-2f95d4cfb99e" x1="-1240.91" y1="-3176.89" x2="2247.04" y2="-1603.06" xlink:href="#ae831e95-8495-41ee-b6d3-05fc20c18e25"/>
    <linearGradient id="acf6312f-759e-4165-a3e0-6b4ec24ef3a1" x1="-1318.25" y1="-3005.49" x2="2169.7" y2="-1431.66" xlink:href="#ae831e95-8495-41ee-b6d3-05fc20c18e25"/>
    <linearGradient id="b0fc382c-12ec-4937-bee1-62051db65e53" x1="-649.83" y1="-4486.84" x2="2838.12" y2="-2913.01" xlink:href="#ae831e95-8495-41ee-b6d3-05fc20c18e25"/>
    <linearGradient id="f8aa2ee5-beb7-4ce3-a29a-f3a0c9d4dd44" x1="-706.77" y1="-4360.66" x2="2781.18" y2="-2786.83" xlink:href="#ae831e95-8495-41ee-b6d3-05fc20c18e25"/>
    <linearGradient id="e529d4b8-fa93-46b4-88e3-c3cd4c78c5c8" x1="-797.15" y1="-4160.36" x2="2690.8" y2="-2586.53" xlink:href="#ae831e95-8495-41ee-b6d3-05fc20c18e25"/>
    <linearGradient id="e9b8ab8e-628c-406e-b558-4ee33fa5331a" x1="-1015.92" y1="-3675.51" x2="2472.03" y2="-2101.68" xlink:href="#ae831e95-8495-41ee-b6d3-05fc20c18e25"/>
    <linearGradient id="a1188619-b9cd-4972-884a-87885e4de8da" x1="-906.93" y1="-3917.06" x2="2581.02" y2="-2343.23" xlink:href="#ae831e95-8495-41ee-b6d3-05fc20c18e25"/>
    <linearGradient id="ba387f8d-8c7f-4857-b985-f37673081e0f" x1="-1137.2" y1="-3406.71" x2="2350.74" y2="-1832.88" xlink:href="#ae831e95-8495-41ee-b6d3-05fc20c18e25"/>
    <linearGradient id="f9790a05-148a-4987-abf0-8ffd4663b846" x1="-1247.41" y1="-3162.49" x2="2240.54" y2="-1588.66" xlink:href="#ae831e95-8495-41ee-b6d3-05fc20c18e25"/>
    <linearGradient id="fcc2684e-5d1e-40a5-a0be-a2b06ca00a68" x1="-1350.28" y1="-2934.5" x2="2137.67" y2="-1360.67" xlink:href="#ae831e95-8495-41ee-b6d3-05fc20c18e25"/>
    <linearGradient id="e56533be-457b-461d-99c3-5d581a675ef2" x1="-1410.36" y1="-2801.34" x2="2077.59" y2="-1227.51" xlink:href="#ae831e95-8495-41ee-b6d3-05fc20c18e25"/>
    <linearGradient id="bb28267f-ec85-4f66-b042-ac815a1b283c" x1="-1059.71" y1="-3578.47" x2="2428.24" y2="-2004.64" xlink:href="#ae831e95-8495-41ee-b6d3-05fc20c18e25"/>
  </defs>
  <title>logo-2</title>
  <g id="b966314a-7a0c-4202-bfbf-0fc0584a5229" data-name="Layer 2">
    <g id="ad7526de-ee8e-42d5-a8b1-2139d1dbc6f7" data-name="Layer 1">
      <g id="aa9d9e3a-6df0-4559-847f-4fa651959d6c" data-name="Layer 2">
        <g id="b3679ef3-15bd-4f86-b04e-b83c0a877902" data-name="Layer 2-2">
          <polygon class="a6727a39-112b-482a-966b-78b3346e3d79" points="1891.2 910.9 1863.5 943.9 1805.9 1012.5 1720.6 1114.2 1565.6 1298.9 1440.9 1447.5 1415.3 1478 1333.9 1575 1316.2 1596.1 1252.5 1672 1191.5 1744.7 1191.5 694.9 1420.9 694.9 1316.3 819.6 1316.2 819.6 1316.2 1402.1 1333.9 1381 1440.9 1253.5 1565.6 1104.9 1654.3 999.3 1700.7 943.9 1739.5 897.6 1805 819.6 1824.8 796 1838.5 819.6 1891.2 910.9"/>
          <polygon class="f2720df2-2d28-4318-bf46-9f438da1d85d" points="1150.6 694.9 1150.6 1744.5 1089.8 1672 1025.9 1595.9 1025.9 819.6 788 819.6 818.5 766.8 860 694.9 1150.6 694.9"/>
          <polygon class="b482f18d-a494-47e2-8c61-97f6c9c860a5" points="1758.5 681.1 1746.9 694.9 1673.2 782.7 1642.3 819.6 1587.9 884.3 1565.6 911 1538 943.9 1440.9 1059.5 1440.9 865.6 1479.5 819.6 1521.6 769.4 1565.6 717 1584.1 694.9 1606.9 667.8 1565.6 596.3 1550.5 570.2 788 570.2 775.4 591.9 733.2 665.1 716 694.9 666.8 780 644 819.6 600.5 894.9 641.6 943.9 685.8 996.6 775.4 1103.4 775.4 943.9 900.1 943.9 900.1 1446 845.4 1380.8 775.4 1297.4 619.4 1111.5 534.2 1009.9 478.8 943.9 448.9 908.2 500 819.6 515.2 793.3 572 694.9 581.6 678.4 644 570.2 647.9 563.5 716 445.5 1622.5 445.5 1625.6 450.9 1692.1 566.1 1688.7 570.2 1694.5 570.2 1758.5 681.1"/>
          <path class="bfde3d6d-8c3d-4f2c-bdcf-0fdad28f18be" d="M421.6,1901.5s3.3,1.8,9.2,4.7a218.8,218.8,0,0,0,25,10.3,339.4,339.4,0,0,0,37,10.6,270.9,270.9,0,0,0,44.9,5.2,178.1,178.1,0,0,0,47.7-4.6c16-3.6,31.2-9.1,45.6-18,28.8-17.5,52.2-45.9,68-87.9a313,313,0,0,0-32.9-6.4,260,260,0,0,0-30.4-3.7c-9.8-.4-19.2-.6-28.2-.5a260.3,260.3,0,0,0-26.5,2,243.7,243.7,0,0,0-86.8,27.6,239.6,239.6,0,0,0-54.2,39.6C427.7,1892.5,421.6,1901.5,421.6,1901.5Z"/>
          <path class="aa530f16-7f0c-4fc0-979e-e27e2ad4f569" d="M291.3,1642.7a222.9,222.9,0,0,0-60.2,21.9c-14.4,7.7-22.4,14.4-22.4,14.4s2.4,2.5,7,6.6a203.9,203.9,0,0,0,19.9,15.9,334.9,334.9,0,0,0,30.6,19.3,246.7,246.7,0,0,0,39.3,16.7,169.8,169.8,0,0,0,44.6,8.9,150.3,150.3,0,0,0,46.3-3.9c31.2-8.1,60.6-27.3,86.9-61.1-38.6-22.7-72.9-35.5-105.3-40.6A225.8,225.8,0,0,0,291.3,1642.7Z"/>
          <path class="ba01c675-ab4d-40e7-b308-89034a7002dd" d="M109,1462.3a231.8,231.8,0,0,0,31.4,25.3,156.6,156.6,0,0,0,38.1,19.7,142.7,142.7,0,0,0,43.2,8.8c30.6,1,62.8-8.5,95.9-32.2-28.9-31.3-57-52-85.1-65.4s-55-19.4-79.9-20.9a218.2,218.2,0,0,0-60.8,4.5,145.1,145.1,0,0,0-24.3,7.4s6,11.7,18.7,27.2A291.4,291.4,0,0,0,109,1462.3Z"/>
          <path class="f88585b7-422b-4555-9cdd-5f2ef6c35fca" d="M118.6,1251.2c27.5,9,59.4,9,96-3.9-9.4-18-18.4-33.9-28.7-47.3s-20.6-25-31.8-34.7c-22.5-19.4-45.4-32-67.4-39.6a202.4,202.4,0,0,0-57.1-11.3,130.3,130.3,0,0,0-24.2.6,238.3,238.3,0,0,0,10.3,29.4c6.7,17.3,19.2,39.6,36,59.8S91.6,1242.3,118.6,1251.2Z"/>
          <path class="aa1085c8-3d7f-46ae-ae6e-86475c5cbea6" d="M25.8,846.9a249.5,249.5,0,0,0,6,29.8,166,166,0,0,0,12,33.6c10.7,22.7,26,44.5,49,59.6s51.7,23.4,88.3,21.2c-13.3-75.2-49.2-118-85.9-143.3a187.4,187.4,0,0,0-49-24.5A128.6,128.6,0,0,0,24,817.8s-.1,2.9.1,8A165.2,165.2,0,0,0,25.8,846.9Z"/>
          <path class="aaee1970-4e40-465f-b662-bc3c498f606c" d="M124.7,661a125.1,125.1,0,0,0,19.6,32c16.5,19.6,40.6,34.6,74.5,42.2,7.4-71.9-13.9-120-40.9-152.4A190.2,190.2,0,0,0,139.4,548a119.5,119.5,0,0,0-18.8-10.6s-.9,2.6-2,7.2-2.4,11.5-3.6,19.8a269.6,269.6,0,0,0-2.4,28.4,199.3,199.3,0,0,0,2.5,33.6C117.1,638,119.8,649.6,124.7,661Z"/>
          <path class="ecf8a593-9f36-4334-bc12-dc4e7dd1543c" d="M326.5,499.5A204.1,204.1,0,0,0,340,454.8a162.9,162.9,0,0,0,3.6-39.4c-.7-24.9-6.1-46.1-14.2-64.1a172.9,172.9,0,0,0-26-41.6,114.4,114.4,0,0,0-14.2-14.5c-1.3,2-2.5,4-3.6,6.1-2.2,4-5.1,9.7-8.3,16.8a251.5,251.5,0,0,0-9.6,24.9,207.8,207.8,0,0,0-6.3,31c-3,21.7-.9,45.9,8.9,67.9S297.8,483.8,326.5,499.5Z"/>
          <path class="ae354329-7c04-4fad-88b6-0c818914cc20" d="M496.8,304c40.1-49.8,47-95.8,42.3-132.5a162.3,162.3,0,0,0-12.4-44.3,117.2,117.2,0,0,0-8.9-16.8A183.9,183.9,0,0,0,501,127.8c-5.4,6.4-10.5,13-15.3,19.9a180.6,180.6,0,0,0-13.8,26.1,133.6,133.6,0,0,0-9.3,30.2,108.1,108.1,0,0,0-.7,33.1C464.7,259.5,475.4,282.2,496.8,304Z"/>
          <path class="a8549ee2-0514-47da-abcb-7f2e7d3ed042" d="M791.5,60.4a154.2,154.2,0,0,0,1.2-42.9A117.5,117.5,0,0,0,789.3,0a198.6,198.6,0,0,0-19.7,11,208.2,208.2,0,0,0-18.9,13.4A171.8,171.8,0,0,0,731,43.8a133.9,133.9,0,0,0-16.6,24.3,104.7,104.7,0,0,0-9.8,29.2c-3.7,21-.5,44.2,12.5,69.6C766.8,133.6,785.6,94.4,791.5,60.4Z"/>
          <path class="ba4f541d-82ce-458c-9acf-35b07ea4be3a" d="M717.4,1588.7c-3-4-5.5-7.6-7.4-10a42.2,42.2,0,0,0-3-3.5c-3.7,5.7-7.2,11.6-10.3,17.6a187.8,187.8,0,0,0-16.8,45.2c-4,18.2-5,39,1.1,61s20.1,44.1,45.6,62.8c15.4-28.8,20.4-55.3,20.7-77.9a162.7,162.7,0,0,0-10.5-58.1c-3.1-7.7-6.4-14.9-9.7-21.3A128.8,128.8,0,0,0,717.4,1588.7Z"/>
          <path class="ff9fb1c5-37d2-447d-9919-54b3d8bf1bc9" d="M566.2,1569.3c6.2-20.5,7.7-40.3,6.1-56.4s-4.5-30.5-8-39.9c-1.7-4.8-3.1-8.9-4.2-11.5a30.5,30.5,0,0,0-1.9-4.1,186.6,186.6,0,0,0-41.8,50.2c-17,30.8-27,77.4,9,127C547.8,1612.6,559.8,1590,566.2,1569.3Z"/>
          <path class="ec798e2b-ce59-4ffd-9fed-27b04424f912" d="M423.7,1404.3a138.4,138.4,0,0,0,20.6-50.6c3-15.5,3.7-29.4,3-39.3-.4-4.9-.8-9-1-11.7a21.3,21.3,0,0,0-.7-4.4,152.7,152.7,0,0,0-16.6,8.5,173,173,0,0,0-34.8,26.5c-23.6,23.9-45,64-25.3,119.4C395.3,1438.8,412.3,1421.4,423.7,1404.3Z"/>
          <path class="a7a064f7-f56a-4f4d-b1cb-9afa83fce265" d="M332.6,1202.8a135,135,0,0,0,32-41.1c6.4-13.5,11-26.4,12.9-35.8a81.9,81.9,0,0,0,2-11.2c.2-2.6.4-4.1.4-4.1a146.9,146.9,0,0,0-17.3,3.4,160.3,160.3,0,0,0-38.5,15.3c-14,8.1-28.2,19.7-39.1,36.6a104.3,104.3,0,0,0-12.1,29.1,135.9,135.9,0,0,0-3.3,17.8,163.5,163.5,0,0,0,0,19.8C297.4,1226.9,317.6,1215.6,332.6,1202.8Z"/>
          <path class="a8dbebc4-1a81-4ab2-81d8-73facf2ef909" d="M247.6,958.3c-5.3,9.5-9.4,20.6-12.4,33.6,26.7,2,48.1-3.1,65.2-11s29.5-18.9,39.7-29.7,16-21.8,20.8-29.9a76.7,76.7,0,0,0,6.4-13.6,116.2,116.2,0,0,0-16.7-1.2,147.2,147.2,0,0,0-39.1,4.4c-15.2,3.9-31.3,10.9-44.9,23.7A108.7,108.7,0,0,0,247.6,958.3Z"/>
          <path class="e4529af4-2aef-4ad8-b104-4ee2e55b5709" d="M373.6,739.9a122.8,122.8,0,0,0,26.8-22c6-6.4,9.3-10.8,9.3-10.8a110.3,110.3,0,0,0-14.9-5.4,143,143,0,0,0-36.8-6c-28.8-.6-65.9,9.7-90.4,54.2C315.2,767.2,350.6,754.5,373.6,739.9Z"/>
          <path class="fafd72b1-0dca-4171-9a32-3dce0435529b" d="M495.4,531.4l8.3-5.3,3-2.2a133.6,133.6,0,0,0-43.9-23.7c-25.9-7.9-62.1-8.2-96.1,25.6,38.3,28.2,73.8,26,98.5,18.7A115.7,115.7,0,0,0,495.4,531.4Z"/>
          <path class="af38b271-89ca-41dd-ab8f-3f3e00eaac09" d="M640.1,377.8l9-2.6,3.3-1.2a122.7,122.7,0,0,0-33.2-33c-21-13.9-53.8-24-93.4-2.5,27,35.7,59.2,43,83.6,43A105.9,105.9,0,0,0,640.1,377.8Z"/>
          <path class="b3752a81-08ca-425f-871e-9c8d00efe01a" d="M796,267.3a107.2,107.2,0,0,0,28.6,4.9l8.8.2,3.4-.2a118.9,118.9,0,0,0-20.6-38.6,82.4,82.4,0,0,0-31.5-23.9,77.7,77.7,0,0,0-23.1-5.8,102.8,102.8,0,0,0-28.2,1.8C747.5,245.2,774,260.1,796,267.3Z"/>
          <path class="b22f7c22-e830-4b79-ada8-a32c7a2903cc" d="M210.7,828c-1.6,9.6-3.3,19.2-4.8,28.9s-2.8,19.4-4,29.1-2.5,19.5-3.3,29.3c-1.1,19.8-3.3,39.4-3.2,59.2l-.4,29.8.8,29.7.5,14.9,1.2,14.8,2.3,29.8c16.3,158.1,75.4,310.7,162.4,431,43,60.5,92.6,112.9,144,157.2A857.6,857.6,0,0,0,664.7,1788a811,811,0,0,0,149.5,59.7c46,13.2,87.3,21.1,121.5,25.1,8.5,1,16.6,2.3,24.2,3l5.7.4c2.8.1,157.3,15.7,176.7,136V1848.6l-98.8-.2-27.2-.4h-14.9l-17.8-1.2-20.7-1.4c-7.4-.4-15.1-1.7-23.4-2.6-33-3.6-72.8-10.9-117.4-23.4a776.3,776.3,0,0,1-144.9-56.6,821.7,821.7,0,0,1-154.3-102c-50.2-42.7-98.9-93.3-141.1-152-85.4-116.6-143.9-265.2-160.6-419.8s7.3-313.8,65.7-448.3S432.2,395.3,522,319.4,701.7,198.6,766.1,174.7c16.2-6,30.6-11.3,43.5-15l17.9-5.5c13.1,5.1,25.6,9.3,37.4,11.8,14.3,2.8,28.1,4.9,41,4.9a223.1,223.1,0,0,0,36.5-3.3,154.7,154.7,0,0,0,16.6-4.1c5.4-1.5,10.6-2.8,15.7-4.6a255.8,255.8,0,0,0,27.6-11.6c7.4-3.4,14.7-7.2,21.8-11.3a205.4,205.4,0,0,0,19.5-12.9,141.8,141.8,0,0,0-19.4-13.3A200.8,200.8,0,0,0,1001,98.2a180.8,180.8,0,0,0-30.5-9c-5.6-1.2-11.5-2.1-17.7-2.8a165.6,165.6,0,0,0-18.7-.2c-12.9.6-26.4,2.1-39.9,6.9-24.5,7.9-49.3,23.5-69.8,49.1-17.2,5-40,11.8-67.1,22-32.5,12.7-71.9,29-114.1,53.2a866.2,866.2,0,0,0-133.9,93.2c-11.7,9.3-22.5,20.2-34.1,30.5s-22.3,22.1-33.8,33.4-22,23.8-32.8,36.6S387,436.7,377,450.7c-41.2,54.7-78.7,116.9-107.9,185.7-15.2,34.1-27.3,70.2-38.4,106.9-4.8,18.6-10.4,37.1-14,56.1C214.7,808.9,212.3,818.4,210.7,828Z"/>
          <path class="b61f8f5b-55dc-4a27-84de-7668981d2c5e" d="M348.7,1788.7c-9.4-1-18.4,1.4-24.6,7.8s-8.4,15.5-6.8,25.4,7.4,19.4,16.3,27.5c17.8,16.5,42.5,17.4,53.7,3.6s6-36.3-10.6-51.6A48.5,48.5,0,0,0,348.7,1788.7Z"/>
          <path class="a18893e8-55f3-421b-802d-9051fed13366" d="M188.7,1622c14.2-9.7,15.2-31.4,4.3-49.7s-32.2-26.1-46.6-17.8-17.5,31.1-5.5,50.4S174.9,1631.5,188.7,1622Z"/>
          <path class="b7d15426-78b2-430b-b7fa-298091bfbcb6" d="M72.3,1286.6c-4.9-17.3-19.7-28.8-33.5-25.5S17,1282,22.1,1300.3s20.4,29.5,34.2,25.2S76.9,1303.9,72.3,1286.6Z"/>
          <path class="a9c13eff-aa7e-4ca0-add1-7f66fe0f0c11" d="M67.7,750.1c12.2,2.9,25.2-6.9,29.3-21.7s-2.4-29.8-14.5-33.5-25.4,5.9-29.7,21.6S55.3,747.2,67.7,750.1Z"/>
          <path class="a104dcbb-36c3-4328-a1f6-c0fd74088773" d="M22.9,1018.6c12.9-.3,22.3-13.1,22.9-28.6s-9.6-28.6-22.2-29.1S.4,973.1,0,989.5,10.5,1018.8,22.9,1018.6Z"/>
          <path class="a4087861-d384-45ec-8147-7790a598e8ab" d="M186.8,478.3c10.2,5.8,24.1.4,31.7-11.6s5.5-27.2-4.3-33.6-24.3-1.2-32.2,11.5S176.5,472.5,186.8,478.3Z"/>
          <path class="a2d836ea-cec8-4b22-8668-e47f394edba9" d="M398.2,259.3c9.7-8.8,11.8-22.6,4.6-30.8s-21.4-7.3-31.6,1.9-11.6,23.7-4,31.3S388.4,268.1,398.2,259.3Z"/>
          <path class="a31791c7-0863-446d-b364-f6b4e1e0e499" d="M638.2,96.6c10-4.7,15-15.3,11.3-23.7s-15.4-11.2-25.8-6.2-15.5,15.7-11.2,24S628.1,101.3,638.2,96.6Z"/>
          <path class="b213ede6-4c0d-43e4-b13b-5addc8b1441c" d="M875.8,45.4c9.6-1.8,16.2-9.9,14.9-18.1s-10.5-13.4-20.5-11.6-16.7,10.1-15,18.2S866.2,47.2,875.8,45.4Z"/>
          <path class="bf11f1a9-1ae6-452d-9c19-be43296315ec" d="M1759,1813.2a231.1,231.1,0,0,0-26.3-2.1c-9,0-18.4.2-28.4.6a236.5,236.5,0,0,0-30.3,3.7,303.4,303.4,0,0,0-32.9,6.4c15.7,42,39.1,70.4,68,87.9,14.4,8.9,29.7,14.4,45.6,18a182.2,182.2,0,0,0,47.7,4.6,270.9,270.9,0,0,0,44.9-5.2,363.4,363.4,0,0,0,37-10.6,247.7,247.7,0,0,0,25-10.3l9.1-4.7a169.7,169.7,0,0,0-18.3-21.1,237.9,237.9,0,0,0-54.3-39.6A243.7,243.7,0,0,0,1759,1813.2Z"/>
          <path class="f2d20de9-11d9-4481-8825-2767a22c5387" d="M2073.8,1720.8a334.9,334.9,0,0,0,30.6-19.3,205.1,205.1,0,0,0,20-15.9c4.6-4.1,7-6.6,7-6.6s-8-6.7-22.4-14.4a222.9,222.9,0,0,0-60.2-21.9,226.4,226.4,0,0,0-86.8-1.9c-32.4,5.1-66.7,17.9-105.2,40.6,26.2,33.9,55.7,53,86.9,61.1a150.1,150.1,0,0,0,46.3,3.9,169.9,169.9,0,0,0,44.5-8.9A226.3,226.3,0,0,0,2073.8,1720.8Z"/>
          <path class="e50758ee-463b-485d-b9b6-28248211e71d" d="M2253.8,1436.7c12.7-15.5,18.8-27.2,18.8-27.2a149.1,149.1,0,0,0-24.4-7.4,217.6,217.6,0,0,0-60.8-4.5,215.2,215.2,0,0,0-79.8,20.9c-28,13.3-56.2,34.1-85.2,65.4,33.2,23.7,65.4,33.2,95.9,32.2a144.5,144.5,0,0,0,43.2-8.8,157.2,157.2,0,0,0,38.2-19.7,244.9,244.9,0,0,0,31.4-25.3A307.4,307.4,0,0,0,2253.8,1436.7Z"/>
          <path class="e77867ab-d2d6-4221-88d3-015b0ec94af5" d="M2334.6,1115a138.4,138.4,0,0,0-24.1-.6,206,206,0,0,0-57.1,11.3c-22.1,7.7-45,20.2-67.5,39.6-11.1,9.7-21.2,21.2-31.8,34.7s-19.3,29.3-28.6,47.4c36.6,12.8,68.3,12.8,96,3.9s49.6-26.8,66.8-47,29.3-42.6,36-59.9A238.3,238.3,0,0,0,2334.6,1115Z"/>
          <path class="e8c3cc85-9b3e-4bf9-81f5-acff20ed5650" d="M2158.8,991c36.8,2.3,65.7-6,88.4-21.2s38.3-36.9,49-59.5a168.6,168.6,0,0,0,12.1-33.6,302.2,302.2,0,0,0,6-29.8c1.4-8.8,1.4-16,1.7-21.1s.1-8,.1-8a129.5,129.5,0,0,0-22.3,5.4,195.5,195.5,0,0,0-49,24.5C2208.1,873,2172.3,915.8,2158.8,991Z"/>
          <path class="f72ed39a-c7d1-40c1-8ffd-9dc95198db3d" d="M2121.3,735.1c33.9-7.5,57.9-22.5,74.4-42.1a125.1,125.1,0,0,0,19.6-32c5-11.4,7.7-23,9.7-34.7a198.5,198.5,0,0,0,2.5-33.6,269.6,269.6,0,0,0-2.4-28.4c-1.2-8.2-2.5-15-3.6-19.7s-2-7.2-2-7.2a119.5,119.5,0,0,0-18.8,10.6,187.6,187.6,0,0,0-38.5,34.8C2135.2,615.1,2113.8,663.2,2121.3,735.1Z"/>
          <path class="bce49a9b-81f7-4e29-945b-d5f99fbb3d76" d="M2013.6,499.5c28.6-15.7,46.4-35.7,56.2-57.6s11.9-46.2,9-67.8a206.8,206.8,0,0,0-6.4-31.1,236.4,236.4,0,0,0-9.6-24.9c-3.1-7.1-6.1-12.8-8.2-16.8-1.1-2.1-2.3-4.1-3.6-6.1a115.2,115.2,0,0,0-14.3,14.5A170.1,170.1,0,0,0,2000,454.8,204.3,204.3,0,0,0,2013.6,499.5Z"/>
          <path class="b8d53220-611a-4f97-87bf-f1d41ae8117b" d="M1878.2,237.1a111.4,111.4,0,0,0-.7-33.1,133.9,133.9,0,0,0-9.4-30.2,171.8,171.8,0,0,0-13.9-26.1,243.3,243.3,0,0,0-15.2-19.9,195.5,195.5,0,0,0-16.7-17.4,109.5,109.5,0,0,0-9,16.9,162.1,162.1,0,0,0-12.3,44.3c-4.6,36.7,2.2,82.7,42.3,132.5C1864.7,282.2,1875.3,259.5,1878.2,237.1Z"/>
          <path class="bf7fd40d-feb5-44e9-9dcd-6d5b42713dd2" d="M1622.9,166.9c13-25.4,16.2-48.6,12.6-69.6a104.7,104.7,0,0,0-9.8-29.2A139.7,139.7,0,0,0,1609,43.8a171,171,0,0,0-19.6-19.4,209.6,209.6,0,0,0-19-13.4,165,165,0,0,0-19.7-11,103.9,103.9,0,0,0-3.3,17.5,146.9,146.9,0,0,0,1.2,42.9C1554.5,94.4,1573.3,133.6,1622.9,166.9Z"/>
          <path class="bc4e2d08-7e5f-4faf-a2b3-5a4372748f80" d="M1613.4,1761.8c25.6-18.7,39.3-41.4,45.7-62.8s5-42.8,1.1-61a185.8,185.8,0,0,0-16.9-45.1,157.6,157.6,0,0,0-10.4-17.7l-2.9,3.5-7.4,10a152.2,152.2,0,0,0-9.7,15.8c-3.3,6.4-6.5,13.6-9.6,21.3a162.7,162.7,0,0,0-10.5,58.1C1593,1706.5,1598,1733,1613.4,1761.8Z"/>
          <path class="b2cb3c93-c685-4f35-a397-35935cbb861d" d="M1796.1,1470.7a164.2,164.2,0,0,0-14.3-13.3,30,30,0,0,0-1.8,4.1c-1.2,2.6-2.5,6.7-4.2,11.5-3.5,9.4-6.7,23.6-8.1,39.9s0,35.9,6.1,56.4,18.5,43.3,40.8,65.3c36.1-49.6,26.1-96.2,9.1-127A176.8,176.8,0,0,0,1796.1,1470.7Z"/>
          <path class="b56c7daf-ae66-4099-96a8-2dbaaf500619" d="M1910.9,1306.8a151.3,151.3,0,0,0-16.5-8.5,33.2,33.2,0,0,0-.6,4.4c-.3,2.8-.7,6.8-1,11.7-.8,9.9,0,23.8,3,39.3a138.9,138.9,0,0,0,20.5,50.6c11.4,17.1,28.5,34.5,54.9,48.4,19.6-55.4-1.8-95.5-25.4-119.4A167.4,167.4,0,0,0,1910.9,1306.8Z"/>
          <path class="a4998a7a-25ab-498c-b8c7-3976e9605624" d="M2007.6,1202.8c14.9,12.8,35.1,24.1,62.8,29.8a130.9,130.9,0,0,0,0-19.8,120.8,120.8,0,0,0-3.2-17.8,103.3,103.3,0,0,0-12.2-29.1,113.3,113.3,0,0,0-39.1-36.6,161.2,161.2,0,0,0-38.4-15.3,146.9,146.9,0,0,0-17.3-3.4s.1,1.5.4,4.1a100.6,100.6,0,0,0,1.9,11.2c1.9,9.4,6.5,22.3,13,35.8A133.8,133.8,0,0,0,2007.6,1202.8Z"/>
          <path class="bd82c023-87fc-43a3-a85d-b6be53862b5b" d="M2104.9,991.9a134.4,134.4,0,0,0-12.4-33.6,108.2,108.2,0,0,0-19-23.6c-13.6-12.8-29.8-19.9-44.9-23.7a147.2,147.2,0,0,0-39.1-4.4,116.2,116.2,0,0,0-16.7,1.2,104.2,104.2,0,0,0,6.3,13.6c4.8,8.1,10.7,19,20.8,29.8s22.8,21.8,39.8,29.8S2078.1,993.9,2104.9,991.9Z"/>
          <path class="a0951c12-4203-436f-aaf0-49bee113e373" d="M1982,695.7a143,143,0,0,0-36.8,6,125.8,125.8,0,0,0-14.9,5.4,139.9,139.9,0,0,0,9.4,10.8,120,120,0,0,0,26.7,22c23.1,14.6,58.4,27.3,106,10C2048,705.4,2010.8,695.1,1982,695.7Z"/>
          <path class="b3a47d87-f55e-463d-a17b-f879d32b1daf" d="M1877.3,500.2a131.8,131.8,0,0,0-43.9,23.7l3,2.2,8.3,5.3a112.2,112.2,0,0,0,30.2,13c24.7,7.4,60,9.5,98.5-18.6C1939.4,492,1903.1,492.3,1877.3,500.2Z"/>
          <path class="fe5dab3c-2e23-40d7-97da-a91e1b4f4b29" d="M1720.8,341a124.1,124.1,0,0,0-33.2,33l3.3,1.2c2.2.8,5.3,1.6,9,2.7a109.9,109.9,0,0,0,30.7,3.7c24.5,0,56.7-7.3,83.6-43.1C1774.6,317,1741.9,327.1,1720.8,341Z"/>
          <path class="a0bccd7f-6f0c-4200-bf53-e7286bb159cc" d="M1578.5,203.9a76.9,76.9,0,0,0-23.1,5.8,82.4,82.4,0,0,0-31.5,23.9,116.8,116.8,0,0,0-20.5,38.6l3.3.2,8.8-.2a107.2,107.2,0,0,0,28.6-4.9c22-7.1,48.5-22.1,62.6-61.6A102.8,102.8,0,0,0,1578.5,203.9Z"/>
          <path class="a1894cae-5192-442e-add3-3653f08fe8ab" d="M1991.5,1788.7a47.9,47.9,0,0,0-28.1,12.7c-16.6,15.3-22,37.8-10.7,51.7s35.9,12.8,53.7-3.6c9-8.1,14.6-18.1,16.4-27.6s-.7-19-6.8-25.4S2000.8,1787.7,1991.5,1788.7Z"/>
          <path class="a95b6a64-1365-4771-8568-dea0b8ee1eda" d="M2193.7,1554.5c-14.6-8.3-35.4-.3-46.7,17.8s-9.8,40,4.3,49.7,36.2,2.4,47.9-17.1S2208.7,1562.9,2193.7,1554.5Z"/>
          <path class="b39fc829-9daa-461e-ac00-fca20e215f75" d="M2283.8,1325.5c13.8,4.3,29.3-6.9,34.2-25.2s-2.6-35.9-16.7-39.2-28.7,8.2-33.5,25.5S2270.2,1321.3,2283.8,1325.5Z"/>
          <path class="ea98f50b-9e19-42a1-b8a1-b1f998bae5a4" d="M2272.4,750.1c12.4-3,19.2-18,14.8-33.6s-17.6-25.3-29.6-21.6-18.6,18.7-14.6,33.5S2260.2,753,2272.4,750.1Z"/>
          <path class="b88934c2-b1c7-4394-b5df-a277fc4cedae" d="M2294.2,990c.7,15.5,10,28.3,22.9,28.6s23.5-12.8,22.9-29.1-10.9-29.2-23.6-28.6S2293.9,974.5,2294.2,990Z"/>
          <path class="f27c951d-0019-4ab9-a234-b4b2f790b80c" d="M2153.3,478.3c10.2-5.8,12.8-21.1,4.8-33.7s-22.3-17.9-32.2-11.5-11.8,21.5-4.4,33.6S2143,484.1,2153.3,478.3Z"/>
          <path class="f426383a-7efe-4b7e-9854-91a897446d60" d="M1972.9,261.7c7.5-7.6,6.1-22.1-4-31.3s-24.4-10-31.6-1.9-5.1,22,4.6,30.8S1965.1,269.6,1972.9,261.7Z"/>
          <path class="b5f74eb6-f01f-4f10-b301-b6db5c7a0c9d" d="M1701.9,96.6c10,4.7,21.5,2,25.7-6s-.8-19.1-11.2-24-22-2-25.8,6.3S1691.9,91.9,1701.9,96.6Z"/>
          <path class="ebb81253-94a8-4f73-b64a-54c09dc0f4ce" d="M1464.4,45.4c9.5,1.8,18.7-3.3,20.5-11.5s-5-16.3-15-18.2-19.2,3.4-20.6,11.6S1454.7,43.6,1464.4,45.4Z"/>
          <path class="ab2f6d87-232a-4610-9c46-d1d122ebaeaf" d="M1376,1876.2h-.3l4.5-.4c7.6-.7,15.6-1.9,24.2-3,34.1-4,75.4-11.9,121.5-25.1a816.7,816.7,0,0,0,149.5-59.7,856.9,856.9,0,0,0,158.4-106.3c51.4-44.3,101-96.7,144.1-157.2,86.9-120.3,146-273,162.4-431l2.2-29.8,1.2-14.8.5-14.9.9-29.7-.5-29.8c0-19.8-2-39.4-3.2-59.2-.8-9.8-2.2-19.5-3.2-29.3s-2.2-19.5-4-29.1-3.3-19.3-4.8-28.9-4-19.1-6-28.6c-3.7-19-9.2-37.5-14.1-56.1-11.1-36.7-23.1-72.8-38.3-106.9-29.2-68.8-66.7-131-107.9-185.7-10-14-21.2-26.6-31.7-39.6s-22-24.5-32.7-36.6-22.4-23-33.8-33.4-22.4-21.2-34.1-30.5A870.2,870.2,0,0,0,1697,217.4c-42.4-24.2-81.7-40.5-114.2-53.1-27.1-10.2-49.8-17-67.1-22-20.5-25.7-45.3-41.3-69.8-49.1-13.5-4.8-27-6.4-39.9-7a167.7,167.7,0,0,0-18.8.2c-6.1.7-12,1.6-17.6,2.8a178.1,178.1,0,0,0-30.5,9,197.4,197.4,0,0,0-23,11.5,137.5,137.5,0,0,0-19.5,13.4A192,192,0,0,0,1316,136a224,224,0,0,0,21.8,11.2,214.9,214.9,0,0,0,27.6,11.6c5,1.9,10.2,3.2,15.6,4.7a160.8,160.8,0,0,0,16.6,4.1,248.9,248.9,0,0,0,36.6,3.3c12.8,0,26.6-2,41-4.9,11.7-2.5,24.3-6.7,37.3-11.9l18,5.6c12.9,3.7,27.3,9,43.5,15,64.4,23.9,154,68.3,244,144.7s177.9,185.9,235.1,321.2,82.3,293.6,65.8,448.3-75.3,303.2-160.7,419.8c-42.3,58.7-91,109.3-141.1,152a821,821,0,0,1-154.2,102,784.5,784.5,0,0,1-145,56.7c-44.6,12.4-84.4,19.7-117.4,23.3-8.2.9-16,2-23.4,2.6s-14.3,1-20.7,1.4l-17.9,1.2-14.8.2-27.2.3h0l-97.2.2v163.6C1218.6,1891.9,1376,1876.2,1376,1876.2Z"/>
        </g>
      </g>
    </g>
  </g>
</svg>
