<svg id="eSIljCxboD51" xmlns="http://www.w3.org/2000/svg" xmlns:xlink="http://www.w3.org/1999/xlink" viewBox="0 0 188.9 264" shape-rendering="geometricPrecision" text-rendering="geometricPrecision"><style><![CDATA[#eSIljCxboD54 {animation-name: eSIljCxboD54_f_o, eSIljCxboD54_s_do;animation-duration: 1500ms;animation-fill-mode: forwards;animation-timing-function: linear;animation-direction: normal;animation-iteration-count: 1;}@keyframes eSIljCxboD54_f_o { 0% {fill-opacity: 0} 66.666667% {fill-opacity: 0} 100% {fill-opacity: 1}}@keyframes eSIljCxboD54_s_do { 0% {stroke-dashoffset: 520.51} 66.666667% {stroke-dashoffset: 0} 100% {stroke-dashoffset: 0}} #eSIljCxboD55 {animation-name: eSIljCxboD55_f_o, eSIljCxboD55_s_do;animation-duration: 1500ms;animation-fill-mode: forwards;animation-timing-function: linear;animation-direction: normal;animation-iteration-count: 1;}@keyframes eSIljCxboD55_f_o { 0% {fill-opacity: 0} 66.666667% {fill-opacity: 0} 100% {fill-opacity: 1}}@keyframes eSIljCxboD55_s_do { 0% {stroke-dashoffset: 525.71} 66.666667% {stroke-dashoffset: 0} 100% {stroke-dashoffset: 0}}]]></style><g id="eSIljCxboD52"><g id="eSIljCxboD53"><path id="eSIljCxboD54" d="M0,0.3C42.6,0.3,85.2,-0.6,127.7,0.7C151.9,1.3,170.1,14.4,181.5,36C195.1,61.7,189.3,95.1,166.3,115.5L162.9,110.2L146.4,81.8C145.699758,80.361103,145.291887,78.797599,145.2,77.2C144.8,72.1,144.8,66.9,144.3,61.7C143.6,52.9,133.9,44.2,125,44.1L28,43.7L24.9,43.7L0,0.9Z" fill="rgb(255,32,34)" fill-opacity="0" stroke="rgb(255,32,34)" stroke-width="1" stroke-dashoffset="520.51" stroke-dasharray="520.51"/><path id="eSIljCxboD55" d="M51.2,88.5L86.4,88.5L134.6,88.7C136.388718,88.547907,138.090467,89.49772,138.9,91.1C155.1,119.5,171.5,147.8,187.7,176.2C188.435871,177.223074,188.853319,178.440632,188.9,179.7L188.6,261.9C188.539185,262.605041,188.439029,263.306133,188.3,264L186.1,260.4Q149.7,197.4,113.3,134.4C112.1,132.4,110.9,131.6,108.6,131.6L78.2,131.6C76.867722,131.577383,75.61746,130.952253,74.8,129.9C67.2,117,59.7,103.9,52.2,90.9C51.9,90.4,51.8,89.9,51.2,88.5Z" fill="rgb(255,32,34)" fill-opacity="0" stroke="rgb(255,32,34)" stroke-width="1" stroke-dashoffset="525.71" stroke-dasharray="525.71"/></g></g></svg>