<svg xmlns="http://www.w3.org/2000/svg" viewBox="0 0 384 352">
  <defs>
    <style>
      .a56fd641-e839-4920-8ae0-25e4a001d0f4 {
        fill: #fff;
      }
    </style>
  </defs>
  <title>down</title>
  <g id="afab8c92-0a37-4fe5-80bd-39bd63cc392d" data-name="Layer 2">
    <g id="bfc6625a-a658-4d6c-bef8-3054002cbf78" data-name="Layer 1">
      <g id="aec72923-e66a-4d9d-a3b7-cd98ca375ad3" data-name="a9148db4-8702-4948-b3d7-c33f0782daf4">
        <path class="a56fd641-e839-4920-8ae0-25e4a001d0f4" d="M384,304V240a16,16,0,0,0-32,0v64a16,16,0,0,1-16,16H48a16,16,0,0,1-16-16V240a16,16,0,0,0-32,0v64a48,48,0,0,0,48,48H336A48,48,0,0,0,384,304ZM281.9,220.5l-80,64a15.9,15.9,0,0,1-19.8,0l-80-64a16,16,0,0,1,19.8-25L176,238.7V16a16,16,0,0,1,32,0V238.7l54.1-43.2A16,16,0,0,1,284,218.8a12,12,0,0,1-2.1,1.7Z"/>
      </g>
    </g>
  </g>
</svg>
