<svg xmlns="http://www.w3.org/2000/svg" xmlns:xlink="http://www.w3.org/1999/xlink" viewBox="0 0 1442.3 1299.1">
  <defs>
    <style>
      .a665512a-8c11-4cdf-858a-171279c9e568 {
        fill: url(#a71613e3-2d84-4349-9eca-bec4c2a6ab7a);
      }

      .e2059519-7136-4a97-a7f3-1e771e89bf74 {
        fill: url(#ec620383-3260-4928-be39-8aab3149a9a7);
      }

      .aeb281d8-5cfb-4e23-8991-abc450bfad69 {
        fill: url(#aae0f939-a52d-42ee-a846-37f97a883720);
      }
    </style>
    <linearGradient id="a71613e3-2d84-4349-9eca-bec4c2a6ab7a" x1="-684.33" y1="-3764.35" x2="1493.04" y2="-2808.01" gradientTransform="matrix(1, 0, 0, -1, -19, -2355)" gradientUnits="userSpaceOnUse">
      <stop offset="0" stop-color="#ffe7d2"/>
      <stop offset="0.28" stop-color="#f8ceb6"/>
      <stop offset="0.72" stop-color="#c39473"/>
      <stop offset="1" stop-color="#a26e39"/>
    </linearGradient>
    <linearGradient id="ec620383-3260-4928-be39-8aab3149a9a7" x1="-714.48" y1="-3695.71" x2="1462.89" y2="-2739.37" xlink:href="#a71613e3-2d84-4349-9eca-bec4c2a6ab7a"/>
    <linearGradient id="aae0f939-a52d-42ee-a846-37f97a883720" x1="-847.24" y1="-3393.45" x2="1330.13" y2="-2437.11" xlink:href="#a71613e3-2d84-4349-9eca-bec4c2a6ab7a"/>
  </defs>
  <title>logo-3</title>
  <g id="aeb22bec-edd4-4e37-91e2-5efea58714c6" data-name="Layer 2">
    <g id="e6587a37-aee4-442a-a668-9a62a3061e5e" data-name="Layer 1">
      <g id="b52c70f0-a5ab-469c-9fa1-1d68f1a04bb2" data-name="Layer 2">
        <g id="f69cef09-8ce6-4f61-a157-f1d877f68365" data-name="Layer 2-2">
          <polygon class="a665512a-8c11-4cdf-858a-171279c9e568" points="1442.3 465.3 1414.6 498.4 1357 567 1271.7 668.6 1116.7 853.4 992 1001.9 966.4 1032.5 885 1129.5 867.4 1150.5 803.6 1226.5 742.7 1299.1 742.7 249.4 972 249.4 867.4 374 867.4 374 867.4 956.6 885 935.5 992 808 1116.7 659.4 1205.4 553.7 1251.8 498.4 1290.7 452.1 1356.1 374 1376 350.4 1389.6 374 1442.3 465.3"/>
          <polygon class="e2059519-7136-4a97-a7f3-1e771e89bf74" points="701.7 249.4 701.7 1299 640.9 1226.5 577 1150.4 577 374 339.1 374 369.6 321.2 411.1 249.4 701.7 249.4"/>
          <polygon class="aeb281d8-5cfb-4e23-8991-abc450bfad69" points="1309.6 235.5 1298 249.4 1224.3 337.2 1193.4 374 1139 438.8 1116.7 465.4 1089.1 498.4 992 614 992 420 1030.6 374 1072.7 323.9 1116.7 271.4 1135.3 249.4 1158 222.3 1116.7 150.8 1101.7 124.7 339.1 124.7 326.6 146.4 284.3 219.6 267.1 249.4 218 334.5 195.1 374 151.6 449.4 192.7 498.4 236.9 551 326.6 657.9 326.6 498.4 451.3 498.4 451.3 1000.5 396.5 935.2 326.6 851.9 170.6 666 85.3 564.3 29.9 498.4 0 462.7 51.2 374 66.3 347.8 123.2 249.4 132.7 232.9 195.1 124.7 199 118 267.1 0 1173.6 0 1176.8 5.4 1243.3 120.6 1239.9 124.7 1245.6 124.7 1309.6 235.5"/>
        </g>
      </g>
    </g>
  </g>
</svg>
