<svg xmlns="http://www.w3.org/2000/svg" viewBox="0 0 512 512">
  <defs>
    <style>
      .f884d6c6-e7ac-40ce-a987-5199a9086a68 {
        fill-rule: evenodd;
      }
    </style>
  </defs>
  <title>mail</title>
  <g id="b883e464-5ed5-4fa7-8f24-24ad031cded4" data-name="Layer 2">
    <g id="f267a721-806e-4e3e-bbb7-c41ea756ec0a" data-name="Layer 1">
      <path class="f884d6c6-e7ac-40ce-a987-5199a9086a68" d="M256,512C114.8,512,0,397.2,0,256S114.8,0,256,0,512,114.8,512,256,397.2,512,256,512ZM388.8,345.9a5.7,5.7,0,0,0,5.7-5.7V179.5L264.2,282.9a13,13,0,0,1-16.4,0L117.5,179.5V340.2a5.7,5.7,0,0,0,5.7,5.7Zm-20-179.8L256,255.6,143.2,166.1Zm52.2,5.7V340.2a32.2,32.2,0,0,1-32.2,32.2H123.2A32.2,32.2,0,0,1,91,340.2V171.8a32.2,32.2,0,0,1,32.2-32.2H388.8A32.2,32.2,0,0,1,421,171.8Z"/>
    </g>
  </g>
</svg>
