<svg xmlns="http://www.w3.org/2000/svg" viewBox="0 0 512 512">
  <title>phone</title>
  <g id="b0fbe3cc-cac5-4ad5-b556-4b4b03844d79" data-name="Layer 2">
    <g id="aca953ed-88a0-47f7-8eb1-682c70467611" data-name="Layer 1">
      <path d="M437,75C337-25,174.9-25,75,75S-25,337.1,75,437s262.1,100,362,0a255.9,255.9,0,0,0,0-362ZM387.7,356.6h0l-13,12.8a68.4,68.4,0,0,1-64.4,18.5,227.5,227.5,0,0,1-65.9-29.6,303.1,303.1,0,0,1-52-41.9,297.3,297.3,0,0,1-38.8-47.1,240.4,240.4,0,0,1-29.2-59,68,68,0,0,1,17.1-69.7l15.2-15.2a10.7,10.7,0,0,1,15.3,0h0l48,47.9a11,11,0,0,1,0,15.4h0l-28.2,28.2a22.9,22.9,0,0,0-2.4,29.8,333.6,333.6,0,0,0,33.7,39.4,336.1,336.1,0,0,0,44.4,37.3,23.1,23.1,0,0,0,29.5-2.6l27.3-27.6a10.8,10.8,0,0,1,15.3-.1h0l48.1,48.1A10.9,10.9,0,0,1,387.7,356.6Z"/>
    </g>
  </g>
</svg>
