<svg xmlns="http://www.w3.org/2000/svg" viewBox="0 0 512 511.9"><title>1</title><g id="f6507a38-522d-4d8d-b465-c2b977d8e4a8" data-name="Layer 2"><g id="af39aff9-de92-49da-a4b2-29edef2ece79" data-name="Layer 1"><path d="M175,337a10.1,10.1,0,0,0,14.2,0,10,10,0,0,0,0-14.1,10.1,10.1,0,0,0-14.2,0A10,10,0,0,0,175,337Z" fill="#ff2022"/><path d="M217.5,308.7,313.2,213A10,10,0,1,0,299,198.8l-95.7,95.8a10,10,0,0,0,0,14.1A10.1,10.1,0,0,0,217.5,308.7Z" fill="#ff2022"/><path d="M157.5,269.7,71.4,355.8a10.1,10.1,0,0,0-2.3,3.5h0c-8,21.5-32.1,86.8-41.6,112.4a10,10,0,0,0,12.9,12.9L152.7,443a11.2,11.2,0,0,0,3.5-2.3l86.2-86.2L395.9,509a10.3,10.3,0,0,0,7.1,2.9h0a10.3,10.3,0,0,0,7.1-2.9l99-100a10,10,0,0,0,0-14.1L355.5,241.4,468.6,128.3a60,60,0,0,0-84.9-84.8l-113,113L117.1,2.9a10,10,0,0,0-14.1,0L3,101.9A10,10,0,0,0,0,109a10.5,10.5,0,0,0,2.9,7.1Zm120.2-92h0l62.4-62.3L396.7,172l-62.4,62.3h0L149.2,419.4,92.6,362.9ZM375.5,80,432,136.6l-21.2,21.2-56.6-56.6ZM89.8,445,67.2,422.3,82.4,381l48.7,48.6Zm-30.3-2.1,9.7,9.7-15.4,5.7ZM364.6,278.7l-42.9,42.9a10,10,0,0,0,0,14.1,10.1,10.1,0,0,0,14.2,0l42.8-42.8L409,323.1l-28.7,28.7a10.1,10.1,0,0,0,0,14.2,10,10,0,0,0,14.1,0l28.8-28.7,30.2,30.3-42.8,42.8a10.1,10.1,0,0,0,0,14.2,10,10,0,0,0,14.1,0l42.9-42.9L487.9,402c-84.5,84.4-84.9,85.7-84.9,85.7L256.5,340.4l84.9-84.9ZM454.4,57.6a39.9,39.9,0,0,1,0,56.6l-8.2,8.3L389.6,65.9l8.3-8.3A40,40,0,0,1,454.4,57.6ZM132.3,46.4,89.4,89.3a10,10,0,0,0,0,14.1,10.1,10.1,0,0,0,14.2,0l42.8-42.8,30.3,30.3L148,119.5a10.1,10.1,0,0,0,0,14.2,10,10,0,0,0,14.1,0L190.8,105l28.3,28.3-42.8,42.8a10,10,0,0,0,14.1,14.1l42.9-42.8,23.2,23.3-84.8,84.8L24.2,109s1.4-.5,85.8-84.9Z" fill="#ff2022"/></g></g></svg>