<svg xmlns="http://www.w3.org/2000/svg" viewBox="0 0 496 497.9"><title>2</title><g id="aaa23719-048b-4ed9-b9bf-211be146a1a5" data-name="Layer 2"><g id="a0afd408-2ccc-40ec-a9c1-63db9cbeba7d" data-name="Layer 1"><path d="M16.2,494.1l15.6,3.8L38.2,472H89.8l6.4,25.9,15.6-3.8L106.2,472H128V456h-8V312h8V296H0v16H8V456H0v16H21.8ZM24,312h80V456H24Z" fill="#ff2022"/><path d="M64,360H88v16H64Z" fill="#ff2022"/><path d="M40,392H88v16H40Z" fill="#ff2022"/><path d="M40,424H64v16H40Z" fill="#ff2022"/><path d="M40,360H56v16H40Z" fill="#ff2022"/><path d="M72,424H88v16H72Z" fill="#ff2022"/><path d="M40,328H88v16H40Z" fill="#ff2022"/><path d="M48,136V264H64V136H432V416H136v16H440a8,8,0,0,0,8-8h0V136a16,16,0,0,0-16-16H64A16,16,0,0,0,48,136Z" fill="#ff2022"/><path d="M192,160H88a8,8,0,0,0-8,8h0v80a8,8,0,0,0,8,8H192a8,8,0,0,0,8-8h0V168a8,8,0,0,0-8-8Zm-8,80H96V176h88Z" fill="#ff2022"/><path d="M408,288H352a8,8,0,0,0-8,8h0v88a8,8,0,0,0,8,8h56a8,8,0,0,0,8-8h0V296a8,8,0,0,0-8-8Zm-8,88H360V304h40Z" fill="#ff2022"/><path d="M416,168a8,8,0,0,0-8-8H224a8,8,0,0,0-8,8h0v80a8,8,0,0,0,8,8H408a8,8,0,0,0,8-8h0Zm-16,72H232V176H400Z" fill="#ff2022"/><path d="M152,296v88a8,8,0,0,0,8,8H320a8,8,0,0,0,8-8h0V296a8,8,0,0,0-8-8H160a8,8,0,0,0-8,8Zm16,8H312v72H168Z" fill="#ff2022"/><path d="M46.6,7.1A28,28,0,0,0,9.4,48.9L30.3,67.5a7.8,7.8,0,0,0,5.3,2.1H36a7.8,7.8,0,0,0,5.6-2.6L68.2,37a8,8,0,0,0-.7-11.3h0ZM34.9,50.3,20,37A12,12,0,0,1,36,19L50.9,32.4Z" fill="#ff2022"/><path d="M78.4,55.5l3.3-15.7,23.9,5.1-3.3,15.7Z" fill="#ff2022"/><path d="M45.9,80.1,61.1,75l8.2,24.4-15.2,5.1Z" fill="#ff2022"/><path d="M66.1,72.4,76.9,60.6l24.5,22.5L90.6,94.9Z" fill="#ff2022"/><path d="M488.9,9.4a27.9,27.9,0,0,0-39.5-2.3L428.5,25.7a8,8,0,0,0-.7,11.3h0l26.6,29.9a7.8,7.8,0,0,0,5.6,2.6h.4a7.8,7.8,0,0,0,5.3-2.1l20.9-18.6a27.9,27.9,0,0,0,2.3-39.5ZM476,37,461.1,50.3l-16-17.9L460,19a12,12,0,0,1,17,1,11.9,11.9,0,0,1-1,16.9Z" fill="#ff2022"/><path d="M390.2,45.1,414.1,40l3.3,15.7-23.9,5Z" fill="#ff2022"/><path d="M426.7,99.5,434.9,75l15.2,5.1-8.2,24.5Z" fill="#ff2022"/><path d="M394.7,83.3l24.5-22.5L430,72.6,405.6,95.1Z" fill="#ff2022"/></g></g></svg>