<svg xmlns="http://www.w3.org/2000/svg" viewBox="0 0 448 448"><title>3</title><g id="fad565b8-66bb-495d-8702-5b0071687bcf" data-name="Layer 2"><g id="b60f6115-3ff6-4de7-8ce6-614d984b3c08" data-name="Layer 1"><g id="b533ebe8-0f5d-45e2-9bdc-a6dcdb7904fe" data-name="consumer discuss"><path d="M440,432H414.6c-6.1-29.4-9.7-64-49.6-81.8,21.1-16.1,19-36.5,19-54.2a48,48,0,0,0-96,0c0,19-1.9,38.2,19,54.2-15.2,6.6-2.6,7.2-22-8.6a96.9,96.9,0,0,0-28.6-16c25.4-18.2,24-42.5,24-61.6a56,56,0,1,0-112,0c0,17.8-2.7,42.9,24,61.7a96.8,96.8,0,0,0-41.9,29.1,60.4,60.4,0,0,0-8.7-4.6C162.2,334,160,313.6,160,296a48,48,0,0,0-96,0c0,19-1.9,38.2,19,54.2C43,368,39.3,403.7,33.4,432H8a8,8,0,0,0,0,16H440a8,8,0,0,0,0-16ZM304,312V296a32,32,0,0,1,64,0v16a32,32,0,0,1-64,0ZM184,280V264a40,40,0,0,1,80,0v16a40,40,0,0,1-80,0ZM80,312V296a32,32,0,0,1,64,0v16a32,32,0,0,1-64,0ZM54.6,408.9a58.2,58.2,0,0,1,67.3-47.5,61.1,61.1,0,0,1,18.5,6.6c-11,18.4-12.8,35.8-18.9,64H82.2L88,409.9a8.2,8.2,0,1,0-16-3.8L65.8,432h-16ZM287.2,432l-8-33.8a8,8,0,1,0-15.5,4l7,29.8H177.8l6.2-30.4a8.2,8.2,0,0,0-16-3.2L161.4,432H137.9c2.4-13.7,5.5-27.3,9.2-40.7a81.2,81.2,0,0,1,143.1-21.1c12.4,17.2,13.6,32,19.9,61.8Zm95,0L376,406.1a8,8,0,0,0-15.5,3.8l5.3,22.1H326.5c-6.8-32-8.7-47.2-18.9-64a58,58,0,0,1,79.1,22,57.3,57.3,0,0,1,6.7,19.1l4.8,22.9Z" fill="#ff2022"/><path d="M392,0H56A56,56,0,0,0,0,56v48a56,56,0,0,0,56,56H83l21.9,43.6a8,8,0,0,0,10.7,3.5,7.9,7.9,0,0,0,3.5-3.5L141,160h62l13.9,27.6a8,8,0,0,0,10.7,3.5,7.9,7.9,0,0,0,3.5-3.5L245,160h62l21.9,43.6a8,8,0,0,0,10.7,3.5,7.9,7.9,0,0,0,3.5-3.5L365,160h27a56,56,0,0,0,56-56V56A56,56,0,0,0,392,0Zm40,104a40,40,0,0,1-40,40H360c-6.6,0-6.2,2.6-24,38.1-18.2-36.3-17.5-38.1-24-38.1-80,0-76.2-1.5-79.1,4.4L224,166.1l-8.9-17.7c-2.9-6-.5-4.4-79.1-4.4-6.6,0-6.2,2.6-24,38.1C93.8,145.8,94.5,144,88,144H56a40,40,0,0,1-40-40V56A40,40,0,0,1,56,16H392a40,40,0,0,1,40,40Z" fill="#ff2022"/><path d="M145,61.3l-17.8-3.5-8.8-16a8.1,8.1,0,0,0-10.9-3.1,7.7,7.7,0,0,0-3.1,3.1l-8.8,16c-18.9,3.7-21.9,3.2-24,8.8s1.9,8,14.1,21.2c-2.4,19.2-3.9,22,1,25.4s8,.6,24.5-6.8c17.9,8,17.4,8,19.8,8a7.9,7.9,0,0,0,8-7.9v-1.1L137,88l12.3-13.3a7.9,7.9,0,0,0-.2-11.3,8.1,8.1,0,0,0-4.1-2.1Zm-23.5,32c-11.3-5.3-9.1-5.2-20.1,0,1.4-12.2,2.2-10-6.3-19.2,12.3-2.4,10.4-1.2,16-11.9,5.9,10.7,4,9.5,16,11.9-7.7,9-7.1,6.9-5.6,19.3Z" fill="#ff2022"/><path d="M241,48a24,24,0,0,0-17,7,24,24,0,0,0-35.2,32.7l1.2,1.2,28.6,28.5a7.9,7.9,0,0,0,11.2,0l28.4-28.2A24.1,24.1,0,0,0,241,48Zm5.8,29.8L224,100.5,201.3,77.6a7.9,7.9,0,0,1,.1-11.3,7.8,7.8,0,0,1,5.4-2.3c3.9,0,5,1.6,11.5,8a8,8,0,0,0,11.3,0l5.7-5.7a8.1,8.1,0,0,1,11.5,11.5Z" fill="#ff2022"/><path d="M369,69.3l-17.8-3.5-8.8-16a8.1,8.1,0,0,0-10.9-3.1,7.7,7.7,0,0,0-3.1,3.1l-8.8,16c-18.9,3.7-21.9,3.2-24,8.8s1.9,8,14.1,21.2c-2.4,19.2-3.9,22,1,25.4s8.4.6,24.5-6.8c17.9,8,17.4,8,19.8,8a7.9,7.9,0,0,0,8-7.9v-1.1L361,96l12.3-13.3a7.9,7.9,0,0,0-.2-11.3,8.1,8.1,0,0,0-4.1-2.1Zm-23.5,32c-11.3-5.3-9.1-5.2-20.1,0,1.4-12.2,2.2-10-6.3-19.2,12.3-2.4,10.4-1.2,16-11.9,5.9,10.7,4,9.5,16,11.9-7.7,9-7.1,6.9-5.6,19.3Z" fill="#ff2022"/></g></g></g></svg>