<svg xmlns="http://www.w3.org/2000/svg" viewBox="0 0 497.2 497.2"><title>4</title><g id="aa629b93-bc31-4767-b92b-03faef1c9bf2" data-name="Layer 2"><g id="f6b3dd02-d59d-4b4e-a6d6-499d3eb3c637" data-name="Layer 1"><path d="M128,81.2a48,48,0,1,0-48,48A48,48,0,0,0,128,81.2Zm-80,0a32,32,0,1,1,32,32A32,32,0,0,1,48,81.2Z" fill="#ff2022"/><path d="M431,54.9l11.3-11.4,11.3,11.4L442.3,66.2Z" fill="#ff2022"/><path d="M408.3,77.5l11.4-11.3L431,77.5,419.7,88.8Z" fill="#ff2022"/><path d="M386.3,99.5,397,88.8l11.3,11.3-10.7,10.7Z" fill="#ff2022"/><path d="M472,337.2H427.6a199.7,199.7,0,0,0-14.5-200.7c6.1-4.2,11.9-8.6,17.7-13.2L480,172.5l17.2-17.2-24-72,2.5-2.6a41.9,41.9,0,0,0-59.3-59.3L413.8,24l-72-24L324.7,17.2l49.2,49.2c-4.7,5.7-9.1,11.6-13.3,17.6A199.9,199.9,0,0,0,159.1,70,79.9,79.9,0,0,0,0,81.2v2.2a79.5,79.5,0,0,0,13.4,44.3l43,64.4a199.3,199.3,0,0,0,5,129.1H56a23.9,23.9,0,0,0-8,46.5v17.5H0v26.7a85.4,85.4,0,0,0,85.2,85.3h88.6a85.7,85.7,0,0,0,76.6-48.1A200.6,200.6,0,0,0,320,435.8v37.4a24.1,24.1,0,0,0,24,24H472a24.1,24.1,0,0,0,24-24v-112A24,24,0,0,0,472,337.2Zm-88,16h48v16H384Zm-40-16H320.1a466.7,466.7,0,0,0,7.8-80H431.7a183.8,183.8,0,0,1-22.2,80Zm-88.2,94.3.2-14.3H220.9l-25.5-51.1a23.8,23.8,0,0,0,11.1-12.9h93.7C289.4,396.2,272.6,424.7,255.8,431.5Zm-49.3-94.3a23.7,23.7,0,0,0-17-15.3,462.9,462.9,0,0,1-5.3-64.7H311.9a441.2,441.2,0,0,1-8.1,80Zm-142.2-96A185.5,185.5,0,0,1,69,206.3a22,22,0,0,0,11,2.9,23,23,0,0,0,19.1-10.3l25.2-37.7h51.6a464.6,464.6,0,0,0-7.8,80Zm127.9-80H303.9c4.8,24.4,7.5,51.6,8,80H184.2a439.8,439.8,0,0,1,8-80Zm55.8-96c14.2,0,28.8,16,40.6,44.1l-6.1,6,10.4,5.3c2.7,7.7,5.2,15.9,7.4,24.6H195.8C208.3,95.5,228.8,65.2,248,65.2Zm88.6,59.3L309.5,111l5-5,28.1,7C340.5,116.8,338.6,120.7,336.6,124.5Zm-6.7,14.6-.2.4a18.3,18.3,0,0,0-1.4,5.7H316.7c-1.2-5.1-2.5-9.9-3.8-14.7ZM431.7,241.2H327.9a475.9,475.9,0,0,0-7.8-80h12.7a21.3,21.3,0,0,0,16.5,8,20.5,20.5,0,0,0,8.4-1.8l.4-.2,23.7,47.5,27.1-27.1-10.4-41.4,1.3-.8a182.1,182.1,0,0,1,31.9,95.8Zm-47.6-86.6,7,28.1-4.9,4.9-13.6-27.1C376.5,158.6,380.3,156.6,384.1,154.6Zm93.6-7.1L443,112.8c4-3.6,8-7.3,11.8-11.2l5.7-5.6ZM446.1,25.2a25.9,25.9,0,0,1,18.3,44.2L443.5,90.3a293.2,293.2,0,0,1-92.1,62.4,5.4,5.4,0,0,1-7.4-4.8,5.2,5.2,0,0,1,.4-2.1,292.5,292.5,0,0,1,62.4-92.2l20.9-20.9h0A25.4,25.4,0,0,1,446.1,25.2Zm-96.5-5.7,51.6,17.1-5.7,5.7c-3.8,3.9-7.6,7.8-11.2,11.9ZM351,98.6,309.6,88.3l-8.8,8.8c-5.3-11.4-11.1-21-17.4-28.4a180.3,180.3,0,0,1,68.4,28.7,8.3,8.3,0,0,0-.8,1.2ZM159.7,87.8a181.8,181.8,0,0,1,53.4-19.3c-14.1,16.7-25.8,43.4-33.8,76.7H134.9l11.7-17.5A80.2,80.2,0,0,0,159.7,87.8ZM16,83.4V81.2a64,64,0,0,1,128,0v2.2a63.6,63.6,0,0,1-10.8,35.5L85.8,190.1c-2.6,3.8-9,3.8-11.6,0L26.7,118.9A64.3,64.3,0,0,1,16,83.4ZM64.2,257.2h104a471.3,471.3,0,0,0,5.1,64H78.7A183,183,0,0,1,64.2,257.2Zm-8.2,80H184a8,8,0,1,1,0,16H56a8,8,0,0,1,0-16Zm8,32H179.1l24,48H92.9l-16-32H64Zm109.8,112H85.2A69.3,69.3,0,0,1,16,411.9V401.2H67.1l16,32H239.6A69.5,69.5,0,0,1,173.8,481.2Zm109.1-51.4c14.1-16.7,25.8-43.4,33.8-76.6h4.8a23.2,23.2,0,0,0-1.5,8v57.3A180.4,180.4,0,0,1,282.9,429.8ZM480,473.2a8,8,0,0,1-8,8H344a8,8,0,0,1-8-8v-112a8,8,0,0,1,8-8h24v32h80v-32h24a8,8,0,0,1,8,8Z" fill="#ff2022"/><path d="M448,449.2h16v16H448Z" fill="#ff2022"/><path d="M416,449.2h16v16H416Z" fill="#ff2022"/><path d="M128,385.2h16v16H128Z" fill="#ff2022"/><path d="M160,385.2h16v16H160Z" fill="#ff2022"/><path d="M96,385.2h16v16H96Z" fill="#ff2022"/><path d="M208,273.2h16v16H208Z" fill="#ff2022"/><path d="M272,273.2h16v16H272Z" fill="#ff2022"/><path d="M240,273.2h16v16H240Z" fill="#ff2022"/><path d="M272,209.2h16v16H272Z" fill="#ff2022"/><path d="M240,209.2h16v16H240Z" fill="#ff2022"/><path d="M208,209.2h16v16H208Z" fill="#ff2022"/></g></g></svg>