<svg xmlns="http://www.w3.org/2000/svg" viewBox="0 0 512 463.9"><title>5</title><g id="eb764ac6-a7fe-4fb0-964e-d6bdd66e196c" data-name="Layer 2"><g id="ac483681-a9c0-4f5a-984f-282720c1e1fa" data-name="Layer 1"><path d="M496.5,24H463.9V0H128.3V24H95.7A15.5,15.5,0,0,0,80.2,39.6v32A15.5,15.5,0,0,0,95.7,87.2h32.6v73.1H68.5L0,228.8v70.4l68.5,68.5h59.8v96.2h235L463.9,363.3V87.2h32.6A15.6,15.6,0,0,0,512,71.6v-32A15.6,15.6,0,0,0,496.5,24ZM64.1,342.1,25.7,303.6H64.1Zm0-53.5H15V239.5H64.1Zm0-64.2H25.7L64.1,186Zm64.2,128.3H111.2V328.1h-15v24.6h-17V303.6h49.1Zm0-64.1H79.2V239.5h49.1Zm0-64.2H111.2V199.9h-15v24.5h-17V175.3h49.1Zm0-152.3H95.7a.5.5,0,0,1-.5-.5v-32a.5.5,0,0,1,.5-.5h32.6Zm15,39.1h38.4l-38.4,38.5Zm214.2,37.9,37.9-37.9h42.8l-49,49.1h-107l49.1-49.1h42.8l-27.2,27.3Zm27.3,27.4v46.8a24.6,24.6,0,0,1,0-46.8Zm-23.5,47.9H335.7V175.3h25.6a39.3,39.3,0,0,0-8.6,24.6A38.8,38.8,0,0,0,361.3,224.4Zm-72.7-24.5v24.5H271.5V175.3h49.1v49.1h-17V199.9Zm-27.7-39.6H218l49.1-49.1H310Zm-36.5,39.6v24.5h-17V175.3h49.1v49.1h-17V199.9Zm-27.6-39.6H153.9L203,111.2h42.9Zm-53.5,15h49.1v49.1H175.3V199.9h-15v24.5h-17Zm0,64.2h38.4l-38.4,38.4Zm0,59.7L203,239.5h42.9L143.3,342.1ZM352.7,448.9H314.2l38.5-38.5Zm15-10.7V367.7h70.5Zm81.2-85.5H410.4l38.5-38.5Zm0-59.7-59.7,59.7H352.7v36.5L293,448.9H250.1L448.9,250.1Zm0-128.3L411,202.6l10.6,10.6L448.9,186v42.8L228.8,448.9H186L373.5,261.3l-10.6-10.6L164.7,448.9H143.3V427.4L301.4,269.3l-10.6-10.6L143.3,406.2V363.3L267.1,239.5H399.8V170.9l49.1-49.1Zm0-68.5H143.3V15H448.9ZM497,71.6a.5.5,0,0,1-.5.5H463.9v-33h32.6a.5.5,0,0,1,.5.5Z" fill="#ff2022"/><path d="M288.1,48.1h16v15h-16Z" fill="#ff2022"/><path d="M256,48.1h16v15H256Z" fill="#ff2022"/><path d="M320.1,48.1h16.1v15H320.1Z" fill="#ff2022"/></g></g></svg>