<svg xmlns="http://www.w3.org/2000/svg" viewBox="0 0 188.9 264"><title>logo-3</title><g id="f9e7d1ab-8601-4e50-8023-cfa6562628b9" data-name="Layer 2"><g id="bf522287-957d-4f36-950b-9c487379be8d" data-name="Layer 1"><path d="M0,.3C42.6.3,85.2-.6,127.7.7c24.2.6,42.4,13.7,53.8,35.3,13.6,25.7,7.8,59.1-15.2,79.5l-3.4-5.3L146.4,81.8a12.1,12.1,0,0,1-1.2-4.6c-.4-5.1-.4-10.3-.9-15.5-.7-8.8-10.4-17.5-19.3-17.6l-97-.4H24.9L0,.9Z" fill="#ff2022"/><path d="M51.2,88.5H86.4l48.2.2a4.4,4.4,0,0,1,4.3,2.4c16.2,28.4,32.6,56.7,48.8,85.1a6.4,6.4,0,0,1,1.2,3.5l-.3,82.2a19,19,0,0,1-.3,2.1l-2.2-3.6q-36.4-63-72.8-126c-1.2-2-2.4-2.8-4.7-2.8H78.2a4.4,4.4,0,0,1-3.4-1.7c-7.6-12.9-15.1-26-22.6-39C51.9,90.4,51.8,89.9,51.2,88.5Z" fill="#ff2022"/></g></g></svg>