<svg xmlns="http://www.w3.org/2000/svg" viewBox="0 0 482.8 202.5"><title>logo-2</title><g id="fc69b885-9008-4380-9c2e-9de6e4e6e1dd" data-name="Layer 2"><g id="bb7de6bc-0cda-4e87-99e7-d2bbb00017a6" data-name="Layer 1"><path d="M477.8,146.6H369.6V1.8h107V24.3H394.7V62.1h72.6V85H394.8v38.8h83Z" fill="#010101"/><path d="M293.3.4c13,1.2,24.6,6.4,35.4,13.3,5.9,3.8,5.9,3.9,1.9,9.7l-9.2,13c0,.1-.2.2-.4.5l-3.5-2.2c-8-5.2-16.5-9.6-26-11.5a42.4,42.4,0,0,0-19.4.1A20.3,20.3,0,0,0,260.8,31a15.3,15.3,0,0,0,3,21.2c5.8,4.4,12.7,6.1,19.5,8.1,11.2,3.3,22.8,5.5,33.4,10.7s19,12.5,21.2,24.4c4.8,25.7-7.5,45.4-31.7,51.1-26.4,6.2-51,.8-72.9-15.6l-5.5-4.3a5,5,0,0,0-.6-.8l14.8-18c3.1,2.2,5.9,4.4,8.8,6.3,8.6,5.8,17.8,10.6,28.3,11.7,8.2.8,16.5,1.6,24.2-2.5,1.4-.7,2.6-1.6,4-2.4,8.4-5,9.1-21-1-26.6-6.3-3.4-13-5.4-19.8-7.4-9.5-2.9-19.3-5.2-28.7-8.6S238.5,68,235,56.9c-7.2-22.5,1.4-43.3,23.4-52.6,4.5-1.9,9.5-2.6,14.3-3.9h1.9l3.7-.4h9.4l3.8.4Z" fill="#020202"/><path d="M0,2.3c30.7,0,61.5-.6,92.2.3,17.4.5,30.6,10,38.8,25.5,9.8,18.6,5.7,42.7-10.9,57.4-.9-1.2-1.7-2.5-2.5-3.8-4-6.8-8-13.6-11.9-20.5a9.5,9.5,0,0,1-.9-3.3c-.3-3.7-.3-7.5-.6-11.2-.6-6.4-7.6-12.7-14-12.7l-70-.3H18L0,2.8Z" fill="#ff2022"/><path d="M278.3,0l-3.7.4V0Z" fill="#444"/><path d="M291.5.4,287.7,0h3.7A.6.6,0,0,0,291.5.4Z" fill="#5b5b5b"/><path d="M274.6,0V.4h-1.9V0Z" fill="#a5a5a5"/><path d="M291.5.4a.6.6,0,0,1-.1-.4h1.9V.4Z" fill="#bbb"/><path d="M37,66H62.4l34.7.2a3,3,0,0,1,3.1,1.7c11.8,20.5,23.6,40.9,35.3,61.4a5.1,5.1,0,0,1,.9,2.6l-.3,59.3a11.4,11.4,0,0,1-.1,1.5l-1.7-2.6L81.8,99.2c-.9-1.5-1.7-2.1-3.4-2.1-7.4.1-14.7.1-22,0A3.1,3.1,0,0,1,54,95.9c-5.5-9.3-10.9-18.8-16.3-28.2A12.6,12.6,0,0,1,37,66Z" fill="#ff2022"/><path d="M172.4,1.8h24.9V146.5H172.4Z" fill="#010101"/><path d="M177.1,174.3a8.8,8.8,0,0,1-2.9,7.1,12.8,12.8,0,0,1-8.3,2.5h-2.6v10.2h-6V165.4h9.1c3.5,0,6.1.8,7.9,2.3A8,8,0,0,1,177.1,174.3Zm-13.8,4.6h2a6.8,6.8,0,0,0,4.2-1.1,3.7,3.7,0,0,0,1.4-3.2,4.3,4.3,0,0,0-1.1-3.2,5.5,5.5,0,0,0-3.7-1h-2.8Z"/><path d="M208.6,183.1v11h-6.1V165.4h8.4c3.9,0,6.7.7,8.6,2.1s2.8,3.6,2.8,6.5a7.7,7.7,0,0,1-1.4,4.5,9.5,9.5,0,0,1-3.9,3.1l8.4,12.5h-6.7l-6.9-11Zm0-5h2a7.7,7.7,0,0,0,4.2-.9,3.7,3.7,0,0,0,1.4-3.1,3.3,3.3,0,0,0-1.4-2.9,9.8,9.8,0,0,0-4.4-.8h-1.8Z"/><path d="M275.1,179.7c0,4.7-1.2,8.4-3.6,10.9s-5.7,3.8-10.1,3.8-7.7-1.2-10.1-3.8-3.5-6.2-3.5-10.9,1.2-8.5,3.5-11,5.8-3.7,10.2-3.7,7.7,1.2,10.1,3.8S275.1,174.9,275.1,179.7Zm-20.9,0q0,4.8,1.8,7.2a6.3,6.3,0,0,0,5.4,2.4c4.9,0,7.3-3.2,7.3-9.6s-2.4-9.7-7.2-9.7a6.3,6.3,0,0,0-5.5,2.5Q254.2,174.9,254.2,179.7Z"/><path d="M298.1,202.5a12.5,12.5,0,0,1-3.6-.5v-5a9.9,9.9,0,0,0,2.8.4,3.1,3.1,0,0,0,2.9-1.3,6.6,6.6,0,0,0,.9-3.9V165.4h6v26.8c0,3.4-.7,5.9-2.3,7.6S301.1,202.5,298.1,202.5Z"/><path d="M350.9,194.1H334.4V165.4h16.5v5H340.5v6.3h9.7v5h-9.7V189h10.4Z"/><path d="M389.1,170.1a6.1,6.1,0,0,0-5.3,2.5c-1.3,1.7-1.9,4.1-1.9,7.2q0,9.6,7.2,9.6a23.1,23.1,0,0,0,7.3-1.5V193a19.9,19.9,0,0,1-7.9,1.4c-4.1,0-7.3-1.2-9.5-3.7s-3.3-6.2-3.3-10.9a18,18,0,0,1,1.6-7.9,11.6,11.6,0,0,1,4.7-5.1,13.6,13.6,0,0,1,7.1-1.8,19.9,19.9,0,0,1,8.4,2l-2,5a18.3,18.3,0,0,0-3.2-1.4A9.3,9.3,0,0,0,389.1,170.1Z"/><path d="M433.6,194.1h-6.1V170.5h-7.7v-5.1h21.6v5.1h-7.8Z"/><path d="M482.8,186.1a7.6,7.6,0,0,1-2.8,6.1c-1.9,1.5-4.5,2.2-7.8,2.2a17.3,17.3,0,0,1-8.1-1.7v-5.6c1.9.8,3.6,1.4,4.9,1.8a12.6,12.6,0,0,0,3.7.5,5.1,5.1,0,0,0,3-.7,2.5,2.5,0,0,0,1.1-2.3,2.5,2.5,0,0,0-.5-1.5,5.3,5.3,0,0,0-1.3-1.3l-3.8-1.9a16.5,16.5,0,0,1-3.9-2.4,7.5,7.5,0,0,1-2.1-2.6,8,8,0,0,1-.8-3.6,7.3,7.3,0,0,1,2.6-5.9c1.7-1.5,4.1-2.2,7.1-2.2a20.2,20.2,0,0,1,4.3.5l4.2,1.5-1.9,4.7-3.8-1.3a15.3,15.3,0,0,0-3-.3,3.5,3.5,0,0,0-2.6.8,2.6,2.6,0,0,0-.9,2.1,3.2,3.2,0,0,0,.3,1.4,6.5,6.5,0,0,0,1.2,1.1,24.9,24.9,0,0,0,3.9,2,16.2,16.2,0,0,1,5.5,3.9A7.3,7.3,0,0,1,482.8,186.1Z"/></g></g></svg>