<svg xmlns="http://www.w3.org/2000/svg" viewBox="0 0 225.5 342.9"><title>logo</title><g id="b9fc23d7-dc31-48c7-a526-e7cac9f83785" data-name="Layer 2"><g id="b40c603d-1f38-4781-a8e2-d0b7e37f23b2" data-name="Layer 1"><path d="M35.6.2c34.7,0,69.5-.7,104.3.3,19.8.6,34.7,11.3,44,28.9,11.1,21,6.4,48.3-12.4,65-1-1.4-1.9-2.8-2.8-4.3L155.2,66.8a9.3,9.3,0,0,1-1-3.7c-.3-4.2-.3-8.4-.7-12.6-.6-7.3-8.6-14.4-15.8-14.4l-79.2-.4H55.9L35.6.7Z" fill="#ff2022"/><path d="M77.4,72.3h28.8l39.3.2c1.7,0,2.7.4,3.5,2L189,144a5.8,5.8,0,0,1,.9,2.9q0,33.4-.3,67.1a14.9,14.9,0,0,1-.1,1.7l-1.9-2.9q-29.7-51.5-59.5-103a3.8,3.8,0,0,0-3.8-2.3c-8.3.2-16.6.1-24.9,0a3.9,3.9,0,0,1-2.7-1.3c-6.2-10.6-12.4-21.3-18.5-32A17.2,17.2,0,0,1,77.4,72.3Z" fill="#ff2022"/><path d="M13.7,323.4a6,6,0,0,1-2,4.9C10.4,329.5,8.5,330,6,330H4.2v7.1H0V317.2H6.3a8.6,8.6,0,0,1,5.5,1.6A5.5,5.5,0,0,1,13.7,323.4Zm-9.5,3.2H5.6a4.6,4.6,0,0,0,2.9-.8,2.7,2.7,0,0,0,1-2.2,2.9,2.9,0,0,0-.8-2.2,3.8,3.8,0,0,0-2.6-.7H4.2Z"/><path d="M35.6,329.5v7.6H31.3V317.2h5.8q4,0,6,1.5a5.4,5.4,0,0,1,2,4.5,5.5,5.5,0,0,1-1,3.1,6.4,6.4,0,0,1-2.7,2.1l5.8,8.7H42.5l-4.7-7.6Zm0-3.4h1.3a6,6,0,0,0,3-.7,2.5,2.5,0,0,0,.9-2.1,2.1,2.1,0,0,0-1-2,5.6,5.6,0,0,0-3-.6H35.6Z"/><path d="M81.6,327.1c0,3.3-.8,5.9-2.4,7.6a9.1,9.1,0,0,1-7,2.7c-3.1,0-5.4-.9-7-2.7s-2.5-4.3-2.5-7.6.8-5.8,2.5-7.6,3.9-2.6,7-2.6,5.4.9,7,2.7S81.6,323.8,81.6,327.1Zm-14.5,0c0,2.3.4,3.9,1.3,5a4.2,4.2,0,0,0,3.8,1.7c3.3,0,5-2.2,5-6.7s-1.7-6.7-5-6.7a4.5,4.5,0,0,0-3.8,1.7A8,8,0,0,0,67.1,327.1Z"/><path d="M97.5,342.9a8.8,8.8,0,0,1-2.4-.3v-3.5l1.9.3a2.2,2.2,0,0,0,2-.9,4.5,4.5,0,0,0,.6-2.7V317.2h4.2v18.6a7.6,7.6,0,0,1-1.6,5.3A5.8,5.8,0,0,1,97.5,342.9Z"/><path d="M134.1,337.1H122.7V317.2h11.4v3.5h-7.2v4.4h6.7v3.4h-6.7v5.1h7.2Z"/><path d="M160.6,320.5a4.5,4.5,0,0,0-3.7,1.7,9,9,0,0,0-1.3,5c0,4.4,1.7,6.7,5,6.7a16.2,16.2,0,0,0,5.1-1.1v3.5a14.2,14.2,0,0,1-5.5,1.1,8.1,8.1,0,0,1-6.6-2.7c-1.5-1.7-2.3-4.2-2.3-7.5a12.7,12.7,0,0,1,1.1-5.4,7.7,7.7,0,0,1,3.3-3.6,9.6,9.6,0,0,1,4.9-1.2,12.4,12.4,0,0,1,5.8,1.4l-1.3,3.4a10.9,10.9,0,0,0-2.3-.9A5.7,5.7,0,0,0,160.6,320.5Z"/><path d="M191.4,337.1h-4.2V320.7h-5.4v-3.5h15v3.5h-5.4Z"/><path d="M225.5,331.6a5.2,5.2,0,0,1-1.9,4.2,8.7,8.7,0,0,1-5.4,1.6,12.5,12.5,0,0,1-5.6-1.2v-3.9a15.6,15.6,0,0,0,3.4,1.2,7.7,7.7,0,0,0,2.5.4,4.1,4.1,0,0,0,2.1-.5,1.9,1.9,0,0,0,.8-1.6,1.5,1.5,0,0,0-.4-1.1,3.6,3.6,0,0,0-.9-.8l-2.6-1.4a10.6,10.6,0,0,1-2.7-1.6,8.4,8.4,0,0,1-1.5-1.8,6.6,6.6,0,0,1-.5-2.5,5.1,5.1,0,0,1,1.8-4.1,7.4,7.4,0,0,1,4.9-1.5,15.3,15.3,0,0,1,3,.3,21.2,21.2,0,0,1,2.9,1.1l-1.4,3.2-2.6-.9-2-.2a2.9,2.9,0,0,0-1.9.5,2,2,0,0,0-.6,1.5,1.4,1.4,0,0,0,.3.9,1.5,1.5,0,0,0,.8.8,13,13,0,0,0,2.6,1.4,10.8,10.8,0,0,1,3.9,2.7A5.9,5.9,0,0,1,225.5,331.6Z"/><path d="M18.1,277.7v28.8H2.1V231.4H24c10.2,0,17.8,1.9,22.7,5.6s7.3,9.3,7.3,16.9a20.3,20.3,0,0,1-3.6,11.8A25.2,25.2,0,0,1,40,273.8l22.1,32.7H44.5l-18-28.8Zm0-13h5.1c5,0,8.7-.8,11.1-2.5s3.6-4.3,3.6-7.9-1.2-6.1-3.6-7.6-6.3-2.3-11.4-2.3H18.1Z"/><path d="M76.8,306.5V231.4h16v75.1Z"/><path d="M161.2,285.6c0,6.8-2.4,12.1-7.3,16s-11.7,5.9-20.3,5.9a48,48,0,0,1-21.3-4.5V288.2a90,90,0,0,0,12.9,4.8,39.1,39.1,0,0,0,9.6,1.4c3.5,0,6.2-.7,8-2a7,7,0,0,0,2.8-6,6.5,6.5,0,0,0-1.2-3.9,11.6,11.6,0,0,0-3.6-3.3,83.8,83.8,0,0,0-9.8-5.1,51.1,51.1,0,0,1-10.3-6.2,23.4,23.4,0,0,1-5.5-7,19.2,19.2,0,0,1-2-9.2c0-6.7,2.2-11.9,6.7-15.7s10.7-5.7,18.7-5.7a45.8,45.8,0,0,1,11.2,1.4,74.2,74.2,0,0,1,11.1,3.9L155.7,248a76.2,76.2,0,0,0-9.9-3.5,34.4,34.4,0,0,0-7.7-.9c-3,0-5.4.7-7,2.1a7.3,7.3,0,0,0-1.4,9.1,11.4,11.4,0,0,0,3.1,3.1,109.6,109.6,0,0,0,10.1,5.2c7,3.4,11.8,6.8,14.4,10.1A19.7,19.7,0,0,1,161.2,285.6Z"/><path d="M223.3,306.5H180.1V231.4h43.2v13H196v16.5h25.4V274H196v19.3h27.3Z"/></g></g></svg>