<svg xmlns="http://www.w3.org/2000/svg" viewBox="0 0 148.5 138.9"><title>ic-1</title><g style="isolation:isolate"><g id="f5cf23a3-5c25-4dc8-9695-ec987a2f5a79" data-name="Layer 2"><g id="f4ebb862-9e87-4020-94c1-fb8a91850741" data-name="OBJECTS"><path d="M9.3,82.7l5.4-22,5.4-22.1c1.8-7.3,4.1-14.7,5.2-22.1a.6.6,0,0,0-1.1-.3c-2.4,7.2-3.7,14.8-5.5,22.1L13.6,59.4c-1.7,7.1-3.5,14.2-5.2,21.2s-4.5,14.8-5,22.2c0,.3.5.6.7.2C6.8,96.7,7.7,89.4,9.3,82.7Z" fill="#bc8a65"/><path d="M40.3,82.7c-1.8-7.3-3.5-14.7-5.3-22L29.6,38.6c-1.8-7.3-4.1-14.7-5.2-22.1a.5.5,0,0,1,1-.3C27.9,23.4,29.2,31,31,38.3l5.1,21.1c1.7,7.1,3.4,14.2,5.2,21.2s4.5,14.8,5,22.2c0,.3-.5.6-.7.2C42.9,96.7,42,89.4,40.3,82.7Z" fill="#bc8a65"/><path d="M50,102.2c-.9-2.3-6-2.8-7.9-3.2a88,88,0,0,0-17-1.4C19.9,97.6.5,98.9,0,103.7c.9.5,1.3,1.9,1.5,2.8v.5c5.5,6.3,19.1,5.3,26.1,4.8S38.9,110.5,44,108C46.1,107,51,105.2,50,102.2Z" fill="#f9c84b"/><path d="M50,102.2c-.9-2.3-6-2.8-7.9-3.2a88,88,0,0,0-17-1.4C19.9,97.6.5,98.9,0,103.7c.9.5,1.3,1.9,1.5,2.8v.5c5.5,6.3,19.1,5.3,26.1,4.8S38.9,110.5,44,108C46.1,107,51,105.2,50,102.2Z" fill="#cca689" style="mix-blend-mode:multiply"/><path d="M50,102.6c-3.7,3.2-13.8,6-24,5.8a78.7,78.7,0,0,1-19-2.3,48.1,48.1,0,0,1-6.7-2.6c-.2-.1-.3-.1-.3.2.7,11.7,17.6,13,25.1,12.9s20.7-1.2,24.2-10C49.7,105.7,50.5,103.7,50,102.6Z" fill="#f9c84b"/><path d="M12.5,111.9c-1-1.3-3.3-1.4-4.8-2.1a31.7,31.7,0,0,1-5.2-3.2c-.3-.2-.7.3-.4.6a14,14,0,0,0,5.2,4.1c1.4.7,3.5,1.9,5.1,1.2A.5.5,0,0,0,12.5,111.9Z" fill="#fce19e"/><path d="M14.6,112.1c-.9-.3-1,1.3-.1,1.2a1.7,1.7,0,0,0,1-.1l.2-.3C15.6,112.4,15.1,112.2,14.6,112.1Z" fill="#fce19e"/><path d="M22.3,113.7c-.3,0-.3.5.1.5S22.7,113.7,22.3,113.7Z" fill="#fce19e"/><path d="M44.6,108.6a10.9,10.9,0,0,0-2.7,1.1L39,111.3a.4.4,0,0,0,.4.8c1.8-.7,4.2-1.5,5.4-3.1S44.8,108.6,44.6,108.6Z" fill="#fce19e"/><path d="M46.6,106.7c-.6,0-.7,1,0,1A.5.5,0,1,0,46.6,106.7Z" fill="#fce19e"/><path d="M25.4,88.2V40.3c0-7.9.6-16.1-.2-24,0-.7-1-.6-1,.1-.8,7.9-.2,16-.2,23.9V86.2c0,7.8-.9,16.2.3,23.9.1.4.7.6.8.1C26.2,103.1,25.4,95.3,25.4,88.2Z" fill="#bc8a65"/><path d="M139.2,82.7l-5.4-22-5.3-22.1c-1.8-7.3-4.2-14.7-5.2-22.1a.5.5,0,0,1,1-.3c2.5,7.2,3.8,14.8,5.5,22.1s3.5,14.1,5.2,21.1l5.1,21.2c1.8,7.2,4.6,14.8,5.1,22.2,0,.3-.5.6-.7.2C141.8,96.7,140.8,89.4,139.2,82.7Z" fill="#bc8a65"/><path d="M108.2,82.7l5.4-22L119,38.6c1.7-7.3,4.1-14.7,5.2-22.1a.6.6,0,0,0-1.1-.3c-2.5,7.2-3.7,14.8-5.5,22.1s-3.4,14.1-5.2,21.1l-5.1,21.2c-1.8,7.2-4.5,14.8-5.1,22.2,0,.3.6.6.7.2C105.7,96.7,106.6,89.4,108.2,82.7Z" fill="#bc8a65"/><path d="M98.6,102.2c.8-2.3,6-2.8,7.9-3.2a88,88,0,0,1,17-1.4c5.2,0,24.6,1.3,25,6.1a4.2,4.2,0,0,0-1.4,2.8c0,.2-.1.3-.1.5-5.5,6.3-19,5.3-26,4.8s-11.3-1.3-16.5-3.8C102.4,107,97.5,105.2,98.6,102.2Z" fill="#f9c84b"/><path d="M98.6,102.2c.8-2.3,6-2.8,7.9-3.2a88,88,0,0,1,17-1.4c5.2,0,24.6,1.3,25,6.1a4.2,4.2,0,0,0-1.4,2.8c0,.2-.1.3-.1.5-5.5,6.3-19,5.3-26,4.8s-11.3-1.3-16.5-3.8C102.4,107,97.5,105.2,98.6,102.2Z" fill="#cca689" style="mix-blend-mode:multiply"/><path d="M99.2,106.6c3.5,8.8,16.2,9.9,24.3,10s24.3-1.2,25-12.9c.1-.3-.1-.3-.3-.2a43.7,43.7,0,0,1-6.7,2.6,78.7,78.7,0,0,1-19,2.3c-10.2.2-20.2-2.6-24-5.8C98.1,103.7,98.9,105.7,99.2,106.6Z" fill="#f9c84b"/><path d="M136.1,111.9c1-1.3,3.3-1.4,4.7-2.1a25.1,25.1,0,0,0,5.2-3.2c.4-.2.7.3.5.6a14.3,14.3,0,0,1-5.3,4.1c-1.4.7-3.5,1.9-5,1.2S135.9,112,136.1,111.9Z" fill="#fce19e"/><path d="M133.9,112.1c1-.3,1.1,1.3.2,1.2s-.8.1-1.1-.1-.2-.2-.1-.3S133.5,112.2,133.9,112.1Z" fill="#fce19e"/><path d="M126.2,113.7c.4,0,.3.5,0,.5S125.8,113.7,126.2,113.7Z" fill="#fce19e"/><path d="M104,108.6a15.3,15.3,0,0,1,2.7,1.1l2.8,1.6a.4.4,0,1,1-.4.8c-1.8-.7-4.1-1.5-5.4-3.1S103.8,108.6,104,108.6Z" fill="#fce19e"/><path d="M101.9,106.7c.7,0,.8,1,.1,1S101.2,106.7,101.9,106.7Z" fill="#fce19e"/><path d="M123.1,88.2V40.3c0-7.9-.5-16.1.2-24,.1-.7,1-.6,1.1.1.7,7.9.1,16,.1,23.9V86.2c0,7.8,1,16.2-.3,23.9,0,.4-.6.6-.7.1C122.3,103.1,123.1,95.3,123.1,88.2Z" fill="#bc8a65"/><path d="M73.2,13.7a8.8,8.8,0,0,0,0,2.3c0,.5.3.7.7.6C81.8,19,89.1,13,96.5,10.9c9.4-2.9,21.2-.8,25.3,8,.2.3.5.4,1.5.3s1.9-1,1.8-1.3c-2.1-7.6-11.9-13-19.6-13.4a36.3,36.3,0,0,0-15,2.6c-5.7,2.1-10.8,5.1-17,4.2-.6-.1-.7.8-.2,1h.2A2.2,2.2,0,0,0,73.2,13.7Z" fill="#f9c84b"/><path d="M75.1,12.3h.1a.5.5,0,0,0-.2-1c-6.2.9-11.3-2.1-16.9-4.2a36.8,36.8,0,0,0-15-2.6c-7.8.4-17.5,5.8-19.7,13.4-.1.3.2,1.2,1.9,1.3s1.2,0,1.4-.3c4.2-8.8,15.9-10.9,25.4-8C59.4,13,66.7,19,74.7,16.6a.6.6,0,0,0,.7-.6V13.7A2.2,2.2,0,0,0,75.1,12.3Z" fill="#f9c84b"/><path d="M86.9,125.9c-5.2-2-11.4-6.2-10.2-12.7.7-3.4,3.7-5.2,4-8.8s-1-6.7-1.8-9.8a107.2,107.2,0,0,1-3.4-14.9l.3-.2a.9.9,0,0,0,.1-.7c-.4-.6-1.1-.5-1.8-.4a2.1,2.1,0,0,0-1.7.6.4.4,0,0,0-.2.4,98.3,98.3,0,0,1-3.4,15.2c-.8,3.1-2.1,6.6-1.8,9.8s3.4,5.4,4,8.8c1.2,6.5-5,10.7-10.2,12.7-2.7,1.1-9.9,2.8-6.8,7.3s14.8,5.7,19.9,5.7,16.3-.7,19.8-5.7S89.6,127,86.9,125.9Z" fill="#f9c84b"/><path d="M75.9,81.9a20.7,20.7,0,0,1-.4-2.2l.3-.2a.9.9,0,0,0,.1-.7c-.4-.6-1.1-.5-1.8-.4a2.1,2.1,0,0,0-1.7.6.4.4,0,0,0-.2.4,27,27,0,0,1-.4,2.8A14.2,14.2,0,0,0,75.9,81.9Z" fill="#cca689" style="mix-blend-mode:multiply"/><path d="M78.4,120.1a10.4,10.4,0,0,1-1.7-3.7,11.1,11.1,0,0,1-5.7-.3,9.3,9.3,0,0,1-1.5,3.7C71.9,121.6,75.4,121.2,78.4,120.1Z" fill="#cca689" style="mix-blend-mode:multiply"/><path d="M88.2,134.7a43.5,43.5,0,0,1-15.6,2.8c-5.8-.1-14.2-.6-18.9-4.9l.3.6c3.5,5,14.8,5.7,19.9,5.7s16.3-.7,19.8-5.7a4,4,0,0,0,.7-1.5A27.2,27.2,0,0,1,88.2,134.7Z" fill="#cca689" style="mix-blend-mode:multiply"/><path d="M75.1,4a7.2,7.2,0,0,0-1-3.8.6.6,0,0,0-.9,0,6,6,0,0,0-.6,3.7,25.3,25.3,0,0,0,.3,4.8,1.1,1.1,0,0,0,2.2,0A24.6,24.6,0,0,0,75.1,4Z" fill="#f9c84b"/><path d="M79.5,11a13.9,13.9,0,0,1-4.1.4c-.1-.1-.2-.2-.4-.1H73.5c-.1-.1-.3,0-.4.1a15.3,15.3,0,0,1-4.3-.4,31,31,0,0,1,.9,6.1,14.6,14.6,0,0,0,4.6-.4,11.5,11.5,0,0,0,4.1.4A43.4,43.4,0,0,1,79.5,11Z" fill="#cca689" style="mix-blend-mode:multiply"/><path d="M76.5,29.6c.1-4.5.2-9.1.2-13.7a47.8,47.8,0,0,0-.2-5.3c-.1-1.5.1-3.1-1.6-3.6a5.1,5.1,0,0,0-3,.2c-1.1.5-.9,1.9-.9,2.9s-.2,3.6-.2,5.4c-.2,6.9,0,13.7.1,20.5,0,2.4.1,4.8.1,7.2V61.1c0,6.2-.6,12.7.3,18.8a.3.3,0,0,0,.6.1,4,4,0,0,0,1.9.2l1.5-.3a.7.7,0,0,0,1-.4c.3-.2.2-.7,0-.9,0-12-.1-23.9,0-35.8C76.3,38.4,76.4,34,76.5,29.6Z" fill="#f9c84b"/><path d="M76.3,75.8a3.4,3.4,0,0,1-2.9,1.5c-2.5,0-2.2-1.4-2.5-1.4s-2.2,1.8-1.8,2.9,2,2,4.8,2,3.6-.5,4.2-1.7A2.2,2.2,0,0,0,76.3,75.8Z" fill="#f9c84b"/><path d="M76.6,113.8c-.3,1-1.4,1.5-3,1.5s-2.4-1.2-2.5-1.4-2.4,1.8-2,2.9,2.2,2,5.1,2,3.8-.5,4.4-1.7A2.2,2.2,0,0,0,76.6,113.8Z" fill="#f9c84b"/><path d="M73,90.7a.4.4,0,0,0-.8-.3c-1.5,3.1-7,15.7-1.2,17.2a.4.4,0,0,0,.5-.4c0-1.4-.7-2.3-.8-3.6a10.5,10.5,0,0,1,.3-4.3A82.6,82.6,0,0,1,73,90.7Z" fill="#fce19e"/><path d="M72.4,108.6c-.3-.8-1.5-.4-1.2.3a1.2,1.2,0,0,0,.5.7.5.5,0,0,0,.8-.3A.8.8,0,0,0,72.4,108.6Z" fill="#fce19e"/><path d="M78.8,102.5a.5.5,0,0,0-.7,0,4.6,4.6,0,0,0-.6,2.3,10.7,10.7,0,0,1-.9,2.7c-.3.6.5.9.8.5a6.6,6.6,0,0,0,1.6-2.8C79.2,104.3,79.5,103.2,78.8,102.5Z" fill="#fce19e"/><path d="M75.4,114.2a14.5,14.5,0,0,1-3.6.2c-.7,0-.6.8-.1,1a7.4,7.4,0,0,0,3.3.5c.6,0,2.2-.3,2.1-1.3S76,114.1,75.4,114.2Z" fill="#fce19e"/><path d="M70.4,115.9c-.8,0-.9,1.2-.1,1.2S71.2,115.9,70.4,115.9Z" fill="#fce19e"/><path d="M60.1,128.1c-1.6-.3-6.8,2.5-4.5,4.2a.6.6,0,0,0,.9-.5c0-.3,1.2-.9,1.4-1.1l2-.6C60.9,129.7,61.4,128.4,60.1,128.1Z" fill="#fce19e"/><path d="M64.4,125.7a3.7,3.7,0,0,0-1.7,1c-.8.8.4,2,1.1,1.1s1-1,1-1.6S64.7,125.7,64.4,125.7Z" fill="#fce19e"/><path d="M92.2,130.3a2.7,2.7,0,0,0-2.7-1.7c-.8-.1-1.1,1.2-.3,1.4a4.7,4.7,0,0,1,1.9,1.2C91.8,131.7,92.4,130.9,92.2,130.3Z" fill="#fce19e"/><path d="M81.6,133.9c-1.2-.2-2.4.4-3.6.4l-4.9.4c-.6,0-.6.8,0,.9a58.2,58.2,0,0,0,5.9.2c1.2-.1,2.4-.3,2.8-1.4A.4.4,0,0,0,81.6,133.9Z" fill="#fce19e"/><path d="M87.3,131.7a9.7,9.7,0,0,1-2.1.6.8.8,0,0,0,0,1.6,3.4,3.4,0,0,0,2.9-1.2C88.4,132.2,87.8,131.6,87.3,131.7Z" fill="#fce19e"/><path d="M74.7,77a12.4,12.4,0,0,1-3.3-.4.6.6,0,0,0-.6.9,4.7,4.7,0,0,0,2.7,1.2c.6,0,2.2,0,2.4-.9S75.2,77.1,74.7,77Z" fill="#fce19e"/><path d="M77,76.6c-.7,0-.9,1.2-.1,1.2S77.8,76.6,77,76.6Z" fill="#fce19e"/><path d="M74.8,7.9c-.5-1-2-.5-2.6,0S71,10.1,72,10.6a.5.5,0,0,0,.7-.1c.2-.5,0-1.1.4-1.6s1-.3,1.5-.5S74.8,8.1,74.8,7.9Z" fill="#fce19e"/><path d="M71.9,12l.3.6c.1.3.4.2.5,0a1.4,1.4,0,0,0,.2-.6C73.1,11.1,71.8,11.2,71.9,12Z" fill="#fce19e"/><path d="M73.8,2.3c-.8.1-.6,1.1-.5,1.6s1,.4,1.1-.1S74.6,2.3,73.8,2.3Z" fill="#fce19e"/><path d="M72.4,23.6c-.1-.2-.4-.2-.4,0-.1,3.6-1.1,7.6-.2,11.1,0,.2.4.2.5,0C73.3,31.2,72.4,27.2,72.4,23.6Z" fill="#fce19e"/><path d="M72.5,38.2c-.8,0-.8,1.1-.1,1.1S73.2,38.2,72.5,38.2Z" fill="#fce19e"/><path d="M72.5,40.9c-.3,0-.3.4-.1.4S72.7,40.9,72.5,40.9Z" fill="#fce19e"/><path d="M73.1,53.2c.1-2,0-4-.1-6.1a.5.5,0,0,0-.9,0c-.1,2-.1,4-.1,6.1a30.3,30.3,0,0,0,.3,5.2c.1.2.4.3.5,0A18,18,0,0,0,73.1,53.2Z" fill="#fce19e"/><path d="M72.2,63.2c0,.6-.2,1.5.2,2s.4.2.5,0,.4-1.3.5-1.9A.6.6,0,1,0,72.2,63.2Z" fill="#fce19e"/><path d="M33.5,8.8c-1.7.2-3.2,1.6-4.5,2.6a12.2,12.2,0,0,0-3.5,4,.4.4,0,0,0,.7.5c1.5-.9,2.7-2.4,4.1-3.5a13,13,0,0,0,3.5-3.1A.4.4,0,0,0,33.5,8.8Z" fill="#fce19e"/><path d="M36.7,7.3a4,4,0,0,0-2,.9.5.5,0,0,0,.5.9,4.1,4.1,0,0,0,1.9-1.2A.4.4,0,0,0,36.7,7.3Z" fill="#fce19e"/><path d="M101.7,6.1c-1.3-.6-2.9-.1-4.3.4a7.2,7.2,0,0,0-3.6,2.3c-.2.2.1.6.4.5L98,7.9c1.2-.3,2.6-.2,3.7-.8A.6.6,0,0,0,101.7,6.1Z" fill="#fce19e"/><path d="M108.1,6.8a8,8,0,0,0-2.7-.3c-.7,0-.7,1.2.1,1.2a5.7,5.7,0,0,0,2.6-.3C108.4,7.3,108.3,6.9,108.1,6.8Z" fill="#fce19e"/></g></g></g></svg>