<svg xmlns="http://www.w3.org/2000/svg" viewBox="0 0 144.7 154.4"><defs><style>.cls-1{fill:#fbab2c;}</style></defs><title>favicon</title><g id="Layer_2" data-name="Layer 2"><g id="Layer_1-2" data-name="Layer 1"><path class="cls-1" d="M167.4,459.7a4.9,4.9,0,1,1-9.7,0h-9.6a14.5,14.5,0,1,0,28.9,0V421.1h-9.6Z" transform="translate(-109.5 -319.8)"/><path class="cls-1" d="M201.2,464.5a4.8,4.8,0,0,1-4.9-4.8V421.1h-9.6v38.6a14.5,14.5,0,1,0,28.9,0H206a4.8,4.8,0,0,1-4.8,4.8" transform="translate(-109.5 -319.8)"/><path class="cls-1" d="M239.8,421.1a14.5,14.5,0,0,0-14.5,14.5,4.9,4.9,0,0,1-9.7,0V415.5a16.2,16.2,0,0,0,4.9.8,14.5,14.5,0,0,0,14.4-14.5v-9.6a4.9,4.9,0,0,1,9.7,0h9.6a14.5,14.5,0,1,0-28.9,0v9.6a4.9,4.9,0,1,1-9.7,0V397a20.1,20.1,0,0,1,2.9-10.4,4.1,4.1,0,0,0,.5-.9h0a43.5,43.5,0,1,0-74.3,0h0l.6.9a21,21,0,0,1,2.8,10.4v4.8a4.9,4.9,0,1,1-9.7,0v-9.6a14.5,14.5,0,1,0-28.9,0h9.6a4.9,4.9,0,0,1,9.7,0v9.6a14.5,14.5,0,0,0,14.5,14.5,15.1,15.1,0,0,0,4.8-.8v20.1a4.9,4.9,0,0,1-9.7,0,14.5,14.5,0,1,0-28.9,0h9.6a4.9,4.9,0,0,1,9.7,0,14.5,14.5,0,1,0,28.9,0V397a30,30,0,0,0-4.2-15.4h0l-.3-.5a.3.3,0,0,0-.1-.2l-.2-.3a33.7,33.7,0,1,1,57.9.1l-.6.9h0A30,30,0,0,0,206,397v38.6a14.5,14.5,0,1,0,28.9,0,4.9,4.9,0,0,1,9.7,0h9.6a14.5,14.5,0,0,0-14.4-14.5" transform="translate(-109.5 -319.8)"/><rect class="cls-1" x="57.9" y="48.3" width="9.6" height="19.3"/><rect class="cls-1" x="77.2" y="48.2" width="9.7" height="19.3"/></g></g></svg>