<svg xmlns="http://www.w3.org/2000/svg" viewBox="0 0 395 154.4"><defs><style>.cls-1{fill:#fbab2c;}.cls-2{fill:#1d2b48;}</style></defs><title>logo-b</title><g id="Layer_2" data-name="Layer 2"><g id="Layer_1-2" data-name="Layer 1"><path class="cls-1" d="M167.4,459.7a4.9,4.9,0,1,1-9.7,0h-9.6a14.5,14.5,0,1,0,28.9,0V421.1h-9.6Z" transform="translate(-109.5 -319.8)"/><path class="cls-1" d="M201.2,464.5a4.8,4.8,0,0,1-4.9-4.8V421.1h-9.6v38.6a14.5,14.5,0,1,0,28.9,0H206a4.8,4.8,0,0,1-4.8,4.8" transform="translate(-109.5 -319.8)"/><path class="cls-1" d="M239.8,421.1a14.5,14.5,0,0,0-14.5,14.5,4.9,4.9,0,0,1-9.7,0V415.5a16.2,16.2,0,0,0,4.9.8,14.5,14.5,0,0,0,14.4-14.5v-9.6a4.9,4.9,0,0,1,9.7,0h9.6a14.5,14.5,0,1,0-28.9,0v9.6a4.9,4.9,0,1,1-9.7,0V397a20.1,20.1,0,0,1,2.9-10.4,4.1,4.1,0,0,0,.5-.9h0a43.5,43.5,0,1,0-74.3,0h0l.6.9a21,21,0,0,1,2.8,10.4v4.8a4.9,4.9,0,1,1-9.7,0v-9.6a14.5,14.5,0,1,0-28.9,0h9.6a4.9,4.9,0,0,1,9.7,0v9.6a14.5,14.5,0,0,0,14.5,14.5,15.1,15.1,0,0,0,4.8-.8v20.1a4.9,4.9,0,0,1-9.7,0,14.5,14.5,0,1,0-28.9,0h9.6a4.9,4.9,0,0,1,9.7,0,14.5,14.5,0,1,0,28.9,0V397a30,30,0,0,0-4.2-15.4h0l-.3-.5a.3.3,0,0,0-.1-.2l-.2-.3a33.7,33.7,0,1,1,57.9.1l-.6.9h0A30,30,0,0,0,206,397v38.6a14.5,14.5,0,1,0,28.9,0,4.9,4.9,0,0,1,9.7,0h9.6a14.5,14.5,0,0,0-14.4-14.5" transform="translate(-109.5 -319.8)"/><rect class="cls-1" x="57.9" y="48.3" width="9.6" height="19.3"/><rect class="cls-1" x="77.2" y="48.2" width="9.7" height="19.3"/><polygon class="cls-2" points="212.4 51.5 212.4 61 189.1 61 189.1 73.8 208.2 73.8 208.2 83.4 189.1 83.4 189.1 102.9 178.6 102.9 178.6 51.5 212.4 51.5"/><path class="cls-2" d="M358.9,407H331.8c1.3,4.9,5.3,7.6,10.9,7.6a17,17,0,0,0,10.7-3.9l4.4,7.2a23.6,23.6,0,0,1-15.4,5.8,21.3,21.3,0,0,1-15.2-5.8,19.7,19.7,0,0,1-6-14.4,19.9,19.9,0,0,1,5.8-14.4,19.5,19.5,0,0,1,14.4-5.8c5.4,0,9.8,1.7,13.1,5.1a17.6,17.6,0,0,1,5.1,12.8,23.6,23.6,0,0,1-.7,5.8m-27.1-7.4h17.6c-.1-4.8-3.8-7.8-8.4-7.8s-8,3-9.2,7.8" transform="translate(-109.5 -319.8)"/><path class="cls-2" d="M399.7,407H372.5c1.4,4.9,5.4,7.6,11,7.6a17,17,0,0,0,10.7-3.9l4.4,7.2a23.8,23.8,0,0,1-15.4,5.8,21.3,21.3,0,0,1-15.2-5.8,19.3,19.3,0,0,1-6-14.4,19.9,19.9,0,0,1,5.8-14.4,19.5,19.5,0,0,1,14.4-5.8c5.4,0,9.8,1.7,13.1,5.1a17.6,17.6,0,0,1,5.1,12.8,23.6,23.6,0,0,1-.7,5.8m-27.2-7.4h17.7c-.1-4.8-3.8-7.8-8.4-7.8s-8,3-9.3,7.8" transform="translate(-109.5 -319.8)"/><path class="cls-2" d="M433.1,364.2h10.5v58.5h-9.7v-4.8c-2.8,3.8-6.9,5.8-12.4,5.8A17.7,17.7,0,0,1,408,418c-3.5-3.8-5.2-8.7-5.2-14.5s1.7-10.6,5.2-14.5a17.7,17.7,0,0,1,13.5-5.7c4.9,0,8.8,1.5,11.6,4.6Zm.1,39.3c0-6.9-4.4-10.7-9.7-10.7s-10,4.3-10,10.6,4.3,10.7,10,10.7,9.7-3.7,9.7-10.6" transform="translate(-109.5 -319.8)"/><path class="cls-2" d="M485.9,398.8v23.9H475.5V400.2c0-4.4-2.9-7.5-7.2-7.5s-7.3,3.1-7.3,7.5v22.5H450.5V384.1h9.6v3.5a15.7,15.7,0,0,1,11.3-4.3c9,0,14.5,6.1,14.5,15.5" transform="translate(-109.5 -319.8)"/><path class="cls-2" d="M497.8,376.6a6.6,6.6,0,0,1-6.8-6.5,6.7,6.7,0,0,1,6.8-6.6,6.6,6.6,0,0,1,6.7,6.6,6.5,6.5,0,0,1-6.7,6.5m5.2,46.1H492.5V384.1H503Z" transform="translate(-109.5 -319.8)"/></g></g></svg>