<?xml version="1.0" encoding="utf-8"?>
<!-- Generator: Adobe Illustrator 24.0.0, SVG Export Plug-In . SVG Version: 6.00 Build 0)  -->
<svg version="1.1" id="Layer_1" xmlns="http://www.w3.org/2000/svg" xmlns:xlink="http://www.w3.org/1999/xlink" x="0px" y="0px"
	 viewBox="0 0 395 154.4" style="enable-background:new 0 0 395 154.4;" xml:space="preserve">
<style type="text/css">
	.st0{fill:#FBAB2C;}
	.st1{fill:#FFFFFF;}
</style>
<title>logo</title>
<g id="Layer_2_1_">
	<g id="Layer_1-2">
		<path class="st0" d="M57.9,139.9c0.4,2.7-1.5,5.2-4.2,5.5c-2.7,0.4-5.2-1.5-5.5-4.2c-0.1-0.5-0.1-0.9,0-1.4h-9.6
			c-0.7,8,5.3,15,13.2,15.7c8,0.7,15-5.3,15.7-13.2c0.1-0.8,0.1-1.6,0-2.4v-38.6h-9.6L57.9,139.9z"/>
		<path class="st0" d="M91.7,144.7c-2.7,0.1-4.8-2-4.9-4.7c0,0,0-0.1,0-0.1v-38.6h-9.6v38.6c-0.7,8,5.3,15,13.2,15.7
			c8,0.7,15-5.3,15.7-13.2c0.1-0.8,0.1-1.6,0-2.4h-9.6C96.5,142.6,94.4,144.7,91.7,144.7"/>
		<path class="st0" d="M130.3,101.3c-8,0-14.5,6.5-14.5,14.5l0,0c-0.4,2.7-2.9,4.5-5.5,4.2c-2.2-0.3-3.8-2-4.2-4.2V95.7
			c1.6,0.5,3.2,0.8,4.9,0.8c8-0.1,14.4-6.5,14.4-14.5v-9.6c0.4-2.7,2.9-4.5,5.5-4.2c2.2,0.3,3.8,2,4.2,4.2h9.6
			c0.7-8-5.3-15-13.2-15.7c-8-0.7-15,5.3-15.7,13.2c-0.1,0.8-0.1,1.6,0,2.4V82c0.4,2.7-1.5,5.2-4.2,5.5c-2.7,0.4-5.2-1.5-5.5-4.2
			c-0.1-0.5-0.1-0.9,0-1.4v-4.8c0-3.7,1-7.3,2.9-10.4c0.2-0.3,0.4-0.6,0.5-0.9l0,0c12.5-20.5,6-47.3-14.5-59.8
			c-20.5-12.5-47.3-6-59.8,14.5c-8.5,13.9-8.5,31.4,0,45.3l0,0l0.6,0.9c1.8,3.2,2.8,6.7,2.8,10.4V82c0.4,2.7-1.5,5.2-4.2,5.5
			c-2.7,0.4-5.2-1.5-5.5-4.2c-0.1-0.5-0.1-0.9,0-1.4v-9.6c0.7-8-5.3-15-13.2-15.7S0.7,62,0,70c-0.1,0.8-0.1,1.6,0,2.4h9.6
			c0.4-2.7,2.9-4.5,5.5-4.2c2.2,0.3,3.8,2,4.2,4.2V82c0,8,6.5,14.5,14.5,14.5l0,0c1.6,0,3.3-0.3,4.8-0.8v20.1
			c-0.4,2.7-2.9,4.5-5.5,4.2c-2.2-0.3-3.8-2-4.2-4.2c0.7-8-5.3-15-13.2-15.7s-15,5.3-15.7,13.2c-0.1,0.8-0.1,1.6,0,2.4h9.6
			c0.4-2.7,2.9-4.5,5.5-4.2c2.2,0.3,3.8,2,4.2,4.2c-0.7,8,5.3,15,13.2,15.7c8,0.7,15-5.3,15.7-13.2c0.1-0.8,0.1-1.6,0-2.4V77.2
			c0-5.4-1.4-10.7-4.2-15.4l0,0l-0.3-0.5c0-0.1,0-0.1-0.1-0.2l-0.2-0.3c-9.5-16-4.2-36.7,11.8-46.2s36.7-4.2,46.2,11.8
			c6.3,10.6,6.3,23.9-0.1,34.5l-0.6,0.9l0,0c-2.8,4.7-4.2,10-4.2,15.4v38.6c-0.7,8,5.3,15,13.2,15.7c8,0.7,15-5.3,15.7-13.2
			c0.1-0.8,0.1-1.6,0-2.4c0.4-2.7,2.9-4.5,5.5-4.2c2.2,0.3,3.8,2,4.2,4.2h9.6C144.7,107.8,138.3,101.4,130.3,101.3"/>
		<rect x="57.9" y="48.3" class="st0" width="9.6" height="19.3"/>
		<rect x="77.2" y="48.2" class="st0" width="9.7" height="19.3"/>
		<polygon class="st1" points="212.4,51.5 212.4,61 189.1,61 189.1,73.8 208.2,73.8 208.2,83.4 189.1,83.4 189.1,102.9 178.6,102.9 
			178.6,51.5 		"/>
		<path class="st1" d="M249.4,87.2h-27.1c1.3,4.9,5.3,7.6,10.9,7.6c3.9,0,7.7-1.4,10.7-3.9l4.4,7.2c-4.3,3.7-9.7,5.8-15.4,5.8
			c-5.6,0.2-11.1-1.9-15.2-5.8c-3.9-3.8-6.1-9-6-14.4c-0.1-5.4,2-10.6,5.8-14.4c3.8-3.8,9-5.9,14.4-5.8c5.4,0,9.8,1.7,13.1,5.1
			c3.4,3.4,5.2,8,5.1,12.8C250.1,83.4,249.9,85.3,249.4,87.2 M222.3,79.8h17.6c-0.1-4.8-3.8-7.8-8.4-7.8S223.5,75,222.3,79.8"/>
		<path class="st1" d="M290.2,87.2H263c1.4,4.9,5.4,7.6,11,7.6c3.9,0,7.7-1.4,10.7-3.9l4.4,7.2c-4.3,3.7-9.7,5.8-15.4,5.8
			c-5.6,0.2-11.1-1.9-15.2-5.8c-3.9-3.7-6.1-9-6-14.4c-0.1-5.4,2-10.6,5.8-14.4c3.8-3.8,9-5.9,14.4-5.8c5.4,0,9.8,1.7,13.1,5.1
			c3.4,3.4,5.2,8,5.1,12.8C290.9,83.4,290.7,85.3,290.2,87.2 M263,79.8h17.7c-0.1-4.8-3.8-7.8-8.4-7.8S264.3,75,263,79.8"/>
		<path class="st1" d="M323.6,44.4h10.5v58.5h-9.7v-4.8c-2.8,3.8-6.9,5.8-12.4,5.8c-5.1,0.1-10-1.9-13.5-5.7
			c-3.5-3.8-5.2-8.7-5.2-14.5s1.7-10.6,5.2-14.5c3.5-3.8,8.4-5.8,13.5-5.7c4.9,0,8.8,1.5,11.6,4.6V44.4z M323.7,83.7
			c0-6.9-4.4-10.7-9.7-10.7s-10,4.3-10,10.6s4.3,10.7,10,10.7S323.7,90.6,323.7,83.7"/>
		<path class="st1" d="M376.4,79v23.9H366V80.4c0-4.4-2.9-7.5-7.2-7.5s-7.3,3.1-7.3,7.5v22.5H341V64.3h9.6v3.5
			c3-2.9,7.1-4.4,11.3-4.3C370.9,63.5,376.4,69.6,376.4,79"/>
		<path class="st1" d="M388.3,56.8c-3.6,0.1-6.7-2.8-6.8-6.4c0,0,0-0.1,0-0.1c0.1-3.7,3.1-6.7,6.8-6.6c0,0,0,0,0,0
			c3.6-0.1,6.6,2.9,6.7,6.5c0,0,0,0.1,0,0.1c0,3.6-2.9,6.5-6.5,6.5C388.4,56.8,388.4,56.8,388.3,56.8 M393.5,102.9H383V64.3h10.5
			V102.9z"/>
	</g>
</g>
</svg>
