<svg width="728" height="99" viewBox="0 0 728 99" fill="none" xmlns="http://www.w3.org/2000/svg">
<path d="M119 89.8765V8.08948H147.716C157.663 8.08948 165.208 9.99935 170.351 13.8191C175.493 17.6013 178.064 23.1624 178.064 30.5023C178.064 34.5093 177.032 38.0481 174.968 41.1189C172.903 44.1522 170.032 46.3804 166.353 47.8034C170.557 48.8519 173.86 50.9678 176.263 54.1509C178.703 57.334 179.923 61.2286 179.923 65.8347C179.923 73.6989 177.408 79.6532 172.378 83.6976C167.348 87.742 160.178 89.8017 150.869 89.8765H119ZM135.892 54.2632V76.339H150.362C154.341 76.339 157.438 75.4028 159.653 73.5304C161.905 71.6205 163.031 68.9991 163.031 65.6662C163.031 58.1766 159.146 54.3756 151.376 54.2632H135.892ZM135.892 42.3547H148.391C156.912 42.2049 161.173 38.8158 161.173 32.1875C161.173 28.4801 160.084 25.8212 157.907 24.211C155.767 22.5632 152.37 21.7394 147.716 21.7394H135.892V42.3547Z" fill="white"/>
<path d="M208.751 89.8765H192.422V29.098H208.751V89.8765ZM191.465 13.3697C191.465 10.9356 192.272 8.93207 193.886 7.35924C195.538 5.78641 197.771 5 200.587 5C203.364 5 205.579 5.78641 207.231 7.35924C208.882 8.93207 209.708 10.9356 209.708 13.3697C209.708 15.8413 208.864 17.8635 207.174 19.4363C205.523 21.0091 203.327 21.7956 200.587 21.7956C197.846 21.7956 195.632 21.0091 193.943 19.4363C192.291 17.8635 191.465 15.8413 191.465 13.3697Z" fill="white"/>
<path d="M241.69 14.1561V29.098H252.106V41.0065H241.69V71.3396C241.69 73.5865 242.121 75.1968 242.985 76.1705C243.848 77.1441 245.5 77.631 247.94 77.631C249.741 77.631 251.337 77.4999 252.725 77.2378V89.5395C249.535 90.5132 246.25 91 242.872 91C231.461 91 225.643 85.2517 225.417 73.7551V41.0065H216.521V29.098H225.417V14.1561H241.69Z" fill="white"/>
<path d="M286.509 77.9118C289.512 77.9118 291.952 77.088 293.828 75.4402C295.705 73.7925 296.681 71.6018 296.756 68.8681H312.015C311.978 72.9874 310.852 76.7696 308.637 80.2149C306.422 83.6227 303.382 86.2815 299.515 88.1914C295.687 90.0638 291.445 91 286.79 91C278.082 91 271.212 88.2475 266.183 82.7426C261.153 77.2003 258.638 69.5609 258.638 59.8243V58.757C258.638 49.3949 261.134 41.924 266.126 36.3442C271.119 30.7644 277.969 27.9745 286.678 27.9745C294.298 27.9745 300.397 30.1465 304.977 34.4905C309.594 38.7971 311.94 44.5454 312.015 51.7355H296.756C296.681 48.5898 295.705 46.0433 293.828 44.096C291.952 42.1113 289.474 41.1189 286.396 41.1189C282.605 41.1189 279.733 42.5045 277.781 45.2756C275.867 48.0094 274.91 52.4657 274.91 58.6447V60.3298C274.91 66.5837 275.867 71.0775 277.781 73.8112C279.696 76.545 282.605 77.9118 286.509 77.9118Z" fill="white"/>
<path d="M318.772 58.9255C318.772 52.8964 319.935 47.5225 322.263 42.804C324.59 38.0856 327.931 34.4344 332.285 31.8504C336.677 29.2665 341.763 27.9745 347.544 27.9745C355.765 27.9745 362.465 30.4836 367.645 35.5016C372.863 40.5197 375.772 47.3353 376.372 55.9484L376.485 60.1052C376.485 69.4298 373.876 76.9194 368.658 82.5741C363.441 88.1914 356.44 91 347.657 91C338.873 91 331.853 88.1914 326.598 82.5741C321.381 76.9569 318.772 69.3174 318.772 59.6558V58.9255ZM335.044 60.1052C335.044 65.8722 336.133 70.2911 338.31 73.3619C340.487 76.3952 343.603 77.9118 347.657 77.9118C351.598 77.9118 354.676 76.4139 356.891 73.418C359.105 70.3847 360.213 65.5539 360.213 58.9255C360.213 53.2708 359.105 48.8894 356.891 45.7812C354.676 42.673 351.56 41.1189 347.544 41.1189C343.565 41.1189 340.487 42.673 338.31 45.7812C336.133 48.8519 335.044 53.6266 335.044 60.1052Z" fill="white"/>
<path d="M403.68 89.8765H387.352V29.098H403.68V89.8765ZM386.395 13.3697C386.395 10.9356 387.202 8.93207 388.816 7.35924C390.467 5.78641 392.701 5 395.516 5C398.294 5 400.509 5.78641 402.16 7.35924C403.812 8.93207 404.638 10.9356 404.638 13.3697C404.638 15.8413 403.793 17.8635 402.104 19.4363C400.452 21.0091 398.256 21.7956 395.516 21.7956C392.776 21.7956 390.561 21.0091 388.872 19.4363C387.221 17.8635 386.395 15.8413 386.395 13.3697Z" fill="white"/>
<path d="M432.115 29.098L432.621 36.1195C436.976 30.6895 442.813 27.9745 450.132 27.9745C456.589 27.9745 461.394 29.8657 464.547 33.6479C467.7 37.4302 469.314 43.0849 469.389 50.612V89.8765H453.117V51.0052C453.117 47.56 452.366 45.0697 450.864 43.5343C449.363 41.9615 446.867 41.175 443.376 41.175C438.796 41.175 435.362 43.1224 433.072 47.017V89.8765H416.8V29.098H432.115Z" fill="white"/>
<path d="M482.621 81.9001C482.621 79.3161 483.484 77.219 485.211 75.6088C486.975 73.9985 489.171 73.1933 491.799 73.1933C494.464 73.1933 496.66 73.9985 498.386 75.6088C500.151 77.219 501.033 79.3161 501.033 81.9001C501.033 84.4465 500.169 86.5249 498.443 88.1352C496.716 89.708 494.501 90.4944 491.799 90.4944C489.133 90.4944 486.937 89.708 485.211 88.1352C483.484 86.5249 482.621 84.4465 482.621 81.9001Z" fill="white"/>
<path d="M540.672 77.9118C543.675 77.9118 546.115 77.088 547.991 75.4402C549.868 73.7925 550.844 71.6018 550.919 68.8681H566.178C566.141 72.9874 565.014 76.7696 562.8 80.2149C560.585 83.6227 557.545 86.2815 553.678 88.1914C549.849 90.0638 545.608 91 540.953 91C532.245 91 525.375 88.2475 520.345 82.7426C515.315 77.2003 512.8 69.5609 512.8 59.8243V58.757C512.8 49.3949 515.297 41.924 520.289 36.3442C525.282 30.7644 532.132 27.9745 540.841 27.9745C548.461 27.9745 554.56 30.1465 559.14 34.4905C563.757 38.7971 566.103 44.5454 566.178 51.7355H550.919C550.844 48.5898 549.868 46.0433 547.991 44.096C546.115 42.1113 543.637 41.1189 540.559 41.1189C536.768 41.1189 533.896 42.5045 531.944 45.2756C530.03 48.0094 529.073 52.4657 529.073 58.6447V60.3298C529.073 66.5837 530.03 71.0775 531.944 73.8112C533.859 76.545 536.768 77.9118 540.672 77.9118Z" fill="white"/>
<path d="M572.935 58.9255C572.935 52.8964 574.098 47.5225 576.426 42.804C578.753 38.0856 582.094 34.4344 586.448 31.8504C590.84 29.2665 595.926 27.9745 601.707 27.9745C609.927 27.9745 616.628 30.4836 621.808 35.5016C627.026 40.5197 629.935 47.3353 630.535 55.9484L630.648 60.1052C630.648 69.4298 628.039 76.9194 622.821 82.5741C617.604 88.1914 610.603 91 601.819 91C593.036 91 586.016 88.1914 580.761 82.5741C575.544 76.9569 572.935 69.3174 572.935 59.6558V58.9255ZM589.207 60.1052C589.207 65.8722 590.296 70.2911 592.473 73.3619C594.65 76.3952 597.765 77.9118 601.819 77.9118C605.761 77.9118 608.839 76.4139 611.054 73.418C613.268 70.3847 614.376 65.5539 614.376 58.9255C614.376 53.2708 613.268 48.8894 611.054 45.7812C608.839 42.673 605.723 41.1189 601.707 41.1189C597.728 41.1189 594.65 42.673 592.473 45.7812C590.296 48.8519 589.207 53.6266 589.207 60.1052Z" fill="white"/>
<path d="M655.929 29.098L656.436 35.8948C660.752 30.6146 666.589 27.9745 673.947 27.9745C681.792 27.9745 687.179 31.064 690.106 37.243C694.386 31.064 700.485 27.9745 708.406 27.9745C715.012 27.9745 719.93 29.9031 723.158 33.7603C726.386 37.58 728 43.347 728 51.0614V89.8765H711.671V51.1176C711.671 47.6723 710.996 45.1633 709.644 43.5905C708.293 41.9802 705.909 41.175 702.494 41.175C697.614 41.175 694.235 43.4968 692.359 48.1404L692.415 89.8765H676.143V51.1737C676.143 47.6536 675.448 45.1071 674.059 43.5343C672.67 41.9615 670.306 41.175 666.965 41.175C662.348 41.175 659.007 43.0849 656.942 46.9046V89.8765H640.67V29.098H655.929Z" fill="white"/>
<path d="M0 4C0 1.79086 1.79086 0 4 0H33V33H0V4Z" fill="#9B9B9B"/>
<rect y="33" width="33" height="33" fill="#D5D5D5"/>
<path d="M0 66H33V99H4C1.79086 99 0 97.2091 0 95V66Z" fill="white"/>
<rect x="33" width="33" height="33" fill="#D5D5D5"/>
<rect x="33" y="33" width="33" height="33" fill="white"/>
<rect x="33" y="66" width="33" height="33" fill="#D5D5D5"/>
<path d="M66 0H95C97.2091 0 99 1.79086 99 4V33H66V0Z" fill="white"/>
<rect x="66" y="33" width="33" height="33" fill="#D5D5D5"/>
<path d="M66 66H99V95C99 97.2091 97.2091 99 95 99H66V66Z" fill="#9B9B9B"/>
</svg>
