<svg width="249" height="41" viewBox="0 0 249 41" fill="none" xmlns="http://www.w3.org/2000/svg">
<path d="M13.6042 6.62646C11.2905 6.62646 9.49912 7.50732 8.22993 9.26904C6.96074 11.0174 6.32614 13.4598 6.32614 16.5962C6.32614 23.1226 8.75215 26.3857 13.6042 26.3857C15.6402 26.3857 18.1058 25.8719 21.0012 24.8442V30.0493C18.6215 31.0503 15.9641 31.5508 13.0291 31.5508C8.81164 31.5508 5.58578 30.2629 3.35147 27.687C1.11716 25.0978 0 21.3875 0 16.5562C0 13.5132 0.548662 10.8506 1.64599 8.56836C2.74331 6.27279 4.31658 4.51774 6.3658 3.30322C8.42824 2.07536 10.841 1.46143 13.6042 1.46143C16.4202 1.46143 19.2494 2.14876 22.0919 3.52344L20.1088 8.56836C19.0247 8.04785 17.934 7.59408 16.8367 7.20703C15.7393 6.81999 14.6618 6.62646 13.6042 6.62646Z" fill="white"/>
<path d="M31.5315 19.9194C31.5315 22.1349 31.8885 23.8099 32.6024 24.9443C33.3296 26.0788 34.5062 26.646 36.1324 26.646C37.7453 26.646 38.9021 26.0854 39.6028 24.9644C40.3167 23.8299 40.6737 22.1483 40.6737 19.9194C40.6737 17.7039 40.3167 16.0423 39.6028 14.9346C38.8889 13.8268 37.7189 13.2729 36.0927 13.2729C34.4798 13.2729 33.3163 13.8268 32.6024 14.9346C31.8885 16.029 31.5315 17.6906 31.5315 19.9194ZM46.861 19.9194C46.861 23.563 45.9091 26.4124 44.0053 28.4678C42.1015 30.5231 39.4508 31.5508 36.053 31.5508C33.9245 31.5508 32.0471 31.0837 30.421 30.1494C28.7948 29.2018 27.5455 27.8472 26.6729 26.0854C25.8003 24.3237 25.364 22.2684 25.364 19.9194C25.364 16.2625 26.3093 13.4198 28.1999 11.3911C30.0905 9.36247 32.7479 8.34814 36.172 8.34814C38.3006 8.34814 40.1779 8.81527 41.8041 9.74951C43.4302 10.6838 44.6796 12.0251 45.5522 13.7734C46.4247 15.5218 46.861 17.5705 46.861 19.9194Z" fill="white"/>
<path d="M51.6007 2.98291C51.6007 0.994303 52.698 0 54.8926 0C57.0873 0 58.1846 0.994303 58.1846 2.98291C58.1846 3.9305 57.907 4.67122 57.3517 5.20508C56.8097 5.72559 55.99 5.98584 54.8926 5.98584C52.698 5.98584 51.6007 4.98486 51.6007 2.98291ZM57.907 31.1504H51.8585V8.76855H57.907V31.1504Z" fill="white"/>
<path d="M84.7385 31.1504H78.69V18.0776C78.69 16.4627 78.4058 15.2549 77.8373 14.4541C77.2688 13.64 76.3632 13.2329 75.1204 13.2329C73.4282 13.2329 72.2052 13.8068 71.4517 14.9546C70.6981 16.089 70.3213 17.9775 70.3213 20.6201V31.1504H64.2728V8.76855H68.8934L69.7065 11.6313H70.0436C70.7179 10.5503 71.6434 9.73617 72.82 9.18897C74.0099 8.62842 75.3584 8.34814 76.8656 8.34814C79.4436 8.34814 81.4003 9.0555 82.7356 10.4702C84.0709 11.8716 84.7385 13.9002 84.7385 16.5562V31.1504Z" fill="white"/>
<path d="M106.434 24.5039C106.434 26.7995 105.641 28.5479 104.054 29.749C102.481 30.9502 100.121 31.5508 96.9744 31.5508C95.3614 31.5508 93.9865 31.4373 92.8495 31.2104C91.7125 30.9969 90.6482 30.6766 89.6567 30.2495V25.2046C90.7804 25.7384 92.043 26.1855 93.4444 26.5459C94.859 26.9063 96.1018 27.0864 97.1727 27.0864C99.3673 27.0864 100.465 26.4458 100.465 25.1646C100.465 24.6841 100.319 24.297 100.028 24.0034C99.7375 23.6965 99.2351 23.3561 98.5212 22.9824C97.8073 22.5954 96.8554 22.1483 95.6655 21.6411C93.96 20.9204 92.704 20.2531 91.8976 19.6392C91.1043 19.0252 90.5226 18.3245 90.1524 17.5371C89.7955 16.7363 89.617 15.7554 89.617 14.5942C89.617 12.6056 90.3772 11.0708 91.8976 9.98975C93.4312 8.89535 95.5994 8.34814 98.4022 8.34814C101.073 8.34814 103.671 8.93538 106.196 10.1099L104.371 14.5142C103.261 14.0337 102.223 13.64 101.258 13.333C100.293 13.026 99.3078 12.8726 98.303 12.8726C96.5182 12.8726 95.6258 13.3597 95.6258 14.334C95.6258 14.8812 95.9101 15.355 96.4786 15.7554C97.0603 16.1558 98.3229 16.7497 100.266 17.5371C101.998 18.2445 103.267 18.9051 104.074 19.519C104.88 20.133 105.475 20.8403 105.859 21.6411C106.242 22.4419 106.434 23.3962 106.434 24.5039Z" fill="white"/>
<path d="M123.33 31.5508C120.725 31.5508 118.683 30.5965 117.202 28.688H116.885C117.096 30.5565 117.202 31.6375 117.202 31.9312V41H111.154V8.76855H116.072L116.925 11.6714H117.202C118.617 9.45589 120.712 8.34814 123.489 8.34814C126.106 8.34814 128.156 9.36914 129.636 11.4111C131.117 13.4531 131.857 16.2892 131.857 19.9194C131.857 22.3084 131.507 24.3838 130.806 26.1455C130.119 27.9072 129.134 29.2485 127.851 30.1694C126.569 31.0903 125.062 31.5508 123.33 31.5508ZM121.545 13.2329C120.051 13.2329 118.96 13.7 118.273 14.6343C117.586 15.5552 117.229 17.0833 117.202 19.2188V19.8794C117.202 22.2817 117.552 24.0034 118.253 25.0444C118.967 26.0854 120.091 26.606 121.624 26.606C124.335 26.606 125.69 24.3504 125.69 19.8394C125.69 17.6372 125.353 15.9889 124.678 14.8945C124.017 13.7868 122.973 13.2329 121.545 13.2329Z" fill="white"/>
<path d="M146.037 12.6924C144.754 12.6924 143.749 13.1061 143.022 13.9336C142.295 14.7477 141.879 15.9089 141.773 17.417H150.261C150.234 15.9089 149.844 14.7477 149.091 13.9336C148.337 13.1061 147.319 12.6924 146.037 12.6924ZM146.889 31.5508C143.32 31.5508 140.53 30.5565 138.521 28.5679C136.511 26.5793 135.506 23.7632 135.506 20.1196C135.506 16.3693 136.432 13.4731 138.283 11.4312C140.147 9.37581 142.718 8.34814 145.997 8.34814C149.13 8.34814 151.57 9.24902 153.315 11.0508C155.06 12.8525 155.932 15.3416 155.932 18.5181V21.481H141.634C141.7 23.216 142.209 24.5706 143.161 25.5449C144.113 26.5192 145.448 27.0063 147.167 27.0063C148.502 27.0063 149.765 26.8662 150.955 26.5859C152.145 26.3057 153.387 25.8586 154.683 25.2446V29.9692C153.625 30.5031 152.495 30.8968 151.292 31.1504C150.089 31.4173 148.621 31.5508 146.889 31.5508Z" fill="white"/>
<path d="M174.931 31.1504L173.761 28.1074H173.602C172.584 29.402 171.533 30.3029 170.449 30.8101C169.378 31.3039 167.977 31.5508 166.245 31.5508C164.116 31.5508 162.437 30.9368 161.207 29.709C159.991 28.4811 159.383 26.7327 159.383 24.4639C159.383 22.0882 160.203 20.3398 161.842 19.2188C163.495 18.0843 165.98 17.457 169.299 17.3369L173.146 17.2168V16.2358C173.146 13.967 171.996 12.8325 169.695 12.8325C167.924 12.8325 165.841 13.373 163.448 14.4541L161.445 10.3301C163.997 8.9821 166.826 8.30811 169.933 8.30811C172.908 8.30811 175.188 8.96208 176.775 10.27C178.361 11.578 179.155 13.5666 179.155 16.2358V31.1504H174.931ZM173.146 20.7803L170.806 20.8604C169.047 20.9137 167.739 21.234 166.879 21.8213C166.02 22.4085 165.59 23.3027 165.59 24.5039C165.59 26.2256 166.568 27.0864 168.525 27.0864C169.927 27.0864 171.044 26.6794 171.877 25.8652C172.723 25.0511 173.146 23.9701 173.146 22.6221V20.7803Z" fill="white"/>
<path d="M191.212 18.9785L193.85 15.5752L200.057 8.76855H206.879L198.074 18.478L207.414 31.1504H200.434L194.048 22.0815L191.45 24.1836V31.1504H185.401V0H191.45V13.8936L191.133 18.9785H191.212Z" fill="white"/>
<path d="M219.769 12.6924C218.486 12.6924 217.482 13.1061 216.755 13.9336C216.027 14.7477 215.611 15.9089 215.505 17.417H223.993C223.966 15.9089 223.576 14.7477 222.823 13.9336C222.069 13.1061 221.051 12.6924 219.769 12.6924ZM220.622 31.5508C217.052 31.5508 214.262 30.5565 212.253 28.5679C210.243 26.5793 209.239 23.7632 209.239 20.1196C209.239 16.3693 210.164 13.4731 212.015 11.4312C213.879 9.37581 216.45 8.34814 219.729 8.34814C222.863 8.34814 225.302 9.24902 227.047 11.0508C228.792 12.8525 229.665 15.3416 229.665 18.5181V21.481H215.366C215.432 23.216 215.941 24.5706 216.893 25.5449C217.845 26.5192 219.181 27.0063 220.899 27.0063C222.235 27.0063 223.497 26.8662 224.687 26.5859C225.877 26.3057 227.12 25.8586 228.415 25.2446V29.9692C227.358 30.5031 226.227 30.8968 225.024 31.1504C223.821 31.4173 222.354 31.5508 220.622 31.5508Z" fill="white"/>
<path d="M246.957 8.34814C247.777 8.34814 248.458 8.4082 249 8.52832L248.544 14.2539C248.055 14.1204 247.46 14.0537 246.759 14.0537C244.829 14.0537 243.322 14.5542 242.238 15.5552C241.167 16.5562 240.631 17.9575 240.631 19.7593V31.1504H234.583V8.76855H239.164L240.056 12.5322H240.354C241.041 11.2777 241.967 10.27 243.13 9.50928C244.307 8.73519 245.582 8.34814 246.957 8.34814Z" fill="white"/>
</svg>
