<?xml version="1.0" encoding="UTF-8" standalone="no"?>
<svg
   xmlns:dc="http://purl.org/dc/elements/1.1/"
   xmlns:cc="http://creativecommons.org/ns#"
   xmlns:rdf="http://www.w3.org/1999/02/22-rdf-syntax-ns#"
   xmlns:svg="http://www.w3.org/2000/svg"
   xmlns="http://www.w3.org/2000/svg"
   xmlns:sodipodi="http://sodipodi.sourceforge.net/DTD/sodipodi-0.dtd"
   xmlns:inkscape="http://www.inkscape.org/namespaces/inkscape"
   width="1343"
   height="353"
   viewBox="0 0 1343 353"
   fill="none"
   version="1.1"
   id="svg13"
   sodipodi:docname="be-in-crypto.svg"
   inkscape:version="1.0.1 (3bc2e813f5, 2020-09-07)">
  <metadata
     id="metadata17">
    <rdf:RDF>
      <cc:Work
         rdf:about="">
        <dc:format>image/svg+xml</dc:format>
        <dc:type
           rdf:resource="http://purl.org/dc/dcmitype/StillImage" />
      </cc:Work>
    </rdf:RDF>
  </metadata>
  <sodipodi:namedview
     pagecolor="#ffffff"
     bordercolor="#666666"
     borderopacity="1"
     objecttolerance="10"
     gridtolerance="10"
     guidetolerance="10"
     inkscape:pageopacity="0"
     inkscape:pageshadow="2"
     inkscape:window-width="3840"
     inkscape:window-height="2066"
     id="namedview15"
     showgrid="false"
     inkscape:zoom="1.4787789"
     inkscape:cx="671.5"
     inkscape:cy="176.5"
     inkscape:window-x="-11"
     inkscape:window-y="-11"
     inkscape:window-maximized="1"
     inkscape:current-layer="svg13" />
  <g
     clip-path="url(#clip0)"
     fill="#2A2A2A"
     id="g6"
     style="fill:#ffffff">
    <path
       d="M641.3 65.5h-3.1c-23.7 0-47.5 0-71.2-.1-5.6 0-9.9-4.4-10-10.1-.1-15 0-30 0-44.9 0-5.6 4.2-10 9.8-10.4h137.1c3.9 0 7.3 1.1 9.5 4.4 1 1.6 1.4 3.6 2 5.5.2.5 0 1.2 0 1.7v329.3c0 6-3 10.2-8.2 11.3-1 .2-2.1.2-3.2.2H568.3c-7.2 0-11.4-4.2-11.4-11.3v-42.9c0-7 4.1-11.2 11.1-11.2h73.2c.1-73.8.1-147.5.1-221.5zm-306.7 0V287h3.1c23.1 0 46.1.2 69.2-.1 8.4-.1 12.5 5.6 12.3 12.3-.2 13.9 0 27.8-.1 41.7 0 6-3.1 10.2-8.2 11.3-1 .2-2.1.3-3.2.3H272c-7.3 0-11.5-4.1-11.5-11.4V11.6C260.5 4.2 264.7 0 272 0h135.7c7.1 0 11.4 4.2 11.5 11.3.1 14.4 0 28.8 0 43.2 0 6.8-5.5 11.1-10.7 11-23.6-.2-47.1 0-70.7 0h-3.2z"
       id="path2"
       style="fill:#ffffff" />
    <path
       d="M536.7 183.7v42.4c0 4.7-1.4 6-6.1 6h-28c-3.8 0-5.5-1.7-5.5-5.5V123c0-4 1.6-5.6 5.6-5.6h24.5c3.4 0 6 1.2 8.1 4.1 11 15.2 22 30.3 33 45.4.5.7 1 1.3 1.9 2.5.1-1.4.1-2.3.1-3.1v-42.4c0-5 1.4-6.4 6.4-6.4h27c4.8 0 6.4 1.6 6.4 6.5v101.8c0 4.9-1.5 6.4-6.4 6.4-7.8 0-15.7-.1-23.5 0-3.6.1-6.2-1.3-8.3-4.1-11.3-14.4-22.6-28.8-33.9-43.1-.3-.4-.6-.6-1.3-1.3zm-139.2-32.5h-28.2c-4.6 0-6.1-1.5-6.1-6.2v-22c0-4 1.7-5.7 5.6-5.7H471c3.8 0 5.4 1.7 5.5 5.5v22.7c0 4-1.7 5.6-5.7 5.6h-28.4v47.1h26.1c1.2 0 2.3.1 3.5.2 3 .3 4.4 1.6 4.5 4.5.1 8.1.1 16.1 0 24.2 0 3.3-1.9 4.8-5.6 4.8H369c-3.9 0-5.6-1.7-5.6-5.6v-22.5c0-4.1 1.7-5.7 5.8-5.7h28.5c-.2-15.6-.2-31.1-.2-46.9zM16.8 68.8v64.9c.9-.5 1.6-.9 2.2-1.3 23.1-16.1 71-10.3 80.1 34.1 3.1 14.9 2 29.6-5.5 43.1-8.1 14.6-21.1 22.8-37.2 26-19.4 3.8-37.5-.3-54.7-9.4-1.7-.9-1.7-2.1-1.7-3.6v-62.2c0-27.6 0-55.3-.1-82.9 0-2.2.5-3.2 2.7-3.9 4.8-1.3 9.3-3.1 14.2-4.8zm0 114.3c0 10.3.1 20.6 0 30.9 0 1.9.5 2.8 2.3 3.4 10.7 3.7 21.6 5.4 32.9 3.7 15.7-2.5 26.4-11.8 30.1-26.7 1.6-6.5 1.9-13.2 1.2-19.8-1.3-11.7-5.8-21.8-15.8-28.7-8.6-5.9-18.2-6.9-28.2-5.4-7.6 1.1-14.7 3.4-20.8 8.4-1.2 1-1.7 2-1.7 3.6v30.6zm1021.7-57.7h16.3v11.5c1.6-1.4 2.9-2.6 4.2-3.7 16.1-13.7 38.7-15.7 55.8-4.8 7.4 4.7 13.2 11 16.7 19 8.1 18.3 8.4 36.9 0 55.1-9.9 21.2-31.5 32.3-54.6 28.9-7.7-1.1-14.9-3.2-21.9-7.7v43.9c0 2.2-.5 2.9-2.8 2.8-4.5-.2-9 0-13.6 0-.1-48.4-.1-96.6-.1-145zm16.3 55.3c0 8.5.1 17-.1 25.4 0 1.9.6 3 2.2 4 9 5.7 19 8.1 29.5 7.5 14-.8 24.3-7.7 29.8-20.7 5.3-12.5 5.6-25.6 1.5-38.5-2.8-8.8-8.7-15.2-17.4-18.7-15.1-6.1-32.4-1.6-43.9 11.3-.9 1-1.5 2.6-1.5 3.9-.1 8.7-.1 17.3-.1 25.8zm-833.2.5h-89.1c.1 8.5 1.5 16.5 5.9 23.8 6.3 10.2 15.8 15.3 27.3 16.6 15.6 1.8 30.4-1.5 44.4-8.6.6-.3 1.2-.6 1.9-.9v16.4c-10.1 4.5-20.7 7.2-31.8 8.1-10.1.8-20.1.4-29.8-3-19.3-6.6-30.6-20.3-34.2-40.2-1.9-10.3-1.7-20.6 1.1-30.7 5.7-20.5 19.5-32.5 40.1-37 11.5-2.5 22.9-2.3 33.8 2.7 15.3 7.1 24 19.6 27.8 35.6 1.4 5.5 1.8 11.2 2.6 17.2zm-18.1-12.7c.1-.3.2-.4.2-.6v-.7c-1.2-10.1-5.6-18.4-14.5-23.8-12.3-7.4-30.4-6.1-42.7 2.9-7.5 5.5-11.7 13-13.3 22.2h70.3zm1082.7-47.2c16.6.4 31 5.2 42.2 17.2 7.5 8 11.6 17.7 13.1 28.6 1.8 13.4.4 26.4-6.4 38.4-7.8 13.9-20.1 21.8-35.5 25.1-12.8 2.7-25.4 1.7-37.4-3.5-18.6-8.2-28.5-22.8-30.8-42.7-1.4-12 0-23.8 5.6-34.7 8.2-15.9 21.8-24.4 39.1-27.5 1.3-.2 2.6-.4 4-.5 2.2-.1 4.4-.2 6.1-.4zm-2.8 14.3c-6.5 0-15.2 2.9-22.7 9.2-16 13.5-16.6 41.3-6.5 56.1 9.2 13.6 22.6 18.4 38.4 16.4 13.8-1.8 23.9-9.1 29.6-22 3.3-7.6 4-15.7 3.3-23.9-1.9-21.2-17.6-35.8-42.1-35.8zm-312.4 71c11.7-27.5 23.1-54.4 34.5-81.2h16.5c-1.2 3-2.4 5.9-3.6 8.7-18.7 43.6-37.5 87.1-56 130.8-1.9 4.5-4 6.3-8.8 5.7-3.3-.4-6.6-.1-10.3-.1 1.8-4.3 3.5-8.2 5.2-12.1 4.3-10 8.7-19.9 12.9-30 .4-1 .4-2.5 0-3.5l-41.7-97.5c-.3-.6-.5-1.2-.8-2.1 5.9 0 11.5-.1 17.1.1.6 0 1.3 1.1 1.6 1.8 8.3 19.6 16.5 39.2 24.7 58.8 2.8 6.6 5.6 13.2 8.7 20.6zm-135.5-65c-7.2-1.6-14.1-3.5-21.1-4.5-13.8-2.1-26.8.3-37 10.5-12.2 12.1-14.6 27.1-9.5 42.9 4.9 15.3 16.2 23.8 31.9 26.2 11.4 1.7 22.3-.7 33.1-4.4.6-.2 1.2-.4 1.9-.7h.7v14.9c0 .4-.5 1-1 1.2-22 6.4-43.6 7.3-63.7-5.8-14.3-9.3-21-23.2-22.2-39.9-.9-12.1.9-23.8 7.2-34.4 8.2-13.7 20.7-21.4 36-24.6 14.2-3 28.3-1.6 42.1 2.9.7.2 1.5 1.3 1.5 2 .2 4.6.1 9.3.1 13.7zm330.9-2.4H1148c.6-1.4.8-2.6 1.5-3.5 10.2-11.8 20.4-23.5 30.7-35.1.6-.7 1.6-1 2.4-1.5.2.9.7 1.8.7 2.7.1 6.8 0 13.6 0 20.5v2.9h34.5v14h-34.5v59.5c0 2.7.2 5.5.6 8.2 1 5.5 3.7 7.6 9.4 7.5 7.6-.2 14.8-1.8 21.9-4.4.9-.3 1.9-.7 3.1-1.1 0 4.7 0 9.1-.1 13.6 0 .5-.6 1.2-1.1 1.4-10.6 4.8-21.6 7.3-33.2 5.5-7.9-1.2-13.2-6-15.3-13.6-1.3-4.8-2-10-2-15-.2-19.5-.1-38.9-.1-58.4-.1-1-.1-1.9-.1-3.2zm-309-13.8h16.4v23.9c.2.1.4.3.6.4 7.1-18.3 21.1-26.4 39.9-27.7v17.9c-3.6.5-7.4.7-11 1.5-16.5 3.7-25.1 14.7-28.2 30.6-.9 4.7-1.2 9.6-1.3 14.4-.2 12.8-.1 25.6-.1 38.4v3.1h-16.4c.1-34 .1-68.2.1-102.5z"
       id="path4"
       style="fill:#ffffff" />
  </g>
  <defs
     id="defs11">
    <clipPath
       id="clip0">
      <path
         fill="#fff"
         d="M0 0h1342.3v352.5H0z"
         id="path8" />
    </clipPath>
  </defs>
</svg>
