<svg width="636" height="114" viewBox="0 0 636 114" fill="none" xmlns="http://www.w3.org/2000/svg">
<path fill-rule="evenodd" clip-rule="evenodd" d="M87.5 23V110H19.5L0 90.5V23H87.5ZM55.571 48.5702C62.3771 50.9063 67.354 54.4085 66.3775 60.923L66.3731 60.9264C65.6652 65.6961 63.0127 68.0038 59.4908 68.8165C64.3272 71.3269 66.7862 75.1747 64.4421 81.8449C61.5367 90.1241 54.6245 90.8232 45.4326 89.0902L43.2015 98L37.8111 96.6616L40.0126 87.8717C38.6166 87.5261 37.1922 87.1589 35.7186 86.7614L33.5081 95.5924L28.1245 94.254L30.3556 85.327L19.5 82.5953L22.1761 76.4373C22.1761 76.4373 26.1479 77.4947 26.0939 77.4164C27.6196 77.7953 28.2965 76.8045 28.5637 76.1436L34.6124 51.9696C34.6792 50.828 34.2833 49.3887 32.1003 48.8453C32.1848 48.7885 28.1855 47.875 28.1855 47.875L29.6198 42.137L40.4911 44.8207L42.6951 36L48.0812 37.3384L45.9199 45.9873C47.366 46.3143 48.8209 46.6482 50.2366 46.9997L52.39 38.4076L57.7814 39.746L55.571 48.5702ZM38.5139 80.566C42.911 81.7242 52.5254 84.2564 54.0581 78.1351L54.0601 78.1341C55.6216 71.8769 46.2985 69.7921 41.7502 68.775C41.2422 68.6614 40.7938 68.5612 40.4267 68.4699L37.4667 80.2949C37.7675 80.3695 38.1197 80.4622 38.5139 80.566ZM42.669 63.2886C46.3368 64.2647 54.3369 66.3937 55.7302 60.8285L55.7262 60.828C57.1502 55.1406 49.3816 53.4245 45.5815 52.5851C45.1526 52.4903 44.7743 52.4068 44.4654 52.3299L41.7854 63.0579C42.0388 63.1209 42.336 63.2 42.669 63.2886Z" fill="white"/>
<path d="M96.78 87V22.892H120.364C124.793 22.892 128.563 23.3027 131.672 24.124C134.781 24.9453 137.319 26.104 139.284 27.6C141.249 29.096 142.672 30.9147 143.552 33.056C144.461 35.1973 144.916 37.588 144.916 40.228C144.916 41.6653 144.711 43.0587 144.3 44.408C143.889 45.728 143.244 46.9747 142.364 48.148C141.484 49.3213 140.355 50.392 138.976 51.36C137.597 52.2987 135.94 53.12 134.004 53.824C138.228 54.8507 141.352 56.5227 143.376 58.84C145.4 61.128 146.412 64.076 146.412 67.684C146.412 70.412 145.884 72.9493 144.828 75.296C143.772 77.6427 142.217 79.696 140.164 81.456C138.14 83.1867 135.632 84.5507 132.64 85.548C129.648 86.516 126.231 87 122.388 87H96.78ZM111.652 59.808V75.78H122.124C124.089 75.78 125.688 75.5307 126.92 75.032C128.181 74.5333 129.164 73.888 129.868 73.096C130.572 72.304 131.056 71.4093 131.32 70.412C131.584 69.4147 131.716 68.4027 131.716 67.376C131.716 66.2027 131.555 65.1467 131.232 64.208C130.939 63.2693 130.411 62.4773 129.648 61.832C128.915 61.1867 127.932 60.688 126.7 60.336C125.468 59.984 123.913 59.808 122.036 59.808H111.652ZM111.652 49.864H119.396C121.039 49.864 122.52 49.7467 123.84 49.512C125.16 49.2773 126.275 48.8667 127.184 48.28C128.123 47.6933 128.827 46.8867 129.296 45.86C129.795 44.8333 130.044 43.5427 130.044 41.988C130.044 40.4627 129.853 39.2013 129.472 38.204C129.091 37.1773 128.504 36.356 127.712 35.74C126.92 35.124 125.908 34.684 124.676 34.42C123.473 34.156 122.036 34.024 120.364 34.024H111.652V49.864ZM170.81 87H155.85V22.892H170.81V87ZM229.27 22.892V34.684H211.23V87H196.358V34.684H178.318V22.892H229.27ZM275.809 70.412C276.161 70.412 276.513 70.4853 276.865 70.632C277.217 70.7493 277.554 70.9693 277.877 71.292L283.773 77.496C281.192 80.8693 277.95 83.4213 274.049 85.152C270.177 86.8533 265.586 87.704 260.277 87.704C255.408 87.704 251.037 86.8827 247.165 85.24C243.322 83.568 240.052 81.28 237.353 78.376C234.684 75.4427 232.63 71.9813 231.193 67.992C229.756 63.9733 229.037 59.6173 229.037 54.924C229.037 50.1427 229.858 45.7573 231.501 41.768C233.144 37.7493 235.432 34.288 238.365 31.384C241.328 28.48 244.862 26.2213 248.969 24.608C253.076 22.9947 257.608 22.188 262.565 22.188C264.97 22.188 267.229 22.408 269.341 22.848C271.482 23.2587 273.477 23.8453 275.325 24.608C277.173 25.3413 278.874 26.236 280.429 27.292C281.984 28.3187 283.362 29.4627 284.565 30.724L279.549 37.456C279.226 37.8667 278.845 38.248 278.405 38.6C277.965 38.9227 277.349 39.084 276.557 39.084C276.029 39.084 275.53 38.9667 275.061 38.732C274.592 38.4973 274.093 38.2187 273.565 37.896C273.037 37.544 272.45 37.1773 271.805 36.796C271.189 36.3853 270.441 36.0187 269.561 35.696C268.71 35.344 267.698 35.0507 266.525 34.816C265.381 34.5813 264.032 34.464 262.477 34.464C259.778 34.464 257.314 34.948 255.085 35.916C252.856 36.8547 250.934 38.2187 249.321 40.008C247.737 41.768 246.49 43.9093 245.581 46.432C244.701 48.9547 244.261 51.7853 244.261 54.924C244.261 58.2093 244.701 61.128 245.581 63.68C246.49 66.232 247.708 68.388 249.233 70.148C250.788 71.8787 252.592 73.1987 254.645 74.108C256.698 75.0173 258.898 75.472 261.245 75.472C262.594 75.472 263.826 75.4133 264.941 75.296C266.056 75.1493 267.082 74.9147 268.021 74.592C268.989 74.2693 269.898 73.8587 270.749 73.36C271.629 72.832 272.509 72.1867 273.389 71.424C273.741 71.1307 274.122 70.896 274.533 70.72C274.944 70.5147 275.369 70.412 275.809 70.412ZM353.841 54.924C353.841 59.5587 353.034 63.8707 351.421 67.86C349.837 71.8493 347.593 75.3253 344.689 78.288C341.785 81.2213 338.28 83.524 334.173 85.196C330.096 86.868 325.564 87.704 320.577 87.704C315.59 87.704 311.044 86.868 306.937 85.196C302.83 83.524 299.31 81.2213 296.377 78.288C293.473 75.3253 291.214 71.8493 289.601 67.86C288.017 63.8707 287.225 59.5587 287.225 54.924C287.225 50.2893 288.017 45.9773 289.601 41.988C291.214 37.9987 293.473 34.5373 296.377 31.604C299.31 28.6707 302.83 26.368 306.937 24.696C311.044 23.024 315.59 22.188 320.577 22.188C325.564 22.188 330.096 23.0387 334.173 24.74C338.28 26.412 341.785 28.7147 344.689 31.648C347.593 34.5813 349.837 38.0427 351.421 42.032C353.034 46.0213 353.841 50.3187 353.841 54.924ZM338.617 54.924C338.617 51.756 338.206 48.9107 337.385 46.388C336.564 43.836 335.376 41.68 333.821 39.92C332.296 38.16 330.418 36.8107 328.189 35.872C325.96 34.9333 323.422 34.464 320.577 34.464C317.702 34.464 315.136 34.9333 312.877 35.872C310.648 36.8107 308.756 38.16 307.201 39.92C305.676 41.68 304.502 43.836 303.681 46.388C302.86 48.9107 302.449 51.756 302.449 54.924C302.449 58.1213 302.86 60.996 303.681 63.548C304.502 66.0707 305.676 68.212 307.201 69.972C308.756 71.732 310.648 73.0813 312.877 74.02C315.136 74.9293 317.702 75.384 320.577 75.384C323.422 75.384 325.96 74.9293 328.189 74.02C330.418 73.0813 332.296 71.732 333.821 69.972C335.376 68.212 336.564 66.0707 337.385 63.548C338.206 60.996 338.617 58.1213 338.617 54.924ZM377.232 87H362.272V22.892H377.232V87ZM396.971 22.892C397.617 22.892 398.159 22.9213 398.599 22.98C399.039 23.0387 399.435 23.156 399.787 23.332C400.139 23.4787 400.477 23.6987 400.799 23.992C401.122 24.2853 401.489 24.6813 401.899 25.18L432.347 63.68C432.23 62.448 432.142 61.26 432.083 60.116C432.025 58.9427 431.995 57.8427 431.995 56.816V22.892H445.107V87H437.363C436.219 87 435.251 86.824 434.459 86.472C433.667 86.12 432.905 85.4747 432.171 84.536L401.943 46.344C402.031 47.4587 402.105 48.5587 402.163 49.644C402.222 50.7 402.251 51.6973 402.251 52.636V87H389.139V22.892H396.971ZM471.935 87H456.975V22.892H471.935V87ZM519.571 35.916C519.131 36.62 518.661 37.148 518.163 37.5C517.693 37.852 517.077 38.028 516.315 38.028C515.64 38.028 514.907 37.8227 514.115 37.412C513.352 36.972 512.472 36.488 511.475 35.96C510.507 35.432 509.392 34.9627 508.131 34.552C506.869 34.112 505.432 33.892 503.819 33.892C501.032 33.892 498.949 34.4933 497.571 35.696C496.221 36.8693 495.547 38.468 495.547 40.492C495.547 41.7827 495.957 42.8533 496.779 43.704C497.6 44.5547 498.671 45.288 499.991 45.904C501.34 46.52 502.865 47.092 504.567 47.62C506.297 48.1187 508.057 48.6907 509.847 49.336C511.636 49.952 513.381 50.6853 515.083 51.536C516.813 52.3867 518.339 53.472 519.659 54.792C521.008 56.112 522.093 57.7253 522.915 59.632C523.736 61.5093 524.147 63.7827 524.147 66.452C524.147 69.4147 523.633 72.1867 522.607 74.768C521.58 77.3493 520.084 79.608 518.119 81.544C516.183 83.4507 513.777 84.9613 510.903 86.076C508.057 87.1613 504.816 87.704 501.178 87.704C499.184 87.704 497.145 87.4987 495.063 87.088C493.009 86.6773 491.015 86.1053 489.079 85.372C487.143 84.6093 485.324 83.7147 483.623 82.688C481.921 81.6613 480.44 80.5173 479.179 79.256L483.579 72.304C483.901 71.776 484.356 71.3507 484.943 71.028C485.529 70.7053 486.16 70.544 486.835 70.544C487.715 70.544 488.595 70.8227 489.475 71.38C490.384 71.9373 491.396 72.5533 492.511 73.228C493.655 73.9027 494.96 74.5187 496.427 75.076C497.893 75.6333 499.624 75.912 501.619 75.912C504.317 75.912 506.415 75.3253 507.911 74.152C509.407 72.9493 510.155 71.0573 510.155 68.476C510.155 66.98 509.744 65.7627 508.923 64.824C508.101 63.8853 507.016 63.108 505.667 62.492C504.347 61.876 502.836 61.3333 501.135 60.864C499.433 60.3947 497.688 59.8813 495.899 59.324C494.109 58.7373 492.364 58.0333 490.663 57.212C488.961 56.3613 487.436 55.2613 486.087 53.912C484.767 52.5333 483.696 50.832 482.875 48.808C482.053 46.7547 481.643 44.232 481.643 41.24C481.643 38.8347 482.127 36.488 483.095 34.2C484.063 31.912 485.485 29.8733 487.363 28.084C489.24 26.2947 491.543 24.872 494.271 23.816C496.999 22.7307 500.123 22.188 503.643 22.188C505.608 22.188 507.515 22.3493 509.363 22.672C511.24 22.9653 513.015 23.42 514.687 24.036C516.359 24.6227 517.913 25.3413 519.351 26.192C520.817 27.0133 522.123 27.952 523.267 29.008L519.571 35.916ZM578.09 22.892V34.684H560.05V87H545.178V34.684H527.138V22.892H578.09Z" fill="white"/>
<path d="M586.07 34.5085C586.07 34.2805 586.111 34.0683 586.194 33.872C586.282 33.6757 586.399 33.5047 586.545 33.359C586.697 33.2133 586.874 33.0993 587.077 33.017C587.28 32.9283 587.501 32.884 587.742 32.884C587.976 32.884 588.195 32.9283 588.398 33.017C588.6 33.0993 588.778 33.2133 588.93 33.359C589.082 33.5047 589.199 33.6757 589.281 33.872C589.37 34.0683 589.414 34.2805 589.414 34.5085C589.414 34.7365 589.37 34.9518 589.281 35.1545C589.199 35.3508 589.082 35.5218 588.93 35.6675C588.778 35.8132 588.6 35.9272 588.398 36.0095C588.195 36.0918 587.976 36.133 587.742 36.133C587.501 36.133 587.28 36.0918 587.077 36.0095C586.874 35.9272 586.697 35.8132 586.545 35.6675C586.399 35.5218 586.282 35.3508 586.194 35.1545C586.111 34.9518 586.07 34.7365 586.07 34.5085ZM599.948 32.4185C600.024 32.4185 600.1 32.4343 600.176 32.466C600.252 32.4913 600.325 32.5388 600.395 32.6085L601.668 33.948C601.11 34.6763 600.411 35.2273 599.568 35.601C598.732 35.9683 597.741 36.152 596.595 36.152C595.543 36.152 594.6 35.9747 593.764 35.62C592.934 35.259 592.228 34.765 591.645 34.138C591.069 33.5047 590.626 32.7573 590.315 31.896C590.005 31.0283 589.85 30.0878 589.85 29.0745C589.85 28.0422 590.027 27.0953 590.382 26.234C590.736 25.3663 591.23 24.619 591.864 23.992C592.503 23.365 593.267 22.8773 594.153 22.529C595.04 22.1807 596.018 22.0065 597.089 22.0065C597.608 22.0065 598.096 22.054 598.552 22.149C599.014 22.2377 599.445 22.3643 599.844 22.529C600.243 22.6873 600.61 22.8805 600.946 23.1085C601.281 23.3302 601.579 23.5772 601.839 23.8495L600.756 25.303C600.686 25.3917 600.604 25.474 600.509 25.55C600.414 25.6197 600.281 25.6545 600.11 25.6545C599.996 25.6545 599.888 25.6292 599.787 25.5785C599.685 25.5278 599.578 25.4677 599.464 25.398C599.35 25.322 599.223 25.2428 599.084 25.1605C598.951 25.0718 598.789 24.9927 598.599 24.923C598.416 24.847 598.197 24.7837 597.944 24.733C597.697 24.6823 597.405 24.657 597.07 24.657C596.487 24.657 595.955 24.7615 595.474 24.9705C594.992 25.1732 594.578 25.4677 594.229 25.854C593.887 26.234 593.618 26.6963 593.422 27.241C593.232 27.7857 593.137 28.3968 593.137 29.0745C593.137 29.7838 593.232 30.414 593.422 30.965C593.618 31.516 593.881 31.9815 594.21 32.3615C594.546 32.7352 594.935 33.0202 595.379 33.2165C595.822 33.4128 596.297 33.511 596.804 33.511C597.095 33.511 597.361 33.4983 597.602 33.473C597.842 33.4413 598.064 33.3907 598.267 33.321C598.476 33.2513 598.672 33.1627 598.856 33.055C599.046 32.941 599.236 32.8017 599.426 32.637C599.502 32.5737 599.584 32.523 599.673 32.485C599.761 32.4407 599.853 32.4185 599.948 32.4185ZM616.796 29.0745C616.796 30.0752 616.622 31.0062 616.274 31.8675C615.932 32.7288 615.447 33.4793 614.82 34.119C614.193 34.7523 613.436 35.2495 612.55 35.6105C611.669 35.9715 610.691 36.152 609.614 36.152C608.537 36.152 607.556 35.9715 606.669 35.6105C605.782 35.2495 605.022 34.7523 604.389 34.119C603.762 33.4793 603.274 32.7288 602.926 31.8675C602.584 31.0062 602.413 30.0752 602.413 29.0745C602.413 28.0738 602.584 27.1428 602.926 26.2815C603.274 25.4202 603.762 24.6728 604.389 24.0395C605.022 23.4062 605.782 22.909 606.669 22.548C607.556 22.187 608.537 22.0065 609.614 22.0065C610.691 22.0065 611.669 22.1902 612.55 22.5575C613.436 22.9185 614.193 23.4157 614.82 24.049C615.447 24.6823 615.932 25.4297 616.274 26.291C616.622 27.1523 616.796 28.0802 616.796 29.0745ZM613.509 29.0745C613.509 28.3905 613.42 27.7762 613.243 27.2315C613.066 26.6805 612.809 26.215 612.474 25.835C612.144 25.455 611.739 25.1637 611.258 24.961C610.776 24.7583 610.228 24.657 609.614 24.657C608.993 24.657 608.439 24.7583 607.952 24.961C607.47 25.1637 607.062 25.455 606.726 25.835C606.397 26.215 606.143 26.6805 605.966 27.2315C605.789 27.7762 605.7 28.3905 605.7 29.0745C605.7 29.7648 605.789 30.3855 605.966 30.9365C606.143 31.4812 606.397 31.9435 606.726 32.3235C607.062 32.7035 607.47 32.9948 607.952 33.1975C608.439 33.3938 608.993 33.492 609.614 33.492C610.228 33.492 610.776 33.3938 611.258 33.1975C611.739 32.9948 612.144 32.7035 612.474 32.3235C612.809 31.9435 613.066 31.4812 613.243 30.9365C613.42 30.3855 613.509 29.7648 613.509 29.0745ZM625.409 29.673C625.536 29.9137 625.656 30.1638 625.77 30.4235C625.89 30.6832 626.004 30.9492 626.112 31.2215C626.22 30.9428 626.334 30.6737 626.454 30.414C626.574 30.148 626.698 29.8915 626.824 29.6445L630.377 22.6525C630.441 22.5322 630.504 22.4403 630.567 22.377C630.637 22.3073 630.713 22.2567 630.795 22.225C630.878 22.1933 630.97 22.1743 631.071 22.168C631.179 22.1617 631.302 22.1585 631.441 22.1585H633.892V36H631.061V28.039C631.061 27.6527 631.08 27.2347 631.118 26.785L627.451 33.9005C627.337 34.1222 627.182 34.29 626.986 34.404C626.796 34.518 626.577 34.575 626.33 34.575H625.893C625.646 34.575 625.425 34.518 625.228 34.404C625.038 34.29 624.886 34.1222 624.772 33.9005L621.086 26.7755C621.112 26.9972 621.131 27.2188 621.143 27.4405C621.156 27.6558 621.162 27.8553 621.162 28.039V36H618.331V22.1585H620.782C620.922 22.1585 621.042 22.1617 621.143 22.168C621.251 22.1743 621.346 22.1933 621.428 22.225C621.511 22.2567 621.584 22.3073 621.647 22.377C621.717 22.4403 621.783 22.5322 621.846 22.6525L625.409 29.673Z" fill="white"/>
<path d="M107.524 106.744C107.641 106.744 107.748 106.792 107.843 106.887L108.679 107.8C108.034 108.548 107.249 109.131 106.325 109.549C105.408 109.967 104.301 110.176 103.003 110.176C101.866 110.176 100.836 109.982 99.912 109.593C98.988 109.197 98.1997 108.647 97.547 107.943C96.8943 107.232 96.3883 106.381 96.029 105.391C95.6697 104.401 95.49 103.312 95.49 102.124C95.49 100.936 95.6807 99.847 96.062 98.857C96.4507 97.867 96.9933 97.0163 97.69 96.305C98.3867 95.5937 99.219 95.0437 100.187 94.655C101.162 94.259 102.237 94.061 103.41 94.061C104.569 94.061 105.566 94.2407 106.402 94.6C107.245 94.9593 107.993 95.447 108.646 96.063L107.953 97.042C107.902 97.1153 107.843 97.1777 107.777 97.229C107.711 97.273 107.616 97.295 107.491 97.295C107.396 97.295 107.293 97.262 107.183 97.196C107.08 97.1227 106.956 97.0347 106.809 96.932C106.662 96.8293 106.49 96.7193 106.292 96.602C106.094 96.4847 105.859 96.3747 105.588 96.272C105.317 96.1693 105.001 96.085 104.642 96.019C104.283 95.9457 103.868 95.909 103.399 95.909C102.556 95.909 101.782 96.0557 101.078 96.349C100.381 96.635 99.78 97.0457 99.274 97.581C98.768 98.1163 98.372 98.769 98.086 99.539C97.8073 100.309 97.668 101.171 97.668 102.124C97.668 103.107 97.8073 103.983 98.086 104.753C98.372 105.523 98.757 106.176 99.241 106.711C99.7323 107.239 100.312 107.642 100.979 107.921C101.646 108.2 102.365 108.339 103.135 108.339C103.604 108.339 104.026 108.313 104.4 108.262C104.774 108.203 105.119 108.115 105.434 107.998C105.757 107.881 106.054 107.734 106.325 107.558C106.604 107.375 106.882 107.158 107.161 106.909C107.286 106.799 107.407 106.744 107.524 106.744ZM115.138 103.422V110H113.015V94.237H117.47C118.467 94.237 119.329 94.3397 120.055 94.545C120.781 94.743 121.378 95.0327 121.848 95.414C122.324 95.7953 122.676 96.2573 122.904 96.8C123.131 97.3353 123.245 97.9367 123.245 98.604C123.245 99.1613 123.157 99.682 122.981 100.166C122.805 100.65 122.548 101.086 122.211 101.475C121.881 101.856 121.474 102.183 120.99 102.454C120.513 102.725 119.97 102.931 119.362 103.07C119.626 103.224 119.86 103.448 120.066 103.741L124.664 110H122.772C122.383 110 122.097 109.85 121.914 109.549L117.822 103.917C117.697 103.741 117.561 103.616 117.415 103.543C117.268 103.462 117.048 103.422 116.755 103.422H115.138ZM115.138 101.871H117.371C117.994 101.871 118.54 101.798 119.01 101.651C119.486 101.497 119.882 101.284 120.198 101.013C120.52 100.734 120.762 100.404 120.924 100.023C121.085 99.6417 121.166 99.22 121.166 98.758C121.166 97.8193 120.854 97.1117 120.231 96.635C119.615 96.1583 118.694 95.92 117.47 95.92H115.138V101.871ZM134.345 103.73V110H132.222V103.73L126.447 94.237H128.317C128.507 94.237 128.658 94.2847 128.768 94.38C128.878 94.4753 128.973 94.5927 129.054 94.732L132.662 100.859C132.808 101.116 132.929 101.358 133.025 101.585C133.127 101.812 133.219 102.036 133.3 102.256C133.38 102.029 133.468 101.801 133.564 101.574C133.659 101.347 133.78 101.108 133.927 100.859L137.524 94.732C137.59 94.6147 137.678 94.5047 137.788 94.402C137.905 94.292 138.055 94.237 138.239 94.237H140.131L134.345 103.73ZM145.772 104.104V110H143.649V94.237H148.302C149.299 94.237 150.164 94.3543 150.898 94.589C151.638 94.8163 152.251 95.1427 152.735 95.568C153.219 95.9933 153.578 96.5067 153.813 97.108C154.055 97.7093 154.176 98.3803 154.176 99.121C154.176 99.8543 154.047 100.525 153.791 101.134C153.534 101.743 153.156 102.267 152.658 102.707C152.166 103.147 151.554 103.492 150.821 103.741C150.087 103.983 149.248 104.104 148.302 104.104H145.772ZM145.772 102.41H148.302C148.91 102.41 149.446 102.329 149.908 102.168C150.377 102.007 150.769 101.783 151.085 101.497C151.4 101.204 151.638 100.855 151.8 100.452C151.961 100.049 152.042 99.605 152.042 99.121C152.042 98.1163 151.73 97.3317 151.107 96.767C150.491 96.2023 149.556 95.92 148.302 95.92H145.772V102.41ZM168.934 94.237V96.03H163.841V110H161.707V96.03H156.592V94.237H168.934ZM186.061 102.124C186.061 103.305 185.874 104.39 185.5 105.38C185.126 106.363 184.598 107.21 183.916 107.921C183.234 108.632 182.413 109.186 181.452 109.582C180.499 109.971 179.443 110.165 178.284 110.165C177.126 110.165 176.07 109.971 175.116 109.582C174.163 109.186 173.345 108.632 172.663 107.921C171.981 107.21 171.453 106.363 171.079 105.38C170.705 104.39 170.518 103.305 170.518 102.124C170.518 100.943 170.705 99.8617 171.079 98.879C171.453 97.889 171.981 97.0383 172.663 96.327C173.345 95.6083 174.163 95.051 175.116 94.655C176.07 94.259 177.126 94.061 178.284 94.061C179.443 94.061 180.499 94.259 181.452 94.655C182.413 95.051 183.234 95.6083 183.916 96.327C184.598 97.0383 185.126 97.889 185.5 98.879C185.874 99.8617 186.061 100.943 186.061 102.124ZM183.872 102.124C183.872 101.156 183.74 100.287 183.476 99.517C183.212 98.747 182.838 98.098 182.354 97.57C181.87 97.0347 181.284 96.624 180.594 96.338C179.905 96.052 179.135 95.909 178.284 95.909C177.441 95.909 176.675 96.052 175.985 96.338C175.296 96.624 174.706 97.0347 174.214 97.57C173.73 98.098 173.356 98.747 173.092 99.517C172.828 100.287 172.696 101.156 172.696 102.124C172.696 103.092 172.828 103.961 173.092 104.731C173.356 105.494 173.73 106.143 174.214 106.678C174.706 107.206 175.296 107.613 175.985 107.899C176.675 108.178 177.441 108.317 178.284 108.317C179.135 108.317 179.905 108.178 180.594 107.899C181.284 107.613 181.87 107.206 182.354 106.678C182.838 106.143 183.212 105.494 183.476 104.731C183.74 103.961 183.872 103.092 183.872 102.124ZM201.403 106.744C201.52 106.744 201.627 106.792 201.722 106.887L202.558 107.8C201.913 108.548 201.128 109.131 200.204 109.549C199.287 109.967 198.18 110.176 196.882 110.176C195.745 110.176 194.715 109.982 193.791 109.593C192.867 109.197 192.079 108.647 191.426 107.943C190.773 107.232 190.267 106.381 189.908 105.391C189.549 104.401 189.369 103.312 189.369 102.124C189.369 100.936 189.56 99.847 189.941 98.857C190.33 97.867 190.872 97.0163 191.569 96.305C192.266 95.5937 193.098 95.0437 194.066 94.655C195.041 94.259 196.116 94.061 197.289 94.061C198.448 94.061 199.445 94.2407 200.281 94.6C201.124 94.9593 201.872 95.447 202.525 96.063L201.832 97.042C201.781 97.1153 201.722 97.1777 201.656 97.229C201.59 97.273 201.495 97.295 201.37 97.295C201.275 97.295 201.172 97.262 201.062 97.196C200.959 97.1227 200.835 97.0347 200.688 96.932C200.541 96.8293 200.369 96.7193 200.171 96.602C199.973 96.4847 199.738 96.3747 199.467 96.272C199.196 96.1693 198.88 96.085 198.521 96.019C198.162 95.9457 197.747 95.909 197.278 95.909C196.435 95.909 195.661 96.0557 194.957 96.349C194.26 96.635 193.659 97.0457 193.153 97.581C192.647 98.1163 192.251 98.769 191.965 99.539C191.686 100.309 191.547 101.171 191.547 102.124C191.547 103.107 191.686 103.983 191.965 104.753C192.251 105.523 192.636 106.176 193.12 106.711C193.611 107.239 194.191 107.642 194.858 107.921C195.525 108.2 196.244 108.339 197.014 108.339C197.483 108.339 197.905 108.313 198.279 108.262C198.653 108.203 198.998 108.115 199.313 107.998C199.636 107.881 199.933 107.734 200.204 107.558C200.483 107.375 200.761 107.158 201.04 106.909C201.165 106.799 201.286 106.744 201.403 106.744ZM212.801 108.306C213.453 108.306 214.036 108.196 214.55 107.976C215.063 107.756 215.496 107.448 215.848 107.052C216.207 106.656 216.478 106.183 216.662 105.633C216.852 105.083 216.948 104.478 216.948 103.818V94.237H219.071V103.818C219.071 104.727 218.924 105.571 218.631 106.348C218.345 107.125 217.93 107.8 217.388 108.372C216.852 108.937 216.196 109.38 215.419 109.703C214.641 110.026 213.769 110.187 212.801 110.187C211.833 110.187 210.96 110.026 210.183 109.703C209.405 109.38 208.745 108.937 208.203 108.372C207.66 107.8 207.242 107.125 206.949 106.348C206.663 105.571 206.52 104.727 206.52 103.818V94.237H208.643V103.807C208.643 104.467 208.734 105.072 208.918 105.622C209.108 106.172 209.38 106.645 209.732 107.041C210.091 107.437 210.527 107.749 211.041 107.976C211.561 108.196 212.148 108.306 212.801 108.306ZM226.407 103.422V110H224.284V94.237H228.739C229.736 94.237 230.598 94.3397 231.324 94.545C232.05 94.743 232.648 95.0327 233.117 95.414C233.594 95.7953 233.946 96.2573 234.173 96.8C234.4 97.3353 234.514 97.9367 234.514 98.604C234.514 99.1613 234.426 99.682 234.25 100.166C234.074 100.65 233.817 101.086 233.48 101.475C233.15 101.856 232.743 102.183 232.259 102.454C231.782 102.725 231.24 102.931 230.631 103.07C230.895 103.224 231.13 103.448 231.335 103.741L235.933 110H234.041C233.652 110 233.366 109.85 233.183 109.549L229.091 103.917C228.966 103.741 228.831 103.616 228.684 103.543C228.537 103.462 228.317 103.422 228.024 103.422H226.407ZM226.407 101.871H228.64C229.263 101.871 229.81 101.798 230.279 101.651C230.756 101.497 231.152 101.284 231.467 101.013C231.79 100.734 232.032 100.404 232.193 100.023C232.354 99.6417 232.435 99.22 232.435 98.758C232.435 97.8193 232.123 97.1117 231.5 96.635C230.884 96.1583 229.964 95.92 228.739 95.92H226.407V101.871ZM241.885 103.422V110H239.762V94.237H244.217C245.214 94.237 246.076 94.3397 246.802 94.545C247.528 94.743 248.126 95.0327 248.595 95.414C249.072 95.7953 249.424 96.2573 249.651 96.8C249.878 97.3353 249.992 97.9367 249.992 98.604C249.992 99.1613 249.904 99.682 249.728 100.166C249.552 100.65 249.295 101.086 248.958 101.475C248.628 101.856 248.221 102.183 247.737 102.454C247.26 102.725 246.718 102.931 246.109 103.07C246.373 103.224 246.608 103.448 246.813 103.741L251.411 110H249.519C249.13 110 248.844 109.85 248.661 109.549L244.569 103.917C244.444 103.741 244.309 103.616 244.162 103.543C244.015 103.462 243.795 103.422 243.502 103.422H241.885ZM241.885 101.871H244.118C244.741 101.871 245.288 101.798 245.757 101.651C246.234 101.497 246.63 101.284 246.945 101.013C247.268 100.734 247.51 100.404 247.671 100.023C247.832 99.6417 247.913 99.22 247.913 98.758C247.913 97.8193 247.601 97.1117 246.978 96.635C246.362 96.1583 245.442 95.92 244.217 95.92H241.885V101.871ZM264.733 94.237V95.975H257.165V101.211H263.292V102.883H257.165V108.262H264.733V110H255.02V94.237H264.733ZM270.223 94.237C270.414 94.237 270.553 94.2627 270.641 94.314C270.737 94.358 270.843 94.4533 270.96 94.6L280.09 106.48C280.068 106.289 280.054 106.106 280.046 105.93C280.039 105.747 280.035 105.571 280.035 105.402V94.237H281.905V110H280.827C280.659 110 280.516 109.971 280.398 109.912C280.288 109.853 280.178 109.754 280.068 109.615L270.949 97.746C270.964 97.9293 270.975 98.109 270.982 98.285C270.99 98.461 270.993 98.6223 270.993 98.769V110H269.123V94.237H270.223ZM298.182 106.744C298.3 106.744 298.406 106.792 298.501 106.887L299.337 107.8C298.692 108.548 297.907 109.131 296.983 109.549C296.067 109.967 294.959 110.176 293.661 110.176C292.525 110.176 291.494 109.982 290.57 109.593C289.646 109.197 288.858 108.647 288.205 107.943C287.553 107.232 287.047 106.381 286.687 105.391C286.328 104.401 286.148 103.312 286.148 102.124C286.148 100.936 286.339 99.847 286.72 98.857C287.109 97.867 287.652 97.0163 288.348 96.305C289.045 95.5937 289.877 95.0437 290.845 94.655C291.821 94.259 292.895 94.061 294.068 94.061C295.227 94.061 296.224 94.2407 297.06 94.6C297.904 94.9593 298.652 95.447 299.304 96.063L298.611 97.042C298.56 97.1153 298.501 97.1777 298.435 97.229C298.369 97.273 298.274 97.295 298.149 97.295C298.054 97.295 297.951 97.262 297.841 97.196C297.739 97.1227 297.614 97.0347 297.467 96.932C297.321 96.8293 297.148 96.7193 296.95 96.602C296.752 96.4847 296.518 96.3747 296.246 96.272C295.975 96.1693 295.66 96.085 295.3 96.019C294.941 95.9457 294.527 95.909 294.057 95.909C293.214 95.909 292.44 96.0557 291.736 96.349C291.04 96.635 290.438 97.0457 289.932 97.581C289.426 98.1163 289.03 98.769 288.744 99.539C288.466 100.309 288.326 101.171 288.326 102.124C288.326 103.107 288.466 103.983 288.744 104.753C289.03 105.523 289.415 106.176 289.899 106.711C290.391 107.239 290.97 107.642 291.637 107.921C292.305 108.2 293.023 108.339 293.793 108.339C294.263 108.339 294.684 108.313 295.058 108.262C295.432 108.203 295.777 108.115 296.092 107.998C296.415 107.881 296.712 107.734 296.983 107.558C297.262 107.375 297.541 107.158 297.819 106.909C297.944 106.799 298.065 106.744 298.182 106.744ZM309.525 103.73V110H307.402V103.73L301.627 94.237H303.497C303.688 94.237 303.838 94.2847 303.948 94.38C304.058 94.4753 304.153 94.5927 304.234 94.732L307.842 100.859C307.989 101.116 308.11 101.358 308.205 101.585C308.308 101.812 308.399 102.036 308.48 102.256C308.561 102.029 308.649 101.801 308.744 101.574C308.839 101.347 308.96 101.108 309.107 100.859L312.704 94.732C312.77 94.6147 312.858 94.5047 312.968 94.402C313.085 94.292 313.236 94.237 313.419 94.237H315.311L309.525 103.73ZM325.283 94.237C325.473 94.237 325.613 94.2627 325.701 94.314C325.796 94.358 325.902 94.4533 326.02 94.6L335.15 106.48C335.128 106.289 335.113 106.106 335.106 105.93C335.098 105.747 335.095 105.571 335.095 105.402V94.237H336.965V110H335.887C335.718 110 335.575 109.971 335.458 109.912C335.348 109.853 335.238 109.754 335.128 109.615L326.009 97.746C326.023 97.9293 326.034 98.109 326.042 98.285C326.049 98.461 326.053 98.6223 326.053 98.769V110H324.183V94.237H325.283ZM351.845 94.237V95.975H344.277V101.211H350.404V102.883H344.277V108.262H351.845V110H342.132V94.237H351.845ZM354.475 94.237H356.246C356.437 94.237 356.594 94.2847 356.719 94.38C356.844 94.4753 356.928 94.5963 356.972 94.743L360.228 105.699C360.287 105.897 360.338 106.11 360.382 106.337C360.433 106.564 360.481 106.803 360.525 107.052C360.576 106.803 360.628 106.564 360.679 106.337C360.73 106.102 360.789 105.89 360.855 105.699L364.562 94.743C364.606 94.6183 364.69 94.5047 364.815 94.402C364.947 94.292 365.105 94.237 365.288 94.237H365.904C366.095 94.237 366.249 94.2847 366.366 94.38C366.491 94.4753 366.579 94.5963 366.63 94.743L370.315 105.699C370.447 106.08 370.564 106.517 370.667 107.008C370.711 106.766 370.751 106.535 370.788 106.315C370.825 106.095 370.872 105.89 370.931 105.699L374.198 94.743C374.235 94.611 374.315 94.4937 374.44 94.391C374.572 94.2883 374.73 94.237 374.913 94.237H376.574L371.657 110H369.743L365.75 97.977C365.669 97.7497 365.596 97.4857 365.53 97.185C365.493 97.3317 365.457 97.4747 365.42 97.614C365.391 97.746 365.358 97.867 365.321 97.977L361.306 110H359.392L354.475 94.237ZM388.037 96.701C387.971 96.811 387.901 96.8953 387.828 96.954C387.755 97.0053 387.659 97.031 387.542 97.031C387.417 97.031 387.271 96.9687 387.102 96.844C386.941 96.7193 386.732 96.5837 386.475 96.437C386.226 96.283 385.921 96.1437 385.562 96.019C385.21 95.8943 384.781 95.832 384.275 95.832C383.798 95.832 383.377 95.898 383.01 96.03C382.643 96.1547 382.335 96.327 382.086 96.547C381.844 96.767 381.661 97.0273 381.536 97.328C381.411 97.6213 381.349 97.9403 381.349 98.285C381.349 98.725 381.455 99.0917 381.668 99.385C381.888 99.671 382.174 99.9167 382.526 100.122C382.885 100.327 383.289 100.507 383.736 100.661C384.191 100.808 384.653 100.962 385.122 101.123C385.599 101.284 386.061 101.468 386.508 101.673C386.963 101.871 387.366 102.124 387.718 102.432C388.077 102.74 388.363 103.118 388.576 103.565C388.796 104.012 388.906 104.562 388.906 105.215C388.906 105.904 388.789 106.553 388.554 107.162C388.319 107.763 387.975 108.288 387.52 108.735C387.073 109.182 386.519 109.534 385.859 109.791C385.206 110.048 384.462 110.176 383.626 110.176C382.607 110.176 381.675 109.993 380.832 109.626C379.996 109.252 379.281 108.75 378.687 108.119L379.303 107.107C379.362 107.026 379.431 106.96 379.512 106.909C379.6 106.85 379.695 106.821 379.798 106.821C379.952 106.821 380.128 106.905 380.326 107.074C380.524 107.235 380.77 107.415 381.063 107.613C381.364 107.811 381.723 107.994 382.141 108.163C382.566 108.324 383.083 108.405 383.692 108.405C384.198 108.405 384.649 108.335 385.045 108.196C385.441 108.057 385.775 107.862 386.046 107.613C386.325 107.356 386.537 107.052 386.684 106.7C386.831 106.348 386.904 105.956 386.904 105.523C386.904 105.046 386.794 104.658 386.574 104.357C386.361 104.049 386.079 103.792 385.727 103.587C385.375 103.382 384.972 103.209 384.517 103.07C384.07 102.923 383.608 102.777 383.131 102.63C382.662 102.476 382.2 102.3 381.745 102.102C381.298 101.904 380.898 101.647 380.546 101.332C380.194 101.017 379.908 100.624 379.688 100.155C379.475 99.6783 379.369 99.0917 379.369 98.395C379.369 97.8377 379.475 97.2987 379.688 96.778C379.908 96.2573 380.223 95.7953 380.634 95.392C381.045 94.9887 381.551 94.666 382.152 94.424C382.761 94.182 383.457 94.061 384.242 94.061C385.122 94.061 385.925 94.2003 386.651 94.479C387.377 94.7577 388.011 95.161 388.554 95.689L388.037 96.701ZM403.869 94.061C404.448 94.061 404.976 94.1563 405.453 94.347C405.93 94.5303 406.34 94.776 406.685 95.084C407.037 95.392 407.312 95.7513 407.51 96.162C407.715 96.5653 407.833 96.987 407.862 97.427L406.641 97.669C406.604 97.6763 406.571 97.68 406.542 97.68C406.447 97.68 406.355 97.6543 406.267 97.603C406.186 97.5517 406.128 97.46 406.091 97.328C406.04 97.1373 405.955 96.9393 405.838 96.734C405.728 96.5287 405.581 96.3417 405.398 96.173C405.222 96.0043 405.006 95.865 404.749 95.755C404.5 95.645 404.206 95.59 403.869 95.59C403.502 95.59 403.172 95.6487 402.879 95.766C402.586 95.8833 402.333 96.0483 402.12 96.261C401.915 96.4663 401.753 96.712 401.636 96.998C401.526 97.2767 401.471 97.581 401.471 97.911C401.471 98.1677 401.5 98.4133 401.559 98.648C401.625 98.8827 401.72 99.121 401.845 99.363C401.97 99.5977 402.131 99.8433 402.329 100.1C402.527 100.349 402.765 100.613 403.044 100.892L407.576 105.501C407.855 105.01 408.075 104.496 408.236 103.961C408.405 103.418 408.518 102.876 408.577 102.333C408.592 102.194 408.636 102.084 408.709 102.003C408.782 101.922 408.885 101.882 409.017 101.882H410.227C410.212 102.725 410.077 103.554 409.82 104.368C409.563 105.182 409.193 105.945 408.709 106.656L412.009 110H410.117C409.904 110 409.732 109.974 409.6 109.923C409.468 109.872 409.321 109.765 409.16 109.604L407.576 108.009C406.887 108.676 406.091 109.204 405.189 109.593C404.294 109.982 403.308 110.176 402.23 110.176C401.643 110.176 401.068 110.077 400.503 109.879C399.938 109.681 399.432 109.395 398.985 109.021C398.545 108.64 398.189 108.178 397.918 107.635C397.647 107.092 397.511 106.48 397.511 105.798C397.511 105.285 397.595 104.801 397.764 104.346C397.94 103.884 398.178 103.459 398.479 103.07C398.787 102.681 399.15 102.333 399.568 102.025C399.986 101.717 400.444 101.453 400.943 101.233C400.496 100.668 400.166 100.118 399.953 99.583C399.74 99.0477 399.634 98.494 399.634 97.922C399.634 97.3867 399.729 96.8843 399.92 96.415C400.118 95.9457 400.4 95.5387 400.767 95.194C401.134 94.842 401.577 94.567 402.098 94.369C402.626 94.1637 403.216 94.061 403.869 94.061ZM399.502 105.644C399.502 106.121 399.59 106.542 399.766 106.909C399.942 107.268 400.173 107.573 400.459 107.822C400.745 108.071 401.071 108.262 401.438 108.394C401.805 108.519 402.179 108.581 402.56 108.581C403.381 108.581 404.118 108.431 404.771 108.13C405.424 107.829 405.999 107.43 406.498 106.931L401.845 102.234C401.068 102.652 400.481 103.154 400.085 103.741C399.696 104.32 399.502 104.955 399.502 105.644ZM431.622 94.237V96.03H426.529V110H424.395V96.03H419.28V94.237H431.622ZM444.895 94.237V95.975H437.327V101.211H443.454V102.883H437.327V108.262H444.895V110H435.182V94.237H444.895ZM460.395 106.744C460.513 106.744 460.619 106.792 460.714 106.887L461.55 107.8C460.905 108.548 460.12 109.131 459.196 109.549C458.28 109.967 457.172 110.176 455.874 110.176C454.738 110.176 453.707 109.982 452.783 109.593C451.859 109.197 451.071 108.647 450.418 107.943C449.766 107.232 449.26 106.381 448.9 105.391C448.541 104.401 448.361 103.312 448.361 102.124C448.361 100.936 448.552 99.847 448.933 98.857C449.322 97.867 449.865 97.0163 450.561 96.305C451.258 95.5937 452.09 95.0437 453.058 94.655C454.034 94.259 455.108 94.061 456.281 94.061C457.44 94.061 458.437 94.2407 459.273 94.6C460.117 94.9593 460.865 95.447 461.517 96.063L460.824 97.042C460.773 97.1153 460.714 97.1777 460.648 97.229C460.582 97.273 460.487 97.295 460.362 97.295C460.267 97.295 460.164 97.262 460.054 97.196C459.952 97.1227 459.827 97.0347 459.68 96.932C459.534 96.8293 459.361 96.7193 459.163 96.602C458.965 96.4847 458.731 96.3747 458.459 96.272C458.188 96.1693 457.873 96.085 457.513 96.019C457.154 95.9457 456.74 95.909 456.27 95.909C455.427 95.909 454.653 96.0557 453.949 96.349C453.253 96.635 452.651 97.0457 452.145 97.581C451.639 98.1163 451.243 98.769 450.957 99.539C450.679 100.309 450.539 101.171 450.539 102.124C450.539 103.107 450.679 103.983 450.957 104.753C451.243 105.523 451.628 106.176 452.112 106.711C452.604 107.239 453.183 107.642 453.85 107.921C454.518 108.2 455.236 108.339 456.006 108.339C456.476 108.339 456.897 108.313 457.271 108.262C457.645 108.203 457.99 108.115 458.305 107.998C458.628 107.881 458.925 107.734 459.196 107.558C459.475 107.375 459.754 107.158 460.032 106.909C460.157 106.799 460.278 106.744 460.395 106.744ZM478.448 110H476.303V102.828H467.811V110H465.666V94.237H467.811V101.266H476.303V94.237H478.448V110ZM484.715 94.237C484.906 94.237 485.045 94.2627 485.133 94.314C485.228 94.358 485.335 94.4533 485.452 94.6L494.582 106.48C494.56 106.289 494.545 106.106 494.538 105.93C494.531 105.747 494.527 105.571 494.527 105.402V94.237H496.397V110H495.319C495.15 110 495.007 109.971 494.89 109.912C494.78 109.853 494.67 109.754 494.56 109.615L485.441 97.746C485.456 97.9293 485.467 98.109 485.474 98.285C485.481 98.461 485.485 98.6223 485.485 98.769V110H483.615V94.237H484.715ZM516.205 102.124C516.205 103.305 516.018 104.39 515.644 105.38C515.27 106.363 514.742 107.21 514.06 107.921C513.378 108.632 512.556 109.186 511.596 109.582C510.642 109.971 509.586 110.165 508.428 110.165C507.269 110.165 506.213 109.971 505.26 109.582C504.306 109.186 503.489 108.632 502.807 107.921C502.125 107.21 501.597 106.363 501.223 105.38C500.849 104.39 500.662 103.305 500.662 102.124C500.662 100.943 500.849 99.8617 501.223 98.879C501.597 97.889 502.125 97.0383 502.807 96.327C503.489 95.6083 504.306 95.051 505.26 94.655C506.213 94.259 507.269 94.061 508.428 94.061C509.586 94.061 510.642 94.259 511.596 94.655C512.556 95.051 513.378 95.6083 514.06 96.327C514.742 97.0383 515.27 97.889 515.644 98.879C516.018 99.8617 516.205 100.943 516.205 102.124ZM514.016 102.124C514.016 101.156 513.884 100.287 513.62 99.517C513.356 98.747 512.982 98.098 512.498 97.57C512.014 97.0347 511.427 96.624 510.738 96.338C510.048 96.052 509.278 95.909 508.428 95.909C507.584 95.909 506.818 96.052 506.129 96.338C505.439 96.624 504.849 97.0347 504.358 97.57C503.874 98.098 503.5 98.747 503.236 99.517C502.972 100.287 502.84 101.156 502.84 102.124C502.84 103.092 502.972 103.961 503.236 104.731C503.5 105.494 503.874 106.143 504.358 106.678C504.849 107.206 505.439 107.613 506.129 107.899C506.818 108.178 507.584 108.317 508.428 108.317C509.278 108.317 510.048 108.178 510.738 107.899C511.427 107.613 512.014 107.206 512.498 106.678C512.982 106.143 513.356 105.494 513.62 104.731C513.884 103.961 514.016 103.092 514.016 102.124ZM522.57 108.207H529.39V110H520.436V94.237H522.57V108.207ZM546.817 102.124C546.817 103.305 546.63 104.39 546.256 105.38C545.882 106.363 545.354 107.21 544.672 107.921C543.99 108.632 543.169 109.186 542.208 109.582C541.255 109.971 540.199 110.165 539.04 110.165C537.882 110.165 536.826 109.971 535.872 109.582C534.919 109.186 534.101 108.632 533.419 107.921C532.737 107.21 532.209 106.363 531.835 105.38C531.461 104.39 531.274 103.305 531.274 102.124C531.274 100.943 531.461 99.8617 531.835 98.879C532.209 97.889 532.737 97.0383 533.419 96.327C534.101 95.6083 534.919 95.051 535.872 94.655C536.826 94.259 537.882 94.061 539.04 94.061C540.199 94.061 541.255 94.259 542.208 94.655C543.169 95.051 543.99 95.6083 544.672 96.327C545.354 97.0383 545.882 97.889 546.256 98.879C546.63 99.8617 546.817 100.943 546.817 102.124ZM544.628 102.124C544.628 101.156 544.496 100.287 544.232 99.517C543.968 98.747 543.594 98.098 543.11 97.57C542.626 97.0347 542.04 96.624 541.35 96.338C540.661 96.052 539.891 95.909 539.04 95.909C538.197 95.909 537.431 96.052 536.741 96.338C536.052 96.624 535.462 97.0347 534.97 97.57C534.486 98.098 534.112 98.747 533.848 99.517C533.584 100.287 533.452 101.156 533.452 102.124C533.452 103.092 533.584 103.961 533.848 104.731C534.112 105.494 534.486 106.143 534.97 106.678C535.462 107.206 536.052 107.613 536.741 107.899C537.431 108.178 538.197 108.317 539.04 108.317C539.891 108.317 540.661 108.178 541.35 107.899C542.04 107.613 542.626 107.206 543.11 106.678C543.594 106.143 543.968 105.494 544.232 104.731C544.496 103.961 544.628 103.092 544.628 102.124ZM558.078 108.449C558.503 108.449 558.892 108.431 559.244 108.394C559.603 108.35 559.941 108.288 560.256 108.207C560.571 108.126 560.868 108.031 561.147 107.921C561.426 107.804 561.704 107.672 561.983 107.525V104.049H559.541C559.402 104.049 559.288 104.009 559.2 103.928C559.119 103.847 559.079 103.748 559.079 103.631V102.421H563.919V108.471C563.523 108.757 563.109 109.006 562.676 109.219C562.251 109.432 561.792 109.611 561.301 109.758C560.817 109.897 560.296 110 559.739 110.066C559.182 110.139 558.577 110.176 557.924 110.176C556.78 110.176 555.731 109.982 554.778 109.593C553.825 109.197 553.003 108.647 552.314 107.943C551.625 107.232 551.086 106.381 550.697 105.391C550.316 104.401 550.125 103.312 550.125 102.124C550.125 100.921 550.312 99.825 550.686 98.835C551.067 97.845 551.606 96.998 552.303 96.294C553.007 95.5827 553.854 95.0327 554.844 94.644C555.841 94.2553 556.956 94.061 558.188 94.061C558.811 94.061 559.391 94.1087 559.926 94.204C560.461 94.292 560.956 94.424 561.411 94.6C561.873 94.7687 562.298 94.9777 562.687 95.227C563.076 95.469 563.439 95.744 563.776 96.052L563.171 97.02C563.046 97.218 562.885 97.317 562.687 97.317C562.57 97.317 562.441 97.2767 562.302 97.196C562.119 97.0933 561.913 96.9687 561.686 96.822C561.459 96.6753 561.18 96.536 560.85 96.404C560.527 96.2647 560.142 96.1473 559.695 96.052C559.255 95.9567 558.731 95.909 558.122 95.909C557.235 95.909 556.432 96.0557 555.713 96.349C554.994 96.635 554.382 97.0493 553.876 97.592C553.37 98.1273 552.981 98.78 552.71 99.55C552.439 100.313 552.303 101.171 552.303 102.124C552.303 103.121 552.442 104.012 552.721 104.797C553.007 105.574 553.407 106.234 553.92 106.777C554.433 107.32 555.042 107.734 555.746 108.02C556.45 108.306 557.227 108.449 558.078 108.449ZM574.597 103.73V110H572.474V103.73L566.699 94.237H568.569C568.76 94.237 568.91 94.2847 569.02 94.38C569.13 94.4753 569.226 94.5927 569.306 94.732L572.914 100.859C573.061 101.116 573.182 101.358 573.277 101.585C573.38 101.812 573.472 102.036 573.552 102.256C573.633 102.029 573.721 101.801 573.816 101.574C573.912 101.347 574.033 101.108 574.179 100.859L577.776 94.732C577.842 94.6147 577.93 94.5047 578.04 94.402C578.158 94.292 578.308 94.237 578.491 94.237H580.383L574.597 103.73Z" fill="white"/>
</svg>
