<?xml version="1.0" encoding="utf-8"?>
<!-- Generator: Adobe Illustrator 24.0.0, SVG Export Plug-In . SVG Version: 6.00 Build 0)  -->
<svg version="1.1" id="Layer_1" xmlns="http://www.w3.org/2000/svg" xmlns:xlink="http://www.w3.org/1999/xlink" x="0px" y="0px"
	 viewBox="0 0 3420 1223.1" style="enable-background:new 0 0 3420 1223.1;" xml:space="preserve">
<style type="text/css">
	.st0{fill:#FFC419;}
	.st1{fill:#FFFFFF;}
	.st2{fill:#2C8DFF;}
	.st3{fill-rule:evenodd;clip-rule:evenodd;fill:#FFC419;}
</style>
<path class="st0" d="M190.8,228.6c0,52.7-42.7,95.4-95.4,95.4C42.7,324,0,281.3,0,228.6s42.7-95.4,95.4-95.4
	C148.1,133.2,190.8,175.9,190.8,228.6z"/>
<path class="st0" d="M1075.4,393.4c0,143.7-116.5,260.2-260.2,260.2c-143.7,0-260.2-116.5-260.2-260.2
	c0-143.7,116.5-260.2,260.2-260.2C958.9,133.2,1075.4,249.7,1075.4,393.4z"/>
<path class="st0" d="M985.8,590c-9.3,8.1-15.9,13-17.3,23.1H954l-23.1-30.3C953.1,581.8,995.1,581.9,985.8,590z"/>
<path class="st0" d="M370,14.7c0-6.4,5.2-11.6,11.6-11.6h63.6c6.4,0,11.6,5.2,11.6,11.6v118.5H370V14.7z"/>
<path class="st0" d="M633.1,14.7c0-6.4,5.2-11.6,11.6-11.6h63.6c6.4,0,11.6,5.2,11.6,11.6v118.5h-86.7V14.7z"/>
<path class="st0" d="M63.6,613.1h904.9L818.1,133.2H95.4L63.6,306.7V613.1z"/>
<path class="st0" d="M190.8,997.6c0-52.7-42.7-95.4-95.4-95.4C42.7,902.2,0,944.9,0,997.6s42.7,95.4,95.4,95.4
	C148.1,1093,190.8,1050.3,190.8,997.6z"/>
<path class="st0" d="M1075.4,832.8c0-143.7-116.5-260.2-260.2-260.2c-143.7,0-260.2,116.5-260.2,260.2
	c0,143.7,116.5,260.2,260.2,260.2C958.9,1093,1075.4,976.5,1075.4,832.8z"/>
<path class="st0" d="M985.8,636.3c-9.3-8.1-15.9-13-17.3-23.1H954l-23.1,30.3C953.1,644.4,995.1,644.3,985.8,636.3z"/>
<path class="st0" d="M370,1211.6c0,6.4,5.2,11.6,11.6,11.6h63.6c6.4,0,11.6-5.2,11.6-11.6V1093H370V1211.6z"/>
<path class="st0" d="M633.1,1211.6c0,6.4,5.2,11.6,11.6,11.6h63.6c6.4,0,11.6-5.2,11.6-11.6V1093h-86.7V1211.6z"/>
<path class="st0" d="M63.6,613.1h904.9L818.1,1093H95.4L63.6,919.6V613.1z"/>
<path class="st1" d="M283.3,462.8c0-63.9,51.8-115.6,115.6-115.6h294.9c63.9,0,115.6,51.8,115.6,115.6v268.9
	c0,63.9-51.8,115.6-115.6,115.6H399c-63.9,0-115.6-51.8-115.6-115.6V462.8z"/>
<path class="st1" d="M283.3,898.3v-176c0-23.6,28.9-35,45-17.8l87.6,93.5c9.8,10.5,9.3,26.9-1.1,36.7l-87.6,82.5
	C310.6,932.9,283.3,921.1,283.3,898.3z"/>
<ellipse class="st2" cx="452.4" cy="597.2" rx="44.8" ry="44.8"/>
<ellipse class="st2" cx="646.1" cy="597.2" rx="44.8" ry="44.8"/>
<path class="st3" d="M2888.1,653.6v367.2h69.4h69.4v-64.4v-64.5l41.4-41.1c22.8-22.6,42.6-41,44.1-40.9
	c1.5,0.1,33.3,47.2,70.8,104.8l69.2,106.1h83.8c47.7,0,82.4,0,83.8,0c0-0.7-48.1-69.3-106.9-150.9l-106.9-148.3l36.8-36.3
	c20.2-20,65.9-64.5,101.6-99l64.8-62.8h-87.9h-87.9l-103.4,103.3l-103.4,103.3V508.3V286.4h-69.4h-69.4V653.6z M1280.7,326.9
	c0,2.9,0,159.8,0,350.5v346.3l201.7-0.8c191-1,203-1.4,227.7-7c102-23.3,151.2-75.5,159-168.6c2.4-28.4-3.8-57.6-18.9-89.4
	c-21.6-45.2-65.3-78.6-120.6-91.8c-11.5-2.8-21-5.9-21-6.9c0-1,5.5-3.5,12.3-5.4c6.8-2,23.1-8.7,36.3-15.1
	c53.7-25.7,84.4-73.2,85.2-132c0.4-27.6-4.2-47.8-17.3-75.4c-26.9-56.8-93.3-92.4-189.1-101.4C1600.3,326.7,1285,326.9,1280.7,326.9
	z M2062.7,342.8l-66.5,14.5l-0.8,83l-0.8,83h-40.4h-43.5l0.1,55.1l-0.1,52h41.8h41.8l1.1,149.6c0.9,123.9,1.8,152.1,5.5,164.1
	c14,45.7,41,72.1,86.6,84.4c24.8,6.7,92.8,6.5,125.1-0.4c23.7-5.1,46.6-17.5,53.9-21c0-1.3-6.3-21.2-14.1-44.2
	c-9.7-28.8-13.4-39-14.8-43.3c-2.2,0.4-15.2,5-24.9,7.7c-17,2.4-21.4,2.4-34.7,1.2c-19.7-4.4-36-18.7-42-37
	c-2.6-7.8-3.9-46.8-4.6-135.9l-1.1-125h60.9h60.9v-52v-55.1h-60.9h-60.5l-0.8-97.6l-0.8-97.6L2062.7,342.8z M1603.6,439.9
	c41.8,5.8,70.4,24.5,78.5,51.4c1.9,6.2,3.4,19.8,3.4,30.3c0,34.6-16.1,63.2-43.4,77.1c-25.1,12.8-39.8,14.4-130.6,14.4h-86.1v-88.2
	v-88.2h77.8C1545.9,436.8,1591.1,438.2,1603.6,439.9z M2500.7,518.9c-54.9,9.9-97.3,27.4-129,53.4c-46.7,38.2-77.6,104.6-84.2,181.3
	c-4.5,52,5.8,106.2,29.1,152.6c12.2,24.4,18.7,33.3,39.4,54.1c21.2,21.2,29.3,27,55.2,39.8c51.6,25.5,113.9,37.1,169.1,31.6
	c77.7-7.8,143-37.8,179.4-82.4c45.2-55.5,65.2-140.7,52-222.1c-21.8-134.6-108.3-206.8-253-211.1
	C2536,515.4,2514.2,516.5,2500.7,518.9z M2596.6,633.2c47.4,18,72.6,69.9,72.4,149.1c-0.3,99.2-39.5,148.1-117.8,147
	c-80.4-1.1-125.8-56.4-125.8-153.1c0-97.5,48.9-154,130.1-150.3C2571.4,626.5,2586.1,629.2,2596.6,633.2z M1633.6,729.4
	c53.7,13.9,81.7,47.4,81.7,97.7c-0.1,47.1-27.5,78.3-78.5,89.2c-9.6,2.1-51.3,3.3-113.4,3.3h-98.2V821v-98.6l96.1,1.4
	C1591.8,724.8,1621.8,726.3,1633.6,729.4z"/>
</svg>
