<?xml version="1.0" encoding="utf-8"?>
<!-- Generator: Adobe Illustrator 24.0.0, SVG Export Plug-In . SVG Version: 6.00 Build 0)  -->
<svg version="1.1" id="Layer_1" xmlns="http://www.w3.org/2000/svg" xmlns:xlink="http://www.w3.org/1999/xlink" x="0px" y="0px"
	 viewBox="0 0 2785 658" style="enable-background:new 0 0 2785 658;" xml:space="preserve">
<style type="text/css">
	.st0{fill:#1A1D29;}
	.st1{fill:#C4C4C4;filter:url(#Adobe_OpacityMaskFilter);}
	.st2{mask:url(#mask0_1_);}
	.st3{fill:#FFF9D5;}
	.st4{fill:#7B4B9E;}
	.st5{fill:#67318F;}
	.st6{fill:#F79522;}
	.st7{fill:#FCCEB0;filter:url(#Adobe_OpacityMaskFilter_1_);}
	.st8{fill:#FCCEB0;}
	.st9{mask:url(#mask1_1_);}
	.st10{fill:#F9A67F;}
	.st11{fill:#ED9721;filter:url(#Adobe_OpacityMaskFilter_2_);}
	.st12{fill:#ED9721;}
	.st13{mask:url(#mask2_1_);}
	.st14{fill:#EFD01B;}
	.st15{fill:#394458;filter:url(#Adobe_OpacityMaskFilter_3_);}
	.st16{mask:url(#mask3_1_);}
	.st17{fill:#394458;}
	.st18{fill:#6D7B95;}
	.st19{fill:#67318F;filter:url(#Adobe_OpacityMaskFilter_4_);}
	.st20{mask:url(#mask4_1_);}
	.st21{fill:#FFFFFF;}
	.st22{fill:#7A4B9E;}
	.st23{fill:#F79521;}
</style>
<ellipse class="st0" cx="315" cy="343.2" rx="315" ry="314.8"/>
<path class="st0" d="M439.4,25.9c11.1,10.8,35.6,51,46.6,69.8c31.4,33.7-238.1,23-376.8,13.5c15.2-18.3,55.1-59.1,93.5-76
	c48-21.1,111.3-25.8,165.5-25.1c53.7,0.7,57.4,4.3,70.9,17.5L439.4,25.9z"/>
<defs>
	<filter id="Adobe_OpacityMaskFilter" filterUnits="userSpaceOnUse" x="26.9" y="41.8" width="583.6" height="600.6">
		<feColorMatrix  type="matrix" values="1 0 0 0 0  0 1 0 0 0  0 0 1 0 0  0 0 0 1 0"/>
	</filter>
</defs>
<mask maskUnits="userSpaceOnUse" x="26.9" y="41.8" width="583.6" height="600.6" id="mask0_1_">
	<ellipse class="st1" cx="315" cy="343.2" rx="288.1" ry="287.9"/>
</mask>
<g class="st2">
	<ellipse class="st3" cx="315" cy="343.2" rx="288.1" ry="287.9"/>
	<path class="st4" d="M120.8,514.4c9-27.6,43.4-82.3,57.1-105.4c-14.5,54.2-28.4,143.8-28.7,180.7l-42.2-35.3
		C107.7,551.8,111.7,542.1,120.8,514.4z"/>
	<path class="st5" d="M178.9,554.4c0.3-23.6,6.4-105.3,9.5-143.2H223l51.6,60l-76.7,142.1L178.9,602
		C178.8,596,178.7,578,178.9,554.4z"/>
	<path class="st4" d="M382.3,484.6l-31.6-27.3l20.4-28.7l127.3,91.2l4.7,59.6L392.8,630l2.5-118.1L382.3,484.6z"/>
	<path class="st5" d="M384.5,479.9l-27.6-28.4L299,547.9l-37.5,87.6c39.3,6.4,121.1,14.1,134.2-6.5c13.1-20.7,10.3-75.2,7.3-100
		l-16.4-26.2L384.5,479.9z"/>
	<path class="st5" d="M487.7,587.9V545l22.2-20.3l1.8,42.2L487.7,587.9z"/>
	<path class="st0" d="M134.9,452.7c-9.6,16-27.5,65.3-35.3,88l-1.8,19.6c1.3,6.9,7.4,10.2,21.1-32c13.7-42.2,43.8-94.4,57.1-115.2
		c-2.9,9-10.5,35.8-17.5,71.6c-7,35.8-10.7,84-11.6,103.6l17.8,25.4c-0.9-1.3-2.5-13.8-2.5-53.4c0-40.1,18.7-114.9,28-147.2
		l24.7,2.9c2.5,3.3,8.3,10.9,10.9,15.3c2.6,4.4,26.8,30.9,38.6,43.6c-0.6,1.1-6,10.2-22.9,37.8c-16.9,27.6-41.2,82.3-51.3,106.1
		l77.5,23.3c2.9-10.1,12.8-39,29.1-74.5c16.3-35.5,55.5-99.8,73.1-127.6l17.1,21.8c-3.5,2.1-10.5,10.5-10.2,28
		c0.3,17.5,12,25.5,17.8,27.3c1.2,7.9,8.1,25.7,25.8,33.8c22.2,10.2,54.2,9.8,73.8-5.8c19.6-15.6,30.2-39.6,30.2-57.1
		c0-13.9-6.5-29.3-9.8-35.2c4.8,0,15.3-0.5,18.5-2.6c4-2.5,6.2-3.3,17.1-16.4c8.7-10.5,3.6-21.3,0-25.4c-3.8-3.8-12.4-12.2-17.1-16
		c-4.7-3.8-1.9-6.9,0-8c27.4-26.3,81.2-80.6,77.1-87.6c-5.1-8.7-15.3-18.5-30.6-32.4c-12.2-11-25.9-1.9-31.3,4l-60,61.1
		c1.9-5.1,6.2-18.2,7.6-30.2c1.5-11.9,0.6-25.6,0-30.9c6.1-1.2,20.2-7.3,28.4-21.8c10.2-18.2,8.4-46.2,8.7-60.3
		c0.3-11.3-9.8-47.9-14.9-64.7l-6.9-31.6c-23.6-13.9-75-36.8-69.5-28.4c5.5,8.4,25,32.4,31.3,44.7l-39.3-2.5
		c-5.3-11.3-17.7-36.5-24.7-47.3C400.5,43,397.5,45.2,383.7,43c-13.8-2.2-86.6-1.8-126.9,5.1C216.4,55,106.2,82.2,94.9,97.5
		c-11.3,15.3,6.5,36,40,14.5c33.5-21.4,43.3-25.1,113.8-40.7s133.8-11.6,142.6-7.3c7,3.5-1.2,15.3,3.3,25.8
		c-36.7,2.5-121.6-15.4-183,0c-61.4,15.4-111.2,56.2-134.6,66.9L56.7,184v25.8c-0.7,4.8-1.7,20.7,0,45.4
		c2.2,30.9,9.5,49.4,15.6,65.8c4.9,13.1,21.7,13.7,29.5,12.4c2.1,6.9,8.4,24.8,17.1,41.1c8.7,16.3,32.5,29.3,43.3,33.8
		C157.1,416.4,144.5,436.7,134.9,452.7z"/>
	<path class="st6" d="M255.7,517.7c11.3-21.2,48.1-78.1,65.1-104c5.1-2.5,18.2-4,27.6-5.4c9.5-1.5,11.6,5.4,13.5,10.5
		c1.5,4.1-0.6,9.5-1.8,11.6c-3.4,4-17,23.8-44.4,70.9c-27.4,47.1-51.4,108.8-60,133.8l-50.9-16.4C217,593.9,244.3,538.9,255.7,517.7
		z"/>
</g>
<defs>
	<filter id="Adobe_OpacityMaskFilter_1_" filterUnits="userSpaceOnUse" x="364.4" y="351.8" width="149" height="193.5">
		<feColorMatrix  type="matrix" values="1 0 0 0 0  0 1 0 0 0  0 0 1 0 0  0 0 0 1 0"/>
	</filter>
</defs>
<mask maskUnits="userSpaceOnUse" x="364.4" y="351.8" width="149" height="193.5" id="mask1_1_">
	<path class="st7" d="M364.4,384.7c0-11.3,11.9-13.2,17.8-12.7c14.3,5.2,43.5,43.1,56.4,61.4c-0.2-5-0.6-19.1,0-36
		c0.7-21.1,10.5-42.5,20.7-45.1c10.2-2.5,14.2,4.7,17.8,10.9c3.6,6.2,4.4,41.1,4,48c-0.4,6.9-9.8,7.6-14.5,10.2
		c-4.7,2.5-15.3,11.3-24.7,24.7c-9.5,13.5-25.1,11.6-36.4,11.6s-16.4-11.3-20-18.2C381.9,432.7,364.4,398.9,364.4,384.7z"/>
	<path class="st8" d="M388.8,477.4c2.6-8.4,18.1-10,25.5-9.8c2.9,0,18.9,0,21.5,7.6c2.5,7.6,2.9,20-4,26.9
		c-6.9,6.9-20.7,10.5-32.4,5.4C387.7,502.4,385.5,487.9,388.8,477.4z"/>
	<path class="st8" d="M451.4,451.2l19.6-17.8c14-12.7,28.4,1.5,29.5,15.6c1.1,14.2-17.8,24-23.3,28.3c-5.5,4.4-21.8,4.7-28-5.8
		C444.2,463.1,448.6,454.5,451.4,451.2z"/>
	<path class="st8" d="M429.9,540.6c-11.1-5.2-17.2-15-18.9-19.3c30.8,1.7,38.3-19.6,38.2-30.5h5.1c-1,2.4-2,10.9,1.8,25.4
		s25.6,13.3,36,10.9c-5,4.5-16.1,14-21.1,16C464.8,545.7,443.7,547.2,429.9,540.6z"/>
	<path class="st8" d="M477.2,490.8c8-1.8,18.2-11.6,19.3-13.5c2.9-3.2,6.9-5.8,10.5,0c3.6,5.8,8,10.9,5.8,18.5
		c-2.2,7.6-10.5,15.6-23.6,18.9c-13.1,3.3-20-0.4-22.6-10.5C464.1,494.1,469.2,492.6,477.2,490.8z"/>
</mask>
<g class="st9">
	<path class="st8" d="M364.4,384.7c0-11.3,11.9-13.2,17.8-12.7c14.3,5.2,43.5,43.1,56.4,61.4c-0.2-5-0.6-19.1,0-36
		c0.7-21.1,10.5-42.5,20.7-45.1c10.2-2.5,14.2,4.7,17.8,10.9c3.6,6.2,4.4,41.1,4,48c-0.4,6.9-9.8,7.6-14.5,10.2
		c-4.7,2.5-15.3,11.3-24.7,24.7c-9.5,13.5-25.1,11.6-36.4,11.6s-16.4-11.3-20-18.2C381.9,432.7,364.4,398.9,364.4,384.7z"/>
	<path class="st8" d="M388.8,477.4c2.6-8.4,18.1-10,25.5-9.8c2.9,0,18.9,0,21.5,7.6c2.5,7.6,2.9,20-4,26.9
		c-6.9,6.9-20.7,10.5-32.4,5.4C387.7,502.4,385.5,487.9,388.8,477.4z"/>
	<path class="st8" d="M451.4,451.2l19.6-17.8c14-12.7,28.4,1.5,29.5,15.6c1.1,14.2-17.8,24-23.3,28.3c-5.5,4.4-21.8,4.7-28-5.8
		C444.2,463.1,448.6,454.5,451.4,451.2z"/>
	<path class="st8" d="M429.9,540.6c-11.1-5.2-17.2-15-18.9-19.3c30.8,1.7,38.3-19.6,38.2-30.5h5.1c-1,2.4-2,10.9,1.8,25.4
		s25.6,13.3,36,10.9c-5,4.5-16.1,14-21.1,16C464.8,545.7,443.7,547.2,429.9,540.6z"/>
	<path class="st8" d="M477.2,490.8c8-1.8,18.2-11.6,19.3-13.5c2.9-3.2,6.9-5.8,10.5,0c3.6,5.8,8,10.9,5.8,18.5
		c-2.2,7.6-10.5,15.6-23.6,18.9c-13.1,3.3-20-0.4-22.6-10.5C464.1,494.1,469.2,492.6,477.2,490.8z"/>
	<path class="st10" d="M412.5,443.6c-14.2,7.3-34.2-5.8-36-7.3l16.7,25.1l44.7,1.5l6.2-13.5l21.8-18.5c3.6-2.1,7.9-6.4-4.4-7.3
		c-12.2-0.9-22.1-6.2-25.5-8.7l-3.3,5.8C430.8,425.9,423.8,437.7,412.5,443.6z"/>
	<path class="st10" d="M432.8,522.1c-9,2.3-15.4,9.9-17.5,13.4L403,519.2l33.1-12.4l8-24l15.3,4.4v15.6l3.6,14.5l16.4,4.7l22.9-2.9
		l-14.5,20.3l-17.8-14.2C461.3,523.3,441.8,519.8,432.8,522.1z"/>
</g>
<defs>
	<filter id="Adobe_OpacityMaskFilter_2_" filterUnits="userSpaceOnUse" x="58.2" y="22.1" width="491.3" height="423.3">
		<feColorMatrix  type="matrix" values="1 0 0 0 0  0 1 0 0 0  0 0 1 0 0  0 0 0 1 0"/>
	</filter>
</defs>
<mask maskUnits="userSpaceOnUse" x="58.2" y="22.1" width="491.3" height="423.3" id="mask2_1_">
	<path class="st11" d="M494.7,398.9c-0.9-10.5-4.5-27.1-6.2-34.2c15.2,14.7,46.6,45.1,50.9,49.4c4.4,4.4,3,10.3,1.8,12.7
		c-1.5,1.3-6,5.4-12.7,10.9c-6.7,5.5-13.2,1.1-15.6-1.8l-18.2-17.1C495,416.5,495.5,409.3,494.7,398.9z"/>
	<path class="st12" d="M438.6,119.3h18.5c-41.3,67.5-6.1,124.8,16.7,145c-2.3,0.8-8.3,2.8-13.8,3.6c-6.9,1.1-12.4-2.5-18.2-12
		c-5.8-9.5-18.2-26.9-21.8-65.4C417.2,159.7,431.2,130.2,438.6,119.3z"/>
	<path class="st12" d="M450.6,176c-0.6-38.1,19.9-52.2,30.2-54.5c16.7,2.2,38.9,29.1,41.5,67.2c2.5,38.2-10.2,52.3-18.9,60.3
		c-8.7,8-20.7,3.3-26.6-1.8C471,242.2,451.4,223.6,450.6,176z"/>
	<path class="st12" d="M65.1,221.1c0.3-10.8,11-18.3,16.4-20.7c-4.1,43,10.2,99.4,17.8,122.1c-1.1,0.1-4.7,0.3-10.2,0
		c-6.9-0.4-10.1-9.7-15.2-24.1l-0.1-0.2C68.7,283.6,64.7,234.6,65.1,221.1z"/>
	<path class="st12" d="M473.2,106.2l-39.3-2.5c-5.5-11.3-17.8-36.5-25.1-48.7c-9.1-15.3-16.7-12.7-67.7-14.9
		c-40.7-1.7-126.3,16-164,25.1c11.2-8.6,44.2-27.8,86.9-36c53.5-10.2,117.1-6.9,133.8-5.5c16.7,1.5,25.1,3.3,36.7,18.5
		C444,54.5,464.2,90,473.2,106.2z"/>
</mask>
<g class="st13">
	<path class="st12" d="M494.7,398.9c-0.9-10.5-4.5-27.1-6.2-34.2c15.2,14.7,46.6,45.1,50.9,49.4c4.4,4.4,3,10.3,1.8,12.7
		c-1.5,1.3-6,5.4-12.7,10.9c-6.7,5.5-13.2,1.1-15.6-1.8l-18.2-17.1C495,416.5,495.5,409.3,494.7,398.9z"/>
	<path class="st12" d="M438.6,119.3h18.5c-41.3,67.5-6.1,124.8,16.7,145c-2.3,0.8-8.3,2.8-13.8,3.6c-6.9,1.1-12.4-2.5-18.2-12
		c-5.8-9.5-18.2-26.9-21.8-65.4C417.2,159.7,431.2,130.2,438.6,119.3z"/>
	<path class="st12" d="M450.6,176c-0.6-38.1,19.9-52.2,30.2-54.5c16.7,2.2,38.9,29.1,41.5,67.2c2.5,38.2-10.2,52.3-18.9,60.3
		c-8.7,8-20.7,3.3-26.6-1.8C471,242.2,451.4,223.6,450.6,176z"/>
	<path class="st12" d="M65.1,221.1c0.3-10.8,11-18.3,16.4-20.7c-4.1,43,10.2,99.4,17.8,122.1c-1.1,0.1-4.7,0.3-10.2,0
		c-6.9-0.4-10.1-9.7-15.2-24.1l-0.1-0.2C68.7,283.6,64.7,234.6,65.1,221.1z"/>
	<path class="st12" d="M473.2,106.2l-39.3-2.2c-5.5-11.3-17.8-36.5-25.1-48.7c-9.1-15.3-16.7-13.1-67.7-15.3
		c-40.7-1.7-126.3,16-164,25.1c11.2-8.6,44.2-27.8,86.9-36c53.5-10.2,117.1-6.9,133.8-5.5c16.7,1.5,25.1,3.3,36.7,18.5
		C444,54.5,464.2,90,473.2,106.2z"/>
	<path class="st14" d="M60,238.6c4.9-7.3,21.5-12.5,29.1-14.2c4.5,23.5,12.9,71.2,10.9,73.8c-2,2.6-23.9,1.1-34.6,0
		C61.6,281.3,55.1,245.8,60,238.6z"/>
	<path class="st14" d="M444.5,145.5c-4.7-2-20.1,0.8-27.3,2.5c-12.4,20.7,6.5,100,12.4,101.4c4.7,1.2,25-2.4,34.6-4.4l-5.8-11.3
		l-13.8-43.6C446.4,176.2,449.1,147.5,444.5,145.5z"/>
	<path class="st14" d="M449.9,148l24-33.4l28.7,5.8l15.6,25.1L527,204l-12,43.6c-7.8,4.4-23.6,13.1-24.7,13.1s-12.6-5.3-18.2-8
		l-13.8-24L447,190.2L449.9,148z"/>
	<path class="st14" d="M504.5,434.5c9.8-8.8,29.7-27,30.6-29.1l8.4,5.8l6.2,10.9L535,442.5l-14.5,2.9L504.5,434.5z"/>
	<path class="st12" d="M493.9,189.8c2-16-0.8-43.7-2.5-55.6c5.1,0,18.5,16.7,21.5,33.8c2.9,17.1,5.1,45.8-4.7,64
		c-7.9,14.5-20.7,15-26.2,13.4C485.1,233.6,491.9,205.8,493.9,189.8z"/>
	<path class="st0" d="M488.5,221.8c-14.5-2.9-18.7-25.4-18.9-36.4c-0.3-4.4,0-26.2,14.9-28.7c11.9-2,18.1,21.2,19.6,33.1
		C505,201.7,503,224.7,488.5,221.8z"/>
</g>
<defs>
	<filter id="Adobe_OpacityMaskFilter_3_" filterUnits="userSpaceOnUse" x="479" y="257.8" width="125.5" height="126.1">
		<feColorMatrix  type="matrix" values="1 0 0 0 0  0 1 0 0 0  0 0 1 0 0  0 0 0 1 0"/>
	</filter>
</defs>
<mask maskUnits="userSpaceOnUse" x="479" y="257.8" width="125.5" height="126.1" id="mask3_1_">
	<path class="st15" d="M521.9,379.2l-34.6-32.4l69.8-69.8c7.9-7.9,14.2-4.5,16.4-1.8l16.7,16.7c7.9,7.9,5.2,13.7,2.9,15.6
		L521.9,379.2z"/>
</mask>
<g class="st16">
	<path class="st17" d="M521.9,379.2l-34.6-32.4l69.8-69.8c7.9-7.9,14.2-4.5,16.4-1.8l16.7,16.7c7.9,7.9,5.2,13.7,2.9,15.6
		L521.9,379.2z"/>
	<path class="st18" d="M564.5,280.7l-74.2,76.3l-11.3-9.5c20.4-24.2,61.3-72.8,62.2-73.4c1.1-0.7,34.6-16.7,37.5-16.4
		c2.3,0.3,18.2,18.5,25.8,27.6l-4.4,22.9l-79.3,75.6l-8.4-8.4c22.8-22.5,69.6-68.8,74.6-73.4c4.9-4.7,3.8-10.2,2.5-12.4
		c-1.1-2.3-4.8-7.8-10.9-11.3C572.6,275,566.7,278.5,564.5,280.7z"/>
</g>
<defs>
	<filter id="Adobe_OpacityMaskFilter_4_" filterUnits="userSpaceOnUse" x="67.1" y="-10.8" width="456.3" height="528.2">
		<feColorMatrix  type="matrix" values="1 0 0 0 0  0 1 0 0 0  0 0 1 0 0  0 0 0 1 0"/>
	</filter>
</defs>
<mask maskUnits="userSpaceOnUse" x="67.1" y="-10.8" width="456.3" height="528.2" id="mask4_1_">
	<path class="st19" d="M134.9,372.3c-10.2-12.8-21-42.9-25.1-56.3c20.2,3.4,79.7,8.1,155.3,0c75.7-8.1,145.5-34.2,170.9-46.2
		c2.9,3.2,9.2,10,11.3,12c2.5,2.5,6.2,3.3,10.5,1.8c3.5-1.2,17.7-6.1,24.4-8.4c0.2,4.4,0.6,14.8,0,21.8c-0.7,8.7-7.3,34.5-9.1,39.6
		c-1.5,4.1-5.5,3.4-7.3,2.5c-1.8-1-8.4-1.8-20,2.5c-14.5,5.5-14.2,30.5-16.7,33.4c-2.5,2.9-5.1-0.7-11.3,2.5
		c-6.2,3.3-13.8-8.7-22.2-14.9c-8.4-6.2-20.7-8-32.4,0c-9.3,6.4-10.9,23.7-10.5,31.6c-35.3,3.4-114.6,9.5-149.9,6.5
		C158.9,397.4,147.7,388.3,134.9,372.3z"/>
	<path class="st5" d="M99.3,266.9c-2.3-15.7-3.2-42.2-3.3-53.4c98.1-49.7,252.1-71.1,316.8-75.6c-1.6,4.5-4.5,21.4-3.6,53.4
		c0.9,32,12.7,57.4,18.6,66.2c-21.5,10.3-81.4,33.4-149.5,43.3c-68.1,9.9-143.3,4.1-172.4,0C104.6,296,101.6,282.6,99.3,266.9z"/>
	<path class="st5" d="M397.9,64.8l17.8,29.8c-195.8,11.9-292.6,52.9-316.4,72c1.6-10.8,7.3-35.3,17.8-47.3
		c13.1-14.9,32.4-34.9,108.4-51.3c76-16.4,126.6-14.2,146.9-12.7C388.7,56.5,396.2,62.1,397.9,64.8z"/>
</mask>
<g class="st20">
	<path class="st5" d="M134.9,372.3c-10.2-12.8-21-42.9-25.1-56.3c20.2,3.4,79.7,8.1,155.3,0c75.7-8.1,145.5-34.2,170.9-46.2
		c2.9,3.2,9.2,10,11.3,12c2.5,2.5,6.2,3.3,10.5,1.8c3.5-1.2,17.7-6.1,24.4-8.4c0.2,4.4,0.6,14.8,0,21.8c-0.7,8.7-7.3,34.5-9.1,39.6
		c-1.5,4.1-5.5,3.4-7.3,2.5c-1.8-1-8.4-1.8-20,2.5c-14.5,5.5-14.2,30.5-16.7,33.4c-2.5,2.9-5.1-0.7-11.3,2.5
		c-6.2,3.3-13.8-8.7-22.2-14.9c-8.4-6.2-20.7-8-32.4,0c-9.3,6.4-10.9,23.7-10.5,31.6c-35.3,3.4-114.6,9.5-149.9,6.5
		C158.9,397.4,147.7,388.3,134.9,372.3z"/>
	<path class="st5" d="M99.3,266.9c-2.3-15.7-3.2-42.2-3.3-53.4c98.1-49.7,252.1-71.1,316.8-75.6c-1.6,4.5-4.5,21.4-3.6,53.4
		c0.9,32,12.7,57.4,18.6,66.2c-21.5,10.3-81.4,33.4-149.5,43.3c-68.1,9.9-143.3,4.1-172.4,0C104.6,296,101.6,282.6,99.3,266.9z"/>
	<path class="st5" d="M397.9,64.8l17.8,29.8c-195.8,11.9-292.6,52.9-316.4,72c1.6-10.8,7.3-35.3,17.8-47.3
		c13.1-14.9,32.4-34.9,108.4-51.3c76-16.4,126.6-14.2,146.9-12.7C388.7,56.5,396.2,62.1,397.9,64.8z"/>
	<path class="st4" d="M395.7,402.5C434.7,162.9,347,68.3,298.2,51l89.8-61.8c42.4,37.3,127.7,113.3,129.5,118.9
		c1.7,5.5,4.6,148.4,5.8,219.2C464.6,452.2,356.7,642.1,395.7,402.5z"/>
	<path class="st8" d="M127.3,308.3c-16-27.6-16.4-86.9-14.5-113c52.1-39.5,225.6-61.8,305.9-68L443,263.3
		C344.4,289.8,143.3,336,127.3,308.3z"/>
	<path class="st3" d="M174.2,400.3c-89.3-115.4-62-253.1-37.1-307.5c-18.5,0-50.2,39.6-66.9,115.2c-13.4,60.5,19.2,149,37.1,185.7
		C166.8,444,263.6,515.8,174.2,400.3z"/>
	
		<ellipse transform="matrix(0.9938 -0.1108 0.1108 0.9938 -25.7467 22.312)" class="st0" cx="187.8" cy="242.7" rx="34.5" ry="47.5"/>
	
		<ellipse transform="matrix(0.9938 -0.1108 0.1108 0.9938 -24.5037 23.2123)" class="st21" cx="196.5" cy="232" rx="16.1" ry="22.3"/>
	
		<ellipse transform="matrix(0.9938 -0.1108 0.1108 0.9938 -22.054 37.5451)" class="st0" cx="326.7" cy="217.1" rx="38.3" ry="53.1"/>
	
		<ellipse transform="matrix(0.9938 -0.1109 0.1109 0.9938 -20.5089 38.3388)" class="st21" cx="334.5" cy="203.6" rx="17.2" ry="23"/>
	<path class="st10" d="M302.6,165.1c-41.9,2.3-124.6,17.4-160.8,24.7l17.1-20.4l259.3-47.3l94.2,67.6
		c-43.3,39.9-126.7,112.2-114.2,82.5c12.5-29.7-6.7-85.8-17.8-110.1C372,162.2,344.5,162.8,302.6,165.1z"/>
</g>
<path class="st3" d="M80.7,189.1l-11.6,9.5c1.7-6.4,9.7-17.9,13.5-22.9L80.7,189.1z"/>
<path class="st5" d="M427,395.6l-5.5-4.4l5.5-2.2V395.6z"/>
<path class="st22" d="M764.5,213.8h-59.7v190.5c0,29.3,23.8,53.1,53.1,53.1h108.4c29.3,0,53.1-23.8,53.1-53.1V213.8h-61.8V389
	c0,10-8.1,18.2-18.2,18.2h-56.7c-10,0-18.2-8.1-18.2-18.2V213.8z"/>
<path class="st22" d="M962.4,213.8h60.4v240.6h-60.4V213.8z"/>
<path class="st22" d="M1189.4,213.8h60.4v240.6h-60.4V213.8z"/>
<path class="st22" d="M1115.2,213.8H1321v45.8h-205.9V213.8z"/>
<path class="st22" d="M1369,213.8h60.4v240.6H1369V213.8z"/>
<path class="st22" d="M1840.4,213.8h60.4v240.6h-60.4V213.8z"/>
<path class="st22" d="M1944.6,375.2h68.4l45.5,79.2h-68.4L1944.6,375.2z"/>
<path class="st22" d="M2001.2,213.8h-100.4v48h72.7c9.6,0,17.5,7.8,17.5,17.4v36.3c0,9.6-7.8,17.4-17.5,17.4h-72.7v48h100.4
	c28.5,0,51.7-23.1,51.7-51.6v-64C2052.8,236.9,2029.7,213.8,2001.2,213.8z"/>
<path class="st22" d="M2088.5,213.8h60.4v240.6h-60.4V213.8z"/>
<path class="st22" d="M2088.5,213.8h60.4v48h-60.4V213.8z"/>
<path class="st22" d="M2307.4,213.8h60.4v240.6h-60.4V213.8z"/>
<path class="st22" d="M2455.8,213.8h60.4v240.6h-60.4V213.8z"/>
<path class="st22" d="M1336.3,213.8h122.9v45.8h-122.9V213.8z"/>
<path class="st22" d="M2148.9,213.8h130.9v45.8h-130.9V213.8z"/>
<path class="st22" d="M2148.9,408.7h130.9v45.8h-130.9V408.7z"/>
<path class="st22" d="M2148.9,307.6h101.8v45.8h-101.8V307.6z"/>
<path class="st22" d="M1336.3,408.7h122.9v45.8h-122.9V408.7z"/>
<path class="st22" d="M2659.9,213.8v76l-29.1,77.1h29.1v44h-44.4l-14.9,43.6h-66.2l90.9-240.6H2659.9z"/>
<path class="st22" d="M2659.5,213.8v76l29.1,77.1h-29.1v44h44.4l14.9,43.6h66.2l-90.9-240.6H2659.5z"/>
<path class="st22" d="M2371.8,213.8h-4v96.7l84.4,143.9h3.6V356L2371.8,213.8z"/>
<path class="st22" d="M962.4,405h187.7v49.4H962.4V405z"/>
<path class="st23" d="M1696.8,213.8v76l-29.1,77.1h29.1v44h-44.4l-14.9,43.6h-66.2l90.9-240.6H1696.8z"/>
<path class="st23" d="M1696.4,213.8v76l29.1,77.1h-29.1v44h44.4l14.9,43.6h66.2l-90.9-240.6H1696.4z"/>
</svg>
