<?xml version="1.0" encoding="utf-8"?>
<!-- Generator: Adobe Illustrator 24.0.0, SVG Export Plug-In . SVG Version: 6.00 Build 0)  -->
<svg version="1.1" id="Layer_1" xmlns="http://www.w3.org/2000/svg" xmlns:xlink="http://www.w3.org/1999/xlink" x="0px" y="0px"
	 viewBox="0 0 292.8 512" style="enable-background:new 0 0 292.8 512;" xml:space="preserve">
<style type="text/css">
	.st0{fill:#D963ED;}
</style>
<title>2</title>
<g id="f967f3fc-8894-430e-a3ea-326903aadf6c">
	<g id="accdc93b-3bd4-4f52-8338-5366401f0a97">
		<path class="st0" d="M169,224V110.2c24.3,4.1,47.3,14.1,66.9,29.1c3.9,2.7,8.5,4.2,13.3,4.2c15.2,0,27.6-12.2,27.8-27.4
			c0-6.5-2.5-12.8-7.1-17.5C241.5,74.3,206,60,168.7,57.9V19.7C168.7,8.8,159.9,0,149,0h-0.7c-11-0.1-20.1,8.7-20.3,19.7v36.9
			C55.3,61.8,5.8,106.7,5.8,166.5c0,73.3,62.4,93.7,122.2,109.9v129.2c-31.6-4.2-61.3-17.3-85.7-37.8c-4.6-3.7-10.2-5.7-16.1-5.8
			C11.3,363-0.2,375.5,0,390.5c0,6.5,2.5,12.8,7.1,17.4c33.4,30.1,76.3,47.4,121.2,48.8v36.2c0.6,11,10,19.6,21,19.1
			c10.9,0,19.7-8.8,19.7-19.7l0,0v-36.2c88.3-5.9,123.8-59.5,123.8-116.4C292.8,263.4,228.8,240.2,169,224z M128.3,213.7
			c-35.2-10.4-62.7-21-62.7-51.1s24.9-51.7,62.7-54.6V213.7z M169,406.3V288.6c36.6,10.4,65,24.3,64.7,58.2
			C233.7,371.4,216.9,400.5,169,406.3z"/>
	</g>
</g>
</svg>
