<?xml version="1.0" encoding="utf-8"?>
<!-- Generator: Adobe Illustrator 24.0.0, SVG Export Plug-In . SVG Version: 6.00 Build 0)  -->
<svg version="1.1" id="Layer_1" xmlns="http://www.w3.org/2000/svg" xmlns:xlink="http://www.w3.org/1999/xlink" x="0px" y="0px"
	 viewBox="0 0 512 512" style="enable-background:new 0 0 512 512;" xml:space="preserve">
<style type="text/css">
	.st0{fill:#D963ED;}
</style>
<title>3</title>
<g id="febfe7d3-8fd6-4a3a-834e-3f5c1341baa5">
	<g id="e1514d18-1571-4c27-8ff9-43eae591e5f3">
		<g>
			<path class="st0" d="M90.1,395.9c-7.1,0-14,1.8-20.2,5.2C37.6,359.6,20.1,308.6,20,256C20,125.9,125.9,20,256,20
				c15.8,0,31.5,1.6,47,4.7c5.4,1.1,10.7-2.4,11.8-7.8c1.1-5.4-2.4-10.7-7.8-11.8C168.5-23.1,33.3,66.4,5.1,204.9
				c-15,73.9,3.3,150.6,50,209.8c-12.8,19.3-7.5,45.4,11.8,58.2c6.9,4.6,14.9,7,23.2,7c23.2,0,42-18.8,42-42S113.3,395.9,90.1,395.9
				L90.1,395.9z M105.6,453.5c-4.1,4.1-9.7,6.5-15.5,6.4c-12.1,0.1-21.9-9.7-22-21.8c0-0.1,0-0.1,0-0.2c0-12.2,9.8-22,22-22
				c12.2,0,22,9.9,22,22C112.1,443.8,109.7,449.4,105.6,453.5z"/>
			<path class="st0" d="M456.9,97.3c11.1-16.6,8.9-38.8-5.3-52.9c-16.4-16.4-43-16.4-59.4,0c-7.9,7.9-12.3,18.6-12.3,29.7
				c0,23.2,18.8,42,42,42c7.1,0,14-1.8,20.2-5.2c32.3,41.5,49.8,92.5,49.9,145.1c0,130.1-105.9,236-236,236
				c-15.6,0-31.3-1.5-46.6-4.6c-5.5-0.9-10.6,2.9-11.4,8.3c-0.8,5.2,2.5,10.1,7.5,11.3c16.6,3.3,33.5,5,50.5,5
				c141.4,0,256-114.6,256-256C512,198.4,492.6,142.5,456.9,97.3z M406.4,89.6c-4.2-4.1-6.5-9.7-6.5-15.5c0-5.9,2.3-11.5,6.5-15.6
				c8.6-8.5,22.5-8.5,31.1,0c8.6,8.6,8.6,22.5,0,31.1c-8.5,8.6-22.4,8.6-31,0.1C406.5,89.7,406.4,89.6,406.4,89.6z"/>
			<path class="st0" d="M214.7,428c0,5.5,4.5,10,10,10h62.6c5.5,0,10-4.5,10-10v-19.4c13.1-3.5,25.7-8.7,37.5-15.5l13.7,13.6
				c1.9,1.9,4.4,3,7.1,3c2.6,0,5.2-1.1,7-3l44.2-44.2c3.9-3.9,3.9-10.2,0-14.1l-13.7-13.7c6.9-11.7,12.1-24.4,15.6-37.5H428
				c5.5,0,10-4.5,10-10v-62.6c0-5.5-4.5-10-10-10h-19.3c-3.5-13.1-8.7-25.8-15.6-37.5l13.6-13.6c1.9-1.9,3-4.4,3-7.1
				c0-2.6-1.1-5.2-3-7l-44.2-44.2c-3.9-3.9-10.2-3.9-14.1,0l-13.6,13.6c-11.8-6.8-24.4-12.1-37.5-15.6V84c0-5.5-4.5-10-10-10h-62.6
				c-5.5,0-10,4.5-10,10v19.2c-13.1,3.5-25.7,8.8-37.5,15.6l-13.6-13.6c-3.9-3.9-10.2-3.9-14.1,0l-44.2,44.2c-3.9,3.8-4,10-0.2,13.9
				c0.1,0.1,0.2,0.2,0.2,0.2l13.6,13.6c-6.9,11.7-12.1,24.4-15.6,37.5H84c-5.5,0-10,4.5-10,10v62.6c0,2.6,1,5.2,2.9,7
				c1.9,1.9,4.4,3,7.1,3h19.3c3.5,13.1,8.7,25.8,15.6,37.5l-13.7,13.7c-3.9,3.9-3.9,10.2,0,14.1l44.2,44.2c1.8,1.9,4.4,3,7,3l0,0
				c2.7,0,5.2-1.1,7.1-3l13.7-13.6c11.8,6.8,24.4,12,37.5,15.5L214.7,428z M181.1,372c-4-2.5-9.2-2-12.5,1.4l-12.2,12.1l-30-30.1
				l12.2-12.1c3.3-3.4,3.8-8.5,1.3-12.5c-9.1-13.9-15.5-29.4-19-45.7c-0.9-4.6-5-7.9-9.7-7.9H94v-42.6h17.2c4.7,0,8.8-3.3,9.7-7.9
				c3.5-16.3,9.9-31.7,19-45.7c2.5-4,2-9.1-1.3-12.5l-12.1-12.1l30.1-30l12,12.1c3.3,3.3,8.5,3.9,12.5,1.3c14-9,29.4-15.4,45.7-18.9
				c4.6-1,7.9-5.1,7.9-9.8V94h42.6v17.1c0,4.7,3.3,8.8,7.9,9.8c16.3,3.5,31.7,9.9,45.7,18.9c4,2.6,9.2,2,12.5-1.3l12-12.1l30.1,30
				l-12.1,12.1c-3.3,3.4-3.8,8.5-1.3,12.5c9.1,14,15.5,29.4,19,45.7c0.9,4.6,5,7.9,9.7,7.9H418v42.6h-17.2c-4.7,0-8.8,3.3-9.7,7.9
				c-3.5,16.3-9.9,31.8-19,45.7c-2.5,4-2,9.1,1.3,12.5l12.2,12.1l-30.1,30.1l-12.1-12.1c-3.3-3.4-8.5-3.9-12.5-1.4
				c-14,9.1-29.4,15.5-45.7,19c-4.6,0.9-7.9,5-7.9,9.7V418h-42.6v-17.3c0-4.7-3.3-8.8-7.9-9.7C210.5,387.5,195.1,381.1,181.1,372z"
				/>
			<path class="st0" d="M338.6,256c0-45.6-37-82.6-82.6-82.6s-82.6,37-82.6,82.6s37,82.6,82.6,82.6S338.6,301.6,338.6,256L338.6,256
				z M193.4,256c0-34.6,28-62.6,62.6-62.6s62.6,28,62.6,62.6s-28,62.6-62.6,62.6C221.4,318.5,193.5,290.6,193.4,256L193.4,256z"/>
			<path class="st0" d="M348.1,37.8c2.6,0,5.2-1,7-2.9c3.9-3.9,3.9-10.2,0.1-14.1c-1.9-1.9-4.4-2.9-7.1-3c-2.7,0-5.2,1.1-7.1,2.9
				c-3.9,3.9-3.9,10.3,0,14.2C342.9,36.8,345.4,37.8,348.1,37.8z"/>
			<path class="st0" d="M164.4,474.4c-5.6,0-10.1,4.4-10.2,10c0,5.6,4.4,10.1,10,10.2c5.6,0,10.1-4.4,10.2-10c0-2.7-1.1-5.4-3-7.3
				C169.6,475.4,167,474.4,164.4,474.4z"/>
		</g>
	</g>
</g>
</svg>
