<?xml version="1.0" encoding="utf-8"?>
<!-- Generator: Adobe Illustrator 24.0.0, SVG Export Plug-In . SVG Version: 6.00 Build 0)  -->
<svg version="1.1" id="Layer_1" xmlns="http://www.w3.org/2000/svg" xmlns:xlink="http://www.w3.org/1999/xlink" x="0px" y="0px"
	 viewBox="0 0 512 511.8" style="enable-background:new 0 0 512 511.8;" xml:space="preserve">
<style type="text/css">
	.st0{fill:#D963ED;}
</style>
<title>4</title>
<g id="b49190a2-ffdf-4e6e-80a7-c6da92cf64c0">
	<g id="e354a9eb-d6bc-4e1a-8dc7-5ebd9c049b7a">
		<g>
			<path class="st0" d="M485.3,458.5h-7.5V227.9c0-10.5-8.5-19-19-19l0,0H322.7V25.4c0-14-11.4-25.4-25.4-25.4c0,0,0,0,0,0H59.6
				c-14,0-25.4,11.4-25.4,25.4v433.1h-7.5c-14.7-0.9-27.4,10.3-28.3,25s10.3,27.4,25,28.3c1.1,0.1,2.2,0.1,3.3,0h458.6
				c14.7,0.9,27.4-10.3,28.3-25c0.9-14.7-10.3-27.4-25-28.3C487.5,458.4,486.4,458.4,485.3,458.5z M49.2,25.4
				c0-5.7,4.7-10.4,10.4-10.4h237.7c5.7,0,10.4,4.7,10.4,10.4v183.5h-64c-10.5,0-19,8.5-19,19l0,0v172.5c0,4.1,3.4,7.5,7.5,7.5
				s7.5-3.4,7.5-7.5V227.9c0-2.2,1.8-4,4-4h215.1c2.2,0,4,1.8,4,4v230.6H239.7v-23.1c0-4.1-3.4-7.5-7.5-7.5s-7.5,3.4-7.5,7.5v23.1
				H49.2V25.4z M485.3,496.8H26.7c-6.4,0.6-12.1-4.1-12.7-10.6c-0.6-6.4,4.1-12.1,10.6-12.7c0.7-0.1,1.4-0.1,2.2,0h458.6
				c6.4-0.6,12.1,4.1,12.7,10.6c0.6,6.4-4.1,12.1-10.6,12.7C486.7,496.9,486,496.9,485.3,496.8z"/>
			<path class="st0" d="M117.3,45.7H86.6c-8.2,0-14.9,6.7-14.9,14.9v30.7c0,8.2,6.7,14.9,14.9,14.9l0,0h30.7
				c8.2,0,14.9-6.7,14.9-14.9V60.6C132.2,52.4,125.5,45.7,117.3,45.7z M117.2,91.2H86.7V60.7h30.5L117.2,91.2z"/>
			<path class="st0" d="M193.8,45.7h-30.7c-8.2,0-14.9,6.7-14.9,14.9v30.7c0,8.2,6.7,14.9,14.9,14.9h30.7c8.2,0,14.9-6.7,14.9-14.9
				V60.6C208.7,52.4,202,45.7,193.8,45.7z M193.7,91.2h-30.5V60.7h30.5V91.2z"/>
			<path class="st0" d="M239.6,106.2h30.7c8.2,0,14.9-6.7,14.9-14.9V60.6c0-8.2-6.7-14.9-14.9-14.9h-30.7c-8.2,0-14.9,6.7-14.9,14.9
				v30.7C224.7,99.5,231.4,106.2,239.6,106.2z M239.7,60.7h30.5v30.5h-30.5L239.7,60.7z"/>
			<path class="st0" d="M117.3,139.3H86.6c-8.2,0-14.9,6.7-14.9,14.9V185c0.1,8.2,6.7,14.8,14.9,14.8h30.7c8.2,0,14.8-6.6,14.9-14.8
				v-30.8C132.2,146,125.5,139.3,117.3,139.3z M117.2,184.8H86.7v-30.5h30.5L117.2,184.8z"/>
			<path class="st0" d="M193.8,139.3h-30.7c-8.2,0-14.9,6.7-14.9,14.9V185c0.1,8.2,6.7,14.8,14.9,14.8h30.7
				c8.2,0,14.8-6.6,14.9-14.8v-30.8C208.7,146,202,139.3,193.8,139.3z M193.7,184.8h-30.5v-30.5h30.5V184.8z"/>
			<path class="st0" d="M239.6,199.8h30.7c8.2,0,14.8-6.6,14.9-14.8v-30.8c0-8.2-6.7-14.9-14.9-14.9h-30.7
				c-8.2,0-14.9,6.7-14.9,14.9V185C224.8,193.2,231.4,199.8,239.6,199.8z M239.7,154.3h30.5v30.5h-30.5L239.7,154.3z"/>
			<path class="st0" d="M117.3,233H86.6c-8.2,0-14.8,6.6-14.9,14.8v30.8c0.1,8.2,6.7,14.8,14.9,14.8h30.7c8.2,0,14.8-6.6,14.9-14.8
				v-30.8C132.1,239.6,125.5,233,117.3,233z M117.2,278.4H86.7V248h30.5L117.2,278.4z"/>
			<path class="st0" d="M193.8,233h-30.7c-8.2,0-14.8,6.6-14.9,14.8v30.8c0.1,8.2,6.7,14.8,14.9,14.8h30.7c8.2,0,14.8-6.6,14.9-14.8
				v-30.8C208.6,239.6,202,233,193.8,233z M193.7,278.4h-30.5V248h30.5V278.4z"/>
			<path class="st0" d="M117.3,326.6H86.6c-8.2,0-14.8,6.6-14.9,14.8v30.8c0,8.2,6.7,14.9,14.9,14.9h30.7c8.2,0,14.9-6.7,14.9-14.9
				v-30.8C132.1,333.2,125.5,326.6,117.3,326.6z M117.2,372.1H86.7v-30.5h30.5L117.2,372.1z"/>
			<path class="st0" d="M193.8,326.6h-30.7c-8.2,0-14.8,6.6-14.9,14.8v30.8c0,8.2,6.7,14.9,14.9,14.9h30.7c8.2,0,14.9-6.7,14.9-14.9
				v-30.8C208.6,333.2,202,326.6,193.8,326.6z M193.7,372.1h-30.5v-30.5h30.5V372.1z"/>
			<path class="st0" d="M270.2,302.8h29.1c7.1,0,12.8-5.7,12.8-12.8v-28.4c0-7.1-5.7-12.8-12.8-12.8h-29.1
				c-7.1-0.1-12.8,5.6-12.9,12.7c0,0,0,0.1,0,0.1V290C257.4,297.1,263.1,302.8,270.2,302.8z M272.3,263.8h24.8v24h-24.8L272.3,263.8
				z"/>
			<path class="st0" d="M270.2,364.1h29.1c7.1,0,12.8-5.7,12.8-12.8v-28.4c0-7.1-5.7-12.8-12.8-12.8h-29.1
				c-7.1-0.1-12.8,5.6-12.9,12.7c0,0,0,0.1,0,0.1v28.4c0,7.1,5.7,12.8,12.8,12.8C270.1,364.1,270.2,364.1,270.2,364.1z M272.3,325.1
				h24.8v24h-24.8L272.3,325.1z"/>
			<path class="st0" d="M270.2,425.4h29.1c7.1,0,12.8-5.7,12.8-12.8v-28.4c0-7.1-5.7-12.8-12.8-12.8h-29.1
				c-7.1-0.1-12.8,5.6-12.9,12.7c0,0,0,0.1,0,0.1v28.4c0,7.1,5.7,12.8,12.8,12.8C270.1,425.4,270.2,425.4,270.2,425.4z M272.3,386.4
				h24.8v24h-24.8L272.3,386.4z"/>
			<path class="st0" d="M336.7,302.8h29.1c7.1,0,12.8-5.7,12.9-12.8v-28.4c0-7.1-5.7-12.8-12.8-12.8c0,0-0.1,0-0.1,0h-29.1
				c-7.1,0-12.8,5.7-12.8,12.8V290C323.9,297.1,329.6,302.8,336.7,302.8z M338.9,263.8h24.8v24h-24.8L338.9,263.8z"/>
			<path class="st0" d="M336.7,364.1h29.1c7.1,0.1,12.8-5.6,12.9-12.7c0,0,0-0.1,0-0.1v-28.4c0-7.1-5.7-12.8-12.8-12.8
				c0,0-0.1,0-0.1,0h-29.1c-7.1,0-12.8,5.7-12.8,12.8v28.4C323.9,358.4,329.6,364.1,336.7,364.1L336.7,364.1z M338.9,325.1h24.8v24
				h-24.8L338.9,325.1z"/>
			<path class="st0" d="M336.7,425.4h29.1c7.1,0.1,12.8-5.6,12.9-12.7c0,0,0-0.1,0-0.1v-28.4c0-7.1-5.7-12.8-12.8-12.8
				c0,0-0.1,0-0.1,0h-29.1c-7.1,0-12.8,5.7-12.8,12.8v28.4C323.9,419.7,329.6,425.4,336.7,425.4z M338.9,386.4h24.8v24h-24.8
				L338.9,386.4z"/>
			<path class="st0" d="M403.2,302.8h29.2c7.1,0,12.8-5.7,12.8-12.8v-28.4c0-7.1-5.7-12.8-12.8-12.8h-29.2
				c-7.1,0-12.8,5.7-12.8,12.8V290C390.5,297,396.2,302.7,403.2,302.8z M405.4,263.8h24.8v24h-24.8L405.4,263.8z"/>
			<path class="st0" d="M403.2,364.1h29.2c7.1,0,12.8-5.7,12.8-12.8v-28.4c0-7.1-5.7-12.8-12.8-12.8h-29.2
				c-7.1,0-12.8,5.7-12.8,12.8v28.4C390.4,358.4,396.1,364.1,403.2,364.1L403.2,364.1z M405.4,325.1h24.8v24h-24.8L405.4,325.1z"/>
			<path class="st0" d="M403.2,425.4h29.2c7.1,0,12.8-5.7,12.8-12.8v-28.4c0-7.1-5.7-12.8-12.8-12.8h-29.2
				c-7.1,0-12.8,5.7-12.8,12.8v28.4C390.4,419.7,396.1,425.4,403.2,425.4z M405.4,386.4h24.8v24h-24.8L405.4,386.4z"/>
			<path class="st0" d="M409.2,173.7c5.1,3.8,12.1,3.8,17.2,0c13-9.5,44.1-35.4,52.9-71.9c1-4-1.5-8.1-5.6-9.1c-4-1-8.1,1.5-9,5.6
				c-7.8,32.2-37.5,56.2-46.9,63.1c-11.8-8.6-48.8-39-48.8-78.9c-0.1-27,21.7-48.9,48.6-49c21.2-0.1,40,13.5,46.6,33.7
				c1.7,3.8,6.1,5.5,9.9,3.9c3.3-1.4,5.1-5,4.3-8.5c-11-33.5-47.1-51.7-80.6-40.6C371.7,30.6,354,55,354,82.5
				C354,129.7,396.3,164.2,409.2,173.7z"/>
			<path class="st0" d="M417.8,47c-19.6,0-35.5,15.9-35.5,35.5s15.9,35.5,35.5,35.5s35.5-15.9,35.5-35.5
				C453.2,62.9,437.4,47.1,417.8,47z M417.8,103c-11.3,0-20.5-9.2-20.5-20.5S406.5,62,417.8,62s20.5,9.2,20.5,20.5
				S429.1,103,417.8,103z"/>
		</g>
	</g>
</g>
</svg>
