<?xml version="1.0" encoding="utf-8"?>
<!-- Generator: Adobe Illustrator 24.3.0, SVG Export Plug-In . SVG Version: 6.00 Build 0)  -->
<svg version="1.1" id="Layer_1" xmlns="http://www.w3.org/2000/svg" xmlns:xlink="http://www.w3.org/1999/xlink" x="0px" y="0px"
	 viewBox="0 0 64 64" style="enable-background:new 0 0 64 64;" xml:space="preserve">
<style type="text/css">
	.st0{fill-rule:evenodd;clip-rule:evenodd;fill:#DA62EC;}
	.st1{opacity:9.560430e-02;fill:#DA62EC;enable-background:new    ;}
	.st2{fill:#DA62EC;}
</style>
<path class="st0" d="M58.4,22.7C56.4,9.8,45.4,0,32,0S7.6,9.8,5.6,22.7l-0.3,0C2.4,22.7,0,25.1,0,28v5.3c0,2.9,2.4,5.3,5.3,5.3
	l0.3,0c1.8,12,11.2,21.9,21.3,22.6c0.5,1.6,2,2.7,3.8,2.7h2.7c2.2,0,4-1.8,4-4s-1.8-4-4-4h-2.7c-1.7,0-3.2,1.1-3.8,2.6
	C17.2,57.8,8,46.9,8,34.7v-8l0-0.4C8.2,13.2,18.9,2.7,32,2.7c13.3,0,24,10.7,24,24v10.7c0,0.7,0.6,1.3,1.3,1.3h1.3
	c2.9,0,5.3-2.4,5.3-5.3V28c0-2.9-2.4-5.3-5.3-5.3L58.4,22.7z M29.3,60c0-0.7,0.6-1.3,1.3-1.3h2.7c0.7,0,1.3,0.6,1.3,1.3
	s-0.6,1.3-1.3,1.3h-2.7C29.9,61.3,29.3,60.7,29.3,60z M5.3,25.3c-1.5,0-2.7,1.2-2.7,2.7v5.3c0,1.5,1.2,2.7,2.7,2.7V25.3z M58.7,36
	V25.3c1.5,0,2.7,1.2,2.7,2.7v5.3C61.3,34.8,60.1,36,58.7,36z"/>
<path class="st1" d="M32,7c11,0,20,9,20,20v8c0,11-9,20-20,20s-20-9-20-20v-8C12,16,21,7,32,7z"/>
<path class="st2" d="M40.5,36.7c-1.5,2.8-4.6,4.6-8,4.6s-6.6-1.8-8-4.6c-0.3-0.6-1.1-0.9-1.8-0.5c-0.6,0.3-0.9,1.2-0.5,1.8
	c1.9,3.7,5.9,6,10.3,6s8.4-2.4,10.3-6c0.3-0.6,0.1-1.5-0.5-1.8C41.7,35.8,40.9,36.1,40.5,36.7z"/>
</svg>
