<?xml version="1.0" encoding="utf-8"?>
<!-- Generator: Adobe Illustrator 24.3.0, SVG Export Plug-In . SVG Version: 6.00 Build 0)  -->
<svg version="1.1" id="Layer_1" xmlns="http://www.w3.org/2000/svg" xmlns:xlink="http://www.w3.org/1999/xlink" x="0px" y="0px"
	 viewBox="0 0 58 58" style="enable-background:new 0 0 58 58;" xml:space="preserve">
<style type="text/css">
	.st0{opacity:9.987970e-02;fill-rule:evenodd;clip-rule:evenodd;fill:#DA62EC;enable-background:new    ;}
	.st1{fill-rule:evenodd;clip-rule:evenodd;fill:#DA62EC;}
</style>
<path class="st0" d="M46,29c0-9.4-7.6-17-17-17s-17,7.6-17,17s7.6,17,17,17S46,38.4,46,29z M21.7,29c0-4,3.3-7.3,7.3-7.3
	s7.3,3.3,7.3,7.3S33,36.3,29,36.3S21.7,33,21.7,29z"/>
<path class="st1" d="M15.5,56.5c2.4,2.2,6.2,2,8.3-0.4l2.5-2.8c0.1-0.1,0.2-0.2,0.3-0.3c1.5-1.3,3.8-1.2,5.1,0.3l2.5,2.8
	c1.2,1.3,2.9,2,4.7,1.9c3.3-0.2,5.8-2.9,5.6-6.2l-0.2-3.7c0-0.1,0-0.2,0-0.4c0.1-2,1.8-3.5,3.8-3.4l3.7,0.2c1.8,0.1,3.5-0.6,4.7-1.9
	c2.2-2.4,2-6.2-0.4-8.3l-2.8-2.5c-0.1-0.1-0.2-0.2-0.3-0.3c-1.3-1.5-1.2-3.8,0.3-5.1l2.8-2.5c1.3-1.2,2-2.9,1.9-4.7
	c-0.2-3.3-2.9-5.8-6.2-5.6l-3.7,0.2c-0.1,0-0.2,0-0.4,0c-2-0.1-3.5-1.8-3.4-3.8l0.2-3.7c0.1-1.8-0.6-3.5-1.9-4.7
	c-2.4-2.2-6.2-2-8.3,0.4l-2.5,2.8c-0.1,0.1-0.2,0.2-0.3,0.3c-1.5,1.3-3.8,1.2-5.1-0.3L23.8,2c-1.2-1.3-2.9-2-4.7-1.9
	c-3.3,0.2-5.8,2.9-5.6,6.2l0.2,3.7c0,0.1,0,0.2,0,0.4c-0.1,2-1.8,3.5-3.8,3.4l-3.7-0.2c-1.8-0.1-3.5,0.6-4.7,1.9
	c-2.2,2.4-2,6.2,0.4,8.3l2.8,2.5c0.1,0.1,0.2,0.2,0.3,0.3c1.3,1.5,1.2,3.8-0.3,5.1L2,34.2c-1.3,1.2-2,2.9-1.9,4.7
	c0.2,3.3,2.9,5.8,6.2,5.6l3.7-0.2c0.1,0,0.2,0,0.4,0c2,0.1,3.5,1.8,3.4,3.8l-0.2,3.7C13.4,53.6,14.2,55.3,15.5,56.5z M33.5,51.7
	c-2.2-2.5-6.1-2.7-8.5-0.4c-0.2,0.1-0.3,0.3-0.4,0.4L22,54.4c-1.3,1.4-3.5,1.5-4.9,0.3c-0.8-0.7-1.2-1.7-1.1-2.8l0.2-3.7
	c0.2-3.3-2.4-6.2-5.7-6.3c-0.2,0-0.4,0-0.6,0l-3.7,0.2c-1.9,0.1-3.6-1.4-3.7-3.3c-0.1-1,0.4-2.1,1.1-2.8l2.8-2.5
	C8.8,31.2,9,27.4,6.8,25c-0.1-0.2-0.3-0.3-0.4-0.4L3.6,22c-1.4-1.3-1.5-3.5-0.3-4.9C4,16.3,5,15.9,6.1,15.9l3.7,0.2
	c3.3,0.2,6.2-2.4,6.3-5.7c0-0.2,0-0.4,0-0.6l-0.2-3.7c-0.1-1.9,1.4-3.6,3.3-3.7c1-0.1,2.1,0.4,2.8,1.1l2.5,2.8
	C26.8,8.8,30.6,9,33,6.8c0.2-0.1,0.3-0.3,0.4-0.4L36,3.6c1.3-1.4,3.5-1.5,4.9-0.3C41.7,4,42.1,5,42.1,6.1l-0.2,3.7
	c-0.2,3.3,2.4,6.2,5.7,6.3c0.2,0,0.4,0,0.6,0l3.7-0.2c1.9-0.1,3.6,1.4,3.7,3.3c0.1,1-0.4,2.1-1.1,2.8l-2.8,2.5
	c-2.5,2.2-2.7,6.1-0.4,8.5c0.1,0.2,0.3,0.3,0.4,0.4l2.8,2.5c1.4,1.3,1.5,3.5,0.3,4.9c-0.7,0.8-1.7,1.2-2.8,1.1l-3.7-0.2
	c-3.3-0.2-6.2,2.4-6.3,5.7c0,0.2,0,0.4,0,0.6l0.2,3.7c0.1,1.9-1.4,3.6-3.3,3.7c-1,0.1-2.1-0.4-2.8-1.1L33.5,51.7z"/>
<path class="st1" d="M38,29.5c0,4.7-3.8,8.5-8.5,8.5S21,34.2,21,29.5s3.8-8.5,8.5-8.5S38,24.8,38,29.5z M23.4,29.5
	c0,3.4,2.7,6.1,6.1,6.1s6.1-2.7,6.1-6.1s-2.7-6.1-6.1-6.1S23.4,26.1,23.4,29.5z"/>
</svg>
