<?xml version="1.0" encoding="utf-8"?>
<!-- Generator: Adobe Illustrator 24.3.0, SVG Export Plug-In . SVG Version: 6.00 Build 0)  -->
<svg version="1.1" id="Layer_1" xmlns="http://www.w3.org/2000/svg" xmlns:xlink="http://www.w3.org/1999/xlink" x="0px" y="0px"
	 viewBox="0 0 60 60" style="enable-background:new 0 0 60 60;" xml:space="preserve">
<style type="text/css">
	.st0{fill-rule:evenodd;clip-rule:evenodd;fill:#DA62EC;}
	.st1{opacity:0.1023;fill-rule:evenodd;clip-rule:evenodd;fill:#DA62EC;enable-background:new    ;}
</style>
<path class="st0" d="M52.9,0H7.1C3.2,0,0,3.2,0,7.1v45.7C0,56.8,3.2,60,7.1,60h45.7c3.9,0,7.1-3.2,7.1-7.1V7.1C60,3.2,56.8,0,52.9,0
	z M2.9,7.1c0-2.4,1.9-4.3,4.3-4.3h45.7c2.4,0,4.3,1.9,4.3,4.3v45.7c0,2.4-1.9,4.3-4.3,4.3H7.1c-2.4,0-4.3-1.9-4.3-4.3V7.1z"/>
<path class="st1" d="M53,16.9c0-1.6-1.3-2.9-2.9-2.9H9.9C8.3,14,7,15.3,7,16.9v11.6c0,1.6,1.3,2.9,2.9,2.9h40.2
	c1.6,0,2.9-1.3,2.9-2.9V16.9z M18.5,35.7c1.6,0,2.9,1.3,2.9,2.9v11.6c0,1.6-1.3,2.9-2.9,2.9H9.9C8.3,53,7,51.7,7,50.1V38.6
	c0-1.6,1.3-2.9,2.9-2.9H18.5z M50.1,35.7c1.6,0,2.9,1.3,2.9,2.9v11.6c0,1.6-1.3,2.9-2.9,2.9H28.6c-1.6,0-2.9-1.3-2.9-2.9V38.6
	c0-1.6,1.3-2.9,2.9-2.9H50.1z"/>
<path class="st0" d="M8.5,7h1.5c0.8,0,1.5,0.7,1.5,1.5c0,0.8-0.6,1.4-1.3,1.5l-0.2,0H8.5C7.7,10,7,9.3,7,8.5C7,7.7,7.6,7.1,8.3,7
	L8.5,7z M15.8,7h1.5c0.8,0,1.5,0.7,1.5,1.5c0,0.8-0.6,1.4-1.3,1.5l-0.2,0h-1.5c-0.8,0-1.5-0.7-1.5-1.5c0-0.8,0.6-1.4,1.3-1.5L15.8,7
	z M26,8.5C26,7.7,25.3,7,24.5,7h-1.5c-0.8,0-1.5,0.7-1.5,1.5s0.7,1.5,1.5,1.5h1.5C25.3,10,26,9.3,26,8.5z"/>
</svg>
