<?xml version="1.0" encoding="utf-8"?>
<!-- Generator: Adobe Illustrator 24.3.0, SVG Export Plug-In . SVG Version: 6.00 Build 0)  -->
<svg version="1.1" id="Layer_1" xmlns="http://www.w3.org/2000/svg" xmlns:xlink="http://www.w3.org/1999/xlink" x="0px" y="0px"
	 viewBox="0 0 77 63" style="enable-background:new 0 0 77 63;" xml:space="preserve">
<style type="text/css">
	.st0{fill:#DA62EC;}
	.st1{fill-rule:evenodd;clip-rule:evenodd;fill:#DA62EC;}
</style>
<path class="st0" d="M76.5,33.9c0-7.2-5.9-13.1-13.3-13.1c-0.3,0-0.7,0-1,0c0.2-0.9,0.3-2,0.3-3C62.5,8,54.5,0,44.7,0
	c-8.7,0-15.9,6.1-17.5,14.3c-2.7-1.5-5.7-2.4-8.9-2.4c-9.7,0-17.7,7.9-17.7,17.6c0,8.6,6.2,15.9,14.7,17.3h0.3
	c0.9,0,1.5-0.6,1.7-1.4c0.2-0.9-0.4-1.8-1.4-2C9,42.2,4,36.3,4,29.4c0-7.8,6.4-14.2,14.3-14.2c3.3,0,6.6,1.2,9.1,3.3
	c0.9,0.8,2.6,0.5,2.8-1.3c0.3-7.8,6.6-13.9,14.4-13.9c8,0,14.4,6.4,14.4,14.3c0,1.6-0.3,3.1-0.8,4.6c-0.3,1.1,0.5,2.5,2.1,2.2
	c0.9-0.3,1.9-0.4,2.8-0.4c5.4,0,9.8,4.4,9.8,9.8c0,5.3-4.4,9.8-9.8,9.8h-3.2c-0.9,0-1.7,0.8-1.7,1.7c0,0.9,0.8,1.7,1.7,1.7h3.2
	C70.6,47,76.5,41.1,76.5,33.9z"/>
<path class="st1" d="M21.6,46c0-9.4,7.9-17,17.5-17s17.5,7.7,17.5,17S48.7,63,39,63C29.3,63,21.6,55.4,21.6,46z M25,46
	c0,7.5,6.3,13.6,14,13.6s14-6.1,14-13.6s-6.3-13.6-14-13.6S25,38.5,25,46z"/>
<path class="st0" d="M46,39.3l-10.1,9.8l-3.7-3.6c-0.7-0.7-1.7-0.7-2.4,0c-0.7,0.7-0.7,1.7,0,2.4l6.2,6.1l12.6-12.2
	c0.7-0.7,0.7-1.7,0-2.4C47.8,38.7,46.7,38.7,46,39.3z"/>
</svg>
